<svg width="194" height="34" viewBox="0 0 194 34" fill="none" xmlns="http://www.w3.org/2000/svg">
<path fill-rule="evenodd" clip-rule="evenodd" d="M189.299 6.07723V17.8687H187.012V8.61431H183.686V17.8687H181.085V8.61431H177.64V17.8687H174.735V20.1629H194V17.8687H192.816V6.54744C192.816 4.73376 192.038 3.83984 190.04 3.83984H175.441V6.07723H189.299Z" fill="white"/>
<path fill-rule="evenodd" clip-rule="evenodd" d="M142.73 3.84375H146.103V20.7352H142.73V12.2972H141.149V20.7352H137.956V18.8389L130.165 19.1127C128.784 19.1386 127.77 18.1206 127.744 16.8134V3.84375H135.979V6.20515H131.256V16.8134L137.905 16.5808V3.84375H141.144V9.786H142.725V3.84375H142.73Z" fill="white"/>
<path fill-rule="evenodd" clip-rule="evenodd" d="M103.731 3.84375V6.20515H118.109L118.125 10.1322H103.098V12.2972H110.503V15.0255H103.541V17.2267H118.243V21.0143H121.904V16.7927C121.904 15.8626 121.359 15.0255 120.179 15.0255H114.499V12.2972H122.78V10.127H121.642L121.657 6.67536C121.657 4.7325 120.437 3.84892 119.041 3.84892H103.731V3.84375Z" fill="white"/>
<path fill-rule="evenodd" clip-rule="evenodd" d="M151.963 15.0312V17.3207H166.13V20.7367H169.699V17.1191C169.699 15.9563 169.06 15.0312 167.526 15.0312H151.963Z" fill="white"/>
<path fill-rule="evenodd" clip-rule="evenodd" d="M166.022 3.84375V14.1626H169.57V10.3079H172.155V8.01366H169.57V3.84375H166.022Z" fill="white"/>
<path fill-rule="evenodd" clip-rule="evenodd" d="M161.763 6.46458H164.663L164.647 4.28403H159.987V3.08008L156.119 3.09041V4.28403H151.088L151.119 6.46458H153.817C152.169 7.24999 151.093 8.50044 151.093 9.91625C151.093 12.288 154.09 14.2102 157.788 14.2102C161.485 14.2102 164.487 12.288 164.487 9.91625C164.487 8.50044 163.411 7.24999 161.763 6.46458ZM157.788 12.1278C156.042 12.1278 154.636 11.084 154.636 9.7974C154.636 8.51078 156.047 7.46701 157.788 7.46701C159.528 7.46701 160.944 8.51078 160.944 9.7974C160.944 11.084 159.533 12.1278 157.788 12.1278Z" fill="white"/>
<path fill-rule="evenodd" clip-rule="evenodd" d="M90.4394 6.20515V3.84375H78.7393V11.1915C78.7393 12.2611 79.4345 13.217 80.7116 13.217L94.1936 12.7055V10.4061L82.2514 10.9176V6.20515H90.4446H90.4394Z" fill="white"/>
<path d="M91.3611 18.4365H83.3739V14.8086H79.6455V18.3693C79.6455 20.1368 80.4231 20.7362 81.4273 20.7414H97.0515V18.4417H91.356L91.3611 18.4365Z" fill="white"/>
<path d="M99.7502 11.641V9.27961H97.0569V3.84375H93.5293V16.0124H97.0569V11.641H99.7502Z" fill="white"/>
<path d="M40.1831 15.2845L43.448 0.0465046H38.1284L35.6102 13.1608V0.0465046H29.9455V21.8933C33.3082 20.7204 36.9594 19.3717 40.6775 17.8733L40.178 15.2793L40.1831 15.2845ZM49.1797 13.9875C49.1797 12.7681 49.9624 11.7346 51.0542 11.3626V0H45.3792V15.9201C46.6563 15.3672 47.9283 14.7988 49.1951 14.2149C49.19 14.1426 49.1848 14.065 49.1848 13.9927L49.1797 13.9875ZM72.719 3.84954C72.1422 2.25805 66.7247 2.50091 58.5624 4.28875V0H52.8463V11.3626C53.2222 11.4918 53.5621 11.6985 53.8453 11.9672C55.0246 11.3729 56.1781 10.7632 57.3111 10.138C58.3204 9.59544 58.5676 8.64985 58.5676 8.12796V5.02766C64.7266 3.71003 68.8001 3.43617 69.1914 4.47994C69.5519 5.43587 66.8071 7.42523 62.0591 9.91064C59.958 11.0112 57.4655 12.21 54.6744 13.4657C54.7053 13.6362 54.7259 13.8067 54.7259 13.9824C54.7259 15.2018 53.9431 16.2353 52.8514 16.6125V28.3109C52.8514 28.993 52.5836 29.4477 51.9348 29.4477C51.2859 29.4477 51.0645 28.993 51.0645 28.3109V16.6125C50.5186 16.4264 50.05 16.0751 49.7204 15.6152C45.8375 17.2429 41.5684 18.9119 37.0984 20.5395C33.5297 21.8365 30.0588 23.0198 26.7836 24.0739C26.7578 24.079 26.7372 24.0894 26.7115 24.0945C24.7288 24.7301 22.8234 25.314 21.0107 25.841V28.2179C21.0107 29.8456 20.4649 29.8456 19.3834 29.8456V3.98389C20.4649 3.98389 21.0107 3.98389 21.0107 5.61155V24.8541C22.7204 24.3219 24.6361 23.707 26.7115 23.0094V5.18267C26.7012 -0.0671733 21.8347 0.0723404 21.8347 0.0723404H13.6775V20.307C4.76853 24.7508 -0.58717 28.621 0.0513943 30.383C0.617863 31.9383 5.81907 31.7936 13.6775 30.166V33.8191H21.8707C21.8707 33.8191 26.7063 34.0207 26.7063 28.5228V26.797C27.7672 26.4766 28.8537 26.1407 29.9506 25.7894V33.8036H35.6153V23.893C35.8419 23.8103 36.0685 23.7328 36.2951 23.6502L37.8966 33.8036H43.7364L41.4242 21.7693C42.7734 21.2578 44.0866 20.741 45.3792 20.2191V28.7553C45.3792 33.1836 49.1127 34 51.9811 34C54.8495 34 58.5624 33.1784 58.5624 28.7036V14.3286C67.801 9.71945 73.373 5.65289 72.719 3.84954ZM13.6775 27.8097C7.54423 29.272 3.53775 29.6647 3.17727 28.6106C2.77559 27.4429 6.89536 24.5647 13.6775 21.1234V27.8046V27.8097Z" fill="white"/>
<path d="M79.6453 24.0474H82.3386C82.7712 24.0474 83.1625 24.1611 83.5076 24.3781C83.8526 24.6003 84.0277 24.9414 84.0277 25.4064V29.6177C84.0277 30.0465 83.8681 30.3824 83.5436 30.6201C83.2243 30.8578 82.8278 30.9766 82.354 30.9766H79.6401V24.0371L79.6453 24.0474ZM82.3952 25.3031C82.3952 25.2204 82.3643 25.1429 82.2922 25.0757C82.2253 25.0085 82.1378 24.9672 82.0348 24.9465C82.0245 24.9414 81.8957 24.9414 81.6485 24.9465C81.4065 24.9465 81.2778 24.9465 81.2623 24.9465V30.1085H81.6434C81.8854 30.1085 82.009 30.1085 82.0245 30.0982C82.1275 30.0775 82.215 30.0362 82.2871 29.9742C82.3592 29.9122 82.3901 29.8295 82.3901 29.7417V25.3082L82.3952 25.3031Z" fill="white"/>
<path d="M87.9932 30.9974H86.3813L87.9572 24.0527H89.9758L91.5517 30.9974H89.9398L88.9665 26.1041L87.9932 30.9974ZM88.2043 29.1114V28.1555H89.8986V29.1114H88.2043Z" fill="white"/>
<path d="M97.0614 30.9877L95.2899 26.8952V30.9877H93.9355V24.043H95.7791L97.3756 28.2387V24.043H98.7248V30.9877H97.0666H97.0614Z" fill="white"/>
<path d="M103.957 30.9974L102.768 28.4035V30.9974H101.156V24.0527H102.768V26.3728L104.024 24.0527H105.646L103.978 27.2202L105.837 31.0026H103.957V30.9974Z" fill="white"/>
<path d="M108.118 25.361C108.118 24.9942 108.278 24.6841 108.602 24.431C108.927 24.1778 109.333 24.0434 109.823 24.0176H110.75C111.244 24.0382 111.656 24.1726 111.986 24.4206C112.315 24.6738 112.48 24.9787 112.48 25.3507V29.7583C112.48 30.151 112.32 30.4559 112.001 30.6677C111.682 30.8848 111.265 30.9984 110.75 31.0088H109.833C109.344 30.9881 108.937 30.8641 108.607 30.6264C108.278 30.3887 108.118 30.1045 108.118 29.7635V25.3559V25.361ZM110.894 25.1905C110.894 25.1337 110.878 25.0924 110.842 25.0562C110.806 25.02 110.76 25.0045 110.698 24.9942C110.693 24.989 110.626 24.9838 110.497 24.9838C110.369 24.9838 110.296 24.9838 110.286 24.9838H110.075C109.946 24.9838 109.874 24.9838 109.864 24.9942C109.807 24.9993 109.766 25.0252 109.73 25.0613C109.699 25.0975 109.679 25.1389 109.679 25.1905V29.8461C109.679 29.8875 109.694 29.9288 109.73 29.965C109.766 30.0012 109.807 30.027 109.854 30.0373C109.864 30.0425 109.936 30.0477 110.07 30.058C110.199 30.0632 110.271 30.0683 110.286 30.0683C110.296 30.0683 110.369 30.0683 110.502 30.058C110.631 30.0528 110.703 30.0477 110.708 30.0373C110.765 30.027 110.806 30.0012 110.842 29.965C110.873 29.9288 110.894 29.8875 110.894 29.8461V25.2009V25.1905Z" fill="white"/>
<path d="M114.9 25.361C114.9 24.9942 115.065 24.6841 115.384 24.431C115.709 24.1778 116.116 24.0434 116.605 24.0176H117.532C118.026 24.0382 118.438 24.1726 118.768 24.4206C119.097 24.6738 119.262 24.9787 119.262 25.3507V29.7583C119.262 30.151 119.103 30.4559 118.783 30.6677C118.464 30.8848 118.047 30.9984 117.532 31.0088H116.615C116.126 30.9881 115.719 30.8641 115.39 30.6264C115.06 30.3887 114.9 30.1045 114.9 29.7635V25.3559V25.361ZM117.681 25.1905C117.681 25.1337 117.666 25.0924 117.63 25.0562C117.599 25.02 117.547 25.0045 117.486 24.9942C117.48 24.989 117.413 24.9838 117.285 24.9838C117.156 24.9838 117.089 24.9838 117.074 24.9838H116.862C116.734 24.9838 116.662 24.9838 116.651 24.9942C116.595 24.9993 116.553 25.0252 116.517 25.0613C116.487 25.0975 116.466 25.1389 116.466 25.1905V29.8461C116.466 29.8875 116.481 29.9288 116.517 29.965C116.553 30.0012 116.595 30.027 116.641 30.0373C116.651 30.0425 116.723 30.0477 116.857 30.058C116.986 30.0632 117.058 30.0683 117.074 30.0683C117.089 30.0683 117.156 30.0683 117.29 30.058C117.424 30.0528 117.491 30.0477 117.496 30.0373C117.552 30.027 117.594 30.0012 117.63 29.965C117.666 29.9288 117.681 29.8875 117.681 29.8461V25.2009V25.1905Z" fill="white"/>
<path d="M124.494 30.9974L123.305 28.4035V30.9974H121.693V24.0527H123.305V26.3728L124.561 24.0527H126.183L124.515 27.2202L126.374 31.0026H124.494V30.9974Z" fill="white"/>
<path d="M133.99 24.0481V29.8922C133.99 29.9439 134.011 29.9852 134.047 30.0162C134.083 30.0472 134.134 30.0731 134.191 30.0834C134.201 30.0886 134.273 30.0937 134.397 30.0937H134.804C134.932 30.0937 134.999 30.0937 135.005 30.0834C135.061 30.0731 135.108 30.0472 135.144 30.0162C135.18 29.9801 135.2 29.9387 135.2 29.8922V24.0481H136.812V29.7992C136.812 30.1867 136.647 30.4864 136.323 30.7035C135.993 30.9205 135.571 31.0342 135.041 31.0497H134.16C133.676 31.0393 133.259 30.9308 132.898 30.7345C132.543 30.5381 132.363 30.2281 132.363 29.8044V24.043H133.985L133.99 24.0481Z" fill="white"/>
<path d="M142.369 30.9877L140.597 26.8952V30.9877H139.238V24.043H141.081L142.678 28.2387V24.043H144.027V30.9877H142.369Z" fill="white"/>
<path d="M146.504 30.9883V24.0488H148.116V30.9883H146.504Z" fill="white"/>
<path d="M154.095 30.9974H151.813L150.485 24.0527H152.056L152.962 28.6464L153.853 24.0527H155.439L154.1 30.9974H154.095Z" fill="white"/>
<path d="M157.73 30.9883V24.0488H161.546V24.9324H159.347V26.8081H161.402V27.6452H159.347V30.1048H161.567V30.9883H157.736H157.73Z" fill="white"/>
<path d="M166.712 31.0077C166.701 30.8889 166.696 30.7597 166.712 30.6099C166.722 30.46 166.727 30.1913 166.727 29.7986V29.3749C166.727 29.1321 166.727 28.8427 166.722 28.512C166.722 28.1813 166.722 28.0108 166.722 28.0056C166.722 27.9126 166.681 27.8351 166.593 27.7679C166.506 27.7008 166.403 27.6646 166.284 27.6594H165.543V30.9974H163.931V24.0527H166.598C167.051 24.0527 167.448 24.1457 167.788 24.3266C168.128 24.5074 168.298 24.8071 168.298 25.2309V26.1248C168.298 26.3521 168.205 26.5691 168.014 26.7758C167.824 26.9825 167.587 27.1272 167.299 27.2099C167.587 27.2719 167.824 27.4114 168.02 27.6284C168.21 27.8454 168.308 28.0883 168.308 28.3518V29.5919C168.308 30.0622 168.308 30.3929 168.298 30.5789C168.292 30.7649 168.308 30.9096 168.344 31.0077H166.727H166.712ZM166.712 25.3032C166.712 25.2102 166.67 25.1275 166.583 25.0552C166.495 24.9828 166.392 24.9415 166.274 24.9363H165.532V26.8223H166.274C166.397 26.812 166.5 26.7707 166.583 26.7035C166.67 26.6363 166.712 26.5536 166.712 26.4555V25.3032Z" fill="white"/>
<path d="M172.17 28.3633V29.7636C172.17 29.8256 172.191 29.8773 172.227 29.9134C172.268 29.9548 172.32 29.9806 172.387 29.991C172.397 29.9961 172.469 30.0013 172.598 30.0065C172.726 30.0116 172.793 30.0168 172.809 30.0168C172.829 30.0168 172.902 30.0168 173.03 30.0065C173.159 30.0013 173.226 29.9961 173.231 29.991C173.298 29.9806 173.35 29.9548 173.38 29.9134C173.411 29.8721 173.432 29.8256 173.432 29.7636V29.2314C173.432 29.0557 173.303 28.8697 173.041 28.6733C172.778 28.4821 172.567 28.3168 172.417 28.1824C171.733 27.552 171.274 27.1128 171.048 26.8751C170.821 26.6375 170.703 26.3894 170.703 26.1311V25.3767C170.703 24.9995 170.873 24.6894 171.207 24.4362C171.542 24.1831 171.964 24.0487 172.474 24.0332H173.298C173.762 24.0384 174.148 24.1624 174.457 24.3949C174.766 24.6326 174.92 24.9168 174.92 25.2527V26.56H173.437V25.2372C173.437 25.1855 173.422 25.139 173.396 25.0873C173.37 25.0356 173.329 25.0098 173.283 24.9943C173.277 24.9891 173.211 24.984 173.077 24.9788C172.943 24.9788 172.871 24.9788 172.86 24.9788H172.644C172.52 24.9788 172.448 24.9788 172.438 24.9891C172.376 25.015 172.33 25.046 172.294 25.0821C172.258 25.1183 172.242 25.1855 172.242 25.2837L172.253 25.9347C172.258 26.1156 172.345 26.2706 172.51 26.4101C172.675 26.5496 172.835 26.6891 172.994 26.8286C173.669 27.4332 174.179 27.8827 174.529 28.1721C174.879 28.4615 175.054 28.756 175.054 29.066V29.6551C175.054 30.0375 174.884 30.3527 174.544 30.6162C174.204 30.8797 173.777 31.0141 173.257 31.0244H172.407C171.918 31.0141 171.511 30.89 171.187 30.6524C170.862 30.4147 170.703 30.1253 170.703 29.7739V28.3685H172.17V28.3633Z" fill="white"/>
<path d="M177.521 30.9883V24.0488H179.132V30.9883H177.521Z" fill="white"/>
<path d="M184.385 24.9427V30.9883H182.774V24.9427H181.574V24.0488H185.591V24.9427H184.391H184.385Z" fill="white"/>
<path d="M191.77 26.9321L191.147 28.5133V30.9987H189.525V28.5598C189.525 28.4564 189.458 28.2342 189.344 27.8984C189.226 27.5625 189.118 27.2421 189.015 26.9424C188.927 26.6841 188.757 26.2759 188.5 25.7075C188.242 25.1443 188.026 24.5914 187.851 24.0488H189.391L190.457 26.7926L191.631 24.0488H193.078L191.775 26.9321H191.77Z" fill="white"/>
</svg>
