<svg width="196" height="34" viewBox="0 0 196 34" fill="none" xmlns="http://www.w3.org/2000/svg">
<path d="M83.431 15.2623H78.5525V25.5138H75.6064V12.8819H83.431V15.2623ZM81.0271 24.2126C82.1269 24.1411 83.2504 24.0062 84.413 23.792L84.6173 26.1962C83.4546 26.4263 82.3076 26.585 81.1842 26.6564C80.0608 26.7278 78.6939 26.7754 77.0834 26.7913H75.6064V24.3157H77.0834C78.6153 24.3157 79.9351 24.284 81.0271 24.2126ZM88.3332 30.5603H85.6386V10.7871H88.3332V30.5603ZM91.0278 20.9752H87.469V18.6027H91.0278V20.9752ZM93.1254 31.5838H90.3601V10.4062H93.1254V31.5838Z" fill="#231F20"/>
<path d="M102.05 18.3957C101.618 19.5859 100.958 20.6254 100.07 21.5299C99.1823 22.4345 98.0903 23.093 96.794 23.5294L95.2778 21.1332C96.3934 20.7761 97.3204 20.2604 98.0746 19.578C98.8288 18.8956 99.3865 18.1259 99.7479 17.2611C100.109 16.3962 100.298 15.4916 100.306 14.5474V13.1747H102.702V14.5474C102.702 15.9201 102.482 17.1976 102.05 18.3878V18.3957ZM107.47 14.2538H96.1027V11.8734H107.47V14.2538ZM102.089 30.2263H99.143V24.5451H102.089V30.2263ZM113.551 31.2261H99.143V28.8298H113.551V31.2261ZM103.833 17.0706C104.187 17.872 104.729 18.602 105.444 19.2527C106.158 19.9033 107.054 20.4032 108.122 20.7523L106.669 23.101C105.404 22.6804 104.336 22.0457 103.48 21.1808C102.623 20.3159 101.971 19.3241 101.547 18.1973C101.123 17.0706 100.911 15.8646 100.918 14.5791V13.1826H103.299V14.5791C103.299 15.4361 103.48 16.2692 103.833 17.0706ZM111.666 18.3243H106.693V15.9201H111.666V18.3243ZM113.04 25.9019H110.118V10.4531H113.04V25.9019Z" fill="#231F20"/>
<path d="M134.919 29.061H115.766V26.6885H134.919V29.061ZM125.17 17.3732C124.463 18.6824 123.442 19.7854 122.122 20.7058C120.802 21.6262 119.254 22.2451 117.479 22.5784L116.214 20.1028C117.738 19.8647 119.066 19.3807 120.197 18.6666C121.328 17.9525 122.185 17.1114 122.766 16.1434C123.347 15.1753 123.654 14.1835 123.662 13.152V11.6523H126.238V13.152C126.238 14.6596 125.885 16.0719 125.178 17.3732H125.17ZM126.694 27.3154H123.772V21.8881H126.694V27.3154ZM127.66 16.1592C128.257 17.1273 129.122 17.9604 130.253 18.6745C131.384 19.3886 132.72 19.8647 134.259 20.1028L133.002 22.5784C131.219 22.2451 129.672 21.6262 128.344 20.7217C127.016 19.8171 125.995 18.7142 125.28 17.4129C124.565 16.1116 124.212 14.6834 124.219 13.152V11.6523H126.765V13.152C126.765 14.1914 127.063 15.1912 127.66 16.1592Z" fill="#231F20"/>
<path d="M139.657 14.4371H143.946V11.7631H146.892V21.6893H136.742V11.7631H139.657V14.4371ZM149.642 23.8634C150.702 24.1808 151.519 24.649 152.085 25.2679C152.65 25.8868 152.933 26.6168 152.933 27.4737C152.933 28.3306 152.65 29.0765 152.085 29.6954C151.519 30.3143 150.702 30.7904 149.642 31.1157C148.581 31.449 147.324 31.6156 145.871 31.6235C144.394 31.6235 143.121 31.449 142.045 31.1157C140.968 30.7824 140.136 30.3143 139.562 29.6954C138.981 29.0765 138.69 28.3386 138.69 27.4737C138.69 26.6088 138.981 25.8868 139.562 25.2679C140.144 24.649 140.968 24.1808 142.045 23.8634C143.121 23.546 144.402 23.3873 145.871 23.3873C147.34 23.3873 148.573 23.546 149.642 23.8634ZM143.954 19.3724V16.7302H139.664V19.3724H143.954ZM143.553 25.8788C142.925 26.0137 142.445 26.2121 142.123 26.4739C141.801 26.7358 141.644 27.069 141.652 27.4737C141.652 27.8784 141.801 28.2116 142.131 28.4814C142.461 28.7512 142.932 28.9575 143.561 29.1003C144.189 29.2431 144.959 29.3145 145.871 29.3145C146.782 29.3145 147.552 29.2431 148.165 29.1003C148.785 28.9575 149.249 28.7512 149.571 28.4814C149.885 28.2116 150.05 27.8784 150.05 27.4737C150.05 27.069 149.893 26.7358 149.571 26.4739C149.249 26.2121 148.785 26.0137 148.165 25.8788C147.544 25.7439 146.782 25.6805 145.871 25.6805C144.959 25.6805 144.174 25.7439 143.545 25.8788H143.553ZM152.745 22.9033H149.807V10.4062H152.745V22.9033ZM155.573 17.8252H151.912V15.3495H155.573V17.8252Z" fill="#231F20"/>
<path d="M175.614 24.006H156.508V21.6335H175.614V24.006ZM161.748 29.7269H158.81V25.22H161.748V29.7269ZM173.438 31.2265H158.81V28.8303H173.438V31.2265ZM161.834 13.3101H170.232V11.1836H173.155V19.8324H158.927V11.1836H161.826V13.3101H161.834ZM170.24 17.4837V15.5794H161.842V17.4837H170.24ZM167.498 22.6492H164.545V18.5549H167.498V22.6492Z" fill="#231F20"/>
<path d="M196 24.9611H176.847V22.6362H196V24.9611ZM181.985 13.678H190.791V11.25H193.737V20.597H179.086V11.25H181.985V13.678ZM190.791 18.2246V16.0029H181.985V18.2246H190.791ZM187.822 31.5865H184.907V23.7788H187.822V31.5865Z" fill="#231F20"/>
<path fill-rule="evenodd" clip-rule="evenodd" d="M68.8659 6.05851V6.15372C68.8502 7.07414 68.6931 8.12152 68.3553 9.31965C68.3553 9.31965 66.9176 12.5014 64.9458 15.2786L57.8125 26.3792H50.3728V19.1428L54.1123 14.9453C55.0707 14.0725 55.5343 12.6522 55.5343 12.6522C55.9349 9.79573 52.8475 10.2639 52.8475 10.2639C51.9362 10.3908 51.1035 10.5892 50.3807 10.859V2.53552C53.1774 1.35326 56.202 0.496313 59.3366 0.115449C59.3366 0.115449 68.9366 -1.33659 68.8738 6.05851H68.8659ZM50.3728 33.9885V32.6475H53.7824L52.9182 34.0044L50.3728 33.9885ZM50.3728 31.4573V30.1005H55.4243L54.5601 31.4573H50.3728ZM50.3728 28.9183V27.5773H57.0583L56.1942 28.9183H50.3728ZM18.4459 13.9218C18.8937 14.0487 19.263 14.3899 18.7995 15.231C18.7209 15.3579 18.5952 15.6039 18.4459 15.9451V13.9218ZM50.3728 2.53552V10.859C46.6491 12.2158 45.3214 15.104 45.3214 15.104C44.3787 18.9206 49.1159 17.8177 49.1159 17.8177V20.5155L50.0743 19.4681L50.365 19.1428V26.3792H44.0487L44.8501 25.5063C44.8501 25.5063 33.7652 25.911 34.9515 18.2858C35.8313 12.5808 42.0533 6.07438 50.3571 2.53552H50.3728ZM50.3728 27.5773V28.9183H41.7705L42.9882 27.5773H50.365H50.3728ZM50.3728 30.1005V31.4573H39.4765L40.6942 30.1005H50.3728ZM50.3728 32.6475V33.9885L37.269 33.925L38.4081 32.6475H50.3728ZM18.4459 33.9091V32.6475H25.6421C25.32 33.441 25.1157 33.9091 25.1157 33.9091H18.4459ZM18.4459 31.4573V30.1005H26.6869L26.1291 31.4573H18.4381H18.4459ZM18.4459 28.9183V27.5773H27.7553L27.1819 28.9183H18.4459ZM18.4459 26.3792H28.2503C30.2378 21.5787 32.5711 16.072 33.0346 15.231C33.8988 13.6678 31.8955 13.8424 31.8955 13.8424H21.447C20.9363 13.8424 20.8735 14.2947 20.8735 14.2947L19.7186 16.1514L22.8218 16.199L18.4538 25.2445V26.3792H18.4459ZM5.46779 16.1514L6.60692 14.2947C6.60692 14.2947 6.66977 13.8424 7.18041 13.8424H17.6446C17.6446 13.8424 18.0767 13.8107 18.4459 13.9218V15.9451C17.5975 17.7859 15.6806 22.3246 13.9837 26.3792H3.6452L8.57092 16.199L5.46779 16.1514ZM18.4459 25.2366L17.8882 26.3712H18.4459V25.2366ZM18.4459 27.5773V28.9183H16.6705L17.3225 27.5773H18.4459ZM18.4459 30.1005V31.4573H15.4371L16.097 30.1005H18.4459ZM18.4459 32.6475V33.9091H14.2508L14.8715 32.6475H18.4538H18.4459ZM13.4888 27.5773L12.931 28.9183H2.4118L3.06385 27.5773H13.4967H13.4888ZM12.4439 30.1005L11.8705 31.4573H1.18626L1.83831 30.1005H12.4439ZM11.3912 32.6475C11.0534 33.441 10.8649 33.9091 10.8649 33.9091H0L0.604914 32.6475H11.3991H11.3912Z" fill="#ED1846"/>
</svg>
