<svg width="198" height="34" viewBox="0 0 198 34" fill="none" xmlns="http://www.w3.org/2000/svg">
<path d="M84.2824 15.2623H79.354V25.5138H76.3779V12.8819H84.2824V15.2623ZM81.8539 24.2126C82.965 24.1411 84.0998 24.0062 85.2744 23.792L85.4807 26.1962C84.3062 26.4263 83.1475 26.585 82.0126 26.6564C80.8777 26.7278 79.4969 26.7754 77.8699 26.7913H76.3779V24.3157H77.8699C79.4175 24.3157 80.7508 24.284 81.8539 24.2126ZM89.2346 30.5603H86.5124V10.7871H89.2346V30.5603ZM91.9567 20.9752H88.3616V18.6027H91.9567V20.9752ZM94.0756 31.5838H91.2821V10.4062H94.0756V31.5838Z" fill="white"/>
<path d="M103.091 18.3957C102.655 19.5859 101.988 20.6254 101.091 21.5299C100.194 22.4345 99.0912 23.093 97.7817 23.5294L96.25 21.1332C97.3769 20.7761 98.3134 20.2604 99.0753 19.578C99.8372 18.8956 100.401 18.1259 100.766 17.2611C101.131 16.3962 101.321 15.4916 101.329 14.5474V13.1747H103.75V14.5474C103.75 15.9201 103.527 17.1976 103.091 18.3878V18.3957ZM108.567 14.2538H97.0833V11.8734H108.567V14.2538ZM103.131 30.2263H100.155V24.5451H103.131V30.2263ZM114.71 31.2261H100.155V28.8298H114.71V31.2261ZM104.893 17.0706C105.25 17.872 105.797 18.602 106.519 19.2527C107.242 19.9033 108.146 20.4032 109.226 20.7523L107.757 23.101C106.48 22.6804 105.4 22.0457 104.535 21.1808C103.67 20.3159 103.012 19.3241 102.583 18.1973C102.155 17.0706 101.94 15.8646 101.948 14.5791V13.1826H104.353V14.5791C104.353 15.4361 104.535 16.2692 104.893 17.0706ZM112.805 18.3243H107.781V15.9201H112.805V18.3243ZM114.194 25.9019H111.241V10.4531H114.194V25.9019Z" fill="white"/>
<path d="M136.296 29.061H116.948V26.6885H136.296V29.061ZM126.447 17.3732C125.733 18.6824 124.701 19.7854 123.368 20.7058C122.035 21.6262 120.471 22.2451 118.678 22.5784L117.4 20.1028C118.94 19.8647 120.281 19.3807 121.424 18.6666C122.567 17.9525 123.432 17.1114 124.019 16.1434C124.606 15.1753 124.916 14.1835 124.924 13.152V11.6523H127.527V13.152C127.527 14.6596 127.17 16.0719 126.455 17.3732H126.447ZM127.987 27.3154H125.035V21.8881H127.987V27.3154ZM128.963 16.1592C129.566 17.1273 130.439 17.9604 131.582 18.6745C132.725 19.3886 134.074 19.8647 135.63 20.1028L134.36 22.5784C132.558 22.2451 130.995 21.6262 129.654 20.7217C128.312 19.8171 127.281 18.7142 126.558 17.4129C125.836 16.1116 125.479 14.6834 125.487 13.152V11.6523H128.058V13.152C128.058 14.1914 128.36 15.1912 128.963 16.1592Z" fill="white"/>
<path d="M141.082 14.4371H145.415V11.7631H148.391V21.6893H138.137V11.7631H141.082V14.4371ZM151.168 23.8634C152.24 24.1808 153.065 24.649 153.637 25.2679C154.208 25.8868 154.494 26.6168 154.494 27.4737C154.494 28.3306 154.208 29.0765 153.637 29.6954C153.065 30.3143 152.24 30.7904 151.168 31.1157C150.097 31.449 148.827 31.6156 147.359 31.6235C145.867 31.6235 144.581 31.449 143.494 31.1157C142.407 30.7824 141.566 30.3143 140.986 29.6954C140.399 29.0765 140.105 28.3386 140.105 27.4737C140.105 26.6088 140.399 25.8868 140.986 25.2679C141.574 24.649 142.407 24.1808 143.494 23.8634C144.581 23.546 145.875 23.3873 147.359 23.3873C148.843 23.3873 150.089 23.546 151.168 23.8634ZM145.423 19.3724V16.7302H141.089V19.3724H145.423ZM145.018 25.8788C144.383 26.0137 143.899 26.2121 143.574 26.4739C143.248 26.7358 143.089 27.069 143.097 27.4737C143.097 27.8784 143.248 28.2116 143.581 28.4814C143.915 28.7512 144.391 28.9575 145.026 29.1003C145.661 29.2431 146.438 29.3145 147.359 29.3145C148.28 29.3145 149.057 29.2431 149.676 29.1003C150.303 28.9575 150.772 28.7512 151.097 28.4814C151.414 28.2116 151.581 27.8784 151.581 27.4737C151.581 27.069 151.422 26.7358 151.097 26.4739C150.772 26.2121 150.303 26.0137 149.676 25.8788C149.049 25.7439 148.28 25.6805 147.359 25.6805C146.438 25.6805 145.645 25.7439 145.01 25.8788H145.018ZM154.303 22.9033H151.335V10.4062H154.303V22.9033ZM157.16 17.8252H153.462V15.3495H157.16V17.8252Z" fill="white"/>
<path d="M177.406 24.006H158.105V21.6335H177.406V24.006ZM163.398 29.7269H160.43V25.22H163.398V29.7269ZM175.207 31.2265H160.43V28.8303H175.207V31.2265ZM163.485 13.3101H171.969V11.1836H174.922V19.8324H160.549V11.1836H163.478V13.3101H163.485ZM171.977 17.4837V15.5794H163.493V17.4837H171.977ZM169.207 22.6492H166.223V18.5549H169.207V22.6492Z" fill="white"/>
<path d="M198 24.9611H178.652V22.6362H198V24.9611ZM183.842 13.678H192.738V11.25H195.714V20.597H180.913V11.25H183.842V13.678ZM192.738 18.2246V16.0029H183.842V18.2246H192.738ZM189.738 31.5865H186.794V23.7788H189.738V31.5865Z" fill="white"/>
<path fill-rule="evenodd" clip-rule="evenodd" d="M69.5686 6.05851V6.15372C69.5528 7.07414 69.394 8.12152 69.0528 9.31965C69.0528 9.31965 67.6005 12.5014 65.6085 15.2786L58.4024 26.3792H50.8869V19.1428L54.6645 14.9453C55.6327 14.0725 56.1009 12.6522 56.1009 12.6522C56.5057 9.79573 53.3867 10.2639 53.3867 10.2639C52.4661 10.3908 51.6249 10.5892 50.8948 10.859V2.53552C53.7201 1.35326 56.7755 0.496313 59.942 0.115449C59.942 0.115449 69.6401 -1.33659 69.5766 6.05851H69.5686ZM50.8869 33.9885V32.6475H54.3312L53.4582 34.0044L50.8869 33.9885ZM50.8869 31.4573V30.1005H55.9898L55.1168 31.4573H50.8869ZM50.8869 28.9183V27.5773H57.6405L56.7676 28.9183H50.8869ZM18.6342 13.9218C19.0865 14.0487 19.4595 14.3899 18.9913 15.231C18.9119 15.3579 18.785 15.6039 18.6342 15.9451V13.9218ZM50.8869 2.53552V10.859C47.1251 12.2158 45.7839 15.104 45.7839 15.104C44.8315 18.9206 49.6171 17.8177 49.6171 17.8177V20.5155L50.5853 19.4681L50.8789 19.1428V26.3792H44.4982L45.3077 25.5063C45.3077 25.5063 34.1097 25.911 35.3081 18.2858C36.197 12.5808 42.4824 6.07438 50.871 2.53552H50.8869ZM50.8869 27.5773V28.9183H42.1967L43.4268 27.5773H50.8789H50.8869ZM50.8869 30.1005V31.4573H39.8794L41.1095 30.1005H50.8869ZM50.8869 32.6475V33.9885L37.6493 33.925L38.8 32.6475H50.8869ZM18.6342 33.9091V32.6475H25.9037C25.5783 33.441 25.372 33.9091 25.372 33.9091H18.6342ZM18.6342 31.4573V30.1005H26.9592L26.3958 31.4573H18.6262H18.6342ZM18.6342 28.9183V27.5773H28.0386L27.4592 28.9183H18.6342ZM18.6342 26.3792H28.5385C30.5464 21.5787 32.9034 16.072 33.3717 15.231C34.2447 13.6678 32.2209 13.8424 32.2209 13.8424H21.6658C21.1499 13.8424 21.0865 14.2947 21.0865 14.2947L19.9198 16.1514L23.0546 16.199L18.6421 25.2445V26.3792H18.6342ZM5.52359 16.1514L6.67434 14.2947C6.67434 14.2947 6.73783 13.8424 7.25368 13.8424H17.8247C17.8247 13.8424 18.2612 13.8107 18.6342 13.9218V15.9451C17.7771 17.7859 15.8406 22.3246 14.1264 26.3792H3.68239L8.65838 16.199L5.52359 16.1514ZM18.6342 25.2366L18.0707 26.3712H18.6342V25.2366ZM18.6342 27.5773V28.9183H16.8406L17.4993 27.5773H18.6342ZM18.6342 30.1005V31.4573H15.5946L16.2613 30.1005H18.6342ZM18.6342 32.6475V33.9091H14.3962L15.0232 32.6475H18.6421H18.6342ZM13.6264 27.5773L13.063 28.9183H2.43641L3.09511 27.5773H13.6344H13.6264ZM12.5709 30.1005L11.9916 31.4573H1.19836L1.85707 30.1005H12.5709ZM11.5075 32.6475C11.1662 33.441 10.9757 33.9091 10.9757 33.9091H0L0.611087 32.6475H11.5154H11.5075Z" fill="white"/>
</svg>
