<svg width="251" height="247" viewBox="0 0 251 247" fill="none" xmlns="http://www.w3.org/2000/svg">
<path d="M251 28.61L205.233 62.5909C205.116 62.6728 204.987 62.7079 204.847 62.7079H204.789L180.368 60.2038L162.353 75.5912L131.854 78.774L120.502 98.5025L64.2376 122.116L50.864 136.146L38.414 157.466L62.636 152.505L87.4777 130.26L89.4416 130.588L65.2429 156.109L32.0779 168.313L7.1427 211.012C3.77593 201.065 1.35606 190.675 0 179.968L13.8061 162.626L7.42327 141.025C7.39989 140.955 7.3882 140.873 7.39989 140.803L10.2874 100.819C10.7784 99.5791 11.5265 98.444 12.0409 97.2154L8.68581 140.768L14.7764 161.398L42.6926 126.34L72.5493 101.018L71.2517 74.9944C71.2517 74.9944 71.2517 74.9008 71.2634 74.8657L78.0203 32.331C78.0788 31.98 78.3944 31.746 78.7451 31.8045C79.0958 31.8513 79.3296 32.1906 79.2711 32.5299L72.5259 75.0061L73.7651 99.9886L94.0125 82.8226L109.701 7.02085C111.267 6.51769 112.845 6.03793 114.435 5.58158L105.516 50.8661L124.068 33.8054L132.076 1.56799C132.532 1.48608 132.988 1.41587 133.443 1.34566L125.272 34.2969C125.237 34.4139 125.179 34.5309 125.085 34.6128L105.118 52.9957L98.6067 86.0756L76.7227 109.034L116.598 94.2549L147.331 45.4951L158.168 35.233L159.548 23.1688C159.559 23.0752 159.583 22.9933 159.641 22.9231L173.237 0C173.716 0.0351043 174.184 0.0819099 174.651 0.140417L160.775 23.4496L159.583 33.8639L192.304 2.87855C193.636 3.15938 194.969 3.46362 196.302 3.79126L150.242 46.8057L135.22 72.9115L160.378 71.9988L222.815 23.8943L181.689 59.0454L204.648 61.409L249.878 27.826C250.252 28.0834 250.626 28.3408 250.988 28.61H251Z" fill="#D8BF98"/>
<path d="M238.515 48.5251C237.042 45.2721 232.939 43.9381 229.315 45.4944C229.432 44.9327 229.514 44.3594 229.514 43.7626C229.514 39.7256 226.579 36.4492 222.944 36.4492C219.308 36.4492 216.374 39.7256 216.374 43.7626C216.374 44.1956 216.409 44.6168 216.479 45.0264C216.117 44.8274 215.754 44.6519 215.357 44.5115C211.569 43.1307 207.513 44.7221 206.309 48.057C205.104 51.3919 207.197 55.2066 210.985 56.5757C211.137 56.6342 211.289 56.6693 211.441 56.7161C211.324 56.9033 211.218 57.1022 211.113 57.3128C209.325 60.9286 210.517 65.1645 213.767 66.7793C216.923 68.3356 220.851 66.8378 222.722 63.4444C224.44 67.0952 228.497 68.7919 231.77 67.2474C235.043 65.7028 236.317 61.4786 234.587 57.8394C234.54 57.7458 234.494 57.6639 234.447 57.582C234.482 57.5703 234.529 57.5469 234.564 57.5352C238.234 55.8619 240 51.8366 238.492 48.5251H238.515Z" fill="#E55A71"/>
<path d="M220.372 52.5622C220.091 52.9717 219.238 52.8664 218.478 52.3399C217.706 51.8133 217.309 51.0527 217.589 50.6431C217.87 50.2336 218.723 50.3389 219.483 50.8655C220.243 51.392 220.652 52.1526 220.372 52.5622Z" fill="#FFF3E6"/>
<path d="M223.318 53.2636C222.838 53.3572 222.301 52.6902 222.113 51.7775C221.926 50.8648 222.172 50.0457 222.663 49.9404C223.142 49.8468 223.68 50.5138 223.867 51.4265C224.054 52.3392 223.809 53.1583 223.318 53.2636Z" fill="#FFF3E6"/>
<path d="M223.095 57.0894C222.826 57.499 221.973 57.4288 221.19 56.9256C220.407 56.4225 219.986 55.6736 220.243 55.264C220.512 54.8545 221.365 54.9247 222.148 55.4278C222.932 55.931 223.353 56.6799 223.095 57.0894Z" fill="#FFF3E6"/>
<path d="M225.434 50.8415C224.966 50.7011 224.803 49.8586 225.071 48.9576C225.34 48.0683 225.948 47.4598 226.416 47.6002C226.883 47.7406 227.047 48.5831 226.778 49.4842C226.509 50.3735 225.901 50.9819 225.434 50.8415Z" fill="#FFF3E6"/>
<path d="M225.434 56.365C224.966 56.2245 224.803 55.382 225.071 54.481C225.34 53.5917 225.948 52.9832 226.416 53.1237C226.883 53.2641 227.047 54.1066 226.778 55.0076C226.509 55.8969 225.901 56.5054 225.434 56.365Z" fill="#FFF3E6"/>
<path d="M177.364 26.3395C175.891 23.0865 171.787 21.7526 168.164 23.3089C168.28 22.7472 168.362 22.1738 168.362 21.5771C168.362 17.5401 165.428 14.2637 161.792 14.2637C158.157 14.2637 155.222 17.5401 155.222 21.5771C155.222 22.01 155.258 22.4313 155.328 22.8408C154.965 22.6419 154.603 22.4664 154.205 22.326C150.418 20.9569 146.361 22.5366 145.157 25.8715C143.953 29.2064 146.046 33.021 149.833 34.3901C149.985 34.4486 150.137 34.4837 150.289 34.5305C150.172 34.7178 150.067 34.9167 149.962 35.1273C148.173 38.743 149.366 42.979 152.616 44.5938C155.772 46.15 159.7 44.6523 161.57 41.2588C163.289 44.9097 167.345 46.6064 170.618 45.0618C173.903 43.5172 175.166 39.293 173.436 35.6539C173.389 35.5603 173.342 35.4783 173.295 35.3964C173.331 35.3847 173.377 35.3613 173.412 35.3496C177.083 33.6763 178.848 29.651 177.34 26.3395H177.364Z" fill="#E55A71"/>
<path d="M159.232 30.3766C158.952 30.7862 158.098 30.6809 157.338 30.1543C156.567 29.6277 156.169 28.8671 156.45 28.4576C156.73 28.048 157.584 28.1534 158.344 28.6799C159.115 29.2065 159.513 29.9671 159.232 30.3766Z" fill="#FFF3E6"/>
<path d="M162.178 31.0781C161.699 31.1717 161.161 30.5047 160.974 29.592C160.787 28.6793 161.032 27.8602 161.523 27.7549C162.003 27.6612 162.54 28.3282 162.727 29.2409C162.914 30.1537 162.669 30.9727 162.178 31.0781Z" fill="#FFF3E6"/>
<path d="M161.956 34.9039C161.687 35.3134 160.833 35.2432 160.05 34.7401C159.267 34.2369 158.846 33.488 159.103 33.0785C159.372 32.6689 160.226 32.7391 161.009 33.2423C161.792 33.7455 162.213 34.4943 161.956 34.9039Z" fill="#FFF3E6"/>
<path d="M164.294 28.656C163.827 28.5156 163.663 27.6731 163.932 26.772C164.201 25.8827 164.809 25.2743 165.276 25.4147C165.744 25.5551 165.907 26.3976 165.639 27.2986C165.37 28.1879 164.762 28.7964 164.294 28.656Z" fill="#FFF3E6"/>
<path d="M164.294 34.1677C163.827 34.0273 163.663 33.1848 163.932 32.2838C164.201 31.3945 164.809 30.786 165.276 30.9264C165.744 31.0668 165.907 31.9093 165.639 32.8103C165.37 33.6996 164.762 34.3081 164.294 34.1677Z" fill="#FFF3E6"/>
<path d="M176.007 86.2267C178.24 83.4301 177.562 79.1708 174.523 76.6433C175.072 76.5029 175.622 76.3039 176.159 76.0348C179.748 74.2094 181.326 70.1022 179.69 66.8609C178.041 63.6313 173.798 62.4846 170.209 64.3217C169.823 64.5206 169.473 64.7429 169.134 64.9887C169.134 64.5791 169.134 64.1696 169.075 63.7483C168.584 59.7464 165.334 56.8445 161.815 57.2891C158.308 57.7221 155.853 61.3261 156.356 65.328C156.38 65.4918 156.403 65.6439 156.438 65.7961C156.216 65.7844 155.994 65.7727 155.76 65.7727C151.727 65.8195 148.5 68.8033 148.535 72.4308C148.582 75.9529 151.692 78.7846 155.573 78.9017C153.106 82.0961 153.422 86.4842 156.298 88.7074C159.162 90.9307 163.487 90.1467 165.954 86.9522C166.012 86.8703 166.071 86.7884 166.117 86.7065C166.153 86.7299 166.176 86.765 166.211 86.7884C169.367 89.3042 173.751 89.0468 176.007 86.215V86.2267Z" fill="#E55A71"/>
<path d="M164.189 71.869C163.698 71.8105 163.405 71.0031 163.522 70.0787C163.639 69.1543 164.142 68.4522 164.621 68.5224C165.112 68.5809 165.404 69.3883 165.287 70.3127C165.171 71.2371 164.668 71.9392 164.177 71.869H164.189Z" fill="#FFF3E6"/>
<path d="M164.902 74.8171C164.598 74.431 164.948 73.647 165.673 73.0736C166.41 72.5003 167.251 72.3364 167.555 72.7343C167.859 73.1204 167.509 73.9044 166.784 74.4778C166.047 75.0512 165.206 75.215 164.902 74.8171Z" fill="#FFF3E6"/>
<path d="M161.395 76.3499C160.904 76.3031 160.576 75.5074 160.67 74.583C160.763 73.6586 161.231 72.9331 161.722 72.9916C162.213 73.0384 162.54 73.8341 162.447 74.7585C162.353 75.6829 161.886 76.4084 161.395 76.3499Z" fill="#FFF3E6"/>
<path d="M168.011 75.6139C167.929 75.1225 168.596 74.6076 169.519 74.4438C170.443 74.28 171.249 74.5374 171.343 75.0289C171.425 75.5086 170.758 76.0352 169.835 76.199C168.911 76.3628 168.105 76.1054 168.011 75.6139Z" fill="#FFF3E6"/>
<path d="M163.102 78.1061C163.02 77.6147 163.686 77.0998 164.61 76.936C165.533 76.7722 166.34 77.0296 166.433 77.521C166.515 78.0008 165.849 78.5274 164.925 78.6912C164.002 78.855 163.195 78.5976 163.102 78.1061Z" fill="#FFF3E6"/>
<path d="M125.167 69.2139C124.828 65.6567 121.391 63.059 117.451 63.3515C117.744 62.8601 118.001 62.3452 118.2 61.7718C119.509 57.9572 117.802 53.9085 114.365 52.7266C110.94 51.5448 107.094 53.6745 105.785 57.4891C105.644 57.8987 105.539 58.3082 105.469 58.7178C105.2 58.4135 104.896 58.1327 104.569 57.8636C101.436 55.3244 97.0871 55.5116 94.866 58.2614C92.6448 61.0112 93.3813 65.3057 96.5143 67.8449C96.6429 67.9502 96.7714 68.0321 96.9 68.1257C96.7247 68.2661 96.561 68.4182 96.3974 68.5821C93.5333 71.4255 93.2761 75.8135 95.8245 78.3996C98.3029 80.9037 102.511 80.7749 105.375 78.1655C105.82 82.1791 109.093 85.1045 112.693 84.7183C116.294 84.3205 118.866 80.7515 118.422 76.738C118.422 76.6443 118.387 76.5507 118.375 76.4454C118.422 76.4454 118.457 76.4454 118.504 76.4454C122.513 76.0593 125.494 72.8297 125.155 69.2139H125.167Z" fill="#E55A71"/>
<path d="M106.708 67.119C106.311 67.4115 105.539 67.0371 104.99 66.2882C104.428 65.5393 104.3 64.6851 104.697 64.3925C105.095 64.1 105.866 64.4744 106.416 65.2233C106.965 65.9722 107.106 66.8147 106.708 67.119Z" fill="#FFF3E6"/>
<path d="M109.257 68.746C108.766 68.6757 108.473 67.8801 108.602 66.9439C108.731 66.0195 109.222 65.3174 109.713 65.3877C110.204 65.4579 110.496 66.2536 110.367 67.1897C110.239 68.1141 109.748 68.8162 109.257 68.746Z" fill="#FFF3E6"/>
<path d="M107.807 72.291C107.421 72.5952 106.638 72.2559 106.054 71.5187C105.469 70.7815 105.317 69.939 105.703 69.6348C106.089 69.3306 106.872 69.6699 107.456 70.4071C108.041 71.1443 108.193 71.9868 107.807 72.291Z" fill="#FFF3E6"/>
<path d="M112.05 67.1422C111.653 66.8497 111.77 66.0072 112.319 65.2466C112.869 64.486 113.64 64.1116 114.038 64.4041C114.435 64.6966 114.318 65.5391 113.769 66.2997C113.219 67.0603 112.448 67.4348 112.05 67.1422Z" fill="#FFF3E6"/>
<path d="M110.262 72.3493C109.864 72.0567 109.981 71.2142 110.531 70.4536C111.08 69.693 111.852 69.3186 112.249 69.6111C112.646 69.9037 112.53 70.7462 111.98 71.5068C111.431 72.2674 110.659 72.6418 110.262 72.3493Z" fill="#FFF3E6"/>
<path d="M96.3156 101.333C95.9766 97.7758 92.5397 95.1781 88.6001 95.4707C88.8923 94.9792 89.1495 94.4643 89.3482 93.891C90.6575 90.0763 88.9508 86.0276 85.5139 84.8458C82.0886 83.6639 78.2426 85.7936 76.9333 89.6083C76.793 90.0178 76.6995 90.4274 76.6176 90.8369C76.3488 90.5327 76.0448 90.2518 75.7175 89.9827C72.5845 87.4435 68.2358 87.619 66.0146 90.3805C63.7935 93.1421 64.53 97.4248 67.6629 99.964C67.7915 100.069 67.9201 100.151 68.0487 100.245C67.8734 100.385 67.7097 100.537 67.546 100.701C64.6819 103.545 64.4248 107.933 66.9732 110.507C69.4515 113.011 73.66 112.882 76.5241 110.273C76.9683 114.287 80.2416 117.212 83.8422 116.826C87.4427 116.428 90.0146 112.859 89.5704 108.845C89.5704 108.752 89.5353 108.658 89.5236 108.553C89.5704 108.553 89.6054 108.553 89.6522 108.553C93.6619 108.167 96.6429 104.937 96.3039 101.321L96.3156 101.333Z" fill="#E55A71"/>
<path d="M77.845 99.2381C77.4475 99.5306 76.676 99.1562 76.1266 98.4073C75.5654 97.6584 75.4368 96.8042 75.8343 96.5117C76.2318 96.2191 77.0033 96.5936 77.5528 97.3425C78.1139 98.0914 78.2425 98.9456 77.845 99.2381Z" fill="#FFF3E6"/>
<path d="M80.4052 100.865C79.9142 100.795 79.6219 99.9992 79.7505 99.0631C79.8791 98.1387 80.3701 97.4366 80.8611 97.5068C81.3521 97.577 81.6443 98.3844 81.5157 99.3088C81.3872 100.233 80.8962 100.935 80.4052 100.865Z" fill="#FFF3E6"/>
<path d="M78.9439 104.41C78.5581 104.714 77.7749 104.375 77.1904 103.638C76.6058 102.901 76.4539 102.058 76.8396 101.754C77.2254 101.45 78.0087 101.789 78.5932 102.526C79.1777 103.263 79.3297 104.106 78.9439 104.41Z" fill="#FFF3E6"/>
<path d="M83.1992 99.2614C82.8017 98.9688 82.9186 98.1263 83.468 97.3657C84.0175 96.6052 84.789 96.2307 85.1865 96.5232C85.584 96.8158 85.4671 97.6583 84.9176 98.4189C84.3682 99.1795 83.5966 99.5539 83.1992 99.2614Z" fill="#FFF3E6"/>
<path d="M81.3989 104.48C81.0014 104.188 81.1183 103.345 81.6678 102.584C82.2172 101.824 82.9887 101.449 83.3862 101.742C83.7837 102.035 83.6668 102.877 83.1173 103.638C82.5679 104.398 81.7963 104.773 81.3989 104.48Z" fill="#FFF3E6"/>
<path d="M64.6235 123.368C64.2844 119.811 60.8475 117.213 56.9079 117.506C57.2002 117.014 57.4574 116.5 57.6561 115.926C58.9654 112.111 57.2586 108.063 53.8217 106.881C50.3965 105.699 46.5504 107.829 45.2411 111.643C45.1008 112.053 44.9956 112.463 44.9255 112.872C44.6566 112.568 44.3527 112.287 44.0253 112.018C40.8924 109.479 36.5436 109.666 34.3225 112.416C32.1014 115.177 32.8378 119.46 35.9708 121.999C36.0994 122.104 36.228 122.186 36.3566 122.28C36.1812 122.42 36.0176 122.573 35.8539 122.736C32.9898 125.58 32.7326 129.968 35.2811 132.542C37.7594 135.046 41.9679 134.918 44.832 132.308C45.2762 136.322 48.5494 139.247 52.15 138.861C55.7506 138.463 58.3224 134.894 57.8782 130.881C57.8782 130.787 57.8431 130.693 57.8315 130.588C57.8782 130.588 57.9133 130.588 57.9601 130.588C61.9698 130.202 64.9508 126.972 64.6118 123.357L64.6235 123.368Z" fill="#E55A71"/>
<path d="M46.1646 121.273C45.7671 121.566 44.9956 121.191 44.4461 120.442C43.885 119.694 43.7564 118.839 44.1539 118.547C44.5514 118.254 45.3229 118.629 45.8723 119.378C46.4335 120.127 46.5621 120.981 46.1646 121.273Z" fill="#FFF3E6"/>
<path d="M48.713 122.889C48.222 122.818 47.9298 122.023 48.0584 121.087C48.187 120.162 48.678 119.46 49.169 119.53C49.6599 119.6 49.9522 120.396 49.8236 121.332C49.695 122.257 49.204 122.959 48.713 122.889Z" fill="#FFF3E6"/>
<path d="M47.2635 126.434C46.8777 126.738 46.0944 126.398 45.5099 125.661C44.9254 124.924 44.7735 124.082 45.1592 123.777C45.545 123.473 46.3282 123.812 46.9128 124.55C47.4973 125.287 47.6492 126.129 47.2635 126.434Z" fill="#FFF3E6"/>
<path d="M51.507 121.297C51.1096 121.004 51.2265 120.161 51.7759 119.401C52.3253 118.64 53.0969 118.266 53.4944 118.558C53.8918 118.851 53.7749 119.693 53.2255 120.454C52.676 121.215 51.9045 121.589 51.507 121.297Z" fill="#FFF3E6"/>
<path d="M49.7185 126.504C49.321 126.211 49.4379 125.369 49.9873 124.608C50.5368 123.847 51.3083 123.473 51.7058 123.765C52.1033 124.058 51.9864 124.9 51.4369 125.661C50.8875 126.422 50.1159 126.796 49.7185 126.504Z" fill="#FFF3E6"/>
<path d="M91.2069 147.064C90.8679 143.506 87.431 140.909 83.4914 141.201C83.7837 140.71 84.0409 140.195 84.2396 139.621C85.5489 135.807 83.8421 131.758 80.4052 130.576C76.98 129.394 73.1339 131.524 71.8246 135.339C71.6843 135.748 71.5791 136.158 71.509 136.567C71.2401 136.263 70.9362 135.982 70.6088 135.713C67.4759 133.174 63.1271 133.361 60.906 136.111C58.6849 138.861 59.4213 143.155 62.5543 145.694C62.6829 145.8 62.8115 145.882 62.9401 145.975C62.7647 146.116 62.6011 146.268 62.4374 146.432C59.5733 149.275 59.3161 153.663 61.8646 156.237C64.3429 158.742 68.5514 158.613 71.4155 156.003C71.8597 160.017 75.1329 162.942 78.7335 162.556C82.3341 162.158 84.9059 158.589 84.4617 154.576C84.4617 154.482 84.4266 154.389 84.415 154.283C84.4617 154.283 84.4968 154.283 84.5435 154.283C88.5533 153.897 91.5343 150.668 91.1953 147.052L91.2069 147.064Z" fill="#E55A71"/>
<path d="M72.7481 144.969C72.3506 145.261 71.5791 144.887 71.0296 144.138C70.4685 143.389 70.3399 142.535 70.7374 142.242C71.1348 141.95 71.9064 142.324 72.4558 143.073C73.017 143.822 73.1456 144.676 72.7481 144.969Z" fill="#FFF3E6"/>
<path d="M75.2965 146.596C74.8056 146.525 74.5133 145.73 74.6419 144.794C74.7705 143.869 75.2615 143.167 75.7525 143.237C76.2434 143.307 76.5357 144.103 76.4071 145.039C76.2785 145.964 75.7875 146.666 75.2965 146.596Z" fill="#FFF3E6"/>
<path d="M73.847 150.141C73.4612 150.445 72.6779 150.106 72.0934 149.368C71.5089 148.631 71.3569 147.789 71.7427 147.484C72.1285 147.18 72.9117 147.519 73.4963 148.257C74.0808 148.994 74.2327 149.836 73.847 150.141Z" fill="#FFF3E6"/>
<path d="M78.0905 144.992C77.6931 144.699 77.81 143.857 78.3594 143.096C78.9088 142.336 79.6804 141.961 80.0779 142.254C80.4753 142.546 80.3584 143.389 79.809 144.149C79.2595 144.91 78.488 145.284 78.0905 144.992Z" fill="#FFF3E6"/>
<path d="M76.302 150.199C75.9045 149.906 76.0214 149.064 76.5708 148.303C77.1203 147.543 77.8918 147.168 78.2893 147.461C78.6868 147.753 78.5698 148.596 78.0204 149.356C77.471 150.117 76.6994 150.491 76.302 150.199Z" fill="#FFF3E6"/>
<path d="M103.528 41.5636C103.189 38.0063 99.7523 35.4086 95.8127 35.7011C96.105 35.2097 96.3622 34.6948 96.5609 34.1214C97.8702 30.3068 96.1634 26.2581 92.7265 25.0763C89.3013 23.8944 85.4552 26.0241 84.1459 29.8387C84.0056 30.2483 83.9004 30.6578 83.8303 31.0674C83.5614 30.7631 83.2575 30.4823 82.9301 30.2132C79.7972 27.674 75.4484 27.8612 73.2273 30.611C71.0061 33.3609 71.7426 37.6553 74.8756 40.1945C75.0042 40.2998 75.1328 40.3817 75.2614 40.4753C75.086 40.6157 74.9224 40.7679 74.7587 40.9317C71.8946 43.7751 71.6374 48.1632 74.1859 50.7375C76.6642 53.2416 80.8727 53.1129 83.7368 50.5034C84.181 54.517 87.4542 57.4424 91.0548 57.0562C94.6554 56.6584 97.2272 53.0894 96.783 49.0759C96.783 48.9822 96.7479 48.8886 96.7362 48.7833C96.783 48.7833 96.8181 48.7833 96.8648 48.7833C100.875 48.4089 103.856 45.1676 103.517 41.5518L103.528 41.5636Z" fill="#E55A71"/>
<path d="M85.0577 39.4686C84.6602 39.7611 83.8886 39.3867 83.3392 38.6378C82.7781 37.8889 82.6495 37.0347 83.047 36.7421C83.4444 36.4496 84.216 36.824 84.7654 37.5729C85.3265 38.3218 85.4551 39.1643 85.0577 39.4686Z" fill="#FFF3E6"/>
<path d="M87.6178 41.0838C87.1268 41.0136 86.8346 40.2179 86.9632 39.2818C87.0918 38.3574 87.5828 37.6553 88.0737 37.7255C88.5647 37.7958 88.857 38.5914 88.7284 39.5276C88.5998 40.452 88.1088 41.1541 87.6178 41.0838Z" fill="#FFF3E6"/>
<path d="M86.1565 44.6406C85.7707 44.9449 84.9875 44.6055 84.403 43.8683C83.8185 43.1311 83.6665 42.2886 84.0523 41.9844C84.4381 41.6802 85.2213 42.0195 85.8058 42.7567C86.3903 43.4939 86.5423 44.3364 86.1565 44.6406Z" fill="#FFF3E6"/>
<path d="M90.4118 39.4918C90.0143 39.1993 90.1313 38.3568 90.6807 37.5962C91.2301 36.8356 92.0017 36.4612 92.3992 36.7537C92.7966 37.0462 92.6797 37.8887 92.1303 38.6493C91.5808 39.4099 90.8093 39.7844 90.4118 39.4918Z" fill="#FFF3E6"/>
<path d="M88.6115 44.6989C88.2141 44.4063 88.331 43.5638 88.8804 42.8032C89.4298 42.0427 90.2014 41.6682 90.5989 41.9607C90.9963 42.2533 90.8794 43.0958 90.33 43.8564C89.7805 44.617 89.009 44.9914 88.6115 44.6989Z" fill="#FFF3E6"/>
<path d="M39.1622 94.1951C39.1622 94.1951 39.0803 94.1951 39.0336 94.1951C39.0453 94.2887 39.0686 94.3823 39.0803 94.4876C39.5246 98.5012 36.9527 102.07 33.3521 102.468C29.7399 102.854 26.4666 99.9288 26.0224 95.9152C24.3975 97.3896 22.34 98.0682 20.3994 97.9161C20.5865 97.4247 20.7735 96.9449 20.9722 96.4652C21.4398 95.2833 21.9191 94.1132 22.4101 92.943C25.7769 85.0329 29.7866 77.462 34.3926 70.3008C34.603 70.3359 34.8017 70.3944 35.0005 70.4646C38.4257 71.6464 40.1441 75.7068 38.8231 79.5215C38.6244 80.0949 38.3672 80.6097 38.075 81.1012C42.0146 80.8087 45.4515 83.4064 45.7905 86.9636C46.1295 90.5793 43.1485 93.8206 39.1388 94.1951H39.1622Z" fill="#E55A71"/>
<path d="M29.9035 86.4842C29.4125 86.414 29.1202 85.6183 29.2488 84.6822C29.3774 83.7578 29.8684 83.0557 30.3594 83.1259C30.8504 83.1961 31.1426 83.9918 31.014 84.928C30.8854 85.8524 30.3945 86.5545 29.9035 86.4842Z" fill="#FFF3E6"/>
<path d="M28.4539 90.0293C28.0681 90.3335 27.2849 89.9942 26.7004 89.257C26.1159 88.5198 25.9639 87.6773 26.3497 87.3731C26.7354 87.0688 27.5187 87.4082 28.1032 88.1454C28.6877 88.8826 28.8397 89.7251 28.4539 90.0293Z" fill="#FFF3E6"/>
<path d="M32.6975 84.8805C32.3 84.588 32.4169 83.7455 32.9663 82.9849C33.5158 82.2243 34.2873 81.8499 34.6848 82.1424C35.0823 82.4349 34.9654 83.2774 34.4159 84.038C33.8665 84.7986 33.0949 85.1731 32.6975 84.8805Z" fill="#FFF3E6"/>
<path d="M30.8972 90.0993C30.4997 89.8067 30.6166 88.9642 31.166 88.2036C31.7155 87.443 32.487 87.0686 32.8845 87.3611C33.282 87.6537 33.1651 88.4962 32.6156 89.2568C32.0662 90.0174 31.2946 90.3918 30.8972 90.0993Z" fill="#FFF3E6"/>
<path d="M141.697 20.2545C141.697 24.3968 138.342 27.7434 134.215 27.7434C130.088 27.7434 126.733 24.3851 126.733 20.2545C126.733 16.1239 130.088 12.7656 134.215 12.7656C138.342 12.7656 141.697 16.1239 141.697 20.2545Z" fill="#E55A71"/>
<path d="M134.835 92.9791C134.835 97.1214 131.479 100.468 127.353 100.468C123.226 100.468 119.871 97.1097 119.871 92.9791C119.871 88.8485 123.226 85.4902 127.353 85.4902C131.479 85.4902 134.835 88.8485 134.835 92.9791Z" fill="#E55A71"/>
<path d="M229.934 24.6315C229.934 28.7738 226.579 32.1204 222.452 32.1204C218.326 32.1204 214.971 28.7621 214.971 24.6315C214.971 20.5009 218.326 17.1426 222.452 17.1426C226.579 17.1426 229.934 20.5009 229.934 24.6315Z" fill="#E55A71"/>
<path d="M195.016 57.7116C195.016 61.8539 191.661 65.2005 187.534 65.2005C183.407 65.2005 180.052 61.8422 180.052 57.7116C180.052 53.581 183.407 50.2227 187.534 50.2227C191.661 50.2227 195.016 53.581 195.016 57.7116Z" fill="#E55A71"/>
<path d="M248.428 35.0456C248.428 39.1879 245.073 42.5345 240.947 42.5345C236.82 42.5345 233.465 39.1762 233.465 35.0456C233.465 30.9149 236.82 27.5566 240.947 27.5566C245.073 27.5566 248.428 30.9149 248.428 35.0456Z" fill="#E55A71"/>
<g clip-path="url(#clip0_65_7941)">
<path d="M167.462 232.227V246.795" stroke="#E55A71" stroke-width="0.5" stroke-miterlimit="10"/>
<path d="M168.678 232.227V246.795" stroke="#E55A71" stroke-width="0.5" stroke-miterlimit="10"/>
<path d="M169.894 232.227V246.795" stroke="#E55A71" stroke-width="0.5" stroke-miterlimit="10"/>
<path d="M171.109 232.227V246.795" stroke="#E55A71" stroke-width="0.5" stroke-miterlimit="10"/>
<path d="M169.286 108.332V87.2344" stroke="#323232" stroke-width="1.1" stroke-linecap="round" stroke-linejoin="round"/>
<path d="M164.001 113.012L169.285 107.711L174.569 113.012" stroke="#323232" stroke-width="1.1" stroke-linecap="round" stroke-linejoin="round"/>
<path d="M169.286 230.588V130.283" stroke="#323232" stroke-width="1.1" stroke-linecap="round" stroke-linejoin="round"/>
<path d="M186.318 112.449H152.241V200.596H186.318V112.449Z" fill="#6A90D3"/>
<path d="M152.241 196.643H186.33" stroke="#323232" stroke-width="1.1" stroke-linecap="round" stroke-linejoin="round"/>
<path d="M154.708 200.598V213.025" stroke="#6A90D3" stroke-width="1.1" stroke-miterlimit="10"/>
<path d="M159.571 200.598V213.025" stroke="#6A90D3" stroke-width="1.1" stroke-miterlimit="10"/>
<path d="M164.422 200.598V213.025" stroke="#6A90D3" stroke-width="1.1" stroke-miterlimit="10"/>
<path d="M169.286 200.598V213.025" stroke="#6A90D3" stroke-width="1.1" stroke-miterlimit="10"/>
<path d="M174.149 200.598V213.025" stroke="#6A90D3" stroke-width="1.1" stroke-miterlimit="10"/>
<path d="M179 200.598V213.025" stroke="#6A90D3" stroke-width="1.1" stroke-miterlimit="10"/>
<path d="M183.863 200.598V213.025" stroke="#6A90D3" stroke-width="1.1" stroke-miterlimit="10"/>
<path d="M186.271 117.236H152.3L128.288 139.96V166.546L152.3 189.27H186.271L210.283 166.546V139.96L186.271 117.236Z" fill="#E55A71"/>
<mask id="mask0_65_7941" style="mask-type:luminance" maskUnits="userSpaceOnUse" x="128" y="117" width="83" height="73">
<path d="M186.271 117.236H152.3L128.288 139.96V166.546L152.3 189.27H186.271L210.283 166.546V139.96L186.271 117.236Z" fill="white"/>
</mask>
<g mask="url(#mask0_65_7941)">
<path d="M186.271 117.236H152.3L128.288 139.96V166.546L152.3 189.27H186.271L210.283 166.546V139.96L186.271 117.236Z" fill="#E55A71"/>
<path d="M210.283 139.961H128.288V166.558H210.283V139.961Z" fill="#F7949E"/>
<g opacity="0.35">
<path opacity="0.32" d="M125.085 120.49H213.486" stroke="#E55A71" stroke-width="0.2" stroke-miterlimit="10"/>
<path opacity="0.32" d="M125.085 124.352H213.486" stroke="#E55A71" stroke-width="0.2" stroke-miterlimit="10"/>
<path opacity="0.32" d="M125.085 128.225H213.486" stroke="#E55A71" stroke-width="0.2" stroke-miterlimit="10"/>
<path opacity="0.32" d="M125.085 132.086H213.486" stroke="#E55A71" stroke-width="0.2" stroke-miterlimit="10"/>
<path opacity="0.32" d="M125.085 135.947H213.486" stroke="#E55A71" stroke-width="0.2" stroke-miterlimit="10"/>
<path opacity="0.32" d="M125.085 139.809H213.486" stroke="#E55A71" stroke-width="0.2" stroke-miterlimit="10"/>
<path opacity="0.32" d="M125.085 143.67H213.486" stroke="#E55A71" stroke-width="0.2" stroke-miterlimit="10"/>
<path opacity="0.32" d="M125.085 147.543H213.486" stroke="#E55A71" stroke-width="0.2" stroke-miterlimit="10"/>
<path opacity="0.32" d="M125.085 151.406H213.486" stroke="#E55A71" stroke-width="0.2" stroke-miterlimit="10"/>
<path opacity="0.32" d="M125.085 155.268H213.486" stroke="#E55A71" stroke-width="0.2" stroke-miterlimit="10"/>
<path opacity="0.32" d="M125.085 159.129H213.486" stroke="#E55A71" stroke-width="0.2" stroke-miterlimit="10"/>
<path opacity="0.32" d="M125.085 162.99H213.486" stroke="#E55A71" stroke-width="0.2" stroke-miterlimit="10"/>
<path opacity="0.32" d="M125.085 166.863H213.486" stroke="#E55A71" stroke-width="0.2" stroke-miterlimit="10"/>
<path opacity="0.32" d="M125.085 170.725H213.486" stroke="#E55A71" stroke-width="0.2" stroke-miterlimit="10"/>
<path opacity="0.32" d="M125.085 174.586H213.486" stroke="#E55A71" stroke-width="0.2" stroke-miterlimit="10"/>
<path opacity="0.32" d="M125.085 178.447H213.486" stroke="#E55A71" stroke-width="0.2" stroke-miterlimit="10"/>
<path opacity="0.32" d="M125.085 182.309H213.486" stroke="#E55A71" stroke-width="0.2" stroke-miterlimit="10"/>
<path opacity="0.32" d="M125.085 186.182H213.486" stroke="#E55A71" stroke-width="0.2" stroke-miterlimit="10"/>
<path d="M125.085 120.49H213.486" stroke="#EFD9B1" stroke-width="0.25" stroke-miterlimit="10"/>
<path d="M125.085 124.352H213.486" stroke="#EFD9B1" stroke-width="0.25" stroke-miterlimit="10"/>
<path d="M125.085 128.225H213.486" stroke="#EFD9B1" stroke-width="0.25" stroke-miterlimit="10"/>
<path d="M125.085 132.086H213.486" stroke="#EFD9B1" stroke-width="0.25" stroke-miterlimit="10"/>
<path d="M125.085 135.947H213.486" stroke="#EFD9B1" stroke-width="0.25" stroke-miterlimit="10"/>
<path d="M125.085 139.809H213.486" stroke="#EFD9B1" stroke-width="0.25" stroke-miterlimit="10"/>
<path d="M125.085 143.67H213.486" stroke="#EFD9B1" stroke-width="0.25" stroke-miterlimit="10"/>
<path d="M125.085 147.543H213.486" stroke="#EFD9B1" stroke-width="0.25" stroke-miterlimit="10"/>
<path d="M125.085 151.406H213.486" stroke="#EFD9B1" stroke-width="0.25" stroke-miterlimit="10"/>
<path d="M125.085 155.268H213.486" stroke="#EFD9B1" stroke-width="0.25" stroke-miterlimit="10"/>
<path d="M125.085 159.129H213.486" stroke="#EFD9B1" stroke-width="0.25" stroke-miterlimit="10"/>
<path d="M125.085 162.99H213.486" stroke="#EFD9B1" stroke-width="0.25" stroke-miterlimit="10"/>
<path d="M125.085 166.863H213.486" stroke="#EFD9B1" stroke-width="0.25" stroke-miterlimit="10"/>
<path d="M125.085 170.725H213.486" stroke="#EFD9B1" stroke-width="0.25" stroke-miterlimit="10"/>
<path d="M125.085 174.586H213.486" stroke="#EFD9B1" stroke-width="0.25" stroke-miterlimit="10"/>
<path d="M125.085 178.447H213.486" stroke="#EFD9B1" stroke-width="0.25" stroke-miterlimit="10"/>
<path d="M125.085 182.309H213.486" stroke="#EFD9B1" stroke-width="0.25" stroke-miterlimit="10"/>
<path d="M125.085 186.182H213.486" stroke="#EFD9B1" stroke-width="0.25" stroke-miterlimit="10"/>
</g>
</g>
<path d="M180.052 189.27L195.261 165.224V141.283L180.052 117.236" stroke="#EFD9B1" stroke-width="1.1" stroke-miterlimit="10"/>
<path d="M158.519 117.236L143.298 141.283V165.224L158.519 189.27" stroke="#EFD9B1" stroke-width="1.1" stroke-miterlimit="10"/>
<path d="M173.693 189.27L179.912 165.224V141.283L173.693 117.236" stroke="#EFD9B1" stroke-width="1.1" stroke-miterlimit="10"/>
<path d="M164.878 117.236L158.659 141.283V165.224L164.878 189.27" stroke="#EFD9B1" stroke-width="1.1" stroke-miterlimit="10"/>
<path d="M172.781 230.378C172.781 232.308 171.214 233.876 169.285 233.876C167.357 233.876 165.79 232.308 165.79 230.378C165.79 228.447 167.357 226.879 169.285 226.879C171.214 226.879 172.781 228.447 172.781 230.378Z" fill="#5B608E"/>
<path d="M170.852 219.951C170.852 220.817 170.151 221.519 169.286 221.519C168.421 221.519 167.719 220.817 167.719 219.951C167.719 219.085 168.421 218.383 169.286 218.383C170.151 218.383 170.852 219.085 170.852 219.951Z" fill="#5B608E"/>
</g>
<defs>
<clipPath id="clip0_65_7941">
<rect width="88.4012" height="160.204" fill="white" transform="translate(125.085 86.5898)"/>
</clipPath>
</defs>
</svg>
