<svg width="198" height="150" viewBox="0 0 198 150" fill="none" xmlns="http://www.w3.org/2000/svg">
<g clip-path="url(#clip0_65_8092)">
<path fill-rule="evenodd" clip-rule="evenodd" d="M197.843 20.6225C179.636 -17.6576 125.483 -1.20914 156.137 58.1355C144.798 40.5168 98.7522 40.3087 101.633 71.1253C103.066 86.4166 111.903 103.632 111.903 103.632C111.903 103.632 84.7416 59.7999 58.1799 73.8819C31.6183 87.9639 56.5117 127.258 56.5117 127.258C28.0994 105.817 16.2913 122.252 -0.0131836 149.766H197.83V20.6225H197.843Z" fill="#A6C292"/>
<path fill-rule="evenodd" clip-rule="evenodd" d="M150.507 120.198C150.676 120.432 150.781 120.562 150.781 120.562C150.781 120.562 150.689 120.432 150.507 120.198ZM118.589 102.007C135.349 101.5 148.461 117.558 150.507 120.198C148.487 117.493 136.457 100.356 147.379 92.1768C150.494 89.8493 153.843 89.2252 157.089 89.5893C166.238 90.6035 174.553 99.3804 174.553 99.3804C174.553 99.3804 169.887 93.8672 174.123 71.8405C174.71 68.8238 175.674 66.2623 176.951 64.1298C177.407 63.3627 177.916 62.6475 178.45 61.9974C183.142 56.2372 190.558 54.6638 197.987 56.2632V150H36.4536C41.4844 145.553 46.9062 141.158 52.4062 137.309C52.9275 136.945 53.4358 136.594 53.9441 136.243C54.1396 136.113 54.3482 135.97 54.5437 135.84C76.8695 121.316 99.8079 139.637 99.8079 139.637C99.8079 139.637 82.8257 118.026 106.598 105.31C108.292 104.399 109.974 103.71 111.616 103.19C111.903 103.619 112.046 103.866 112.046 103.866C112.046 103.866 111.916 103.619 111.694 103.164C112.906 102.787 114.118 102.514 115.304 102.319C116.412 102.15 117.494 102.046 118.563 102.007H118.589Z" fill="#CCD89C"/>
</g>
<defs>
<clipPath id="clip0_65_8092">
<rect width="198" height="150" fill="white"/>
</clipPath>
</defs>
</svg>
