<svg width="479" height="150" viewBox="0 0 479 150" fill="none" xmlns="http://www.w3.org/2000/svg">
<g clip-path="url(#clip0_69_10710)">
<path d="M469.481 131.98C466.319 126.222 460.021 115.43 458.3 108.878C456.579 102.325 453.451 97.3007 448.077 91.6179C442.703 85.935 428.361 76.9083 425.139 69.6802C422.105 62.8575 420.664 63.8285 416.019 59.8007V31.2092C424.122 29.5204 430.115 26.9956 431.514 23.7447C431.514 23.7447 402.024 24.1415 397.107 13.9411C397.607 13.274 398.43 11.8639 397.455 10.8928C396.471 9.91331 394.988 11.3995 394.276 12.2354C394.657 10.9519 394.657 9.28845 394.005 8.91691C393.793 8.79869 393.522 8.7227 393.225 8.68892C393.572 7.88674 393.64 6.56947 393.183 6.29926C393.038 6.21482 392.86 6.1726 392.665 6.15571L391.504 0C391.504 0 391.106 4.82155 390.987 6.3077C390.843 6.33303 390.707 6.35837 390.572 6.3837C389.928 6.50191 390.292 8.04717 390.546 8.90847C390.284 8.95913 390.021 9.00135 389.766 9.05202C388.868 9.21245 389.173 11.0701 389.546 12.4803C388.902 11.6866 387.757 10.5297 386.85 11.163C385.816 11.8808 387.122 13.1643 387.808 13.882C383.604 24.5806 353.198 24.1669 353.198 24.1669C354.911 28.1356 361.726 30.7785 370.677 32.2309V56.3133C364.447 55.4436 358.149 53.7717 356.691 53.8223C355.08 53.8814 346.417 54.9792 341.873 55.5703C341.45 52.5979 342.653 41.7727 342.653 41.7727L354.58 40.4132L354.241 38.7159C354.029 37.6604 353.215 38.7159 352.198 37.6942C351.172 36.6725 351.859 36.6725 351.172 34.2997C350.494 31.9269 351.172 34.2997 348.79 33.6242C346.408 32.9487 347.765 32.6025 347.087 31.2514C346.408 29.8919 346.748 29.8919 346.408 28.1947C346.069 26.4974 344.705 26.4974 342.662 25.4757C340.619 24.454 341.636 26.4974 339.254 26.8352C336.872 27.1729 337.55 29.2079 336.186 30.5674C334.821 31.9269 334.482 32.9402 332.1 33.6242C329.718 34.2997 332.1 35.997 330.057 36.6809C328.014 37.3564 331.422 39.3999 329.379 40.4132C327.336 41.4349 328.353 42.786 328.353 42.786L339.941 41.4265L340.28 43.4615C340.28 43.4615 340.958 45.8343 339.602 48.5533C338.237 51.2722 335.516 52.6233 335.516 52.6233C335.482 52.7837 335.474 52.9357 335.482 53.0877L323.895 43.985C323.895 43.985 316.833 32.4842 316.723 29.5542C316.613 26.6156 310.917 12.1341 309.34 9.25467C307.755 6.37525 300.991 2.94697 297.286 2.34744C293.582 1.74792 288.555 5.60685 285.012 9.40666C281.46 13.2065 282.418 19.0498 281.028 21.3043C279.638 23.5589 275.188 22.9847 272.323 25.2984C269.458 27.6036 249.639 70.2122 248.249 72.4668C248.249 72.4668 232.093 94.3622 230.702 96.6168C229.312 98.8713 221.946 99.1415 214.631 100.881C207.298 102.637 200 144.782 200 144.782L479 150C479 150 472.651 137.739 469.481 131.98ZM412.84 57.1408C410.695 55.6547 408.754 55.0974 406.211 54.8694V50.9176H412.84V57.1493V57.1408ZM409.398 32.3407C410.577 32.1803 411.721 32.0029 412.848 31.8087V36.7907H409.398V32.3407ZM409.398 37.3733H412.848V41.4096H409.398V37.3733ZM409.398 41.9922H412.848V46.1551H409.398V41.9922ZM404.889 32.8727C406.194 32.7376 407.474 32.594 408.737 32.4251V36.7907H404.889V32.8727ZM404.889 37.3733H408.737V41.4096H404.889V37.3733ZM404.889 41.9922H408.737V46.1551H404.889V41.9922ZM398.786 33.3624C400.625 33.2526 402.439 33.1175 404.219 32.9487V36.7991H398.786V33.3709V33.3624ZM398.786 37.3733H404.219V41.4096H398.786V37.3733ZM398.786 41.9922H404.219V46.1551H398.786V41.9922ZM394.013 33.5651C395.386 33.5313 396.76 33.4722 398.124 33.3962V36.7907H394.013V33.5651ZM394.013 37.3733H398.124V41.4096H394.013V37.3733ZM394.013 41.9922H398.124V46.1551H394.013V41.9922ZM386.588 33.582C387.995 33.6157 389.41 33.6242 390.835 33.6157V36.7907H386.588V33.582ZM386.588 37.3733H390.835V41.4096H386.588V37.3733ZM386.588 41.9922H390.835V46.1551H386.588V41.9922ZM390.835 50.9091V54.6161C388.198 54.8441 386.486 55.3254 384.206 55.832V50.9007H390.835V50.9091ZM381.883 33.4046C383.214 33.4806 384.562 33.5313 385.927 33.5735V36.7907H381.883V33.4046ZM381.883 37.3733H385.927V41.4096H381.883V37.3733ZM381.883 41.9922H385.927V46.1551H381.883V41.9922ZM377.043 33.0415C378.408 33.1682 379.806 33.278 381.222 33.3624V36.7907H377.043V33.0415ZM377.043 37.3733H381.222V41.4096H377.043V37.3733ZM377.043 41.9922H381.222V46.1551H377.043V41.9922ZM373.864 32.6869C374.695 32.7882 375.534 32.8895 376.382 32.974V36.7907H373.864V32.6869ZM373.864 37.3733H376.382V41.4096H373.864V37.3733ZM373.864 41.9922H376.382V46.1551H373.864V41.9922ZM373.864 56.6764V50.9176H381.29V56.4147C380.781 56.4991 380.247 56.5835 379.671 56.6595C377.984 56.8875 375.983 56.8622 373.864 56.6764ZM394.013 54.481V50.9091H403.295V54.7005C401.608 54.6499 399.65 54.633 397.294 54.5316C396.065 54.481 394.988 54.4641 394.013 54.4725V54.481Z" fill="#81A1B5"/>
<path d="M348.087 64.4949C349.265 65.6517 349.943 67.1801 350.901 68.5058C351.715 69.6204 352.749 70.1946 354.003 70.7519C357.513 72.2887 359.895 74.3406 361.302 77.9716C362.438 80.9101 362.556 85.3939 364.921 87.6822C367.515 90.1986 372.203 89.3035 375.381 88.8222C379.255 88.2311 383.273 87.3529 387.189 88.0707C389.69 88.5266 392.843 89.3119 394.547 91.3385C395.386 92.3349 395.946 93.5424 396.658 94.6232C397.599 96.0587 398.734 97.3507 399.726 98.7524C400.481 99.8163 401.371 101.682 402.676 102.206C403.651 102.594 404.795 102.155 405.821 101.573C402.574 95.6281 400.32 88.8391 393.259 86.4916C390.885 85.7063 388.546 85.2926 386.053 85.2757C383.519 85.2588 381.239 84.9379 378.755 84.4651C376.348 84.0091 373.695 83.8655 371.77 82.1683C369.685 80.3359 368.074 78.0054 365.964 76.1477C362.293 72.9305 358.521 69.84 354.792 66.6988C351.994 64.3429 349.282 61.9786 346.315 59.8422C343.467 57.7819 340.61 55.73 337.864 53.543C338.338 54.1847 338.813 54.8011 339.271 55.3753C341.933 58.7192 345.06 61.5057 348.087 64.4949Z" fill="#3E7EB1"/>
<path d="M281.003 21.3203C285.546 21.5652 289.302 25.061 291.556 28.2275C293.803 31.4025 294.625 35.3205 295.744 39.0444C296.863 42.7682 298.499 46.6102 301.737 48.7635C308.026 52.9517 317.724 49.1941 323.327 54.2436C325.353 56.0676 326.395 58.7274 328.158 60.7962C331.261 64.4356 336.152 65.8626 340.543 67.7541C344.942 69.654 349.494 72.7952 350.155 77.5154" stroke="#3D2306" stroke-miterlimit="10" stroke-linecap="round"/>
</g>
<g clip-path="url(#clip1_69_10710)">
<path d="M0 148.94L272.25 143.83C272.25 143.83 265.13 102.54 258 100.84C250.87 99.14 243.68 98.87 242.32 96.67C240.96 94.46 225.2 73.01 225.2 73.01C223.84 70.8 204.5 29.07 201.71 26.8C198.91 24.54 194.58 25.1 193.22 22.89C191.86 20.68 192.79 14.96 189.33 11.23C185.87 7.5 180.97 3.73 177.35 4.31C173.73 4.89 167.13 8.25 165.59 11.08C164.05 13.9 158.49 28.09 158.38 30.97C158.27 33.85 151.38 45.11 151.38 45.11L140.08 54.02C140.08 53.87 140.08 53.72 140.04 53.57C140.04 53.57 137.38 52.24 136.05 49.58C134.72 46.92 135.39 44.59 135.39 44.59L135.72 42.6L147.02 43.93C147.02 43.93 148.02 42.6 146.02 41.6C144.03 40.6 147.35 38.61 145.36 37.94C143.37 37.27 145.69 35.61 143.37 34.95C141.04 34.29 140.71 33.29 139.38 31.96C138.05 30.63 138.72 28.64 136.39 28.3C134.06 27.97 135.06 25.97 133.07 26.97C131.08 27.97 129.75 27.97 129.41 29.63C129.08 31.29 129.41 31.29 128.75 32.62C128.09 33.95 129.41 34.28 127.09 34.95C124.76 35.62 125.43 33.29 124.76 35.62C124.09 37.95 124.76 37.95 123.76 38.94C122.76 39.94 121.97 38.91 121.77 39.94L121.44 41.6L133.08 42.93C133.08 42.93 134.26 53.53 133.84 56.44C129.4 55.86 120.95 54.78 119.38 54.73C117.96 54.68 111.82 56.32 105.74 57.17V33.58C114.48 32.15 121.13 29.57 122.8 25.68C122.8 25.68 93.12 26.08 89.02 15.6C89.69 14.9 90.96 13.64 89.95 12.93C89.07 12.31 87.95 13.44 87.32 14.22C87.68 12.84 87.98 11.02 87.1 10.86C86.86 10.82 86.6 10.77 86.34 10.72C86.59 9.88 86.95 8.36 86.32 8.25C86.19 8.23 86.05 8.2 85.91 8.18C85.79 6.73 85.4 2 85.4 2L84.27 8.03C84.08 8.05 83.9 8.09 83.76 8.17C83.31 8.43 83.38 9.72 83.72 10.51C83.43 10.55 83.17 10.61 82.96 10.73C82.32 11.09 82.33 12.73 82.7 13.98C82.01 13.16 80.56 11.71 79.6 12.67C78.65 13.62 79.45 15 79.94 15.65C75.14 25.64 46.37 25.25 46.37 25.25C47.73 28.43 53.58 30.91 61.49 32.56V60.57C56.96 64.52 55.56 63.57 52.59 70.25C49.45 77.33 35.45 86.17 30.21 91.74C24.97 97.31 21.91 102.23 20.23 108.65C18.55 115.07 12.41 125.64 9.32 131.28C6.23 136.92 0 148.94 0 148.94ZM64.55 51.87H71.02V55.74C68.54 55.97 66.64 56.51 64.55 57.97V51.87ZM67.92 38.04H64.56V33.16C65.65 33.35 66.78 33.52 67.92 33.68V38.04ZM67.92 42.57H64.56V38.61H67.92V42.57ZM67.92 47.21H64.56V43.13H67.92V47.21ZM72.32 38.04H68.57V33.77C69.8 33.93 71.05 34.08 72.32 34.21V38.04ZM72.32 42.57H68.57V38.61H72.32V42.57ZM72.32 47.21H68.57V43.13H72.32V47.21ZM78.27 38.04H72.97V34.27C74.71 34.44 76.48 34.57 78.27 34.68V38.04ZM78.27 42.57H72.97V38.61H78.27V42.57ZM78.27 47.21H72.97V43.13H78.27V47.21ZM82.92 38.04H78.91V34.72C80.24 34.79 81.58 34.85 82.92 34.88V38.04ZM82.92 42.57H78.91V38.61H82.92V42.57ZM82.92 47.21H78.91V43.13H82.92V47.21ZM90.17 38.04H86.03V34.93C87.42 34.93 88.8 34.93 90.17 34.9V38.04ZM90.17 42.57H86.03V38.61H90.17V42.57ZM90.17 47.21H86.03V43.13H90.17V47.21ZM92.5 51.87V56.7C90.27 56.21 88.61 55.73 86.03 55.51V51.88H92.5V51.87ZM94.76 38.04H90.81V34.89C92.14 34.85 93.45 34.8 94.76 34.73V38.05V38.04ZM94.76 42.57H90.81V38.61H94.76V42.57ZM94.76 47.21H90.81V43.13H94.76V47.21ZM99.48 38.04H95.4V34.69C96.78 34.61 98.14 34.5 99.48 34.37V38.04ZM99.48 42.57H95.4V38.61H99.48V42.57ZM99.48 47.21H95.4V43.13H99.48V47.21ZM102.59 38.04H100.13V34.3C100.96 34.22 101.78 34.12 102.59 34.02V38.04ZM102.59 42.57H100.13V38.61H102.59V42.57ZM102.59 47.21H100.13V43.13H102.59V47.21ZM96.92 57.5C96.35 57.42 95.83 57.34 95.34 57.26V51.88H102.59V57.53C100.53 57.71 98.57 57.74 96.93 57.51L96.92 57.5ZM79.73 55.42C77.43 55.51 75.52 55.53 73.87 55.58V51.86H82.93V55.36C81.98 55.36 80.93 55.37 79.73 55.42Z" fill="#81A1B5"/>
<path d="M246.55 120.969C242.38 118.809 239.75 115.099 237.3 111.209C234.56 106.859 232.23 102.279 229.88 97.7195C225.73 89.6795 221.4 81.2995 214.29 75.4295C208.49 70.6495 198.79 66.5795 191.82 71.4495C189.37 73.1695 188.01 75.7695 186.77 78.4095C185.7 80.6895 184.62 82.8295 183.05 84.6695C182.4 82.1495 183.17 79.5195 184.39 77.0395C186.24 73.2695 188.78 69.8895 191.01 66.3395C192.93 63.2895 194.59 59.9695 195.52 56.4795C196.3 53.5195 195.74 51.1495 194.67 48.3795C193.97 46.5695 193.65 44.7495 192.11 43.4595C191.09 42.6095 188.76 41.8995 188.65 40.5095C188.5 38.7395 190.17 37.0495 190.07 35.1595C189.97 33.2395 188.66 31.2095 187.68 29.6195C186.42 27.5895 184.66 25.5795 184.02 23.2395C183.65 21.8895 183.73 20.5095 183.67 19.1195C183.5 15.5495 181.72 12.7795 178.94 10.5595C177.4 9.33946 175.58 8.74946 173.78 8.09946C175.47 7.32946 177.16 6.75946 178.46 6.54946C182.08 5.95946 186.98 9.73946 190.44 13.4695C193.9 17.1995 192.97 22.9195 194.33 25.1295C195.69 27.3395 200.03 26.7795 202.82 29.0395C205.62 31.2995 224.95 73.0395 226.31 75.2495C226.31 75.2495 242.08 96.6995 243.43 98.9095C244.79 101.119 251.98 101.379 259.11 103.079C262.96 103.999 266.8 116.429 269.53 127.689C262.18 124.499 253.74 124.689 246.55 120.969Z" fill="#3E7EB1"/>
<path d="M127.74 65.1795C126.59 66.3195 125.93 67.8095 124.99 69.1095C124.2 70.2095 123.19 70.7695 121.96 71.3095C118.54 72.8195 116.21 74.8295 114.84 78.3795C113.73 81.2595 113.61 85.6495 111.31 87.8895C108.78 90.3495 104.21 89.4795 101.11 89.0095C97.3299 88.4395 93.4099 87.5695 89.5799 88.2695C87.1399 88.7195 84.0599 89.4895 82.3999 91.4695C81.5799 92.4395 81.0299 93.6295 80.3399 94.6895C79.4199 96.0995 78.3199 97.3595 77.3499 98.7295C76.6099 99.7695 75.7399 101.599 74.4699 102.109C73.5199 102.489 72.3999 102.059 71.3999 101.489C74.5699 95.6595 76.7699 89.0095 83.6599 86.7195C85.9699 85.9495 88.2599 85.5495 90.6899 85.5295C93.1699 85.5095 95.3899 85.1995 97.8099 84.7395C100.16 84.2895 102.75 84.1495 104.63 82.4895C106.67 80.6995 108.24 78.4095 110.3 76.5895C113.88 73.4395 117.56 70.4095 121.21 67.3295C123.94 65.0195 126.59 62.7095 129.48 60.6095C132.26 58.5995 135.05 56.5795 137.73 54.4395C137.27 55.0695 136.8 55.6695 136.35 56.2395C133.75 59.5195 130.7 62.2395 127.75 65.1695L127.74 65.1795Z" fill="#3E7EB1"/>
<path d="M105.69 57.1602C97.86 62.7602 90.04 68.8602 80.97 72.0802C79.25 72.6902 77.47 73.2802 76.09 74.4802C74.21 76.1202 73.39 78.6202 72.4 80.9202C70.61 85.0702 68 88.8802 64.77 92.0502C61.84 94.9302 58.35 97.3602 56.16 100.84C55.22 102.34 54.55 103.99 53.88 105.63C53.05 107.69 52.21 109.74 51.38 111.8C51.09 112.51 50.79 113.25 50.24 113.8C49.72 114.33 49.02 114.63 48.33 114.91C39.98 118.2 18.21 134.72 9.23999 134.38" stroke="#3D2306" stroke-miterlimit="10" stroke-linecap="round"/>
</g>
<defs>
<clipPath id="clip0_69_10710">
<rect width="279" height="150" fill="white" transform="translate(200)"/>
</clipPath>
<clipPath id="clip1_69_10710">
<rect width="272.25" height="146.94" fill="white" transform="translate(0 2)"/>
</clipPath>
</defs>
</svg>
