<svg width="153" height="216" viewBox="0 0 153 216" fill="none" xmlns="http://www.w3.org/2000/svg">
<g clip-path="url(#clip0_65_8152)">
<path d="M95.8201 135.33C95.8501 140.72 93.9801 145.47 93.8301 150.85" stroke="#D7B8F2" stroke-width="2" stroke-linejoin="round"/>
<path d="M97.23 135.389C97.08 138.539 97.34 143.939 98.2 146.989C98.48 147.989 98.85 149.019 99.61 149.769" stroke="#D7B8F2" stroke-width="2" stroke-linejoin="round"/>
<path d="M98.3501 135.18C99.0301 140.12 100.81 147.15 103.74 151.32" stroke="#D7B8F2" stroke-width="2" stroke-linejoin="round"/>
<path d="M97.19 136.689C98.6756 136.689 99.88 135.57 99.88 134.189C99.88 132.809 98.6756 131.689 97.19 131.689C95.7044 131.689 94.5 132.809 94.5 134.189C94.5 135.57 95.7044 136.689 97.19 136.689Z" fill="#F2AC66"/>
<path d="M107.12 12.9707L95.2402 30.5207" stroke="#704038" stroke-width="1.5" stroke-miterlimit="10"/>
<path d="M77.48 26.5307C77.62 26.0707 104.85 12.9707 107.12 12.9707C109.39 12.9707 136.24 27.4307 136.24 27.4307" stroke="#704038" stroke-width="1.5" stroke-miterlimit="10"/>
<path d="M107.12 0V12.97L115.23 23.8" stroke="#704038" stroke-width="1.5" stroke-miterlimit="10"/>
<path d="M74.7501 25.7504C75.2701 24.1904 113.49 21.5304 117.14 21.6504C120.79 21.7604 138.88 24.2404 138.88 24.2404C138.88 24.2404 146.39 78.6004 147.35 90.5104C147.25 105.46 145.87 122.56 143.9 131.92C142.46 133.3 123.88 139.91 121.35 139.91C118.82 139.91 74.1601 137.39 73.6201 136.01C72.4501 133.06 69.9901 98.6104 69.1401 91.8104C68.2901 85.0104 73.0601 30.7904 74.7401 25.7504H74.7501Z" fill="#BA5454"/>
<path d="M69.0801 87.4608C69.0201 89.7308 69.0401 91.4208 69.1501 92.3008C70.0001 99.1008 72.4601 133.541 73.6301 136.501C74.1701 137.871 118.83 140.401 121.36 140.401C123.89 140.401 142.47 133.791 143.91 132.411C145.88 123.061 147.32 105.701 147.42 90.7608C147.31 89.4208 147.12 87.7508 146.87 85.5508C137.91 87.7108 125.87 90.6908 124.15 91.1008C121.81 91.6608 81.8101 88.5008 69.0801 87.4708V87.4608Z" fill="#4E4E9B"/>
<path d="M117.25 24.2305C117.25 24.2305 124.15 89.7805 124.15 94.2605C124.15 98.7405 122.27 136.51 122.27 136.51" stroke="#704038" stroke-width="1.5" stroke-miterlimit="10"/>
<path d="M77.0503 97.8203C77.0503 108.36 78.4003 118.89 81.0303 129.14" stroke="#43439E" stroke-width="1.5" stroke-linejoin="round"/>
<path d="M85.8601 123.48C85.7501 125.33 86.1801 127.22 87.1001 128.86" stroke="#43439E" stroke-width="1.5" stroke-linejoin="round"/>
<path d="M141.27 120.711C140.52 122.721 139.98 124.801 139.68 126.911" stroke="#43439E" stroke-width="1.5" stroke-linejoin="round"/>
<path d="M80.3599 31.4199C79.5699 43.2499 78.4299 55.0699 76.9399 66.8399" stroke="#AF4141" stroke-width="1.5" stroke-miterlimit="10"/>
<path d="M88.4499 31.8398C88.1799 34.7498 88.0499 37.6798 88.0699 40.6098" stroke="#AF4141" stroke-width="1.5" stroke-miterlimit="10"/>
<path d="M93.79 32.6992C93.59 34.3492 93.53 36.0192 93.61 37.6892" stroke="#AF4141" stroke-width="1.5" stroke-miterlimit="10"/>
<path d="M73.25 136.4C74.78 136.33 121.61 140.84 121.61 140.84C121.61 140.84 141.74 131.42 144.53 131.42" stroke="#9689C9" stroke-width="4" stroke-miterlimit="10"/>
<path d="M120.98 144.549C119.77 146.389 119.86 148.689 119.75 150.849C119.56 154.509 118.67 158.129 117.12 161.499" stroke="#D7B8F2" stroke-width="2" stroke-linejoin="round"/>
<path d="M121.34 144.729C121.18 145.959 122.04 147.529 122.54 148.629C124.71 153.489 126.62 158.599 126.46 163.859" stroke="#D7B8F2" stroke-width="2" stroke-linejoin="round"/>
<path d="M120.84 146.709C121.95 151.009 122.37 156.469 122.08 160.879C121.99 162.199 121.83 163.559 121.17 164.739" stroke="#D7B8F2" stroke-width="2" stroke-linejoin="round"/>
<path d="M123.53 144.199C123.53 145.579 122.33 146.699 120.84 146.699C119.35 146.699 118.15 145.579 118.15 144.199C118.15 142.819 119.35 141.699 120.84 141.699C122.33 141.699 123.53 142.819 123.53 144.199Z" fill="#F2AC66"/>
<path d="M120.79 142.648C121.73 143.098 122.29 144.138 122.12 145.108" stroke="#EFC984" stroke-miterlimit="10"/>
<path d="M143.95 152.8C141.86 147.22 141.5 141.09 142.94 135.33C142.94 141.53 144.8 147.95 148.04 153.36" stroke="#D7B8F2" stroke-width="2" stroke-linejoin="round"/>
<path d="M143.23 136.26C144.49 139.47 146.07 142.57 147.96 145.5C148.94 147.03 150.06 148.56 151.69 149.5" stroke="#D7B8F2" stroke-width="2" stroke-linejoin="round"/>
<path d="M145.92 133.93C145.92 135.31 144.72 136.43 143.23 136.43C141.74 136.43 140.54 135.31 140.54 133.93C140.54 132.55 141.74 131.43 143.23 131.43C144.72 131.43 145.92 132.55 145.92 133.93Z" fill="#F2AC66"/>
<path d="M142.72 132.65C143.17 132.78 143.5 133.15 143.67 133.56C143.84 133.97 143.87 134.41 143.87 134.85" stroke="#EFC984" stroke-miterlimit="10"/>
<path d="M75.9101 139.738C75.9101 141.628 75.7301 143.598 74.7201 145.238C74.2901 145.938 73.7301 146.548 73.2201 147.188C71.0101 149.978 69.8201 153.458 69.8801 156.928" stroke="#D7B8F2" stroke-width="2" stroke-linejoin="round"/>
<path d="M77.03 140.51C77.42 142.73 76.48 144.93 75.89 147.11C74.98 150.47 74.88 154.01 75.6 157.41" stroke="#D7B8F2" stroke-width="2" stroke-linejoin="round"/>
<path d="M76.23 140.988C76.72 143.958 77.21 146.928 77.93 149.848C78.22 151.028 78.55 152.208 79.14 153.278C79.62 154.168 80.28 154.978 81.06 155.648" stroke="#D7B8F2" stroke-width="2" stroke-linejoin="round"/>
<path d="M76.3502 141.699C77.8358 141.699 79.0402 140.58 79.0402 139.199C79.0402 137.819 77.8358 136.699 76.3502 136.699C74.8645 136.699 73.6602 137.819 73.6602 139.199C73.6602 140.58 74.8645 141.699 76.3502 141.699Z" fill="#F2AC66"/>
<path d="M76.5903 138.289C77.1003 138.419 77.4703 138.859 77.6303 139.329C77.7803 139.799 77.7603 140.309 77.7403 140.799" stroke="#EFC984" stroke-miterlimit="10"/>
<path d="M30.9101 178.309C30.9401 184.979 28.7801 190.859 28.6201 197.529" stroke="#D7B8F2" stroke-width="2" stroke-linejoin="round"/>
<path d="M32.5403 178.379C32.3703 182.279 32.6603 188.969 33.6603 192.749C33.9903 193.989 34.4003 195.259 35.2903 196.199" stroke="#D7B8F2" stroke-width="2" stroke-linejoin="round"/>
<path d="M33.8301 178.119C34.6101 184.239 36.6701 192.939 40.0401 198.109" stroke="#D7B8F2" stroke-width="2" stroke-linejoin="round"/>
<path d="M35.5901 176.899C35.5901 178.609 34.2001 179.999 32.4901 179.999C30.7801 179.999 29.3901 178.609 29.3901 176.899C29.3901 175.189 30.7801 173.799 32.4901 173.799C34.2001 173.799 35.5901 175.189 35.5901 176.899Z" fill="#F2AC66"/>
<path d="M43.9402 26.7598L30.2402 48.4998" stroke="#704038" stroke-width="1.5" stroke-miterlimit="10"/>
<path d="M9.77002 43.5595C9.93002 42.9895 41.33 26.7695 43.95 26.7695C46.57 26.7695 77.52 44.6795 77.52 44.6795" stroke="#704038" stroke-width="1.5" stroke-miterlimit="10"/>
<path d="M43.9399 10.6992V26.7592L53.2999 40.1792" stroke="#704038" stroke-width="1.5" stroke-miterlimit="10"/>
<path d="M6.63013 42.5902C7.23013 40.6602 51.3001 37.3702 55.5101 37.5102C59.7201 37.6502 80.5801 40.7102 80.5801 40.7102C80.5801 40.7102 89.2401 108.04 90.3501 122.79C90.2301 141.3 88.6401 162.49 86.3701 174.07C84.7101 175.78 63.2801 183.96 60.3701 183.96C57.4601 183.96 5.96013 180.83 5.34013 179.13C4.00013 175.47 1.16013 132.81 0.170131 124.39C-0.809869 115.97 4.69013 48.8202 6.63013 42.5802V42.5902Z" fill="#D66363"/>
<path d="M0.0900203 119.018C0.0200203 121.828 0.0400203 123.918 0.17002 125.008C1.15002 133.428 3.99002 176.088 5.34002 179.748C5.96002 181.448 57.46 184.578 60.37 184.578C63.28 184.578 84.71 176.388 86.37 174.688C88.65 163.098 90.3 141.608 90.42 123.098C90.3 121.438 90.07 119.368 89.79 116.648C79.46 119.328 65.58 123.018 63.6 123.518C60.9 124.208 14.78 120.298 0.11002 119.028L0.0900203 119.018Z" fill="#6262B7"/>
<path d="M55.6299 40.709C55.6299 40.709 63.5899 121.889 63.5899 127.439C63.5899 132.989 61.4199 179.759 61.4199 179.759" stroke="#704038" stroke-width="1.5" stroke-miterlimit="10"/>
<path d="M9.27002 131.85C9.27002 144.9 10.82 157.95 13.86 170.64" stroke="#43439E" stroke-width="1.5" stroke-linejoin="round"/>
<path d="M19.4299 163.629C19.2999 165.929 19.7999 168.259 20.8599 170.289" stroke="#43439E" stroke-width="1.5" stroke-linejoin="round"/>
<path d="M83.32 160.189C82.45 162.679 81.84 165.259 81.48 167.869" stroke="#43439E" stroke-width="1.5" stroke-linejoin="round"/>
<path d="M13.0801 49.6094C12.1701 64.2694 10.8501 78.8994 9.14014 93.4794" stroke="#AF4141" stroke-width="1.5" stroke-miterlimit="10"/>
<path d="M22.41 50.1289C22.1 53.7389 21.95 57.3689 21.97 60.9889" stroke="#AF4141" stroke-width="1.5" stroke-miterlimit="10"/>
<path d="M28.58 51.1895C28.35 53.2395 28.28 55.3095 28.37 57.3695" stroke="#AF4141" stroke-width="1.5" stroke-miterlimit="10"/>
<path d="M4.89014 179.629C6.66014 179.539 60.6401 185.139 60.6401 185.139C60.6401 185.139 83.8501 173.469 87.0701 173.469" stroke="#9689C9" stroke-width="4" stroke-miterlimit="10"/>
<path d="M59.93 189.719C58.54 191.999 58.64 194.849 58.51 197.519C58.29 202.049 57.26 206.539 55.48 210.709" stroke="#D7B8F2" stroke-width="2" stroke-linejoin="round"/>
<path d="M60.3399 189.949C60.1599 191.469 61.1499 193.409 61.7199 194.779C64.2199 200.799 66.4199 207.129 66.2399 213.639" stroke="#D7B8F2" stroke-width="2" stroke-linejoin="round"/>
<path d="M59.77 192.389C61.05 197.709 61.54 204.479 61.2 209.939C61.1 211.579 60.91 213.259 60.15 214.719" stroke="#D7B8F2" stroke-width="2" stroke-linejoin="round"/>
<path d="M62.8699 189.289C62.8699 190.999 61.4799 192.389 59.7699 192.389C58.0599 192.389 56.6699 190.999 56.6699 189.289C56.6699 187.579 58.0599 186.189 59.7699 186.189C61.4799 186.189 62.8699 187.579 62.8699 189.289Z" fill="#F2AC66"/>
<path d="M59.71 187.369C60.79 187.929 61.44 189.209 61.24 190.409" stroke="#EFC984" stroke-miterlimit="10"/>
<path d="M86.4102 199.939C83.9902 193.029 83.5902 185.439 85.2402 178.309C85.2302 185.979 87.3902 193.939 91.1202 200.639" stroke="#D7B8F2" stroke-width="2" stroke-linejoin="round"/>
<path d="M85.5801 179.449C87.0301 183.429 88.8501 187.259 91.0301 190.889C92.1701 192.779 93.4601 194.679 95.3401 195.839" stroke="#D7B8F2" stroke-width="2" stroke-linejoin="round"/>
<path d="M88.68 176.569C88.68 178.279 87.29 179.669 85.58 179.669C83.87 179.669 82.48 178.279 82.48 176.569C82.48 174.859 83.87 173.469 85.58 173.469C87.29 173.469 88.68 174.859 88.68 176.569Z" fill="#F2AC66"/>
<path d="M84.9897 174.988C85.4997 175.158 85.8897 175.608 86.0897 176.108C86.2897 176.608 86.3197 177.158 86.3197 177.698" stroke="#EFC984" stroke-miterlimit="10"/>
<path d="M7.96011 183.758C7.96011 186.098 7.75011 188.538 6.59011 190.568C6.10011 191.428 5.44011 192.188 4.85011 192.988C2.30011 196.448 0.930114 200.748 1.00011 205.048" stroke="#D7B8F2" stroke-width="2" stroke-linejoin="round"/>
<path d="M9.2502 184.719C9.7002 187.469 8.6202 190.199 7.9402 192.899C6.8902 197.059 6.7802 201.449 7.6102 205.659" stroke="#D7B8F2" stroke-width="2" stroke-linejoin="round"/>
<path d="M8.33008 185.318C8.89008 188.988 9.46008 192.668 10.2901 196.298C10.6201 197.758 11.0101 199.218 11.6801 200.548C12.2401 201.648 12.9901 202.648 13.8901 203.488" stroke="#D7B8F2" stroke-width="2" stroke-linejoin="round"/>
<path d="M11.5701 183.088C11.5701 184.798 10.1801 186.188 8.47012 186.188C6.76012 186.188 5.37012 184.798 5.37012 183.088C5.37012 181.378 6.76012 179.988 8.47012 179.988C10.1801 179.988 11.5701 181.378 11.5701 183.088Z" fill="#F2AC66"/>
<path d="M8.74023 181.979C9.33023 182.139 9.76023 182.679 9.94023 183.269C10.1202 183.859 10.0902 184.479 10.0702 185.089" stroke="#EFC984" stroke-miterlimit="10"/>
</g>
<defs>
<clipPath id="clip0_65_8152">
<rect width="152.19" height="215.19" fill="white"/>
</clipPath>
</defs>
</svg>
