<svg width="403" height="170" viewBox="0 0 403 170" fill="none" xmlns="http://www.w3.org/2000/svg">
<g clip-path="url(#clip0_65_8129)">
<path d="M90.5978 70.6658C93.2586 45.9387 75.463 23.7265 50.8502 21.0534C26.2375 18.3803 4.12792 36.2585 1.46715 60.9856C-1.19361 85.7126 16.602 107.925 41.2148 110.598C65.8275 113.271 87.9371 95.3928 90.5978 70.6658Z" fill="#FDA140"/>
<path d="M399.658 145.814C399.561 144.241 400.74 141.349 398.344 141.349C384.974 138.088 372.009 132.964 359.47 127.296C351.51 124.423 344.283 120.269 337.366 115.455C330.044 111.068 323.223 105.963 316.674 100.47C314.741 98.6452 312.21 97.2864 311.573 94.5495C309.815 89.0951 306.375 85.2906 301.101 83.0583C296.155 80.9619 292.464 77.0992 288.465 73.7023C281.992 68.0343 287.479 58.1348 280.137 45.3819C279.519 44.0814 278.611 42.8197 277.548 41.8491C271.636 36.8411 270.805 29.9115 269.762 22.8848C269.472 23.1371 269.008 23.3506 268.931 23.6612C267.057 31.3285 262.516 41.1698 268.757 47.983C273.066 53.6703 272.641 61.687 274.824 68.3643C278.572 81.6996 295.729 84.7471 299.516 97.6747C271.926 89.1533 242.983 89.3474 214.774 84.65C203.548 80.9231 191.936 75.6046 184.034 66.4232C181.387 63.2787 179.223 59.5712 177.117 56.0385C176.885 55.7279 175.958 55.0097 175.996 55.4561C176.595 64.3657 178.18 78.8462 191.569 86.5523C214.233 99.5963 241.283 101.304 267.231 105.342C262.922 107.594 258.459 109.593 253.977 111.437C249.513 113.708 244.799 115.125 239.93 116.173C235.08 117.551 230.134 118.425 225.111 119.007C223.546 119.104 221.942 119.648 220.493 118.794C217.44 117.318 214.426 117.28 211.335 118.638C208.437 119.919 205.268 119.939 202.196 120.288C197.153 120.774 195.144 114.387 186.7 112.369C185.889 112.097 184.981 111.98 184.15 112.039C179.59 112.563 176.306 110.098 172.886 107.691C172.886 107.924 172.789 108.215 172.886 108.37C175.397 112.291 177.755 118.25 183.203 118.328C187.377 118.794 190.642 122.229 194.371 123.996C201.597 127.8 209.866 121.647 216.938 125.257C202.08 133.701 190.41 146.26 176.924 156.528C170.76 159.848 163.766 162.701 156.637 162.371C154.222 162.235 151.748 161.653 149.391 161.148C149.159 161.129 148.483 161.226 148.676 161.4C152.734 164.758 159.573 169.961 168.287 167.321C196.689 158.722 213.827 126.112 245.185 125.762C242.848 132.517 245.089 141.66 232.144 149.463C228.762 151.501 227.371 153.675 223.121 153.558C234.539 154.218 242.925 144.901 249.146 137.37C252.392 133.701 253.204 128.751 255.232 124.5C256.971 122.656 258.44 120.618 260.778 119.318C269.279 113.96 279.152 105.4 289.74 110.214C289.798 110.156 289.836 110.098 289.894 110.039C289.856 110.001 289.817 109.981 289.779 109.942C305.293 114.077 319.726 120.696 331.744 133.158C320.77 138.127 314.181 152.064 289.585 145.115C284.871 143.795 280.079 145.425 276.215 144.785C275.751 145.037 275.21 145.212 274.554 145.212C274.496 145.212 274.457 145.212 274.418 145.212C284.968 154.684 306.839 152.549 322.18 151.54C330.43 151.268 337.424 146.532 344.998 144.067C349.268 144.067 353.461 143.504 357.77 144.882C374.193 149.152 396.161 151.384 402.575 170.019C402.711 170.019 402.846 170.019 402.981 169.999C402.884 161.905 399.078 154.083 399.638 145.833L399.658 145.814Z" fill="#A6613B"/>
<path d="M299.536 97.6738C299.536 97.6738 307.187 99.4984 312.423 103.749" stroke="#3D2306" stroke-miterlimit="10" stroke-linecap="round"/>
<path d="M245.243 125.763C245.243 125.763 245.939 121.201 253.377 120.25" stroke="#3D2306" stroke-miterlimit="10" stroke-linecap="round"/>
<path d="M216.977 125.257C216.977 125.257 227.255 121.957 232.762 117.842" stroke="#3D2306" stroke-miterlimit="10" stroke-linecap="round"/>
<path d="M223.179 153.558C222.696 153.558 222.174 153.5 221.594 153.422C222.135 153.5 222.657 153.519 223.179 153.558Z" fill="#FC9730"/>
<path d="M313.157 109.73C315.263 109.73 317.253 110.234 319.031 111.108C321.871 105.653 327.532 101.907 334.063 101.81C335.473 94.2397 342.1 88.4941 350.041 88.4941C359.026 88.4941 366.31 95.812 366.31 104.838C366.31 106.546 366.039 108.216 365.556 109.768C369.633 110.04 373.207 112.137 375.468 115.281C376.028 115.184 376.608 115.145 377.187 115.145C383.042 115.145 387.795 119.92 387.795 125.802C387.795 131.683 383.042 136.458 377.187 136.458H313.157C305.815 136.458 299.864 130.48 299.864 123.104C299.864 115.728 305.815 109.749 313.157 109.749V109.73Z" fill="#5BAA76"/>
<path d="M318.104 118.192C319.842 118.192 321.485 118.6 322.953 119.318C325.291 114.814 329.967 111.709 335.357 111.631C336.517 105.381 341.984 100.645 348.554 100.645C355.973 100.645 361.982 106.681 361.982 114.135C361.982 115.552 361.769 116.911 361.364 118.211C364.725 118.425 367.682 120.172 369.556 122.773C370.019 122.695 370.483 122.656 370.966 122.656C375.796 122.656 379.719 126.597 379.719 131.45C379.719 133.274 379.158 134.963 378.212 136.38C377.883 136.419 377.535 136.438 377.188 136.438H313.157C311.824 136.438 310.549 136.244 309.332 135.875C307.941 134.031 307.11 131.721 307.11 129.237C307.11 123.142 312.017 118.211 318.084 118.211L318.104 118.192Z" fill="#037754"/>
<path d="M251.252 16.1304C252.856 16.1304 254.363 16.4992 255.715 17.1786C257.879 13.0247 262.169 10.1907 267.134 10.113C268.216 4.36743 273.24 0 279.268 0C286.088 0 291.614 5.5515 291.614 12.4035C291.614 13.704 291.421 14.9657 291.034 16.1498C294.126 16.3439 296.85 17.955 298.57 20.3425C298.995 20.2649 299.439 20.2261 299.864 20.2261C301.217 20.2261 302.492 20.5561 303.612 21.1578C305.235 19.4496 307.535 18.4015 310.066 18.4015C315.012 18.4015 319.031 22.4389 319.031 27.4081C319.031 32.3773 315.012 36.4147 310.066 36.4147H251.252C245.688 36.4147 241.167 31.8726 241.167 26.2823C241.167 20.6919 245.688 16.1498 251.252 16.1498V16.1304Z" fill="#5BAA76"/>
<path d="M257.106 24.9808C258.382 24.9808 259.58 25.272 260.662 25.8155C262.381 22.5156 265.801 20.2446 269.762 20.1864C270.612 15.6054 274.631 12.1309 279.442 12.1309C284.871 12.1309 289.295 16.5565 289.295 22.0304C289.295 23.0786 289.141 24.0685 288.832 25.0196C291.305 25.1749 293.469 26.456 294.841 28.3583C295.188 28.3001 295.517 28.2807 295.884 28.2807C296.966 28.2807 297.971 28.5524 298.859 29.0183C300.154 27.6595 301.989 26.8249 303.999 26.8249C307.94 26.8249 311.148 30.0276 311.148 34.0069C311.148 34.8609 310.993 35.6568 310.723 36.4138C310.51 36.4138 310.297 36.4526 310.085 36.4526H251.271C250.75 36.4526 250.247 36.3944 249.745 36.3167C249.32 35.3268 249.069 34.2398 249.069 33.0945C249.069 28.6301 252.663 25.0196 257.106 25.0196V24.9808Z" fill="#037754"/>
<path d="M185.599 137.798C187.202 137.798 188.71 138.167 190.062 138.847C192.226 134.693 196.515 131.859 201.481 131.781C202.563 126.035 207.586 121.668 213.614 121.668C220.435 121.668 225.961 127.219 225.961 134.071C225.961 135.372 225.767 136.634 225.381 137.818C228.472 138.012 231.197 139.623 232.916 142.011C233.341 141.933 233.786 141.894 234.211 141.894C235.563 141.894 236.838 142.224 237.959 142.826C239.582 141.118 241.881 140.069 244.412 140.069C249.359 140.069 253.377 144.107 253.377 149.076C253.377 154.045 249.359 158.083 244.412 158.083H185.599C180.034 158.083 175.513 153.541 175.513 147.95C175.513 142.36 180.034 137.818 185.599 137.818V137.798Z" fill="#5BAA76"/>
<path d="M191.453 146.649C192.728 146.649 193.926 146.94 195.008 147.483C196.728 144.184 200.148 141.913 204.108 141.854C204.959 137.273 208.977 133.799 213.788 133.799C219.218 133.799 223.642 138.224 223.642 143.698C223.642 144.747 223.488 145.736 223.178 146.688C225.652 146.843 227.815 148.124 229.187 150.026C229.535 149.968 229.864 149.949 230.231 149.949C231.313 149.949 232.317 150.22 233.206 150.686C234.501 149.327 236.336 148.493 238.345 148.493C242.287 148.493 245.494 151.696 245.494 155.675C245.494 156.529 245.34 157.325 245.069 158.082C244.857 158.082 244.644 158.121 244.432 158.121H185.618C185.096 158.121 184.594 158.062 184.092 157.985C183.667 156.995 183.416 155.908 183.416 154.763C183.416 150.298 187.009 146.688 191.453 146.688V146.649Z" fill="#037754"/>
<path d="M149.971 60.6983C152.367 60.6983 154.627 61.2612 156.617 62.2512C159.844 56.0591 166.239 51.8082 173.659 51.7111C175.262 43.1315 182.759 36.6289 191.782 36.6289C201.964 36.6289 210.214 44.9173 210.214 55.1468C210.214 57.0879 209.905 58.9708 209.364 60.7372C213.982 61.0283 218.039 63.4352 220.609 66.9874C221.246 66.8904 221.884 66.8321 222.56 66.8321C224.57 66.8321 226.483 67.3368 228.144 68.2103C230.579 65.6675 233.998 64.0952 237.766 64.0952C245.147 64.0952 251.136 70.1126 251.136 77.5275C251.136 84.9424 245.147 90.9598 237.766 90.9598H149.971C141.643 90.9598 134.9 84.1854 134.9 75.8194C134.9 67.4533 141.643 60.6789 149.971 60.6789V60.6983Z" fill="#5BAA76"/>
<path d="M158.704 73.8986C160.617 73.8986 162.414 74.345 164.017 75.1409C166.587 70.2105 171.688 66.8136 177.6 66.736C178.875 59.884 184.865 54.7207 192.033 54.7207C200.148 54.7207 206.736 61.3398 206.736 69.4923C206.736 71.0452 206.504 72.5398 206.06 73.9374C209.75 74.1703 212.977 76.092 215.025 78.926C215.527 78.8484 216.049 78.7901 216.571 78.7901C218.174 78.7901 219.681 79.1978 221.015 79.8965C222.947 77.8778 225.671 76.6161 228.685 76.6161C234.578 76.6161 239.35 81.4106 239.35 87.3309C239.35 88.5926 239.119 89.8155 238.713 90.9413C238.404 90.9607 238.094 90.9801 237.766 90.9801H149.971C149.198 90.9801 148.444 90.9025 147.71 90.786C147.073 89.3108 146.706 87.6803 146.706 85.9721C146.706 79.3142 152.077 73.918 158.704 73.918V73.8986Z" fill="#037754"/>
<path d="M48.6506 107.575C23.9002 107.575 3.82558 87.407 3.82558 62.5417C3.82558 51.7105 7.63184 41.7721 13.9885 34.0078C5.37127 42.1992 0 53.7874 0 66.6568C0 91.5221 20.0746 111.69 44.825 111.69C58.7942 111.69 71.2756 105.265 79.5064 95.1907C71.4688 102.858 60.6104 107.575 48.6506 107.575Z" fill="#E28A42"/>
</g>
<defs>
<clipPath id="clip0_65_8129">
<rect width="403" height="170" fill="white"/>
</clipPath>
</defs>
</svg>
