<svg width="72" height="56" viewBox="0 0 72 56" fill="none" xmlns="http://www.w3.org/2000/svg">
<g clip-path="url(#clip0_98_507)">
<path d="M6.60352 19.2755L8.68197 21.5981C9.04992 21.1117 9.41788 20.7445 9.90517 20.4963C10.2731 20.2482 10.7604 20.1291 11.377 20.1291C12.4809 20.1291 12.9682 20.7345 12.9682 21.3499C12.9682 21.5981 12.9682 21.7172 12.8488 21.8363C12.6002 22.2035 11.745 22.6899 11.2577 22.938C10.8897 23.3053 10.2831 23.5435 9.6665 23.9107C7.33943 25.2507 6.61346 26.5906 6.61346 29.1613H16.6378V26.2333H11.1383C11.5063 25.747 12.7295 25.1316 13.2168 24.7643C14.44 24.0298 15.5438 23.4244 16.1505 22.0844C16.2698 21.7172 16.3991 21.3499 16.3991 20.8636C16.3991 19.7618 16.0311 18.9082 15.2952 18.3028C14.5593 17.6973 13.4654 17.3301 11.9936 17.3301C9.54716 17.4492 7.46871 18.4318 6.61346 19.2854L6.60352 19.2755Z" fill="white"/>
<path d="M34.9559 2.80893V8.41687H32.2708V10.7395H39.8487V8.41687H37.5216V0H34.9559C34.7073 0.486352 32.7581 1.8263 31.9028 1.8263V4.14888C32.8774 4.26799 34.5879 3.41439 34.9559 2.80893Z" fill="white"/>
<path d="M62.9502 35.0168C62.9502 33.5577 62.0949 32.456 60.7524 32.2079C62.7115 31.8406 63.6861 29.0317 61.727 27.5726C60.0165 26.2327 56.2275 26.719 55.0043 28.3071L56.5955 30.1334C57.0828 29.3989 57.8187 28.9126 58.6739 28.9126C59.4098 28.9126 60.0165 29.2798 60.0165 30.0143C60.0165 30.3816 59.8971 30.7488 59.5292 30.987C58.9126 31.4734 57.938 31.3543 57.57 31.3543V33.1806H58.0573C59.2805 33.1806 60.2551 33.4287 60.2551 34.6495C60.2551 35.5031 59.6485 35.9895 58.4253 35.9895C57.57 35.9895 56.8341 35.7414 56.1082 35.1359L54.7656 36.9622C55.6209 37.9349 56.9634 38.4312 58.5546 38.4312C60.8717 38.3121 62.9502 37.2103 62.9502 35.0168Z" fill="white"/>
<path d="M70.2895 39.7726H48.8983V26.1051H50.4895C51.3447 26.1051 52.0807 25.3706 52.0807 24.517V18.4128C52.0807 17.5592 51.3447 16.8247 50.4895 16.8247H48.5304C46.2033 16.8247 44.2541 15.4847 44.2541 13.7775C44.2541 12.9239 43.5182 12.1895 42.663 12.1895H29.2177C28.3624 12.1895 27.6265 12.9239 27.6265 13.7775C27.6265 15.4847 25.6674 16.8247 23.3503 16.8247H21.3912C20.5359 16.8247 19.8 17.5592 19.8 18.4128V24.517C19.8 25.3706 20.5359 26.1051 21.3912 26.1051H22.9823V30.7403H1.59116C0.735912 30.7403 0 31.4748 0 32.3284V54.4128C0 55.2664 0.735912 56.0009 1.59116 56.0009H70.4088C71.2641 56.0009 72 55.2664 72 54.4128V41.3607C71.8807 40.5071 71.1448 39.7726 70.2895 39.7726ZM22.9823 20.0108H23.3503C26.7713 20.0108 29.5856 18.0555 30.4409 15.3756H41.4398C42.295 18.0555 45.1094 20.0108 48.5304 20.0108H48.8983V23.0579H22.863V20.0108H22.9823ZM3.05304 39.7726H15.2751C16.1304 39.7726 16.8663 39.0381 16.8663 38.1845C16.8663 37.3309 16.1304 36.5964 15.2751 36.5964H3.05304V33.6684H22.9724V52.9438H3.05304V39.7726ZM26.0354 32.2093H38.2575C39.1127 32.2093 39.8486 31.4748 39.8486 30.6212C39.8486 29.7676 39.1127 29.0331 38.2575 29.0331H26.0354V25.986H45.9646V52.8247H26.0354V32.2093ZM68.8177 52.9537H48.8983V48.924H61.1204C61.9757 48.924 62.7116 48.1895 62.7116 47.3359C62.7116 46.4823 61.9757 45.7478 61.1204 45.7478H48.8983V42.7006H68.8177V52.9438V52.9537Z" fill="white"/>
<path d="M65.6454 45.875C66.5205 45.875 67.2365 46.5896 67.2365 47.4631C67.2365 48.3365 66.5205 49.0512 65.6454 49.0512C64.7702 49.0512 64.0542 48.3365 64.0542 47.4631C64.0542 46.5896 64.7603 45.875 65.6454 45.875Z" fill="white"/>
<path d="M42.6629 29.0332C43.5381 29.0332 44.2541 29.7478 44.2541 30.6213C44.2541 31.4947 43.5381 32.2094 42.6629 32.2094C41.7878 32.2094 41.0718 31.4947 41.0718 30.6213C41.0718 29.7478 41.7878 29.0332 42.6629 29.0332Z" fill="white"/>
<path d="M19.8001 36.7246C20.6753 36.7246 21.3913 37.4392 21.3913 38.3127C21.3913 39.1861 20.6753 39.9008 19.8001 39.9008C18.925 39.9008 18.209 39.1861 18.209 38.3127C18.209 37.4392 18.925 36.7246 19.8001 36.7246Z" fill="white"/>
</g>
<defs>
<clipPath id="clip0_98_507">
<rect width="72" height="56" fill="white"/>
</clipPath>
</defs>
</svg>
