<svg width="61" height="58" viewBox="0 0 61 58" fill="none" xmlns="http://www.w3.org/2000/svg">
<g clip-path="url(#clip0_98_515)">
<path d="M59.6254 32.9038C57.958 32.3218 56.1834 32.2151 54.4186 32.4188C54.5161 31.9337 54.5161 31.342 54.6136 30.857C58.6406 28.7034 61.0977 24.1053 59.7229 20.002C59.5279 19.4199 58.9331 19.0222 58.3481 19.2162C56.5734 19.6042 55.0036 20.293 53.6287 21.3698C53.4337 20.778 53.2387 20.196 53.0437 19.711C54.8086 15.5106 53.8335 10.6118 50.294 8.16722C49.8065 7.7792 49.1142 7.8762 48.6267 8.36123C47.9344 9.14698 47.4468 10.02 46.9593 10.9028C46.3743 10.3111 45.682 9.72902 44.9897 9.24399C44.2974 3.56913 39.2856 -0.728246 34.1762 0.144809C33.5912 0.241815 33.0939 0.833553 33.1914 1.41559C33.5814 6.99345 38.3007 11.6885 43.5173 11.1938C44.5022 11.8826 45.3895 12.6586 46.1695 13.5414C45.4772 17.1597 46.657 20.875 49.6115 22.8346C50.099 23.2226 50.7913 23.1256 51.2788 22.6405C51.3438 22.5759 51.4089 22.5112 51.4739 22.4465C51.5714 22.7375 51.6689 23.1353 51.7664 23.4263C49.8943 25.9679 49.5042 28.8004 50.294 31.148C50.489 31.73 51.0838 32.1277 51.6689 31.9337C51.8639 31.9337 51.9614 31.8367 52.1564 31.8367C52.0589 32.2248 52.0589 32.7195 51.9614 33.1075C49.3092 34.2813 47.2421 36.4348 46.657 39.1704C46.5595 39.7524 46.8521 40.3442 47.4468 40.5382C47.8369 40.6352 48.2366 40.7322 48.6267 40.8292C48.3341 41.3142 48.0319 41.712 47.6419 42.1C44.0049 41.3142 40.2704 42.488 38.2032 45.3303C37.8132 45.8153 37.9107 46.5041 38.3983 46.9891C39.7731 48.2599 41.4502 49.0456 43.3126 49.5307L40.8554 51.8782H40.7579V51.2962C40.7579 49.6374 39.3831 48.2599 37.7157 48.2599C37.0234 48.2599 36.3409 48.4539 35.8436 48.8516C34.7613 48.0659 33.2889 48.0659 32.1091 48.8516C31.0268 48.0659 29.5544 48.0659 28.3746 48.8516C27.2923 48.0659 25.8199 48.0659 24.6401 48.8516C24.1526 48.4636 23.4603 48.2599 22.768 48.2599C21.1006 48.2599 19.7258 49.6277 19.7258 51.2962V51.8782H19.6283L17.1711 49.5307C18.9457 49.1426 20.6131 48.2599 22.0854 46.9891C22.573 46.6011 22.6802 45.9123 22.2804 45.3303C20.2133 42.4007 16.3813 41.3239 12.8418 42.1C12.5493 41.712 12.1495 41.2172 11.857 40.8292C12.247 40.7322 12.6468 40.6352 13.0368 40.5382C13.6316 40.3442 14.0217 39.7524 13.8266 39.1704C13.2416 36.4348 11.1745 34.2813 8.52229 33.1075C8.42478 32.7195 8.32728 32.2248 8.32728 31.8367C8.52229 31.8367 8.6198 31.9337 8.81481 31.9337C9.39985 32.0307 9.99464 31.7397 10.1896 31.148C11.077 28.5094 10.3847 25.6671 8.7173 23.4263C8.81481 23.1353 8.91232 22.7375 9.00982 22.4465C9.07483 22.5112 9.13983 22.5759 9.20483 22.6405C9.59486 23.1256 10.2872 23.2226 10.8722 22.8346C13.8169 20.875 14.9967 17.1597 14.3142 13.5414C15.104 12.6586 15.9815 11.8826 16.9663 11.1938C22.1732 11.7856 26.8925 7.09045 27.2923 1.41559C27.2923 0.833553 26.9022 0.241815 26.3075 0.144809C21.1981 -0.834953 16.1863 3.56913 15.494 9.24399C14.8115 9.72902 14.1192 10.3208 13.5244 10.9028C13.1343 10.02 12.5396 9.13728 11.857 8.36123C11.467 7.8762 10.7747 7.7792 10.1896 8.16722C6.65017 10.6118 5.66535 15.5009 7.43997 19.711C7.24496 20.3027 7.04994 20.8847 6.85493 21.3698C5.48009 20.293 3.91024 19.5072 2.13562 19.2162C1.55058 19.1192 0.955794 19.4102 0.760781 20.002C-0.614059 24.1053 1.7456 28.7034 5.87012 30.857C5.87012 31.342 5.96762 31.9337 6.06513 32.4188C4.30026 32.1277 2.52565 32.3218 0.858287 32.9038C0.273249 33.0978 -0.126527 33.6896 0.0684855 34.2716C0.955794 38.2779 4.8853 41.0232 9.21459 41.1202C9.60461 41.809 10.0044 42.391 10.4919 42.9827C9.5071 43.4678 8.6198 44.0595 7.83975 44.7386C7.35221 45.1266 7.25471 45.8153 7.64473 46.3974C9.01957 48.3569 11.3792 49.6277 14.0314 49.8217L18.4582 54.0317C18.6532 54.2258 18.9457 54.3228 19.3455 54.3228H22.885L25.5372 55.1085L23.9673 55.5935C23.275 55.7876 22.9825 56.4763 23.1775 57.1553C23.3725 57.8441 24.0648 58.1351 24.7474 57.9411L29.9542 56.3793L35.161 57.9411C35.8533 58.1351 36.5359 57.7471 36.7309 57.1553C36.9259 56.4666 36.5359 55.7876 35.9411 55.5935L34.3712 55.1085L37.0234 54.3228H41.7427C42.0352 54.3228 42.3278 54.2258 42.63 54.0317L47.0568 49.8217C49.709 49.6277 51.9711 48.3569 53.4435 46.3974C53.8335 45.9123 53.736 45.2236 53.2485 44.7386C52.4587 44.0498 51.5811 43.4678 50.5963 42.9827C51.0838 42.4007 51.4836 41.712 51.8736 41.1202C56.3004 40.9262 60.2299 38.1906 61.0197 34.2716C60.5322 33.6799 60.2299 33.0978 59.6449 32.9038H59.6254ZM38.3885 6.98375C37.1112 5.80997 36.2239 4.24817 35.8338 2.48266C37.2087 2.57966 38.681 3.1714 39.8608 4.23847C41.1382 5.41224 42.0255 6.97404 42.4155 8.73956C40.9432 8.64255 39.5683 8.06051 38.3885 6.98375ZM49.9918 19.9923C47.9246 17.8387 47.7296 13.9294 49.6992 10.8931C51.9614 13.3376 51.8639 17.247 49.9918 19.9923ZM57.5583 21.9421C57.6558 23.3099 57.2657 24.8717 56.3784 26.1425C55.3936 27.6073 53.9213 28.684 52.2539 29.2758C52.0589 27.52 52.7414 25.8514 53.8238 24.4837L53.9213 24.3867C54.9061 23.3099 56.1834 22.4271 57.5583 21.9421ZM20.3986 4.24817C21.5784 3.1714 23.0507 2.58937 24.4256 2.49236C23.743 5.81967 20.9836 8.65225 17.8439 8.74926C18.2339 6.99345 19.1212 5.42195 20.3986 4.24817ZM10.5699 10.8931C12.5396 13.9197 12.3348 17.8387 10.2774 19.9923C8.40528 17.2567 8.30778 13.3376 10.5699 10.8931ZM2.70116 21.9421C4.46602 22.5338 5.94812 23.6979 6.82568 25.0754C7.71299 26.4432 8.20052 27.908 8.00551 29.2855C4.75854 28.1117 2.39889 24.9784 2.70116 21.9518V21.9421ZM2.60365 34.9506C6.04563 34.3686 9.68262 35.8334 10.9599 38.666C7.61548 39.2577 3.97849 37.7832 2.60365 34.9506ZM19.4138 46.0093C17.9414 46.9891 16.1668 47.4741 14.4019 47.4741C12.7346 47.3771 11.35 46.8921 10.2677 45.9123C13.1148 43.9528 17.0541 43.9528 19.4138 46.0093ZM33.8642 50.7044C34.1567 50.7044 34.459 50.9955 34.459 51.2962V51.8782H33.1817V51.2962C33.1817 51.0052 33.4742 50.7044 33.8642 50.7044ZM30.1297 50.7044C30.4222 50.7044 30.7245 50.9955 30.7245 51.2962V51.8782H29.4472V51.2962C29.5447 51.0052 29.8372 50.7044 30.1395 50.7044H30.1297ZM26.4927 50.7044C26.7852 50.7044 27.0875 50.9955 27.0875 51.2962V51.8782H25.8102V51.2962C25.8102 51.0052 26.1027 50.7044 26.5025 50.7044H26.4927ZM22.1732 51.2865C22.1732 50.9955 22.4657 50.6947 22.7582 50.6947C23.0507 50.6947 23.353 50.9858 23.353 51.2865V51.8685H22.0757V51.2865H22.1732ZM36.9162 51.9752V51.3932C36.9162 51.1022 37.2087 50.8014 37.5012 50.8014C37.7937 50.8014 38.096 51.0925 38.096 51.3932V51.9752H36.9162ZM45.9647 47.4741C44.1999 47.5711 42.4253 46.9891 40.9529 46.0093C43.2151 43.9528 47.1446 43.8558 50.099 45.9123C49.0167 46.7951 47.5443 47.3771 45.9745 47.4741H45.9647ZM49.2995 38.569C49.8943 37.2982 50.9668 36.2214 52.4489 35.5424C54.0188 34.7566 55.8909 34.5626 57.6558 34.8536C56.2809 37.8802 52.5464 39.2577 49.2995 38.569Z" fill="white"/>
<path d="M12.9292 27.5201C12.9292 36.9103 20.6907 44.632 30.1293 44.632C39.5679 44.632 47.3295 36.9103 47.3295 27.5201C47.3295 18.1299 39.5679 10.4082 30.1293 10.4082C20.6907 10.4082 12.9292 18.0329 12.9292 27.5201ZM30.1293 12.8528C38.2906 12.8528 44.8723 19.4007 44.8723 27.5201C44.8723 35.6395 38.2906 42.1874 30.1293 42.1874C21.968 42.1874 15.3864 35.6395 15.3864 27.5201C15.3864 19.4007 21.968 12.8528 30.1293 12.8528Z" fill="white"/>
<path d="M33.8641 33.584H25.2153C24.523 33.584 23.938 34.166 23.938 34.8548C23.938 35.5435 24.5328 36.1255 25.2153 36.1255H33.8641C34.5564 36.1255 35.1415 35.5435 35.1415 34.8548C35.1415 34.166 34.4492 33.584 33.8641 33.584Z" fill="white"/>
<path d="M37.5105 29.9648H22.7676C22.0753 29.9648 21.4902 30.5469 21.4902 31.2356C21.4902 31.9244 22.0753 32.5064 22.7676 32.5064H37.5105C38.2028 32.5064 38.7879 31.9244 38.7879 31.2356C38.7879 30.5469 38.2028 29.9648 37.5105 29.9648Z" fill="white"/>
<path d="M20.3008 28.6939H39.9581C40.6504 28.6939 41.2354 28.1022 41.2354 27.4231C41.2354 26.7441 40.6406 26.1523 39.9581 26.1523H20.3008C19.6085 26.1523 19.0234 26.7441 19.0234 27.4231C19.1209 28.1119 19.6085 28.6939 20.3008 28.6939Z" fill="white"/>
</g>
<defs>
<clipPath id="clip0_98_515">
<rect width="61" height="58" fill="white"/>
</clipPath>
</defs>
</svg>
