<svg width="52" height="56" viewBox="0 0 52 56" fill="none" xmlns="http://www.w3.org/2000/svg">
<g clip-path="url(#clip0_98_505)">
<path d="M50.5805 53.1687H46.4305V52.0772C46.4305 49.6781 44.4584 47.7221 42.0638 47.7221H39.6583C39.4415 45.4311 37.5778 43.5832 35.2915 43.5832H27.4249V10.8931H38.0221L34.5222 25.9251H30.1554C29.3861 25.9251 28.736 26.5735 28.736 27.3408C28.736 33.3385 33.6553 38.2339 39.6583 38.2339C45.6612 38.2339 50.5805 33.3277 50.5805 27.3408C50.5805 26.5735 49.9304 25.9251 49.1611 25.9251H44.7943L41.2944 10.8931H44.3501C46.203 10.8931 47.7416 9.36936 47.7416 7.51061C47.7416 5.65187 46.3222 4.12814 44.4693 4.12814H27.4249V1.41567C27.4249 0.648398 26.7747 0 26.0054 0C25.2361 0 24.586 0.648398 24.586 1.41567V4.13894H7.54157C5.68868 4.13894 4.15003 5.66268 4.15003 7.52142C4.15003 9.38016 5.67785 10.9039 7.54157 10.9039H10.5972L7.20567 25.9359H2.83892C2.0696 25.9359 1.41946 26.5843 1.41946 27.3516C1.41946 33.3493 6.33882 38.2447 12.3417 38.2447C18.3447 38.2447 23.264 33.3385 23.264 27.3516C23.264 26.5843 22.6139 25.9359 21.8445 25.9359H17.4778L13.9779 10.9039H24.5751V43.594H16.7085C14.4113 43.594 12.4501 45.4419 12.3417 47.7329H9.93624C7.53074 47.7329 5.56949 49.6889 5.56949 52.088V53.1795H1.41946C0.650135 53.1795 0 53.8279 0 54.5951C0 55.3624 0.650135 56.0108 1.41946 56.0108H50.5805C51.3499 56.0108 52 55.3516 52 54.5951C52 53.8387 51.3499 53.1795 50.5805 53.1795V53.1687ZM39.6583 35.5214C35.6166 35.5214 32.225 32.582 31.5749 28.6592H47.7416C47.0915 32.4739 43.6999 35.5214 39.6583 35.5214ZM37.2528 25.9359L39.6583 15.6912L42.0638 25.9359H37.2528ZM44.4584 6.86222C44.7835 6.86222 45.1086 7.18641 45.1086 7.51061C45.1086 7.83481 44.7835 8.16982 44.4584 8.16982H27.414V6.75415H44.4584V6.86222ZM12.3417 35.5214C8.30006 35.5214 4.90852 32.582 4.25839 28.6592H20.4251C19.775 32.4739 16.3834 35.5214 12.3417 35.5214ZM9.93624 25.9359L12.3417 15.6912L14.7472 25.9359H9.93624ZM7.54157 8.27788C7.2165 8.27788 6.89144 7.95369 6.89144 7.62949C6.89144 7.30529 7.2165 6.98109 7.54157 6.98109H24.586V8.39676H7.54157V8.28869V8.27788ZM16.7193 46.4145H35.1832C36.0608 46.4145 36.711 46.9548 36.8193 47.8302H15.0723C15.289 46.9548 15.95 46.4145 16.7085 46.4145H16.7193ZM8.30006 53.1687V52.0772C8.30006 51.0938 9.06939 50.4454 9.93624 50.4454H42.0529C43.039 50.4454 43.6891 51.2127 43.6891 52.0772V53.1687H8.30006Z" fill="white"/>
</g>
<defs>
<clipPath id="clip0_98_505">
<rect width="52" height="56" fill="white"/>
</clipPath>
</defs>
</svg>
