<svg width="70" height="56" viewBox="0 0 70 56" fill="none" xmlns="http://www.w3.org/2000/svg">
<g clip-path="url(#clip0_98_501)">
<path d="M66.6863 44.6946V24.4713C67.4753 22.3474 66.6863 19.8145 64.7006 18.4821L36.1903 0.791648C34.5991 -0.276903 32.6134 -0.276903 30.8907 0.791648L2.38046 18.4821C-0.801952 20.4741 -0.801952 24.9989 2.38046 26.9909L11.9277 32.9801V50.6706C11.9277 53.5992 14.3079 55.9869 17.2274 55.9869H49.709C52.6284 55.9869 55.0087 53.5992 55.0087 50.6706V32.9801L63.3592 27.7957V44.6814C61.3735 45.341 60.0453 47.2143 60.0453 49.3382C60.0453 52.1349 62.294 54.3907 65.0819 54.3907C67.8699 54.3907 69.9871 52.1349 69.9871 49.3382C69.9871 47.2143 68.6589 45.3542 66.6732 44.6814L66.6863 44.6946ZM51.8394 50.6706C51.8394 51.7391 50.9057 52.6626 49.8537 52.6626H17.372C16.3068 52.6626 15.3863 51.7259 15.3863 50.6706V34.9721L31.0354 44.6814C32.6266 45.75 34.6123 45.75 36.335 44.6814L51.9841 34.9721V50.6706H51.8526H51.8394ZM62.8464 24.2074L34.4676 41.8979C33.9416 42.2937 33.2709 42.2937 32.7449 41.8979L4.24783 24.2074C3.18264 23.5478 3.18264 21.9516 4.24783 21.2788L32.7449 3.58835C33.2709 3.19259 33.9416 3.19259 34.4676 3.58835L62.9779 21.2788C63.9116 21.9384 63.9116 23.5346 62.8464 24.2074ZM65.0951 51.0795C64.1614 51.0795 63.3724 50.288 63.3724 49.3514C63.3724 48.4147 64.1614 47.6232 65.0951 47.6232C66.0288 47.6232 66.8178 48.4147 66.8178 49.3514C66.6863 50.288 65.8841 51.0795 65.0951 51.0795Z" fill="white"/>
<path d="M24.3942 13.0336L11.1385 21.4105C10.3495 21.9382 10.0733 22.8748 10.6125 23.6663C11.1385 24.4579 12.0722 24.7349 12.8612 24.194L26.1169 15.8171C26.9059 15.2894 27.1821 14.3528 26.6429 13.5613C26.1169 12.7566 25.1832 12.4927 24.3942 13.0336Z" fill="white"/>
<path d="M31.5479 9.44531C32.4947 9.44531 33.2706 10.2236 33.2706 11.1735C33.2706 12.1233 32.4947 12.9016 31.5479 12.9016C30.6011 12.9016 29.8252 12.1233 29.8252 11.1735C29.8252 10.2236 30.6011 9.44531 31.5479 9.44531Z" fill="white"/>
</g>
<defs>
<clipPath id="clip0_98_501">
<rect width="70" height="56" fill="white"/>
</clipPath>
</defs>
</svg>
