<svg width="65" height="65" viewBox="0 0 65 65" fill="none" xmlns="http://www.w3.org/2000/svg">
<g clip-path="url(#clip0_109_4724)">
<path d="M39.5569 14.6543L42.0769 39.918H6.60742L9.12744 14.6543H39.5569Z" fill="#C5E0FF"/>
<path d="M10.4323 15.873H15.4723H35.6225H39.6565L39.5569 14.6543H34.5168H14.3667H9.32666L6.80664 39.918H8.11147L10.4323 15.873Z" fill="#C5E0FF"/>
<path d="M58.3924 45.2812V50.6357C58.3924 53.7724 55.8723 56.2898 52.7547 56.2898H51.4399C48.3123 56.2898 45.8022 53.7624 45.8022 50.6357V45.2812H58.3924Z" fill="white"/>
<path d="M46.8083 51.6446V46.2902H58.3924V45.2812H45.8022V50.6357C45.8022 52.4538 46.609 54.0721 48.0234 55.081C47.2166 54.172 46.8182 52.9632 46.8182 51.6446H46.8083Z" fill="white"/>
<path d="M58.3924 41.1367V45.2824H45.8022V41.1367H52.1471H58.3924Z" fill="#C5E0FF"/>
<path d="M46.7087 42.1457H53.0535H58.3924V41.1367H52.1471H45.8022V45.2824H46.7087V42.1457Z" fill="#C5E0FF"/>
<path d="M16.887 39.918L14.367 55.0822H10.5322L13.0522 39.918H16.887Z" fill="#C5E0FF"/>
<path d="M13.9586 40.9369H16.6779L16.887 39.918H13.0522L10.5322 55.0822H11.5382L13.9586 40.9369Z" fill="#C5E0FF"/>
<path d="M35.7223 39.918L38.2423 55.0822H34.5171L31.9971 39.918H35.7223Z" fill="#C5E0FF"/>
<path d="M33.1027 40.837H35.9215L35.7223 39.918H31.9971L34.5171 55.0822H35.5231L33.1027 40.837Z" fill="#C5E0FF"/>
<path d="M34.5169 9.60938H14.3667V14.6641H34.5169V9.60938Z" fill="white"/>
<path d="M15.5719 10.918H34.5169V9.60938H14.3667V14.6541H15.5719V10.918Z" fill="white"/>
<path d="M26.957 29.8184H21.917V24.7637C24.6362 24.7637 26.957 26.9914 26.957 29.8184Z" fill="white"/>
<path d="M22.7238 25.8728C24.1382 25.8728 25.443 26.4822 26.3494 27.3912C25.5426 25.7729 23.8294 24.6641 21.917 24.6641V29.7188H22.7238V25.8828V25.8728Z" fill="white"/>
<path d="M21.917 29.8184H26.957C26.957 32.6455 24.7358 34.8731 21.917 34.8731C19.0982 34.8731 16.877 32.6455 16.877 29.8184C16.877 26.9914 19.0982 24.7637 21.917 24.7637V29.8184Z" fill="white"/>
<path d="M17.2853 31.0271C17.2853 28.3999 19.2974 26.1722 21.917 25.9724V24.7637C19.0982 24.7637 16.877 26.9914 16.877 29.8184C16.877 30.6276 17.0762 31.4367 17.4845 32.146C17.3849 31.7464 17.2853 31.4367 17.2853 31.0371V31.0271Z" fill="white"/>
<path d="M31.9971 19.709V29.8185H26.957C26.957 26.9914 24.7358 24.7637 21.917 24.7637V19.709H31.9971Z" fill="white"/>
<path d="M22.9227 20.7179H31.9868V19.709H21.9067V24.7637C22.2056 24.7637 22.6139 24.7637 22.9128 24.8636V20.7179H22.9227Z" fill="white"/>
<path d="M26.0503 26.8906C26.6579 27.6998 26.9567 28.7087 26.9567 29.8176H27.8631C27.5643 28.6088 26.9567 27.5899 26.0503 26.8906Z" fill="white"/>
<path d="M13.0521 40.5276H6.7072C6.50799 40.5276 6.40838 40.4277 6.19921 40.3278C6.09961 40.2279 6 40.0281 6 39.8184L8.52002 14.5547C8.52002 14.255 8.81883 13.9453 9.12761 13.9453H14.1676C14.4665 13.9453 14.7752 14.245 14.7752 14.5547C14.7752 14.8644 14.6756 15.2639 14.3768 15.2639H9.93441L7.514 39.3189H13.1517C13.4505 39.3189 13.7593 39.6186 13.7593 39.9282C13.7593 40.2379 13.4604 40.5376 13.0521 40.5376V40.5276Z" fill="#074698"/>
<path d="M31.997 40.5273H16.8869C16.5881 40.5273 16.2793 40.2276 16.2793 39.918C16.2793 39.6083 16.5781 39.3086 16.8869 39.3086H31.997C32.2958 39.3086 32.6046 39.6083 32.6046 39.918C32.6046 40.2276 32.3058 40.5273 31.997 40.5273Z" fill="#074698"/>
<path d="M42.0669 40.5276H35.722C35.4232 40.5276 35.1144 40.2279 35.1144 39.9182C35.1144 39.6085 35.4132 39.3088 35.722 39.3088H41.3696L38.9492 15.2539H34.5168C34.218 15.2539 33.9092 14.9542 33.9092 14.6445C33.9092 14.3348 34.208 14.0352 34.5168 14.0352H39.5568C39.8556 14.0352 40.1644 14.2349 40.1644 14.6445L42.6844 39.9082C42.6844 40.108 42.6844 40.3078 42.4852 40.4177C42.3856 40.4177 42.286 40.5176 42.0868 40.5176L42.0669 40.5276Z" fill="#074698"/>
<path d="M14.367 55.6913H10.5422C10.343 55.6913 10.1437 55.5914 10.0342 55.4915C9.93457 55.2917 9.93457 55.1918 9.93457 54.982L12.4546 39.8278C12.5542 39.5281 12.7534 39.3184 13.0622 39.3184H16.887C17.0862 39.3184 17.2854 39.4183 17.395 39.5182C17.4946 39.618 17.5942 39.8178 17.4946 40.0276L14.9746 55.1818C14.875 55.4815 14.6758 55.6913 14.367 55.6913ZM11.339 54.4726H13.859L16.0802 40.5271H13.5602L11.339 54.4726Z" fill="#074698"/>
<path d="M38.2425 55.6913H34.4176C34.1188 55.6913 33.8101 55.4915 33.8101 55.1818L31.29 40.0276C31.29 39.8278 31.29 39.628 31.3896 39.5182C31.4893 39.4183 31.6885 39.3184 31.8976 39.3184H35.7225C36.0213 39.3184 36.3301 39.5182 36.3301 39.8278L38.8501 54.982C38.8501 55.1818 38.8501 55.3816 38.7505 55.4915C38.6509 55.5914 38.4517 55.6913 38.2425 55.6913ZM35.0153 54.4726H37.5353L35.2145 40.5271H32.6945L35.0153 54.4726Z" fill="#074698"/>
<path d="M26.9572 45.582H16.8771C16.5783 45.582 16.2695 45.2823 16.2695 44.9726C16.2695 44.663 16.5683 44.3633 16.8771 44.3633H26.9572C27.256 44.3633 27.5648 44.663 27.5648 44.9726C27.5648 45.2823 27.266 45.582 26.9572 45.582Z" fill="#074698"/>
<path d="M31.9972 30.4278H21.9172C21.6183 30.4278 21.3096 30.1281 21.3096 29.8184V19.709C21.3096 19.4093 21.6084 19.0996 21.9172 19.0996H31.9972C32.296 19.0996 32.6048 19.3993 32.6048 19.709V29.8184C32.6048 30.1181 32.306 30.4278 31.9972 30.4278ZM22.5248 29.2091H31.3896V20.3183H22.5248V29.2091Z" fill="#074698"/>
<path d="M21.917 35.4727C18.7894 35.4727 16.2793 32.9454 16.2793 29.8086C16.2793 26.6719 18.7993 24.1445 21.917 24.1445C25.0346 24.1445 27.5546 26.6719 27.5546 29.8086C27.5546 32.9454 25.0346 35.4727 21.917 35.4727ZM21.917 25.3733C19.4965 25.3733 17.4845 27.3911 17.4845 29.8186C17.4845 32.2461 19.4965 34.264 21.917 34.264C24.3374 34.264 26.3494 32.2461 26.3494 29.8186C26.3494 27.3911 24.3374 25.3733 21.917 25.3733Z" fill="#074698"/>
<path d="M13.0519 34.2638C12.7531 34.2638 12.4443 33.9641 12.4443 33.6544V19.709C12.4443 19.4093 12.7432 19.0996 13.0519 19.0996H18.092C18.3908 19.0996 18.6996 19.3993 18.6996 19.709C18.6996 20.0187 18.4007 20.3183 18.092 20.3183H13.6595V33.5546C13.7591 33.9541 13.4603 34.2638 13.0519 34.2638Z" fill="#074698"/>
<path d="M34.517 15.2635H14.3669C14.0681 15.2635 13.7593 14.9638 13.7593 14.6541V9.60937C13.7593 9.30968 14.0581 9 14.3669 9H34.517C34.8158 9 35.1246 9.29969 35.1246 9.60937V14.6641C35.1246 14.9638 34.8258 15.2735 34.517 15.2735V15.2635ZM14.9645 14.0547H33.9094V10.2087H14.9645V14.0447V14.0547Z" fill="#074698"/>
<path d="M52.7549 57.0002H51.4401C48.0137 57.0002 45.0952 54.1731 45.0952 50.6368V41.1367C45.0952 40.837 45.394 40.5273 45.7028 40.5273H58.2929C58.5917 40.5273 58.9005 40.827 58.9005 41.1367V50.6368C59.0997 54.0732 56.1813 57.0002 52.7549 57.0002ZM46.5096 41.846V50.6368C46.5096 53.4639 48.7308 55.6916 51.5496 55.6916H52.8545C55.6733 55.6916 57.8945 53.4639 57.8945 50.6368V41.7461H46.5096V41.846Z" fill="#074698"/>
<path d="M58.3925 45.8808H45.8024C45.5036 45.8808 45.1948 45.5812 45.1948 45.2715C45.1948 44.9618 45.4936 44.6621 45.8024 44.6621H58.3925C58.6913 44.6621 59.0001 44.9618 59.0001 45.2715C59.0001 45.5812 58.8009 45.8808 58.3925 45.8808Z" fill="#074698"/>
<path d="M52.147 41.846C51.8482 41.846 51.5394 41.5463 51.5394 41.2366V34.2639C51.5394 33.5546 51.2406 32.9452 50.8322 32.4457C50.3242 31.9363 49.7266 31.7365 49.0194 31.7365C48.0134 31.7365 47.1069 31.3369 46.3001 30.6276C45.5929 29.9184 45.1945 29.0093 45.1945 27.9005C45.1945 25.7827 46.9077 24.0645 49.0194 24.0645H52.8442C53.5514 24.0645 54.149 23.7648 54.657 23.3552C55.165 22.8457 55.3642 22.2464 55.3642 21.5371C55.3642 20.1186 54.2586 19.0097 52.8442 19.0097H40.7521C40.4533 19.0097 40.1445 18.7101 40.1445 18.4004C40.1445 18.0907 40.4433 17.791 40.7521 17.791H52.7446C54.8562 17.791 56.5695 19.5092 56.5695 21.627C56.5695 22.636 56.171 23.545 55.4638 24.3542C54.7566 25.0634 53.8502 25.463 52.7446 25.463H48.9198C47.5054 25.463 46.3997 26.5719 46.3997 27.9904C46.3997 28.6997 46.6986 29.299 47.1069 29.8085C47.6149 30.318 48.2126 30.5178 48.9198 30.5178C49.9258 30.5178 50.8322 30.9173 51.639 31.6266C52.3462 32.3359 52.7446 33.2449 52.7446 34.3538V41.3265C52.7446 41.5263 52.4458 41.836 52.137 41.836L52.147 41.846Z" fill="#074698"/>
<path d="M52.1471 51.4453C51.8483 51.4453 51.5396 51.1457 51.5396 50.836V45.7812C51.5396 45.4816 51.8384 45.1719 52.1471 45.1719C52.4559 45.1719 52.7547 45.4716 52.7547 45.7812V50.836C52.7547 51.1357 52.4559 51.4453 52.1471 51.4453Z" fill="#074698"/>
</g>
<defs>
<clipPath id="clip0_109_4724">
<rect width="53" height="48" fill="white" transform="translate(6 9)"/>
</clipPath>
</defs>
</svg>
