<svg width="65" height="65" viewBox="0 0 65 65" fill="none" xmlns="http://www.w3.org/2000/svg">
<g clip-path="url(#clip0_109_4900)">
<path d="M54.4089 15.3301V57.41H12.6719V15.3301H54.4089ZM40.8844 21.6446V19.5397H38.7967V21.6446H40.8844ZM36.709 21.6446V19.5397H34.6213V21.6446H36.709ZM32.5419 21.6446V19.5397H30.4542V21.6446H32.5419ZM28.3666 21.6446V19.5397H26.2789V21.6446H28.3666Z" fill="#C5E0FF"/>
<path d="M13.9261 36.5447V16.5114H54.4914V15.3301H12.6719V57.4931H13.9261V36.5364V36.5447Z" fill="#C5E0FF"/>
<path d="M21.0226 48.9981C22.1944 48.9981 23.2754 48.5738 24.1913 47.9082V54.2227L21.0226 52.1179L17.854 54.2227V47.9082C18.7699 48.6653 19.8592 48.9981 21.0226 48.9981Z" fill="white"/>
<path d="M18.2666 48.9162C19.1 49.59 20.1892 50.006 21.4352 50.006C22.4337 50.006 23.4404 49.7564 24.1913 49.1657V47.9844C23.3579 48.6583 22.2687 49.0825 21.0226 49.0825C19.7766 49.0825 18.7699 48.6583 17.854 47.9844V54.2989L18.1841 54.0493V48.9162H18.2666Z" fill="white"/>
<path d="M26.2792 43.7819C26.2792 45.4625 25.4458 47.0681 24.1916 47.9916C23.3581 48.6655 22.2689 49.0897 21.0229 49.0897C19.7769 49.0897 18.7702 48.6655 17.8543 47.9916C16.6 47.0681 15.7666 45.4708 15.7666 43.7819C15.7666 40.8368 18.1018 38.4824 21.0229 38.4824C23.944 38.4824 26.2792 40.8368 26.2792 43.7819Z" fill="white"/>
<path d="M16.6 45.3785C16.6 42.4334 18.9352 40.079 21.8563 40.079C23.6057 40.079 25.1158 40.9192 26.0317 42.1838C25.3633 39.9958 23.3581 38.3984 21.0229 38.3984C18.1018 38.3984 15.7666 40.7528 15.7666 43.6979C15.7666 44.8793 16.1874 45.9692 16.7651 46.8094C16.6825 46.3851 16.6 45.886 16.6 45.3785Z" fill="white"/>
<path d="M16.2615 8.76467C17.3508 9.52174 18.0109 10.7031 18.0109 12.0509C18.0109 13.4818 17.26 14.7464 16.1708 15.4202H12.6638V35.4535H9.50342V13.2239C9.50342 10.4535 11.5911 8.34869 14.3389 8.51508L16.2615 8.76467Z" fill="white"/>
<path d="M10.3368 14.3226C10.3368 11.5439 12.4245 9.43905 15.1806 9.60544L17.0207 9.77183C17.1857 9.85503 17.3508 10.0214 17.4415 10.1046C17.1032 9.59712 16.6906 9.09796 16.1873 8.75686L14.3472 8.59047C11.5911 8.3492 9.50342 10.5372 9.50342 13.3159V35.3625H10.3368V14.3226Z" fill="white"/>
<path d="M55.581 9.69712C56.1668 10.2878 56.4969 11.1281 56.4969 12.0515C56.4969 13.8153 55.1601 15.2462 53.4108 15.3294H16.1792C17.2602 14.6555 18.0193 13.391 18.0193 11.96C18.0193 10.6123 17.3509 9.34771 16.27 8.67383H53.2457C54.1617 8.75702 54.9951 9.09812 55.581 9.68048V9.69712Z" fill="white"/>
<path d="M16.1792 15.3291H17.0951C17.4335 14.7384 17.681 14.0645 17.7635 13.3906C17.4335 14.2309 16.9301 14.9048 16.1792 15.3291Z" fill="white"/>
<path d="M17.3509 9.86301H52.9982C53.9141 9.86301 54.7475 10.2041 55.3334 10.8697C55.9193 11.4603 56.2493 12.3006 56.2493 13.2241V13.3073C56.4144 12.883 56.4969 12.5502 56.4969 12.0427C56.4969 11.1192 56.1668 10.279 55.581 9.6883C54.9951 9.09761 54.1617 8.68164 53.2457 8.68164H16.2617C16.6826 9.01442 17.0951 9.43871 17.3509 9.86301Z" fill="white"/>
<path d="M40.8845 19.5391H38.7969V21.6439H40.8845V19.5391Z" fill="#074698"/>
<path d="M36.7176 19.5391H34.6299V21.6439H36.7176V19.5391Z" fill="#074698"/>
<path d="M32.5423 19.5391H30.4546V21.6439H32.5423V19.5391Z" fill="#074698"/>
<path d="M28.3665 19.5391H26.2788V21.6439H28.3665V19.5391Z" fill="#074698"/>
<path d="M54.4088 57.9991H12.6718C12.4243 57.9991 12.1685 57.7496 12.1685 57.4917V15.4118C12.1685 15.1622 12.416 14.9043 12.6718 14.9043H54.4088C54.6563 14.9043 54.9121 15.1539 54.9121 15.4118V57.4917C54.9947 57.7412 54.7471 57.9991 54.4088 57.9991ZM13.2577 56.9093H53.9962V15.9193H13.2577V56.901V56.9093Z" fill="#074698"/>
<path d="M53.2374 15.9205H16.1791C15.9316 15.9205 15.6758 15.671 15.6758 15.4131C15.6758 15.1552 15.9233 14.9056 16.1791 14.9056H53.4107C54.83 14.8224 56.0017 13.641 56.0017 12.1269C56.0017 11.3698 55.7542 10.6959 55.1683 10.1052C54.665 9.59775 53.9966 9.26498 53.2457 9.26498H16.2617C16.0141 9.26498 15.7583 9.01539 15.7583 8.75749C15.7583 8.49958 16.0058 8.25 16.2617 8.25H53.2374C54.2359 8.25 55.2426 8.67429 55.911 9.43136C56.5793 10.1884 57.0002 11.1119 57.0002 12.1269C57.0002 14.1485 55.4159 15.829 53.4107 15.9122H53.2457L53.2374 15.9205Z" fill="#074698"/>
<path d="M12.672 35.8702H9.50335C9.2558 35.8702 9 35.6206 9 35.3627V13.2246C9 11.7104 9.58587 10.2795 10.6668 9.27284C11.6735 8.34938 13.0103 7.92509 14.4296 8.00828L16.2615 8.17467C16.344 8.17467 16.4265 8.17467 16.509 8.25786C17.7633 9.09813 18.4317 10.5291 18.4317 11.96C18.4317 12.2096 18.1841 12.4675 17.9283 12.4675C17.6725 12.4675 17.425 12.2179 17.425 11.96C17.425 10.8619 16.9216 9.8552 16.0057 9.18133L14.2563 9.01494C13.1753 8.93174 12.0861 9.26452 11.3352 10.0216C10.5018 10.7787 9.99845 11.96 9.99845 13.2163V34.7637H12.5895C12.837 34.7637 13.0928 35.0133 13.0928 35.2712C13.2579 35.6123 13.0103 35.8619 12.672 35.8619V35.8702Z" fill="#074698"/>
<path d="M16.1791 15.921C16.014 15.921 15.8407 15.8378 15.7582 15.6714C15.5932 15.4218 15.6757 15.0807 15.9233 14.9143C16.9217 14.3236 17.5076 13.2338 17.5076 12.0524C17.5076 11.8028 17.7551 11.5449 18.0109 11.5449C18.2667 11.5449 18.5143 11.7945 18.5143 12.0524C18.5143 13.5666 17.7634 15.0807 16.4266 15.8378C16.3441 15.8378 16.2616 15.921 16.1791 15.921Z" fill="#074698"/>
<path d="M47.1475 26.4447H18.935C18.6874 26.4447 18.4316 26.1951 18.4316 25.9372C18.4316 25.6793 18.6792 25.4297 18.935 25.4297H47.1475C47.395 25.4297 47.6508 25.6793 47.6508 25.9372C47.6508 26.1951 47.4033 26.4447 47.1475 26.4447Z" fill="#074698"/>
<path d="M47.1475 30.6458H18.935C18.6874 30.6458 18.4316 30.3963 18.4316 30.1383C18.4316 29.8804 18.6792 29.6309 18.935 29.6309H47.1475C47.395 29.6309 47.6508 29.8804 47.6508 30.1383C47.6508 30.3963 47.4033 30.6458 47.1475 30.6458Z" fill="#074698"/>
<path d="M47.1473 34.8548H27.2773C27.0297 34.8548 26.7739 34.6052 26.7739 34.3473C26.7739 34.0894 27.0215 33.8398 27.2773 33.8398H47.1473C47.3949 33.8398 47.6507 34.0894 47.6507 34.3473C47.6507 34.6052 47.4031 34.8548 47.1473 34.8548Z" fill="#074698"/>
<path d="M47.1474 39.0658H28.3666C28.1191 39.0658 27.8633 38.8162 27.8633 38.5583C27.8633 38.3004 28.1108 38.0508 28.3666 38.0508H47.1474C47.395 38.0508 47.6508 38.3004 47.6508 38.5583C47.6508 38.8162 47.4033 39.0658 47.1474 39.0658Z" fill="#074698"/>
<path d="M47.1477 43.2747H30.4545C30.207 43.2747 29.9512 43.0252 29.9512 42.7673C29.9512 42.5094 30.1987 42.2598 30.4545 42.2598H47.1477C47.3952 42.2598 47.651 42.5094 47.651 42.7673C47.651 43.0252 47.4035 43.2747 47.1477 43.2747Z" fill="#074698"/>
<path d="M24.1912 54.8052C24.1087 54.8052 24.0262 54.8052 23.9437 54.722L21.0226 52.7836L18.184 54.722C18.019 54.8052 17.8539 54.8052 17.6807 54.722C17.5156 54.6388 17.4331 54.4724 17.4331 54.2145V47.9001C17.4331 47.6505 17.6807 47.3926 17.9365 47.3926C18.1923 47.3926 18.4398 47.6422 18.4398 47.9001V53.1996L20.775 51.6022C20.9401 51.519 21.1959 51.519 21.3609 51.6022L23.6961 53.1996V47.9001C23.6961 47.6505 23.9437 47.3926 24.1995 47.3926C24.4553 47.3926 24.7028 47.6422 24.7028 47.9001V54.2145C24.7028 54.3809 24.6203 54.5556 24.4553 54.722C24.3728 54.8052 24.2902 54.8052 24.2077 54.8052H24.1912Z" fill="#074698"/>
<path d="M21.0229 49.5886C19.7686 49.5886 18.6051 49.1643 17.5984 48.4072C16.1791 47.3091 15.3457 45.6285 15.3457 43.7816C15.3457 40.5869 17.9367 37.9746 21.1054 37.9746C24.274 37.9746 26.865 40.5869 26.865 43.7816C26.865 45.6368 26.0316 47.3174 24.6123 48.4072C23.5231 49.1643 22.2771 49.5886 21.0229 49.5886ZM21.0229 39.0645C18.4318 39.0645 16.3524 41.1693 16.3524 43.7733C16.3524 45.2874 17.0208 46.6352 18.275 47.5586C19.1085 48.1493 20.0244 48.4821 21.1136 48.4821C22.2028 48.4821 23.1188 48.141 23.9522 47.5586C25.1239 46.6352 25.8748 45.2874 25.8748 43.7733C25.7923 41.161 23.6221 39.0645 21.0311 39.0645H21.0229Z" fill="#074698"/>
</g>
<defs>
<clipPath id="clip0_109_4900">
<rect width="48" height="50" fill="white" transform="translate(9 8)"/>
</clipPath>
</defs>
</svg>
