<svg width="65" height="65" viewBox="0 0 65 65" fill="none" xmlns="http://www.w3.org/2000/svg">
<g clip-path="url(#clip0_109_4666)">
<path d="M57.3968 55.7714V59.5123H14.2968C11.1928 59.5123 8.70166 57.0476 8.70166 53.9983C8.70166 52.4201 9.30467 51.0465 10.3031 50.0528C11.3015 49.0591 12.7052 48.4746 14.3066 48.4746H57.4067V55.7714H57.3968Z" fill="white"/>
<path d="M9.40364 55.2743C9.40364 53.6961 10.0066 52.3127 11.0051 51.3288C12.0035 50.3448 13.4072 49.7506 15.0086 49.7506H57.4068V48.3672H14.2969C12.6955 48.3672 11.3016 48.9614 10.2933 49.9454C9.2949 50.9293 8.69189 52.3127 8.69189 53.8909C8.69189 55.0697 9.08731 56.2582 9.78917 57.1447C9.49261 56.5505 9.39375 55.8588 9.39375 55.2743H9.40364Z" fill="white"/>
<path d="M19.9019 48.3774H14.8999V39.707H17.4009H44.9019H46.098H54.8959V48.3774H29.8959H24.9039H19.9019Z" fill="#C5E0FF"/>
<path d="M16.096 40.9832H18.597H46.098H47.304H54.8959V39.707H46.098H44.9019H17.4009H14.8999V48.3774H16.096V40.9832Z" fill="#C5E0FF"/>
<path d="M44.9019 39.7065H17.4009V27.3926H46.098C47.7983 27.3926 49.3997 28.0843 50.497 29.1656C51.5942 30.247 52.2961 31.8252 52.2961 33.5008C52.2961 36.9495 49.4985 39.7065 45.9991 39.7065H44.9019Z" fill="white"/>
<path d="M18.8046 28.8636H47.5017C48.9054 28.8636 50.2004 29.3604 51.1988 30.0424C51.0011 29.7501 50.6947 29.4481 50.497 29.1559C49.3997 28.0745 47.7983 27.3828 46.098 27.3828H17.4009V39.6967H18.8046V28.8539V28.8636Z" fill="white"/>
<path d="M33.2964 12.6058C34.196 11.2225 35.7974 10.3359 37.5965 10.3359C47.1952 10.3359 40.7994 27.3845 35.5997 27.3845C34.7001 27.3845 33.9983 27.1896 33.2964 26.7902H33.0987C32.3968 27.0825 31.5961 27.3845 30.7954 27.3845C25.4969 27.3845 19.1999 10.3359 28.7986 10.3359C30.6966 10.3359 32.3968 11.4173 33.2964 12.9955C33.0987 12.8007 33.1976 12.7032 33.2964 12.6058Z" fill="#C5E0FF"/>
<path d="M29.8962 11.2222C30.7958 11.2222 31.5965 11.4171 32.2984 11.8165C31.3988 10.8325 30.0939 10.2383 28.6012 10.2383C19.9021 10.2383 24.3011 24.335 29.2042 26.8971C24.9041 22.9516 21.9089 11.232 29.9061 11.232L29.8962 11.2222Z" fill="#C5E0FF"/>
<path d="M34.898 32.3125H32.397V34.7772H34.898V32.3125Z" fill="#074698"/>
<path d="M31.1021 32.3125H28.6011V34.7772H31.1021V32.3125Z" fill="#074698"/>
<path d="M27.4048 32.3125H24.9038V34.7772H27.4048V32.3125Z" fill="#074698"/>
<path d="M23.5991 32.3125H21.0981V34.7772H23.5991V32.3125Z" fill="#074698"/>
<path d="M57.397 59.9995H14.297C10.8964 59.9995 8 57.2425 8 53.7938C8 52.1182 8.70186 50.6374 9.79913 49.4586C10.9953 48.2798 12.4978 47.6855 14.1981 47.6855H14.8011C15.0977 47.6855 15.4041 47.9778 15.4041 48.2798C15.4041 48.5818 15.1076 48.8741 14.8011 48.8741H14.1981C12.9031 48.8741 11.5983 49.3709 10.6987 50.3549C9.79913 51.3388 9.19613 52.5176 9.19613 53.8035C9.19613 56.5605 11.4006 58.733 14.1981 58.733H56.6951V48.8741H54.7972C54.5006 48.8741 54.1941 48.5818 54.1941 48.2798C54.1941 47.9778 54.4907 47.6855 54.7972 47.6855H57.2981C57.5947 47.6855 57.9011 47.9778 57.9011 48.2798V59.4149C58 59.7072 57.7034 60.0092 57.397 60.0092V59.9995Z" fill="#074698"/>
<path d="M46.098 40.2915C45.8014 40.2915 45.495 39.9992 45.495 39.6972C45.495 39.3952 45.7915 39.1029 46.098 39.1029C49.202 39.1029 51.6931 36.6382 51.6931 33.5792C51.6931 32.0984 51.0901 30.7248 50.0916 29.6337C48.9944 28.5523 47.5907 28.0555 46.0881 28.0555H18.0039V39.7849C18.0039 40.0771 17.7073 40.3791 17.4009 40.3791C17.0944 40.3791 16.7979 40.0869 16.7979 39.7849V27.3638C16.7979 27.0715 17.0944 26.7695 17.4009 26.7695H46.1968C47.996 26.7695 49.7951 27.4612 51.0999 28.7374C52.3949 30.0234 53.0968 31.699 53.0968 33.5695C52.9979 37.213 49.8939 40.272 46.098 40.272V40.2915Z" fill="#074698"/>
<path d="M54.8959 48.9624H14.8999C14.6033 48.9624 14.2969 48.6702 14.2969 48.3682V39.6978C14.2969 39.4055 14.5934 39.1035 14.8999 39.1035H54.8959C55.1925 39.1035 55.4989 39.3958 55.4989 39.6978V48.3682C55.4989 48.6604 55.2024 48.9624 54.8959 48.9624ZM15.5029 47.6862H54.3028V40.292H15.5029V47.6862Z" fill="#074698"/>
<path d="M19.9018 48.9617C19.6053 48.9617 19.2988 48.6695 19.2988 48.3675V43.438C19.2988 43.1458 19.5954 42.8438 19.9018 42.8438C20.2083 42.8438 20.5048 43.136 20.5048 43.438V48.3675C20.5048 48.6597 20.2083 48.9617 19.9018 48.9617Z" fill="#074698"/>
<path d="M24.9038 48.9617C24.6072 48.9617 24.3008 48.6695 24.3008 48.3675V43.438C24.3008 43.1458 24.5973 42.8438 24.9038 42.8438C25.2102 42.8438 25.5068 43.136 25.5068 43.438V48.3675C25.5068 48.6597 25.2102 48.9617 24.9038 48.9617Z" fill="#074698"/>
<path d="M29.896 48.9617C29.5994 48.9617 29.293 48.6695 29.293 48.3675V43.438C29.293 43.1458 29.5895 42.8438 29.896 42.8438C30.2024 42.8438 30.499 43.136 30.499 43.438V48.3675C30.499 48.6597 30.2024 48.9617 29.896 48.9617Z" fill="#074698"/>
<path d="M57.3969 56.3565H17.4009C17.1043 56.3565 16.7979 56.0642 16.7979 55.7622C16.7979 55.4602 17.0944 55.168 17.4009 55.168H57.3969C57.6935 55.168 57.9999 55.4602 57.9999 55.7622C57.9999 56.0642 57.7033 56.3565 57.3969 56.3565Z" fill="#074698"/>
<path d="M57.3969 52.6163H17.4009C17.1043 52.6163 16.7979 52.324 16.7979 52.022C16.7979 51.72 17.0944 51.4277 17.4009 51.4277H57.3969C57.6935 51.4277 57.9999 51.72 57.9999 52.022C57.9999 52.324 57.7033 52.6163 57.3969 52.6163Z" fill="#074698"/>
<path d="M44.9018 40.2925C44.6053 40.2925 44.2988 40.0003 44.2988 39.6983V31.0279C44.2988 30.7356 44.5954 30.4336 44.9018 30.4336C45.2083 30.4336 45.5048 30.7259 45.5048 31.0279V39.6983C45.5048 39.9905 45.2083 40.2925 44.9018 40.2925Z" fill="#074698"/>
<path d="M35.5008 27.9773C34.7001 27.9773 33.8005 27.7825 33.0987 27.3831C32.298 27.7727 31.4973 27.9773 30.6965 27.9773C28.8974 27.9773 26.9994 26.3991 25.398 23.7395C23.8954 21.1774 23.0947 18.2158 23.0947 15.7608C23.0947 13.9878 23.4901 12.6044 24.3996 11.523C25.398 10.3443 26.8017 9.75 28.6997 9.75C30.4988 9.75 32.1003 10.5391 33.1975 11.9225C34.2948 10.5391 35.8962 9.75 37.6954 9.75C39.5933 9.75 40.9971 10.3443 41.9955 11.523C42.7962 12.6044 43.2905 13.9878 43.2905 15.7608C43.2905 18.2256 42.3909 21.2748 40.9872 23.7395C39.188 26.4965 37.2901 27.9773 35.4909 27.9773H35.5008ZM32.901 26.2043H33.0987C33.1975 26.2043 33.2964 26.2043 33.3952 26.3017C34.0971 26.5939 34.799 26.7985 35.3921 26.7985C36.6871 26.7985 38.2885 25.4152 39.5933 23.155C40.8883 20.8851 41.7978 18.0307 41.7978 15.7608C41.7978 14.28 41.5012 13.1013 40.7994 12.3122C40.0975 11.4256 39.0002 10.9288 37.4977 10.9288C35.9951 10.9288 34.6012 11.7179 33.8005 12.8967C33.7017 12.9941 33.7017 13.0915 33.6028 13.1889C33.504 13.3838 33.3063 13.4812 32.9998 13.4812C32.8021 13.4812 32.6044 13.3838 32.3968 13.1889C31.5961 11.8056 30.0935 10.919 28.502 10.919C26.9994 10.919 25.9022 11.4159 25.2003 12.3024C24.5973 13.0915 24.2019 14.2703 24.2019 15.7511C24.2019 20.5831 27.8001 26.7888 30.5977 26.7888C31.2996 26.7888 32.0014 26.5939 32.5945 26.2919C32.6934 26.1945 32.7922 26.1945 32.8911 26.1945L32.901 26.2043Z" fill="#074698"/>
<path d="M33.2965 13.1896C32.9999 13.1896 32.7923 12.9947 32.6935 12.6927C31.3985 7.56844 33.7908 6.08765 33.8896 5.99023L34.5915 7.0716C34.5915 7.0716 32.8912 8.25038 33.9885 12.4882C34.0873 12.7804 33.8896 13.1798 33.4843 13.2773C33.3855 13.1798 33.2866 13.1798 33.2866 13.1798L33.2965 13.1896Z" fill="#074698"/>
<path d="M34.9967 24.3335C34.799 24.3335 34.6012 24.2361 34.4925 24.0413C34.2948 23.749 34.3937 23.3496 34.6902 23.1547C36.3905 21.976 36.8946 19.8035 36.9935 19.8035C37.0923 19.5112 37.3889 19.3066 37.7942 19.3066C38.0908 19.4041 38.2984 19.6963 38.2984 20.0957C38.2984 20.1932 37.5965 22.7553 35.5997 24.1387C35.2043 24.2361 35.0955 24.3335 34.9967 24.3335Z" fill="#074698"/>
</g>
<defs>
<clipPath id="clip0_109_4666">
<rect width="50" height="54" fill="white" transform="translate(8 6)"/>
</clipPath>
</defs>
</svg>
