<svg width="65" height="65" viewBox="0 0 65 65" fill="none" xmlns="http://www.w3.org/2000/svg">
<g clip-path="url(#clip0_109_4763)">
<path d="M52.4482 15.0661L46.7753 20.2895V16.3297C37.1666 12.3698 28.4718 12.5478 20.4193 15.8758V19.7467L14.7373 14.9771L33.7737 6.60352L52.4482 15.0661Z" fill="#C5E0FF"/>
<path d="M33.7734 8.04594L51.4436 15.9657L52.4479 15.0669L33.6829 6.69336L14.6465 15.0669L15.7413 15.9657L33.7734 8.04594Z" fill="#C5E0FF"/>
<path d="M46.6846 20.291V24.0729C37.8993 21.3677 29.114 21.6436 20.3286 24.0729V15.9752C28.3811 12.6471 37.076 12.4602 46.6846 16.429V20.2999V20.291Z" fill="#C5E0FF"/>
<path d="M21.4234 23.7959V16.8639C29.2044 13.6248 37.5283 13.349 46.6846 16.8639V16.4101C37.076 12.4502 28.3811 12.6282 20.3286 15.9563V24.054C20.6905 23.965 21.0615 23.876 21.4234 23.787V23.7959Z" fill="#C5E0FF"/>
<path d="M46.6848 20.8334C46.5038 20.8334 46.4134 20.7444 46.2234 20.6554C46.0424 20.3885 46.0424 20.1126 46.2234 19.8457L51.2539 15.165L33.5927 7.23636L15.5606 15.1561L20.3197 19.116H20.4102C20.6816 19.205 20.8716 19.5698 20.7721 19.8368V19.9257C20.6816 20.1037 20.5911 20.2817 20.4102 20.2817C20.2292 20.3707 20.0483 20.2817 19.8583 20.1927L14.1853 15.432C14.0044 15.343 14.0044 15.0671 14.0044 14.8891C14.0044 14.7112 14.1853 14.5332 14.3663 14.4353L33.4118 6.07065C33.5927 5.98166 33.7737 5.98166 33.8732 6.07065L52.6382 14.5332C52.8191 14.6222 52.9096 14.8002 53.0001 14.987C53.0001 15.165 53.0001 15.343 52.8191 15.5298L47.1462 20.7533C47.0557 20.8423 46.8748 20.8423 46.6848 20.8423V20.8334Z" fill="#074698"/>
<path d="M20.4101 24.607C20.3196 24.607 20.1386 24.607 20.0481 24.5181C19.8672 24.4291 19.8672 24.2511 19.8672 24.0642V15.9665C19.8672 15.7885 20.0481 15.5127 20.2291 15.4237C24.3458 13.7152 28.6525 12.8164 32.8597 12.8164C37.4379 12.8164 42.197 13.8041 47.0466 15.7885C47.2275 15.8775 47.4085 16.0555 47.4085 16.3313V24.0731C47.4085 24.2511 47.318 24.4291 47.137 24.5269C46.9561 24.6159 46.7751 24.6159 46.6756 24.6159C42.5589 23.3523 38.3426 22.7294 34.045 22.7294C29.7473 22.7294 25.2596 23.3612 20.6815 24.6159H20.4101V24.607ZM20.962 16.3313V23.3523C25.3592 22.1866 29.6568 21.6438 33.864 21.6438C38.0712 21.6438 42.0975 22.1866 46.1327 23.3523V16.7852C41.5546 14.9877 37.076 13.991 32.7692 13.991C28.8335 13.991 24.8072 14.8008 20.962 16.3313Z" fill="#074698"/>
<path d="M52.4479 27.4888C52.1765 27.4888 51.896 27.2219 51.896 26.946V15.6893C51.896 15.4223 52.1674 15.1465 52.4479 15.1465C52.7284 15.1465 52.9998 15.4134 52.9998 15.6893V26.946C52.9998 27.213 52.7284 27.4888 52.4479 27.4888Z" fill="#074698"/>
<path d="M52.4481 58.9997H13.5519C13.2805 58.9997 13 58.7327 13 58.4569C13 58.181 13.2714 57.9141 13.5519 57.9141H52.4481C52.7195 57.9141 53 58.181 53 58.4569C53 58.7327 52.7286 58.9997 52.4481 58.9997Z" fill="#074698"/>
<path d="M33.6833 49.9941L33.7738 56.7482C31.2133 56.7482 28.8338 54.2299 27.4585 50.359C29.3766 50.181 31.3943 50.092 33.5024 50.092C33.5627 50.0327 33.623 50.003 33.6833 50.003V49.9941Z" fill="white"/>
<path d="M33.6833 49.9941L33.7738 56.7482C31.2133 56.7482 28.8338 54.2299 27.4585 50.359C29.3766 50.181 31.3943 50.092 33.5024 50.092C33.5627 50.0327 33.623 50.003 33.6833 50.003V49.9941Z" fill="white"/>
<path d="M33.6832 50.8049C31.9461 50.8049 30.3899 50.8939 28.7432 51.0719C29.5665 53.4122 30.7608 55.2987 32.127 56.3843H32.0365C32.9504 57.1051 33.9547 57.5589 34.968 57.4611L34.8775 50.707H34.6966C34.4251 50.796 34.0542 50.796 33.6923 50.796L33.6832 50.8049Z" fill="white"/>
<path d="M39.8175 50.359C38.5327 54.2299 36.3431 56.7482 33.7736 56.7482L33.6831 49.9941C35.7912 49.9941 37.8903 50.0831 39.8175 50.3501V50.359Z" fill="white"/>
<path d="M38.904 50.2695C37.7097 53.5086 35.882 55.671 33.7739 56.1248V56.7566C36.3344 56.7566 38.533 54.2383 39.8178 50.3674C39.5464 50.2784 39.1754 50.2784 38.904 50.2784V50.2695Z" fill="white"/>
<path d="M46.6846 51.4352C43.6627 55.2171 39.0845 57.7354 33.7826 57.8244H33.5112C28.1097 57.8244 23.3506 55.3061 20.3286 51.4352C22.4367 50.8924 24.8163 50.5365 27.4673 50.2695C28.933 54.2294 31.2221 56.7477 33.7826 56.6587C36.3431 56.6587 38.5417 54.1404 39.8265 50.2695C42.387 50.5365 44.676 50.9903 46.6937 51.4352H46.6846Z" fill="#C5E0FF"/>
<path d="M39.8175 50.3585C39.727 50.6255 39.6365 50.9013 39.5461 51.0793C41.4642 51.3463 43.2104 51.6221 44.7666 52.067C42.8485 54.4964 40.1884 56.4807 37.1665 57.5575C41.0118 56.7477 44.3956 54.4964 46.6847 51.5242C44.6671 50.9814 42.387 50.5365 39.8175 50.3496V50.3585Z" fill="#C5E0FF"/>
<path d="M22.1564 52.0679C23.8031 51.6141 25.7303 51.2581 27.6484 51.0802C27.5579 50.8132 27.4674 50.6263 27.3769 50.3594C24.726 50.6263 22.3464 50.9912 20.2383 51.534C22.5274 54.4171 25.7303 56.5795 29.3946 57.4782C26.6531 56.3036 24.0836 54.4171 22.1654 52.0768L22.1564 52.0679Z" fill="#C5E0FF"/>
<path d="M50.0685 41.2656C50.1589 45.0475 48.8832 48.6426 46.6846 51.4367C44.667 50.8939 42.2874 50.538 39.8174 50.271C40.6407 47.7527 41.1926 44.6916 41.1022 41.4525L50.0685 41.2745V41.2656Z" fill="white"/>
<path d="M50.0685 41.2656L41.0117 41.4436V42.5203L48.8832 42.4313C48.9737 45.7594 47.9694 48.8205 46.3227 51.4367C46.4132 51.4367 46.5037 51.5257 46.5942 51.5257C48.8832 48.6426 50.168 45.1365 50.0685 41.2656Z" fill="white"/>
<path d="M41.1025 41.4434C41.193 44.7714 40.6411 47.8325 39.8178 50.3508C37.8996 50.1729 35.7915 50.0839 33.6834 50.0839L33.5024 41.6213L41.1025 41.4434Z" fill="white"/>
<path d="M41.1025 41.4434L33.5024 41.5323V42.4311L40.0892 42.3421C40.1797 45.2253 39.8178 47.9215 39.0849 50.1729C39.2658 50.1729 39.5463 50.1729 39.7273 50.2619C40.6411 47.8325 41.193 44.7714 41.1025 41.4434Z" fill="white"/>
<path d="M33.5023 41.5312L33.6832 49.9938H33.5023C31.3942 49.9938 29.3856 50.0828 27.4584 50.2608C26.5446 47.8315 25.9927 44.8593 25.9927 41.6202L33.5023 41.5312Z" fill="white"/>
<path d="M26.9155 42.6167L33.5928 42.5277V41.6289L25.9927 41.7179C26.0832 44.957 26.6351 47.9291 27.4584 50.3584C27.6394 50.3584 27.8203 50.3584 28.1008 50.2694C27.3679 48.0181 26.9155 45.4108 26.9155 42.6167Z" fill="white"/>
<path d="M27.4585 50.2694C24.8076 50.5364 22.428 50.9012 20.3199 51.4352C18.2118 48.7389 16.936 45.4019 16.936 41.8069L25.9928 41.6289C25.9928 44.868 26.5447 47.8401 27.4585 50.2694Z" fill="white"/>
<path d="M18.1213 42.9737L25.9928 42.7957V41.6211L16.936 41.7991C17.0265 45.403 18.2208 48.7311 20.3199 51.4273C20.4104 51.4273 20.5008 51.3384 20.5913 51.3384C19.0351 48.998 18.1213 46.1149 18.1213 42.9648V42.9737Z" fill="white"/>
<path d="M19.6773 32.625C21.7854 33.1678 24.2554 33.6127 26.9064 33.9776C26.264 36.2289 25.9021 38.9252 25.9926 41.7194L16.9358 41.8083C16.8453 38.3913 17.8496 35.2412 19.6773 32.625Z" fill="white"/>
<path d="M20.2294 33.878C22.057 34.4208 24.2556 34.7767 26.6352 35.0437C26.7257 34.5899 26.8162 34.2339 26.9066 33.878C24.2556 33.611 21.7856 33.1572 19.6775 32.5254C17.9403 35.1327 16.936 38.3807 16.936 41.7087H17.4879C17.6689 38.9146 18.6732 36.2183 20.2294 33.878Z" fill="white"/>
<path d="M50.0685 41.2647L41.0118 41.4426C41.0118 38.7464 40.5503 36.1302 39.917 33.9678C42.6585 33.7009 45.228 33.247 47.3271 32.6152C49.0642 35.1335 50.0685 38.1057 50.0685 41.2558V41.2647Z" fill="white"/>
<path d="M46.7752 33.7907C48.2409 35.9531 49.1547 38.5604 49.4262 41.3545H50.0685C49.9781 38.1154 49.0642 35.1433 47.3271 32.625C45.219 33.2568 42.6585 33.7017 39.917 33.9776C40.0075 34.3424 40.0979 34.6984 40.1884 35.0543C42.6585 34.6984 44.9475 34.3335 46.7752 33.7907Z" fill="white"/>
<path d="M41.1022 41.4436L33.5021 41.5326L33.4116 34.2446H33.5021C35.7912 34.2446 37.8993 34.1556 39.9079 33.8887C40.6408 36.14 41.0027 38.7473 41.0931 41.4525L41.1022 41.4436Z" fill="white"/>
<path d="M39.2658 34.9654C39.8178 36.8519 40.2701 39.1032 40.3606 41.4436H41.0935C41.0935 38.7473 40.6321 36.1311 39.9987 33.9688C37.9811 34.1467 35.7915 34.3336 33.5929 34.3336H33.5024V35.3213C35.4206 35.2323 37.4382 35.1434 39.2658 34.9654Z" fill="white"/>
<path d="M33.412 34.2437L33.5024 41.5317L25.9023 41.6207C25.9023 38.8265 26.1738 36.1302 26.8162 33.8789C28.9243 34.1459 31.1138 34.2348 33.4029 34.2348L33.412 34.2437Z" fill="white"/>
<path d="M27.7387 35.0544C29.5663 35.2324 31.4935 35.3213 33.4116 35.4192V34.2446C31.1226 34.2446 28.924 34.1556 26.9154 33.8887C26.273 36.14 25.9111 38.8363 26.0015 41.6304H26.8249C26.8249 39.2901 27.1868 37.0388 27.7387 35.0633V35.0544Z" fill="white"/>
<path d="M33.3213 26.4121L33.4118 34.2429C31.1227 34.2429 28.9241 34.1539 26.9155 33.8869C28.1008 29.4732 30.4894 26.51 33.3213 26.4121Z" fill="white"/>
<path d="M33.3213 27.3109V26.4121C30.5799 26.4121 28.2003 29.4732 26.9155 33.8869C27.187 33.8869 27.5579 33.9759 27.8293 33.9759C29.0146 30.372 30.9418 27.7647 33.3213 27.3109Z" fill="white"/>
<path d="M33.3213 26.4121C36.1623 26.4121 38.6323 29.3842 39.9985 33.8869C37.9809 34.0649 35.7913 34.2429 33.5927 34.2429H33.5022L33.3213 26.4121Z" fill="white"/>
<path d="M39.1752 33.968C39.4466 33.968 39.7271 33.879 39.9985 33.879C38.6233 29.3764 36.1532 26.3152 33.3213 26.4042V27.125C35.7008 27.481 37.8994 30.0971 39.1752 33.968Z" fill="white"/>
<path d="M33.231 25.2383C39.0848 25.1493 44.3054 28.1214 47.3273 32.6241C45.2192 33.2559 42.6587 33.7008 39.9172 33.9767C38.542 29.474 36.0719 26.4129 33.24 26.5019V25.2383H33.231Z" fill="#C5E0FF"/>
<path d="M46.3136 32.8911C46.6755 32.8021 47.0465 32.7131 47.4084 32.6241C44.3864 28.1214 39.1749 25.1493 33.312 25.2383V26.137C38.623 26.226 43.3821 28.9312 46.3045 32.8911H46.3136Z" fill="#C5E0FF"/>
<path d="M33.2306 25.2383V26.4129C30.4892 26.4129 28.1096 29.474 26.8248 33.8877C24.1739 33.6208 21.6948 33.1669 19.5957 32.5351C22.6176 28.2104 27.5577 25.3362 33.2306 25.2472V25.2383Z" fill="#C5E0FF"/>
<path d="M33.3214 26.3248V25.248C27.6485 25.337 22.6089 28.2202 19.6865 32.6339C20.0484 32.7229 20.4194 32.8118 20.7813 32.9008C23.6223 29.1189 28.1009 26.6006 33.3214 26.3337V26.3248Z" fill="#C5E0FF"/>
<path d="M33.6831 57.2823C30.9416 57.2823 28.4625 54.764 26.9063 50.4392C25.9925 47.832 25.4406 44.8598 25.3501 41.6207C25.3501 38.8266 25.6215 36.1303 26.2639 33.701C27.6392 28.7534 30.1997 25.8702 33.2216 25.7812H33.3121C36.334 25.7812 38.985 28.7534 40.4508 33.701C41.1836 36.0413 41.5455 38.6486 41.636 41.3538C41.7265 44.5929 41.2741 47.743 40.3512 50.3592C38.8855 54.7729 36.5059 57.2022 33.674 57.2912L33.6831 57.2823ZM33.3211 26.9559C30.8511 26.9559 28.6525 29.75 27.4673 34.0658C26.8249 36.3172 26.463 39.0135 26.5534 41.6296C26.6439 44.6908 27.1054 47.5739 28.0192 50.0032C29.3944 53.7851 31.593 56.0365 33.7826 56.0365H33.8731C36.0717 56.0365 38.0802 53.7851 39.365 50.0032C40.1884 47.4849 40.6498 44.4238 40.6498 41.3627C40.6498 38.7554 40.1884 36.2282 39.555 33.9769C38.0893 29.75 35.8002 26.9559 33.3302 26.9559H33.3211Z" fill="#074698"/>
<path d="M16.9357 42.3413C16.6643 42.3413 16.3838 42.0744 16.3838 41.7985C16.3838 41.5227 16.6552 41.2557 16.9357 41.2557L50.0685 40.7129C50.3399 40.7129 50.6204 40.9798 50.6204 41.2557C50.6204 41.5316 50.349 41.7985 50.0685 41.7985L16.9357 42.3413Z" fill="#074698"/>
<path d="M20.3197 52.0669C20.1388 52.0669 19.9578 51.9779 19.8583 51.8889C17.5692 49.0058 16.384 45.5887 16.2844 41.8958C16.194 38.4788 17.1982 35.2308 19.1254 32.3565C19.3064 32.0896 19.6773 31.9917 19.9488 32.1786C20.2202 32.3565 20.3107 32.7214 20.1297 32.9883C18.3925 35.5956 17.4787 38.7457 17.4787 41.8958C17.5692 45.3129 18.664 48.463 20.7721 51.1682C20.9531 51.4351 20.9531 51.8 20.6816 51.9779C20.5911 51.9779 20.5007 52.0669 20.3197 52.0669Z" fill="#074698"/>
<path d="M46.6849 52.068C46.5945 52.068 46.4135 52.068 46.323 51.979C46.0516 51.801 46.0516 51.4362 46.2326 51.1692C48.4312 48.2861 49.6164 44.958 49.5259 41.3541C49.4355 38.3819 48.6121 35.4098 46.8749 32.9805C46.694 32.7135 46.7845 32.3487 47.0559 32.1707C47.3273 31.9927 47.6983 32.0817 47.8792 32.3487C49.7069 35.045 50.6207 38.1061 50.7202 41.3541C50.8107 45.2249 49.535 48.8289 47.1464 51.8811C47.0559 51.9701 46.8749 52.0591 46.6849 52.0591V52.068Z" fill="#074698"/>
<path d="M33.5022 34.7866H33.4117C31.1226 34.7866 28.924 34.6976 26.825 34.4217C24.174 34.1548 21.6949 33.701 19.5053 33.0692C19.3244 32.9802 19.2339 32.8912 19.1434 32.7043C19.053 32.5263 19.1434 32.3484 19.2339 32.1615C22.3463 27.4808 27.6573 24.6867 33.3303 24.5977C39.1841 24.5087 44.6761 27.3919 47.9785 32.1615C48.069 32.3395 48.069 32.5174 48.069 32.7043C47.9785 32.8823 47.8881 32.9713 47.7071 33.0692C45.5085 33.701 42.948 34.1459 40.2065 34.4217C37.9175 34.6887 35.8093 34.7866 33.5293 34.7866H33.5022ZM20.6001 32.2594C22.5182 32.7132 24.6264 33.0692 26.9154 33.3361C29.0236 33.5141 31.1226 33.701 33.3212 33.701H33.4117C35.6103 33.701 37.7094 33.612 39.8175 33.3361C42.197 33.0692 44.3956 32.7043 46.3138 32.2594C43.4728 28.2105 38.6232 25.7812 33.5022 25.7812H33.2307C28.2002 25.8702 23.5316 28.2995 20.6001 32.2594Z" fill="#074698"/>
<path d="M33.5021 58.4565C28.1006 58.4565 23.1606 56.0272 19.8672 51.7915C19.7767 51.6135 19.6863 51.4267 19.7767 51.2487C19.8672 51.0707 19.9577 50.9817 20.1386 50.8927C22.2468 50.3499 24.7168 49.905 27.3678 49.7181C29.3854 49.5402 31.394 49.4512 33.5021 49.4512H33.6831C35.7912 49.4512 37.8903 49.5402 39.9079 49.7181C42.4684 49.9851 44.7575 50.3499 46.8656 50.8927C47.0466 50.9817 47.2275 51.0707 47.2275 51.2487C47.318 51.4267 47.2275 51.6046 47.1371 51.7915C43.9342 55.9293 39.0846 58.3587 33.7736 58.4565H33.5021ZM21.3329 51.7915C24.4454 55.3064 28.8335 57.2819 33.5021 57.2819H33.7736C38.4422 57.1929 42.6494 55.2086 45.6713 51.7915C43.8437 51.3377 41.826 51.0707 39.7179 50.8927C37.7998 50.7148 35.6917 50.6258 33.5836 50.6258H33.4931C31.4754 50.6258 29.3764 50.7148 27.4492 50.8927C25.2506 51.0707 23.242 51.3466 21.3148 51.7915H21.3329Z" fill="#074698"/>
<path d="M33.7737 57.283C33.5023 57.283 33.2218 57.0161 33.2218 56.7402L32.6699 25.2303C32.6699 24.9634 32.9414 24.6875 33.2218 24.6875C33.5023 24.6875 33.7737 24.9545 33.7737 25.2303L34.3257 56.7402C34.3257 57.0072 34.1447 57.283 33.7737 57.283Z" fill="#074698"/>
</g>
<defs>
<clipPath id="clip0_109_4763">
<rect width="40" height="53" fill="white" transform="translate(13 6)"/>
</clipPath>
</defs>
</svg>
