<svg width="65" height="65" viewBox="0 0 65 65" fill="none" xmlns="http://www.w3.org/2000/svg">
<g clip-path="url(#clip0_109_4932)">
<path d="M34.5906 51.8941H25.6717V45.6962C19.6891 43.2942 15.5303 37.4917 15.5303 30.7007C15.5303 21.7054 22.9259 14.4004 32.0552 14.4004C41.1845 14.4004 48.5802 21.6955 48.5802 30.7007C48.5802 36.9974 45.0327 42.4045 39.6613 45.1031V51.904H34.5906V51.8941Z" fill="white"/>
<path d="M16.9431 31.7979C16.9431 22.8026 24.3388 15.4976 33.4681 15.4976C37.3162 15.4976 40.7635 16.8024 43.6096 18.8981C40.6733 16.1006 36.6148 14.4004 32.1553 14.4004C23.036 14.4004 15.6304 21.6955 15.6304 30.7007C15.6304 35.9002 18.1657 40.6055 22.0139 43.5018C18.8672 40.4967 16.9431 36.4043 16.9431 31.7979Z" fill="white"/>
<path d="M39.7616 55.6016H25.772V59.3974H39.7616V55.6016Z" fill="#C5E0FF"/>
<path d="M26.7841 56.6988H39.6614V55.6016H25.772V59.3974H26.7841V56.6988Z" fill="#C5E0FF"/>
<path d="M39.6614 51.8945V55.6014H25.772V51.8945H30.8327H34.5906H39.6614Z" fill="#C5E0FF"/>
<path d="M26.7841 53.0017H31.8448H35.6028H39.6614V51.8945H34.5906H30.8327H25.772V55.6014H26.7841V53.0017Z" fill="#C5E0FF"/>
<path d="M40.1622 22.003C41.1744 23.0014 39.5509 26.303 36.4143 29.9999C35.803 29.2981 35.0915 28.4974 34.39 27.7956C33.6885 27.0938 32.8668 26.3919 32.1553 25.7988C35.7028 22.5961 39.0499 20.9947 40.1622 22.003Z" fill="#C5E0FF"/>
<path d="M40.3629 23.1978C40.3629 22.6937 40.3629 22.2983 40.0622 22.1006C39.0501 21.1022 35.703 22.7036 31.9551 25.7976C32.2557 25.9953 32.5664 26.3017 32.7668 26.5983C36.3143 23.702 39.3607 22.2983 40.3729 23.1978H40.3629Z" fill="#C5E0FF"/>
<path d="M36.4144 30C39.5611 33.5981 41.1745 36.8997 40.1623 37.9969C39.1502 38.9953 35.8031 37.394 32.0552 34.3C32.7667 33.697 33.5784 32.9951 34.2899 32.3032C35.0014 31.5025 35.7129 30.7018 36.4144 30Z" fill="#C5E0FF"/>
<path d="M33.3681 33.1037C33.5685 32.906 33.6687 32.8072 33.7789 32.5996C33.1676 33.2026 32.5664 33.6968 31.9551 34.201H32.0553C32.5664 33.9044 32.9672 33.4991 33.3681 33.1037Z" fill="white"/>
<path d="M36.4147 30C36.1141 30.2965 35.8035 30.603 35.603 30.9984C38.2386 34.0034 39.7618 36.8997 39.5614 38.2935C39.862 38.2935 40.0725 38.1946 40.1727 37.9969C41.1848 36.8997 39.5614 33.5981 36.4248 30H36.4147Z" fill="#C5E0FF"/>
<path d="M29.8204 32.2036C30.5319 32.9054 31.3436 33.6073 32.0551 34.2004C28.4074 37.3042 25.0603 38.8957 23.9479 37.8973C22.9358 36.899 24.5592 33.5974 27.6959 29.9004C28.4074 30.7011 29.1189 31.5018 29.8204 32.2036Z" fill="#C5E0FF"/>
<path d="M29.8203 32.2043C29.1088 31.5025 28.3973 30.7018 27.796 30L27.6958 30.0988C28.1067 30.603 28.6077 30.9984 29.1188 31.5025C29.8303 32.2043 30.642 32.9062 31.3535 33.4993C28.2069 36.099 25.2707 37.7004 23.8477 37.5027C23.9479 37.6015 23.9479 37.7992 24.0481 37.908C25.0602 38.9064 28.4073 37.305 32.1552 34.211C31.3435 33.608 30.5318 32.9062 29.8203 32.2142V32.2043Z" fill="#C5E0FF"/>
<path d="M32.055 25.699C31.3435 26.302 30.5318 27.0038 29.8202 27.6958C29.1087 28.3877 28.3972 29.1983 27.796 29.9001C24.6493 26.302 23.0359 23.0004 24.048 21.9032C25.0602 21.0036 28.4073 22.605 32.055 25.699Z" fill="#C5E0FF"/>
<path d="M23.8378 23.2969C24.85 22.2985 27.7962 23.6923 31.2335 26.4008C31.5341 26.2031 31.7446 25.8966 32.0452 25.6989C28.3975 22.5951 25.0504 21.0036 23.938 22.002C23.6374 22.2985 23.5272 22.8026 23.7376 23.4056C23.7376 23.4056 23.8378 23.4056 23.8378 23.3068V23.2969Z" fill="#C5E0FF"/>
<path d="M34.2799 27.7956C34.9914 28.4974 35.7029 29.2981 36.3042 29.9999C35.6929 30.7018 34.9914 31.5025 34.2799 32.2043C33.5684 32.9061 32.7566 33.608 32.0451 34.2011C31.3336 33.5981 30.5219 32.8962 29.8104 32.2043C29.0989 31.5025 28.3874 30.7018 27.7861 29.9999C28.3974 29.2981 29.1089 28.4974 29.8104 27.7956C30.5119 27.0938 31.3336 26.3919 32.0451 25.7988C32.7566 26.4018 33.5684 27.0938 34.2799 27.7956Z" fill="#C5E0FF"/>
<path d="M39.6612 60.0006H25.7718C25.4712 60.0006 25.1605 59.704 25.1605 59.3976V45.9936C18.9774 43.295 15.019 37.2948 15.019 30.5928C15.019 21.291 22.7253 13.6895 32.1553 13.6895C41.5852 13.6895 49.2915 21.291 49.2915 30.5928C49.2915 36.7906 45.9445 42.3954 40.3727 45.3906V59.3877C40.2725 59.6842 39.9618 59.9907 39.6612 59.9907V60.0006ZM26.3731 58.7946H39.0399V44.9952C39.0399 44.7975 39.1401 44.5998 39.3405 44.3922C44.6116 41.6936 47.8585 36.3952 47.8585 30.4939C47.8585 21.894 40.7635 14.8954 32.0451 14.8954C23.3266 14.8954 16.2316 21.894 16.2316 30.4939C16.2316 36.7906 20.0797 42.4943 25.9622 44.8963C26.1626 44.9952 26.3731 45.1929 26.3731 45.4993V58.7946Z" fill="#074698"/>
<path d="M44.7219 56.3036H20.7011C20.4005 56.3036 20.0898 56.0071 20.0898 55.7006C20.0898 55.3942 20.3905 55.0977 20.7011 55.0977H44.7219C45.0226 55.0977 45.3332 55.3942 45.3332 55.7006C45.3332 56.0071 45.0326 56.3036 44.7219 56.3036Z" fill="#074698"/>
<path d="M44.7219 52.497H20.7011C20.4005 52.497 20.0898 52.2004 20.0898 51.894C20.0898 51.5876 20.3905 51.291 20.7011 51.291H44.7219C45.0226 51.291 45.3332 51.5876 45.3332 51.894C45.3332 52.2004 45.0326 52.497 44.7219 52.497Z" fill="#074698"/>
<path d="M51.3159 47.4955C51.2157 47.4955 51.0152 47.4955 50.915 47.2978C50.6144 47.1001 50.6144 46.6948 50.8148 46.3983C54.6629 41.9995 56.7975 36.3947 56.7975 30.6021C56.7975 17.1981 45.7441 6.20597 32.0651 6.20597C18.3862 6.20597 7.3228 17.1981 7.3228 30.6021C7.3228 36.4046 9.44729 41.9995 13.3055 46.3983C13.5059 46.6948 13.5059 47.1001 13.2052 47.2978C12.9046 47.4955 12.4937 47.4955 12.2933 47.199C8.23473 42.6024 6 36.7011 6 30.5032C6.10021 16.4962 17.7549 5 32.0551 5C46.3554 5 58.01 16.4962 58.01 30.6021C58.01 36.7011 55.7753 42.6024 51.7267 47.2978C51.6265 47.3967 51.5263 47.4955 51.3259 47.4955H51.3159Z" fill="#074698"/>
<path d="M30.4316 28.8037C31.1431 28.1019 31.9548 27.4001 32.6663 26.807C33.3778 27.41 34.1895 28.1019 34.901 28.8037C35.4121 29.3079 35.813 29.7033 36.2238 30.2074C36.2907 30.1415 36.3575 30.0756 36.4243 30.0097C35.813 29.3079 35.1015 28.5072 34.4 27.8054C33.6985 27.1035 32.8768 26.4017 32.1653 25.8086C31.4538 26.4116 30.642 27.1035 29.9305 27.8054C29.219 28.5072 28.5075 29.3079 27.9062 30.0097C28.1067 30.3063 28.4173 30.5138 28.6178 30.8104C29.1288 30.2074 29.7301 29.5056 30.4416 28.8136L30.4316 28.8037Z" fill="#C5E0FF"/>
<path d="M24.8601 38.8954C24.2488 38.8954 23.848 38.6977 23.5373 38.3913C22.0141 36.8887 24.4492 32.7964 27.2852 29.5936C27.9967 28.793 28.7083 28.0911 29.4097 27.3893C30.1112 26.6875 30.933 25.9856 31.6445 25.2937C34.6909 22.6939 37.5269 21.1914 39.2506 21.1914C39.8618 21.1914 40.2627 21.3891 40.5734 21.6955C42.0966 23.1981 39.6614 27.2904 36.8254 30.4932C36.1139 31.2939 35.4024 31.9957 34.7009 32.6975C33.9994 33.3994 33.1777 34.1012 32.4662 34.7931C29.4198 37.294 26.5838 38.8954 24.8601 38.8954ZM39.2506 22.3974C37.9378 22.3974 35.2922 23.8999 32.4562 26.1932C31.7447 26.7962 30.933 27.498 30.2215 28.19C29.5099 28.8918 28.7984 29.5936 28.1972 30.3943C24.6497 34.4966 23.9382 37.0963 24.4492 37.4917C24.5495 37.5906 24.7499 37.5906 24.8501 37.5906C26.1729 37.5906 28.8085 36.0881 31.6445 33.7947C32.356 33.1918 33.1677 32.4899 33.8792 31.798C34.5907 31.106 35.3022 30.3943 35.9035 29.5936C39.451 25.4914 40.1625 22.8916 39.6514 22.4962C39.5512 22.3974 39.3508 22.3974 39.2405 22.3974H39.2506Z" fill="#074698"/>
<path d="M39.2506 38.8954C37.5269 38.8954 34.7911 37.294 31.6445 34.7931C30.8327 34.0913 30.1212 33.3895 29.4097 32.6975C28.6982 32.0056 27.9867 31.195 27.2852 30.4932C24.4492 27.2904 22.0141 23.1981 23.5373 21.6955C23.838 21.399 24.349 21.1914 24.8601 21.1914C26.5838 21.1914 29.3195 22.7928 32.4662 25.2937C33.2779 25.9955 33.9894 26.6973 34.7009 27.3893C35.4124 28.0812 36.1239 28.8918 36.8254 29.5936C39.6614 32.7964 42.0966 36.8887 40.5734 38.3913C40.2727 38.6878 39.7616 38.8954 39.2506 38.8954ZM24.8601 22.3974C24.7599 22.3974 24.5595 22.3974 24.4593 22.4962C24.0484 22.9015 24.6597 25.5013 28.2072 29.5936C28.8185 30.2955 29.53 31.0962 30.2315 31.798C30.933 32.4998 31.6545 33.2016 32.4662 33.7947C35.202 36.0979 37.8376 37.5906 39.2606 37.5906C39.3608 37.5906 39.5612 37.5906 39.6714 37.4917C40.0723 37.0963 39.471 34.4966 35.9235 30.3943C35.3122 29.6925 34.6007 28.8918 33.8992 28.19C33.1877 27.4881 32.4762 26.7863 31.6645 26.1932C28.9287 23.89 26.1929 22.3974 24.8701 22.3974H24.8601Z" fill="#074698"/>
<path d="M34.5903 52.4967C34.2897 52.4967 33.979 52.2001 33.979 51.8937V41.8901C33.979 41.5935 34.2796 41.2871 34.5903 41.2871C34.901 41.2871 35.2016 41.5837 35.2016 41.8901V51.8937C35.2016 52.1902 34.901 52.4967 34.5903 52.4967Z" fill="#074698"/>
<path d="M30.8325 52.4967C30.5318 52.4967 30.2212 52.2001 30.2212 51.8937V41.8901C30.2212 41.5935 30.5218 41.2871 30.8325 41.2871C31.1431 41.2871 31.4438 41.5837 31.4438 41.8901V51.8937C31.4438 52.1902 31.1431 52.4967 30.8325 52.4967Z" fill="#074698"/>
</g>
<defs>
<clipPath id="clip0_109_4932">
<rect width="52" height="55" fill="white" transform="translate(6 5)"/>
</clipPath>
</defs>
</svg>
