<svg width="65" height="65" viewBox="0 0 65 65" fill="none" xmlns="http://www.w3.org/2000/svg">
<g clip-path="url(#clip0_109_4963)">
<path d="M53.3493 9.51562V34.1222H32.9575V16.7802C32.9575 12.7678 36.2094 9.51562 40.2403 9.51562H53.3493Z" fill="#C5E0FF"/>
<path d="M34.0753 17.8868C34.0753 13.8744 37.3272 10.6222 41.3581 10.6222H53.3493V9.51562H40.2403C36.2178 9.51562 32.9575 12.7593 32.9575 16.7802V34.1306H34.0669V17.8868H34.0753Z" fill="#C5E0FF"/>
<path d="M55.4919 38.3965V55.4851H10.5166V38.3965H55.4919Z" fill="white"/>
<path d="M11.8885 39.7649H22.5924H46.1514H55.4919V38.3965H44.7795H21.2206H10.5166V55.4851H11.8885V39.7649Z" fill="white"/>
<path d="M49.0645 22.3301H37.2427V28.7415H49.0645V22.3301Z" fill="white"/>
<path d="M38.352 23.4451H49.0645V22.3301H37.2427V28.7415H38.352V23.4451Z" fill="white"/>
<path d="M32.9578 16.7802V34.1306H12.6592V9.51562H25.6835C29.7059 9.51562 32.9663 12.7593 32.9663 16.7802H32.9578Z" fill="#C5E0FF"/>
<path d="M13.8532 10.7898H26.9622C28.6728 10.7898 30.2987 11.3896 31.5012 12.4117C30.214 10.7054 28.0716 9.50586 25.675 9.50586H12.6592V34.1124H13.9464V10.7898H13.8617H13.8532Z" fill="#C5E0FF"/>
<path d="M51.2069 50.1035H49.0645V52.2406H51.2069V50.1035Z" fill="#074698"/>
<path d="M51.2069 45.8301H49.0645V47.9672H51.2069V45.8301Z" fill="#074698"/>
<path d="M51.2069 41.5547H49.0645V43.6918H51.2069V41.5547Z" fill="#074698"/>
<path d="M46.9218 50.1035H44.7793V52.2406H46.9218V50.1035Z" fill="#074698"/>
<path d="M46.9218 45.8301H44.7793V47.9672H46.9218V45.8301Z" fill="#074698"/>
<path d="M46.9218 41.5547H44.7793V43.6918H46.9218V41.5547Z" fill="#074698"/>
<path d="M42.6371 50.1035H40.4946V52.2406H42.6371V50.1035Z" fill="#074698"/>
<path d="M42.6371 45.8301H40.4946V47.9672H42.6371V45.8301Z" fill="#074698"/>
<path d="M42.6371 41.5547H40.4946V43.6918H42.6371V41.5547Z" fill="#074698"/>
<path d="M38.3517 50.1035H23.3628V52.2406H38.3517V50.1035Z" fill="#074698"/>
<path d="M38.352 45.8301H36.2095V47.9672H38.352V45.8301Z" fill="#074698"/>
<path d="M38.352 41.5547H36.2095V43.6918H38.352V41.5547Z" fill="#074698"/>
<path d="M34.0756 45.8301H31.9331V47.9672H34.0756V45.8301Z" fill="#074698"/>
<path d="M34.0756 41.5547H31.9331V43.6918H34.0756V41.5547Z" fill="#074698"/>
<path d="M29.7904 45.8301H27.6479V47.9672H29.7904V45.8301Z" fill="#074698"/>
<path d="M29.7904 41.5547H27.6479V43.6918H29.7904V41.5547Z" fill="#074698"/>
<path d="M25.5053 45.8301H23.3628V47.9672H25.5053V45.8301Z" fill="#074698"/>
<path d="M25.5053 41.5547H23.3628V43.6918H25.5053V41.5547Z" fill="#074698"/>
<path d="M21.2206 50.1035H19.0781V52.2406H21.2206V50.1035Z" fill="#074698"/>
<path d="M21.2206 45.8301H19.0781V47.9672H21.2206V45.8301Z" fill="#074698"/>
<path d="M21.2206 41.5547H19.0781V43.6918H21.2206V41.5547Z" fill="#074698"/>
<path d="M16.9442 50.1035H14.8018V52.2406H16.9442V50.1035Z" fill="#074698"/>
<path d="M16.9442 45.8301H14.8018V47.9672H16.9442V45.8301Z" fill="#074698"/>
<path d="M16.9442 41.5547H14.8018V43.6918H16.9442V41.5547Z" fill="#074698"/>
<path d="M32.9577 34.6371H12.6591C12.3204 34.6371 12.1426 34.3837 12.1426 34.1219V9.51528C12.1426 9.17739 12.3966 9 12.6591 9H25.6834C29.9684 9 33.4828 12.5056 33.4828 16.7798C33.4828 17.1177 33.2287 17.2951 32.9662 17.2951C32.7037 17.2951 32.4496 17.0417 32.4496 16.7798C32.4496 13.1053 29.4519 10.0306 25.6834 10.0306H13.1672V33.5306H32.9577C33.2118 33.5306 33.4743 33.784 33.4743 34.0458C33.4743 34.3077 33.2203 34.6456 32.9577 34.6456V34.6371Z" fill="#074698"/>
<path d="M53.3492 34.6371H32.9575C32.7034 34.6371 32.4409 34.3837 32.4409 34.1219V16.7798C32.4409 12.5056 35.9553 9 40.2403 9H53.3492C53.6033 9 53.8658 9.25341 53.8658 9.51528V34.1219C53.8658 34.3753 53.6118 34.6371 53.3492 34.6371ZM33.4741 33.6066H52.748V10.115H40.2403C36.5565 10.115 33.4741 13.1053 33.4741 16.8643V33.615V33.6066Z" fill="#074698"/>
<path d="M49.0644 29.3404H37.2426C36.9886 29.3404 36.7261 29.087 36.7261 28.8251V22.4137C36.7261 22.1603 36.9801 21.8984 37.2426 21.8984H49.0644C49.3185 21.8984 49.581 22.1519 49.581 22.4137V28.8251C49.581 29.0785 49.327 29.3404 49.0644 29.3404ZM37.7592 28.2254H48.4632V22.8445H37.7592V28.2254Z" fill="#074698"/>
<path d="M49.0644 19.6848H37.2426C36.9886 19.6848 36.7261 19.4314 36.7261 19.1696C36.7261 18.9077 36.9801 18.6543 37.2426 18.6543H49.0644C49.3185 18.6543 49.581 18.9077 49.581 19.1696C49.581 19.4314 49.327 19.6848 49.0644 19.6848Z" fill="#074698"/>
<path d="M49.0644 16.5188H37.2426C36.9886 16.5188 36.7261 16.2654 36.7261 16.0036C36.7261 15.7417 36.9801 15.4883 37.2426 15.4883H49.0644C49.3185 15.4883 49.581 15.7417 49.581 16.0036C49.581 16.2654 49.327 16.5188 49.0644 16.5188Z" fill="#074698"/>
<path d="M28.6726 16.5188H16.9355C16.5968 16.5188 16.4189 16.2654 16.4189 16.0036C16.4189 15.7417 16.673 15.4883 16.9355 15.4883H28.7573C29.0114 15.4883 29.2739 15.7417 29.2739 16.0036C29.2739 16.2654 28.9351 16.5188 28.6726 16.5188Z" fill="#074698"/>
<path d="M23.363 19.6848H16.9355C16.5968 19.6848 16.4189 19.4314 16.4189 19.1696C16.4189 18.9077 16.673 18.6543 16.9355 18.6543H23.363C23.617 18.6543 23.8795 18.9077 23.8795 19.1696C23.8795 19.4314 23.6255 19.6848 23.363 19.6848Z" fill="#074698"/>
<path d="M28.6726 22.929H22.2451C21.991 22.929 21.7285 22.6756 21.7285 22.4137C21.7285 22.1519 21.9826 21.8984 22.2451 21.8984H28.6726C28.9266 21.8984 29.1891 22.1519 29.1891 22.4137C29.1891 22.6756 28.9351 22.929 28.6726 22.929Z" fill="#074698"/>
<path d="M17.9689 23.0989H16.851C16.5123 23.0989 16.3345 22.8455 16.3345 22.5836C16.3345 22.3218 16.5885 22.0684 16.851 22.0684H17.9689C18.2229 22.0684 18.4854 22.3218 18.4854 22.5836C18.4854 22.8455 18.2314 23.0989 17.9689 23.0989Z" fill="#074698"/>
<path d="M28.6726 26.0891H16.9355C16.5968 26.0891 16.4189 25.8357 16.4189 25.5739C16.4189 25.312 16.673 25.0586 16.9355 25.0586H28.7573C29.0114 25.0586 29.2739 25.312 29.2739 25.5739C29.1892 25.8273 28.9351 26.0891 28.6726 26.0891Z" fill="#074698"/>
<path d="M28.6726 29.3411H16.9355C16.5968 29.3411 16.4189 29.0877 16.4189 28.8258C16.4189 28.564 16.673 28.3105 16.9355 28.3105H28.7573C29.0114 28.3105 29.2739 28.564 29.2739 28.8258C29.1892 29.0792 28.9351 29.3411 28.6726 29.3411Z" fill="#074698"/>
<path d="M55.4919 56H10.5166C10.1778 56 10 55.7466 10 55.4847V38.3961C10 38.1427 10.2541 37.8809 10.5166 37.8809H55.4919C55.7459 37.8809 56.0085 38.1343 56.0085 38.3961V55.4847C56.0085 55.7382 55.7544 56 55.4919 56ZM11.0247 54.9695H54.9669V38.903H11.0247V54.9695Z" fill="#074698"/>
<path d="M21.2207 38.9122C20.9666 38.9122 20.7041 38.6588 20.7041 38.397V34.1227C20.7041 33.8693 20.9582 33.6074 21.2207 33.6074C21.4832 33.6074 21.7372 33.8608 21.7372 34.1227V38.397C21.7372 38.6504 21.4832 38.9122 21.2207 38.9122Z" fill="#074698"/>
<path d="M44.7793 38.9122C44.5252 38.9122 44.2627 38.6588 44.2627 38.397V34.1227C44.2627 33.8693 44.5167 33.6074 44.7793 33.6074C45.0418 33.6074 45.2958 33.8608 45.2958 34.1227V38.397C45.2958 38.6504 45.0418 38.9122 44.7793 38.9122Z" fill="#074698"/>
</g>
<defs>
<clipPath id="clip0_109_4963">
<rect width="46" height="47" fill="white" transform="translate(10 9)"/>
</clipPath>
</defs>
</svg>
