<svg width="65" height="65" viewBox="0 0 65 65" fill="none" xmlns="http://www.w3.org/2000/svg">
<g clip-path="url(#clip0_109_4869)">
<path d="M51.7316 33.0664H45.2451V56.2764H51.7316V33.0664Z" fill="#C5E0FF"/>
<path d="M46.1718 34.0964H51.6298V33.0664H45.2451V56.2764H46.1718V34.0964Z" fill="#C5E0FF"/>
<path d="M20.7347 39.5623V56.2764H14.3398V33.0664H20.7347V39.5623Z" fill="#C5E0FF"/>
<path d="M15.2665 34.0964H20.7347V33.0664H14.3398V56.2764H15.2665V34.0964Z" fill="#C5E0FF"/>
<path d="M55.55 25.3262V30.4862C55.55 31.9343 54.4197 33.0662 52.9737 33.0662H12.9039C11.4579 33.0662 10.3276 31.9343 10.3276 30.4862V25.3262H55.55Z" fill="white"/>
<path d="M11.4582 31.5162V26.3561H55.652V25.3262H10.4297V30.4862C10.4297 31.4142 10.949 32.2402 11.6618 32.6481C11.56 32.3422 11.4582 31.9241 11.4582 31.5162Z" fill="white"/>
<path d="M49.0533 13.161V18.9431H16.916V13.161C16.916 10.683 18.973 8.62305 21.4474 8.62305H44.5219C46.9963 8.62305 49.0533 10.683 49.0533 13.161Z" fill="#C5E0FF"/>
<path d="M17.9445 14.293C17.9445 11.8149 20.0014 9.75499 22.4759 9.75499H45.5504C46.5788 9.75499 47.5055 10.0609 48.3303 10.683C47.5055 9.44906 46.0595 8.62305 44.5219 8.62305H21.4474C18.973 8.62305 16.916 10.683 16.916 13.161V18.9431H17.9445V14.3032V14.293Z" fill="#C5E0FF"/>
<path d="M43.9112 12.4375H41.335V15.0175H43.9112V12.4375Z" fill="#074698"/>
<path d="M40.0924 12.4375H37.5161V15.0175H40.0924V12.4375Z" fill="#074698"/>
<path d="M36.1822 12.4375H33.606V15.0175H36.1822V12.4375Z" fill="#074698"/>
<path d="M32.3736 12.4375H29.7974V15.0175H32.3736V12.4375Z" fill="#074698"/>
<path d="M28.4532 12.4375H25.877V15.0175H28.4532V12.4375Z" fill="#074698"/>
<path d="M24.6451 12.4375H22.0688V15.0175H24.6451V12.4375Z" fill="#074698"/>
<path d="M20.7344 57.0014C20.429 57.0014 20.1133 56.6955 20.1133 56.3793V33.0674C20.1133 32.7614 20.4188 32.4453 20.7344 32.4453C21.0501 32.4453 21.3556 32.7512 21.3556 33.0674V56.2774C21.4574 56.6955 21.1519 57.0014 20.7344 57.0014Z" fill="#074698"/>
<path d="M14.3399 57.0014C14.0344 57.0014 13.7188 56.6955 13.7188 56.3793V33.0674C13.7188 32.7614 14.0242 32.4453 14.3399 32.4453C14.6556 32.4453 14.9611 32.7512 14.9611 33.0674V56.2774C14.9611 56.6955 14.6556 57.0014 14.3399 57.0014Z" fill="#074698"/>
<path d="M51.6295 57.0014C51.324 57.0014 51.0083 56.6955 51.0083 56.3793V33.0674C51.0083 32.7614 51.3138 32.4453 51.6295 32.4453C51.9451 32.4453 52.2506 32.7512 52.2506 33.0674V56.2774C52.3524 56.6955 52.047 57.0014 51.6295 57.0014Z" fill="#074698"/>
<path d="M45.2452 57.0014C44.9397 57.0014 44.624 56.6955 44.624 56.3793V33.0674C44.624 32.7614 44.9295 32.4453 45.2452 32.4453C45.5609 32.4453 45.8663 32.7512 45.8663 33.0674V56.2774C45.8663 56.6955 45.5609 57.0014 45.2452 57.0014Z" fill="#074698"/>
<path d="M52.974 33.7908H13.006C11.2546 33.7908 9.80859 32.3427 9.80859 30.5887V25.4287C9.80859 25.1228 10.1141 24.8066 10.4298 24.8066C10.7454 24.8066 11.0509 25.1126 11.0509 25.4287V30.5887C11.0509 31.6187 11.8757 32.5467 13.006 32.5467H52.974C54.0024 32.5467 54.9291 31.7207 54.9291 30.5887V25.4287C54.9291 25.1228 55.2346 24.8066 55.5502 24.8066C55.8659 24.8066 56.1714 25.1126 56.1714 25.4287V30.5887C56.1714 32.2408 54.7254 33.7908 52.974 33.7908Z" fill="#074698"/>
<path d="M59.3586 26.0508H46.4874C46.1819 26.0508 45.8662 25.7448 45.8662 25.4287C45.8662 25.1126 46.1717 24.8066 46.4874 24.8066H59.3586C59.6641 24.8066 59.9797 25.1126 59.9797 25.4287C60.0816 25.7346 59.7761 26.0508 59.3586 26.0508Z" fill="#074698"/>
<path d="M19.4924 26.0508H6.62116C6.31567 26.0508 6 25.7448 6 25.4287C6 25.1126 6.30549 24.8066 6.62116 24.8066H19.4924C19.7979 24.8066 20.1135 25.1126 20.1135 25.4287C20.1135 25.7448 19.808 26.0508 19.4924 26.0508Z" fill="#074698"/>
<path d="M46.4872 26.0506H19.4923C19.1868 26.0506 18.8711 25.7447 18.8711 25.4285V18.9326C18.8711 18.6267 19.1766 18.3105 19.4923 18.3105C19.8079 18.3105 20.1134 18.5145 20.1134 18.9326V24.7147H45.866V18.9326C45.866 18.6267 46.1715 18.3105 46.4872 18.3105C46.8028 18.3105 47.1083 18.6165 47.1083 18.9326V25.4285C47.2101 25.7345 46.9047 26.0506 46.4872 26.0506Z" fill="#074698"/>
<path d="M49.0534 19.5544H16.9161C16.6106 19.5544 16.2949 19.2485 16.2949 18.9324V13.1503C16.2949 10.2643 18.6675 7.99023 21.4475 7.99023H44.522C47.4037 7.99023 49.6745 10.3663 49.6745 13.1503V18.9324C49.7763 19.2383 49.4709 19.5544 49.0534 19.5544ZM17.5372 18.3205H48.4424V13.1605C48.4424 10.9986 46.6909 9.24455 44.5321 9.24455H21.4475C19.2887 9.24455 17.5372 10.9986 17.5372 13.1605V18.3205Z" fill="#074698"/>
<path d="M36.1819 40.1855H20.7344C20.429 40.1855 20.1133 39.8796 20.1133 39.5635C20.1133 39.2473 20.4188 38.9414 20.7344 38.9414H36.1819C36.4874 38.9414 36.8031 39.2473 36.8031 39.5635C36.8031 39.8796 36.5994 40.1855 36.1819 40.1855Z" fill="#074698"/>
<path d="M41.3349 40.1855H39.9908C39.6853 40.1855 39.3696 39.8796 39.3696 39.5635C39.3696 39.2473 39.6751 38.9414 39.9908 38.9414H41.3349C41.6404 38.9414 41.9561 39.2473 41.9561 39.5635C41.9561 39.8796 41.7524 40.1855 41.3349 40.1855Z" fill="#074698"/>
<path d="M58.1261 57H7.85309C7.5476 57 7.23193 56.694 7.23193 56.3779C7.23193 56.0618 7.53742 55.7559 7.85309 55.7559H58.1261C58.4316 55.7559 58.7473 56.0618 58.7473 56.3779C58.7473 56.694 58.4418 57 58.1261 57Z" fill="#074698"/>
</g>
<defs>
<clipPath id="clip0_109_4869">
<rect width="54" height="49" fill="white" transform="translate(6 8)"/>
</clipPath>
</defs>
</svg>
