<svg width="18" height="18" viewBox="0 0 18 18" fill="none" xmlns="http://www.w3.org/2000/svg">
<path d="M13.4477 3.5957C12.9053 3.5957 12.4619 4.03905 12.4619 4.58144C12.4619 5.12383 12.9053 5.56718 13.4477 5.56718C13.9901 5.56718 14.4334 5.12383 14.4334 4.58144C14.4334 4.03905 13.9901 3.5957 13.4477 3.5957Z" fill="url(#paint0_linear_98_529)"/>
<path d="M9.07088 4.85938C6.78812 4.85938 4.93457 6.71766 4.93457 8.99571C4.93457 11.2738 6.79283 13.132 9.07088 13.132C11.3489 13.132 13.2072 11.2738 13.2072 8.99571C13.2072 6.71766 11.3489 4.85938 9.07088 4.85938ZM9.07088 11.6511C7.60878 11.6511 6.42024 10.4625 6.42024 9.00042C6.42024 7.53832 7.60878 6.34978 9.07088 6.34978C10.533 6.34978 11.7215 7.53832 11.7215 9.00042C11.7215 10.4625 10.533 11.6511 9.07088 11.6511Z" fill="url(#paint1_linear_98_529)"/>
<path d="M12.3535 17.3996H5.64668C2.86397 17.3996 0.600098 15.1357 0.600098 12.353V5.64621C0.600098 2.8635 2.86397 0.599609 5.64668 0.599609H12.3535C15.1362 0.599609 17.4001 2.8635 17.4001 5.64621V12.353C17.4001 15.1357 15.1362 17.3996 12.3535 17.3996ZM5.64668 2.1749C3.73652 2.1749 2.1801 3.73133 2.1801 5.6415V12.3483C2.1801 14.2585 3.73652 15.8149 5.64668 15.8149H12.3535C14.2637 15.8149 15.8201 14.2585 15.8201 12.3483V5.6415C15.8201 3.73133 14.2637 2.1749 12.3535 2.1749H5.64668Z" fill="url(#paint2_linear_98_529)"/>
<defs>
<linearGradient id="paint0_linear_98_529" x1="12.4342" y1="4.67498" x2="14.3714" y2="4.67498" gradientUnits="userSpaceOnUse">
<stop stop-color="#C93A78"/>
<stop offset="1" stop-color="#EE7618"/>
</linearGradient>
<linearGradient id="paint1_linear_98_529" x1="4.81845" y1="9.3882" x2="12.9471" y2="9.3882" gradientUnits="userSpaceOnUse">
<stop stop-color="#C93A78"/>
<stop offset="1" stop-color="#EE7618"/>
</linearGradient>
<linearGradient id="paint2_linear_98_529" x1="0.364275" y1="9.79669" x2="16.8719" y2="9.79669" gradientUnits="userSpaceOnUse">
<stop stop-color="#C93A78"/>
<stop offset="1" stop-color="#EE7618"/>
</linearGradient>
</defs>
</svg>
