<svg width="54" height="37" viewBox="0 0 54 37" fill="none" xmlns="http://www.w3.org/2000/svg">
<rect x="15.376" y="7.24219" width="23.1631" height="23.1631" fill="white"/>
<path d="M53.2909 11.4946C53.2909 5.13927 48.1371 0 41.7962 0H12.3936C6.03824 0 0.898926 5.15374 0.898926 11.4946V25.1753C0.898926 31.5307 6.05271 36.67 12.3936 36.67H41.7962C48.1516 36.67 53.2909 31.5162 53.2909 25.1753V11.4946ZM35.991 19.3556L22.8025 25.8847C22.2813 26.1598 20.5296 25.7834 20.5296 25.2043V11.8131C20.5296 11.2196 22.2958 10.8432 22.817 11.1327L35.4408 17.9948C35.9765 18.2988 36.5266 19.0661 35.991 19.3556Z" fill="#FF0000"/>
</svg>
