<svg width="18" height="18" viewBox="0 0 18 18" fill="none" xmlns="http://www.w3.org/2000/svg">
<path d="M13.4352 3.13477C12.868 3.13477 12.4043 3.59841 12.4043 4.16564C12.4043 4.73286 12.868 5.19651 13.4352 5.19651C14.0024 5.19651 14.466 4.73286 14.466 4.16564C14.466 3.59841 14.0024 3.13477 13.4352 3.13477Z" fill="white"/>
<path d="M8.85792 4.45508C6.47064 4.45508 4.53223 6.39845 4.53223 8.7808C4.53223 11.1631 6.47557 13.1065 8.85792 13.1065C11.2403 13.1065 13.1837 11.1631 13.1837 8.7808C13.1837 6.39845 11.2403 4.45508 8.85792 4.45508ZM8.85792 11.5577C7.32888 11.5577 6.08592 10.3148 6.08592 8.78573C6.08592 7.25668 7.32888 6.01372 8.85792 6.01372C10.387 6.01372 11.6299 7.25668 11.6299 8.78573C11.6299 10.3148 10.387 11.5577 8.85792 11.5577Z" fill="white"/>
<path d="M12.2915 17.5692H5.27765C2.36753 17.5692 0 15.2017 0 12.2915V5.27767C0 2.36755 2.36753 0 5.27765 0H12.2915C15.2017 0 17.5692 2.36755 17.5692 5.27767V12.2915C17.5692 15.2017 15.2017 17.5692 12.2915 17.5692ZM5.27765 1.64742C3.28002 1.64742 1.65234 3.27512 1.65234 5.27274V12.2866C1.65234 14.2842 3.28002 15.9119 5.27765 15.9119H12.2915C14.2892 15.9119 15.9168 14.2842 15.9168 12.2866V5.27274C15.9168 3.27512 14.2892 1.64742 12.2915 1.64742H5.27765Z" fill="white"/>
</svg>
