<svg width="80" height="80" viewBox="0 0 80 80" fill="none" xmlns="http://www.w3.org/2000/svg">
<g clip-path="url(#clip0_161_56)">
<path d="M0.3349 57.5335V46.5039H1.77442L7.28672 54.8379H6.5143L11.9564 46.5039H13.3959L13.4121 57.5335H11.7268L11.7106 48.8844H12.1157L7.27052 56.1954H6.46298L1.58266 48.8844H2.02019V57.5335H0.3349Z" fill="#231F20"/>
<path d="M22.0681 57.6596C20.4531 57.6596 19.1837 57.2451 18.26 56.4136C17.3363 55.5846 16.8745 54.3701 16.8745 52.775V46.5039H18.63V52.712C18.63 53.941 18.9325 54.8379 19.5348 55.4076C20.1371 55.9748 20.9878 56.2585 22.0897 56.2585C23.1917 56.2585 24.0586 55.9748 24.6609 55.4076C25.2632 54.8404 25.5656 53.9435 25.5656 52.712V46.5039H27.2671V52.775C27.2671 54.3725 26.808 55.5846 25.8897 56.4136C24.9715 57.2427 23.6994 57.6596 22.0708 57.6596H22.0681Z" fill="#C2212D"/>
<path d="M34.3216 57.6597C33.3844 57.6597 32.4905 57.5312 31.6343 57.2742C30.7809 57.0173 30.1084 56.6827 29.6168 56.2731L30.2677 55.0441C30.7349 55.4125 31.3318 55.7155 32.0583 55.9579C32.7848 56.2003 33.5384 56.3216 34.3216 56.3216C35.0346 56.3216 35.6153 56.2488 36.0582 56.101C36.5038 55.9531 36.8306 55.7519 37.0413 55.4949C37.2519 55.238 37.3573 54.9471 37.3573 54.6198C37.3573 54.2417 37.2195 53.9362 36.9441 53.706C36.6686 53.4757 36.3121 53.289 35.8745 53.146C35.437 53.003 34.9536 52.8818 34.4269 52.7751C33.9003 52.6709 33.3709 52.5472 32.8389 52.4042C32.3068 52.2636 31.8207 52.0818 31.3804 51.8612C30.9429 51.6406 30.5864 51.3449 30.319 50.9716C30.0489 50.5983 29.9139 50.1183 29.9139 49.5292C29.9139 48.9402 30.0814 48.4384 30.4136 47.9608C30.7485 47.4833 31.2616 47.1003 31.9584 46.8094C32.6552 46.5209 33.5411 46.3755 34.6187 46.3755C35.3317 46.3755 36.0393 46.4603 36.7415 46.6276C37.4437 46.7949 38.0514 47.0373 38.5672 47.3524L37.9866 48.6129C37.4599 48.2978 36.9035 48.0699 36.3202 47.9269C35.7341 47.7863 35.1669 47.7136 34.6187 47.7136C33.9273 47.7136 33.3601 47.7936 32.9145 47.9512C32.4689 48.1087 32.1448 48.3196 31.9395 48.5814C31.7342 48.8432 31.6316 49.139 31.6316 49.4638C31.6316 49.8516 31.7693 50.1619 32.0448 50.3922C32.3203 50.6225 32.6768 50.8067 33.1143 50.9425C33.5519 51.0782 34.0353 51.2019 34.562 51.3134C35.0886 51.4249 35.618 51.5461 36.15 51.6843C36.6821 51.82 37.1682 51.9994 37.6057 52.22C38.0433 52.4406 38.3998 52.7339 38.6672 53.1024C38.9372 53.4708 39.0723 53.9435 39.0723 54.5205C39.0723 55.0974 38.9021 55.5943 38.5645 56.0719C38.2242 56.5494 37.7003 56.9324 36.9927 57.2233C36.2851 57.5118 35.3911 57.6572 34.3162 57.6572L34.3216 57.6597Z" fill="#231F20"/>
<path d="M41.5192 57.5335V46.5039H50.1914V47.8759H43.2747V56.1639H50.4372V57.5335H41.5192ZM43.1153 52.6029V51.2624H49.4352V52.6029H43.1153Z" fill="#231F20"/>
<path d="M58.2479 57.6596C56.6328 57.6596 55.3635 57.2451 54.4398 56.4136C53.5161 55.5846 53.0516 54.3701 53.0516 52.775V46.5039H54.8071V52.712C54.8071 53.941 55.1096 54.8379 55.7119 55.4076C56.3141 55.9748 57.1649 56.2585 58.2668 56.2585C59.3687 56.2585 60.2357 55.9748 60.8379 55.4076C61.4402 54.8404 61.7427 53.9435 61.7427 52.712V46.5039H63.4442V52.775C63.4442 54.3725 62.9851 55.5846 62.0668 56.4136C61.1485 57.2427 59.8738 57.6596 58.2479 57.6596Z" fill="#231F20"/>
<path d="M66.9201 57.5335V46.5039H68.3596L73.8719 54.8379H73.0995L78.5416 46.5039H79.9811L80 57.5335H78.3147L78.2985 48.8844H78.7036L73.8584 56.1954H73.0509L68.1706 48.8844H68.6081V57.5335H66.9228H66.9201Z" fill="#231F20"/>
<path d="M5.27464 34.9506C3.63796 34.9506 2.34968 34.5191 1.40981 33.6586C0.469937 32.798 0 31.5157 0 29.8067V22.8374H0.65089V29.7897C0.65089 31.3508 1.05331 32.512 1.85814 33.2756C2.66298 34.0391 3.80001 34.4197 5.27194 34.4197C6.74386 34.4197 7.8809 34.0391 8.68573 33.2756C9.49056 32.512 9.89298 31.3508 9.89298 29.7897V22.8374H10.525V29.8067C10.525 31.5157 10.055 32.8004 9.11515 33.661C8.17528 34.5215 6.89511 34.953 5.26923 34.953L5.27464 34.9506Z" fill="#231F20"/>
<path d="M16.8367 34.8827V22.835H17.3742L27.2294 34.1943H26.9026V22.835H27.5535V34.8827H27.016L17.1608 23.5234H17.4876V34.8827H16.8367Z" fill="#231F20"/>
<path d="M39.5962 34.9506C38.5996 34.9506 37.676 34.7978 36.8252 34.4948C35.9745 34.1918 35.2344 33.7628 34.5998 33.2125C33.9678 32.6622 33.4789 32.0174 33.1332 31.2756C32.7875 30.5363 32.6147 29.7291 32.6147 28.8564C32.6147 27.9837 32.7875 27.1789 33.1332 26.4371C33.4789 25.6978 33.9678 25.053 34.5998 24.5003C35.2317 23.95 35.9745 23.5234 36.8252 23.2179C37.676 22.9149 38.5996 22.7622 39.5962 22.7622C40.5307 22.7622 41.4057 22.8931 42.2241 23.1573C43.0424 23.4216 43.7392 23.8167 44.3145 24.3451L43.931 24.7403C43.3179 24.2118 42.6535 23.8409 41.9378 23.6203C41.2221 23.4022 40.4497 23.2931 39.6178 23.2931C38.7104 23.2931 37.8704 23.4337 37.0953 23.7149C36.3202 23.9961 35.6477 24.3888 35.0724 24.893C34.4971 25.3972 34.0515 25.9863 33.7409 26.6577C33.4276 27.3292 33.271 28.0613 33.271 28.8515C33.271 29.6418 33.4276 30.3739 33.7409 31.0453C34.0542 31.7168 34.4971 32.3059 35.0724 32.8101C35.6477 33.3143 36.3229 33.707 37.0953 33.9882C37.8677 34.2694 38.7077 34.41 39.6178 34.41C40.4362 34.41 41.2113 34.2985 41.9486 34.0755C42.6832 33.8524 43.3395 33.4816 43.9148 32.9652L44.2983 33.3943C43.7095 33.9106 43.0073 34.2985 42.189 34.5554C41.3706 34.8124 40.5091 34.9433 39.6016 34.9433L39.5962 34.9506ZM44.2956 33.4016L43.6825 33.3337V28.9461H44.2956V33.404V33.4016Z" fill="#231F20"/>
<path d="M50.3345 34.8827V22.835H50.872L60.7272 34.1943H60.4004V22.835H61.0513V34.8827H60.5138L50.6586 23.5234H50.9854V34.8827H50.3345Z" fill="#231F20"/>
<path d="M73.0401 34.9506C72.0543 34.9506 71.1414 34.7978 70.2988 34.4948C69.4561 34.1918 68.7188 33.7628 68.0922 33.2125C67.4656 32.6622 66.9795 32.0174 66.6338 31.2756C66.2881 30.5363 66.1152 29.7291 66.1152 28.8564C66.1152 27.9837 66.2881 27.1789 66.6338 26.4371C66.9795 25.6978 67.4656 25.053 68.0922 24.5003C68.7188 23.95 69.4534 23.5234 70.2988 23.2179C71.1414 22.9149 72.0624 22.7622 73.059 22.7622C74.0555 22.7622 74.9576 22.9149 75.8003 23.2179C76.6429 23.5209 77.3748 23.95 77.996 24.5003C78.6172 25.0506 79.1006 25.6929 79.4544 26.4274C79.8055 27.1619 79.9811 27.9716 79.9811 28.854C79.9811 29.7363 79.8055 30.5314 79.4544 31.2732C79.1033 32.0126 78.6172 32.6598 77.996 33.2101C77.3748 33.7603 76.6456 34.1894 75.8003 34.4924C74.9576 34.7954 74.0366 34.9481 73.0401 34.9481V34.9506ZM73.0401 34.4173C73.934 34.4173 74.7659 34.2791 75.5329 34.0052C76.2999 33.7312 76.967 33.3385 77.5369 32.8343C78.1067 32.3301 78.547 31.7411 78.8602 31.0696C79.1735 30.3981 79.3302 29.6612 79.3302 28.8588C79.3302 28.0564 79.1735 27.3195 78.8602 26.648C78.547 25.9766 78.1067 25.3899 77.5369 24.8833C76.967 24.3791 76.2999 23.9888 75.5329 23.7125C74.7659 23.4361 73.934 23.3004 73.0401 23.3004C72.1461 23.3004 71.3332 23.4385 70.5661 23.7125C69.7991 23.9888 69.132 24.3791 68.5621 24.8833C67.9923 25.3875 67.5521 25.979 67.2388 26.6553C66.9255 27.3316 66.7688 28.0661 66.7688 28.8588C66.7688 29.6515 66.9255 30.3981 67.2388 31.0696C67.5521 31.7411 67.9923 32.3301 68.5621 32.8343C69.132 33.3385 69.7991 33.7288 70.5661 34.0052C71.3332 34.2815 72.1569 34.4173 73.0401 34.4173Z" fill="#231F20"/>
<path d="M0 12.0478V0H0.65089V11.5145H8.51288V12.0478H0Z" fill="#231F20"/>
<path d="M34.4323 12.0478V0H43.2342V0.533301H35.0859V11.5145H43.5043V12.0478H34.435H34.4323ZM34.9698 6.19599V5.66269H42.3726V6.19599H34.9698Z" fill="#231F20"/>
<path d="M69.0294 12.0478V0H77.8313V0.533301H69.683V11.5145H78.1014V12.0478H69.0321H69.0294ZM69.5669 6.19599V5.66269H76.9697V6.19599H69.5669Z" fill="#231F20"/>
<path d="M28.8957 64.624H16.645V65.7755H28.8957V64.624Z" fill="#C2222D"/>
<path d="M9.96588 80C12.2182 80 14.0441 78.3612 14.0441 76.3396C14.0441 74.318 12.2182 72.6792 9.96588 72.6792C7.71356 72.6792 5.8877 74.318 5.8877 76.3396C5.8877 78.3612 7.71356 80 9.96588 80Z" fill="#C2222D"/>
<path d="M22.5732 80C24.8255 80 26.6514 78.3612 26.6514 76.3396C26.6514 74.318 24.8255 72.6792 22.5732 72.6792C20.3209 72.6792 18.495 74.318 18.495 76.3396C18.495 78.3612 20.3209 80 22.5732 80Z" fill="#C2222D"/>
<path d="M34.3432 72.6792H30.7106V79.823H34.3432V72.6792Z" fill="#C2222D"/>
<path d="M39.6502 76.6499H30.7106V79.8255H39.6502V76.6499Z" fill="#C2222D"/>
</g>
<defs>
<clipPath id="clip0_161_56">
<rect width="80" height="80" fill="white"/>
</clipPath>
</defs>
</svg>
