<svg width="71" height="71" viewBox="0 0 71 71" fill="none" xmlns="http://www.w3.org/2000/svg">
<mask id="mask0_13_897" style="mask-type:alpha" maskUnits="userSpaceOnUse" x="0" y="0" width="71" height="71">
<rect width="71" height="71" fill="#B6B0C3"/>
</mask>
<g mask="url(#mask0_13_897)">
<path d="M35.5001 21.0781C34.6126 20.4371 33.6635 19.9687 32.6527 19.6729C31.6419 19.3771 30.6188 19.2292 29.5834 19.2292C28.2522 19.2292 26.9456 19.488 25.6636 20.0057C24.3817 20.5234 23.2477 21.2753 22.2615 22.2614C21.2754 23.2476 20.5235 24.3816 20.0058 25.6635C19.4881 26.9455 19.2292 28.2521 19.2292 29.5833C19.2292 30.6187 19.3772 31.6418 19.673 32.6526C19.9688 33.6634 20.4372 34.6125 21.0782 35.5C20.4372 36.3875 19.9688 37.3366 19.673 38.3474C19.3772 39.3582 19.2292 40.3812 19.2292 41.4167C19.2292 42.7479 19.4881 44.0545 20.0058 45.3364C20.5235 46.6184 21.2754 47.7524 22.2615 48.7385C23.2477 49.7246 24.3817 50.4766 25.6636 50.9943C26.9456 51.512 28.2522 51.7708 29.5834 51.7708C30.6188 51.7708 31.6419 51.6229 32.6527 51.3271C33.6635 51.0312 34.6126 50.5628 35.5001 49.9219C36.3876 50.5628 37.3367 51.0312 38.3475 51.3271C39.3582 51.6229 40.3813 51.7708 41.4167 51.7708C42.748 51.7708 44.0546 51.512 45.3365 50.9943C46.6185 50.4766 47.7525 49.7246 48.7386 48.7385C49.7247 47.7524 50.4766 46.6184 50.9944 45.3364C51.5121 44.0545 51.7709 42.7479 51.7709 41.4167C51.7709 40.3812 51.623 39.3582 51.3272 38.3474C51.0313 37.3366 50.5629 36.3875 49.922 35.5C50.5629 34.6125 51.0313 33.6634 51.3272 32.6526C51.623 31.6418 51.7709 30.6187 51.7709 29.5833C51.7709 28.2521 51.5121 26.9455 50.9944 25.6635C50.4766 24.3816 49.7247 23.2476 48.7386 22.2614C47.7525 21.2753 46.6185 20.5234 45.3365 20.0057C44.0546 19.488 42.748 19.2292 41.4167 19.2292C40.3813 19.2292 39.3582 19.3771 38.3475 19.6729C37.3367 19.9687 36.3876 20.4371 35.5001 21.0781ZM35.5001 39.1979C36.5355 39.1979 37.4107 38.8404 38.1256 38.1255C38.8405 37.4106 39.198 36.5354 39.198 35.5C39.198 34.4646 38.8405 33.5894 38.1256 32.8745C37.4107 32.1595 36.5355 31.8021 35.5001 31.8021C34.4647 31.8021 33.5895 32.1595 32.8746 32.8745C32.1596 33.5894 31.8022 34.4646 31.8022 35.5C31.8022 36.5354 32.1596 37.4106 32.8746 38.1255C33.5895 38.8404 34.4647 39.1979 35.5001 39.1979ZM35.5001 65.0833C31.4077 65.0833 27.5619 64.3068 23.9626 62.7536C20.3633 61.2005 17.2324 59.0927 14.5699 56.4302C11.9074 53.7677 9.79956 50.6368 8.24644 47.0375C6.69331 43.4382 5.91675 39.5924 5.91675 35.5C5.91675 31.4076 6.69331 27.5618 8.24644 23.9625C9.79956 20.3632 11.9074 17.2323 14.5699 14.5698C17.2324 11.9073 20.3633 9.79947 23.9626 8.24634C27.5619 6.69322 31.4077 5.91666 35.5001 5.91666C39.5924 5.91666 43.4383 6.69322 47.0376 8.24634C50.6369 9.79947 53.7678 11.9073 56.4303 14.5698C59.0928 17.2323 61.2006 20.3632 62.7537 23.9625C64.3069 27.5618 65.0834 31.4076 65.0834 35.5C65.0834 39.5924 64.3069 43.4382 62.7537 47.0375C61.2006 50.6368 59.0928 53.7677 56.4303 56.4302C53.7678 59.0927 50.6369 61.2005 47.0376 62.7536C43.4383 64.3068 39.5924 65.0833 35.5001 65.0833Z" fill="#7964A4"/>
</g>
</svg>
