<svg width="199" height="43" viewBox="0 0 199 43" fill="none" xmlns="http://www.w3.org/2000/svg">
<path d="M25.9571 34.7742C27.3239 32.5437 28.2205 29.7776 29.0795 27.1061C30.0513 24.0943 31.0671 20.9816 32.7599 18.455C39.0298 8.43667 47.3312 5.85332 55.0996 4.31592C46.9675 5.6832 37.8009 8.27285 31.3743 18.5432C28.208 23.2689 27.5183 30.0423 24.5777 34.8561C23.2736 36.9858 20.4772 41.4279 13.875 41.8941C17.963 41.995 22.4773 40.4702 25.9571 34.7805V34.7742Z" fill="white"/>
<path d="M163.889 13.843C164.127 14.0131 164.24 14.2904 164.24 14.6747C164.24 15.0339 164.089 15.3552 163.788 15.6388C163.488 15.9223 163.111 16.0672 162.666 16.0672C162.133 16.0672 161.719 15.8971 161.437 15.5568C161.155 15.2166 161.023 14.8638 161.023 14.5046H161.701C161.688 14.7818 161.77 15.015 161.951 15.204C162.133 15.393 162.371 15.4875 162.666 15.4875C162.98 15.4875 163.212 15.3993 163.356 15.2229C163.506 15.0528 163.582 14.8764 163.582 14.6999C163.582 14.492 163.494 14.3345 163.318 14.2274C163.149 14.1203 162.961 14.0257 162.766 13.9312C162.453 13.7863 162.108 13.6351 161.713 13.4776C161.324 13.32 161.13 13.0239 161.13 12.5891C161.13 12.2363 161.28 11.9213 161.581 11.6503C161.876 11.3857 162.24 11.2471 162.66 11.2471C163.08 11.2471 163.462 11.392 163.732 11.6755C164.002 11.9654 164.152 12.2867 164.177 12.6333H163.506C163.5 12.5009 163.431 12.3308 163.299 12.1292C163.168 11.9276 162.955 11.8267 162.66 11.8267C162.39 11.8267 162.183 11.9024 162.033 12.0536C161.882 12.2048 161.813 12.3749 161.813 12.5576C161.813 12.7908 161.983 12.9672 162.315 13.0869C162.647 13.2066 162.923 13.3137 163.13 13.4083C163.4 13.528 163.651 13.6729 163.889 13.843Z" fill="white"/>
<path d="M165.306 15.954V11.3733H165.983V15.954H165.306Z" fill="white"/>
<path d="M169.852 15.9539L167.657 12.4506V15.9602H166.98V11.3857H167.726L169.939 14.9079V11.3857H170.598V15.9602H169.845L169.852 15.9539Z" fill="white"/>
<path d="M175.438 12.7655C175.338 12.608 175.162 12.419 174.917 12.1859C174.673 11.9527 174.328 11.8393 173.87 11.8393C173.362 11.8393 172.942 12.022 172.604 12.3749C172.272 12.734 172.102 13.1436 172.102 13.6098C172.102 14.0761 172.272 14.4857 172.598 14.8448C172.93 15.1977 173.35 15.3804 173.864 15.3804C174.316 15.3804 174.667 15.2607 174.917 15.0338C175.168 14.807 175.331 14.6117 175.419 14.4605H176.09C175.939 14.8826 175.664 15.2481 175.262 15.5568C174.867 15.8592 174.397 16.0168 173.864 16.0168C173.199 16.0168 172.641 15.7773 172.171 15.3111C171.701 14.8385 171.469 14.2714 171.469 13.6098C171.469 12.9483 171.701 12.3875 172.171 11.9149C172.641 11.4424 173.199 11.2092 173.864 11.2092C174.397 11.2092 174.861 11.3604 175.262 11.6692C175.664 11.9779 175.939 12.3434 176.102 12.7718H175.432L175.438 12.7655Z" fill="white"/>
<path d="M177.055 15.9284V11.354H180.052V11.9211H177.739V13.2695H179.99V13.8428H177.739V15.355H180.103V15.9284H177.049H177.055Z" fill="white"/>
<path d="M185.269 16.023V11.9779H184.141V11.436H185.928V16.023H185.269Z" fill="white"/>
<path d="M189.865 11.7828C190.179 12.0916 190.329 12.4696 190.329 12.9107C190.329 13.043 190.317 13.1627 190.285 13.2761C190.26 13.3832 190.223 13.4903 190.166 13.5912L188.806 15.9981H188.141L189.094 14.3158C188.674 14.4418 188.254 14.3788 187.834 14.1267C187.414 13.8747 187.188 13.4651 187.169 12.9044C187.144 12.4696 187.301 12.0979 187.621 11.7828C187.94 11.4678 188.316 11.304 188.755 11.304C189.194 11.304 189.564 11.4615 189.878 11.7702L189.865 11.7828ZM189.445 13.5534C189.633 13.358 189.733 13.1249 189.733 12.854C189.733 12.583 189.639 12.3373 189.445 12.1483C189.257 11.9592 189.019 11.8647 188.743 11.8647C188.467 11.8647 188.235 11.9592 188.034 12.1483C187.84 12.3436 187.746 12.5767 187.746 12.854C187.746 13.1312 187.84 13.3643 188.034 13.5534C188.229 13.7487 188.461 13.8432 188.743 13.8432C189.025 13.8432 189.257 13.7487 189.445 13.5534Z" fill="white"/>
<path d="M194.003 15.368V15.954H193.344V15.368H191.238V14.8703L193.388 11.3733H193.997V14.7946H194.461V15.368H193.997H194.003ZM193.351 12.5452L191.953 14.8009H193.351V12.5452Z" fill="white"/>
<path d="M198.498 11.9654L196.523 15.9602H195.834C195.834 15.9602 196.141 15.3301 196.743 14.1014C197.345 12.8727 197.696 12.1607 197.796 11.9591H195.451V11.3857H198.498V11.9654Z" fill="white"/>
<path d="M91.8851 13.3075V18.5876H91.4149C91.2644 17.5732 90.9948 16.7667 90.6061 16.1681C90.2111 15.5695 89.6593 15.0907 88.9383 14.7378C88.211 14.385 87.4649 14.2085 86.6999 14.2085C85.8222 14.2085 85.1011 14.448 84.5306 14.9205C83.96 15.3994 83.6716 15.935 83.6716 16.5462C83.6716 17.0124 83.8534 17.4346 84.2108 17.8189C84.7312 18.3797 85.9664 19.1295 87.9288 20.0683C89.5277 20.8307 90.6124 21.4167 91.208 21.8263C91.7911 22.2358 92.2425 22.7147 92.556 23.2692C92.8758 23.8236 93.0325 24.4033 93.0325 25.0082C93.0325 26.1612 92.5309 27.1568 91.5215 27.9948C90.512 28.8265 89.2267 29.2487 87.6404 29.2487C87.1451 29.2487 86.6811 29.2108 86.2422 29.1478C85.9852 29.11 85.4397 28.9714 84.6183 28.7383C83.797 28.4989 83.2828 28.3791 83.0571 28.3791C82.8314 28.3791 82.6809 28.4358 82.5618 28.5493C82.4364 28.6627 82.3486 28.8958 82.2922 29.2487H81.822V24.0253H82.2922C82.5116 25.1216 82.8063 25.9407 83.1763 26.4826C83.5462 27.0245 84.1105 27.4781 84.8691 27.8373C85.6278 28.1964 86.4617 28.3791 87.3708 28.3791C88.4179 28.3791 89.2518 28.1271 89.86 27.6356C90.4682 27.1379 90.7754 26.5519 90.7754 25.8777C90.7754 25.4997 90.6625 25.1216 90.4305 24.7372C90.2048 24.3529 89.8412 23.9938 89.3584 23.6598C89.0323 23.4393 88.1357 22.9604 86.6686 22.2358C85.2077 21.5112 84.1606 20.9315 83.5336 20.4968C82.9129 20.062 82.4489 19.5832 82.1229 19.0539C81.8031 18.5246 81.6401 17.9512 81.6401 17.3212C81.6401 16.2248 82.1104 15.286 83.0509 14.4921C83.9913 13.6982 85.1952 13.3012 86.6498 13.3012C87.5589 13.3012 88.5182 13.4965 89.5339 13.8935C90.0104 14.0762 90.3365 14.1707 90.5308 14.1707C90.744 14.1707 90.9259 14.1077 91.0638 13.9943C91.2017 13.8809 91.3146 13.6478 91.4024 13.2949H91.8726L91.8851 13.3075Z" fill="white"/>
<path d="M98.1799 19.0097V23.1241H100.738C101.396 23.1241 101.842 23.0359 102.061 22.8595C102.362 22.6263 102.525 22.2168 102.556 21.6245H102.889V25.2601H102.556C102.481 24.7497 102.4 24.4221 102.318 24.2772C102.211 24.0944 102.042 23.9558 101.81 23.855C101.578 23.7542 101.215 23.6975 100.738 23.6975H98.1799V27.1441C98.1799 27.6103 98.205 27.8939 98.2489 27.9884C98.2928 28.0892 98.3743 28.1648 98.4934 28.2278C98.6063 28.2845 98.832 28.316 99.1518 28.316H101.139C101.804 28.316 102.28 28.2719 102.581 28.19C102.882 28.1018 103.171 27.9443 103.447 27.6985C103.804 27.3772 104.168 26.892 104.544 26.243H104.914L103.898 28.9146H94.813V28.6121H95.2268C95.5027 28.6121 95.766 28.5554 96.0168 28.4357C96.2049 28.3538 96.324 28.2278 96.393 28.064C96.462 27.9002 96.4933 27.5599 96.4933 27.0558V20.2698C96.4933 19.5956 96.4181 19.1798 96.2676 19.0223C96.0607 18.8143 95.7096 18.7072 95.2268 18.7072H94.813V18.4048H103.873L104.005 20.7172H103.635C103.516 20.169 103.384 19.7973 103.233 19.5956C103.089 19.3877 102.87 19.2302 102.581 19.1231C102.356 19.0475 101.948 19.0097 101.371 19.0097H98.1737H98.1799Z" fill="white"/>
<path d="M112.112 18.1719C113.817 18.1719 115.291 18.6885 116.539 19.7282C117.793 20.7615 118.413 22.0532 118.413 23.6032C118.413 25.1532 117.786 26.5268 116.526 27.579C115.266 28.6313 113.742 29.1605 111.955 29.1605C110.168 29.1605 108.632 28.6502 107.397 27.6231C106.168 26.5961 105.554 25.2666 105.554 23.6284C105.554 21.9902 106.262 20.5977 107.685 19.5455C108.914 18.6318 110.388 18.1719 112.106 18.1719H112.112ZM111.93 18.7074C110.751 18.7074 109.811 19.0603 109.096 19.7597C108.212 20.6292 107.767 21.9083 107.767 23.5843C107.767 25.2603 108.225 26.6276 109.14 27.5601C109.842 28.2658 110.777 28.6187 111.93 28.6187C113.165 28.6187 114.181 28.2343 114.99 27.4656C115.799 26.6906 116.2 25.4746 116.2 23.8111C116.2 22.0091 115.755 20.6607 114.871 19.7786C114.156 19.0729 113.178 18.72 111.924 18.72L111.93 18.7074Z" fill="white"/>
<path d="M167.431 18.1719C169.137 18.1719 170.616 18.6885 171.864 19.7282C173.112 20.7615 173.739 22.0532 173.739 23.6032C173.739 25.1532 173.112 26.5268 171.845 27.579C170.585 28.6313 169.061 29.1605 167.274 29.1605C165.488 29.1605 163.945 28.6502 162.723 27.6231C161.494 26.5961 160.879 25.2666 160.879 23.6284C160.879 21.9902 161.588 20.5977 163.011 19.5455C164.246 18.6318 165.72 18.1719 167.437 18.1719H167.431ZM167.243 18.7074C166.071 18.7074 165.124 19.0603 164.409 19.7597C163.525 20.6292 163.086 21.9083 163.086 23.5843C163.086 25.2603 163.544 26.6276 164.459 27.5601C165.161 28.2658 166.096 28.6187 167.249 28.6187C168.485 28.6187 169.5 28.2343 170.309 27.4656C171.112 26.6906 171.519 25.4746 171.519 23.8111C171.519 22.0091 171.074 20.6607 170.19 19.7786C169.475 19.0729 168.497 18.72 167.243 18.72V18.7074Z" fill="white"/>
<path d="M129.079 21.4923L134.609 26.3755C135.518 27.2072 136.289 27.768 136.935 28.0578C137.574 28.3476 138.22 28.5115 138.86 28.5556V28.9147H131.693V28.5556C132.12 28.5556 132.427 28.4926 132.615 28.3665C132.803 28.2342 132.897 28.0956 132.897 27.9381C132.897 27.7806 132.859 27.6419 132.791 27.5159C132.715 27.3899 132.49 27.1568 132.101 26.8165L126.934 22.2547V26.5456C126.934 27.2261 126.985 27.6735 127.079 27.894C127.154 28.0578 127.311 28.2027 127.549 28.3224C127.869 28.48 128.207 28.5619 128.571 28.5619H129.085V28.921H122.652V28.5619H123.185C123.806 28.5619 124.263 28.398 124.546 28.0767C124.721 27.8625 124.815 27.3584 124.815 26.5519V17.9386C124.815 17.2582 124.765 16.8045 124.671 16.5777C124.596 16.4201 124.445 16.2815 124.213 16.1618C123.887 16.0043 123.542 15.9224 123.191 15.9224H122.658V15.5632H129.091V15.9224H128.577C128.226 15.9224 127.881 15.998 127.555 16.1492C127.323 16.2563 127.16 16.4138 127.072 16.6218C126.985 16.836 126.934 17.2708 126.934 17.9323V22.0153C127.079 21.8893 127.587 21.4734 128.445 20.7614C130.627 18.972 131.95 17.7811 132.408 17.1825C132.609 16.9179 132.709 16.6911 132.709 16.4895C132.709 16.3382 132.634 16.2059 132.477 16.0925C132.32 15.9791 132.057 15.9224 131.693 15.9224H131.348V15.5632H136.86V15.9224C136.54 15.9287 136.239 15.9665 135.976 16.0421C135.712 16.1177 135.386 16.2563 135.004 16.4643C134.621 16.6722 134.151 17.0061 133.587 17.4724C133.424 17.6047 132.684 18.2726 131.355 19.4824L129.079 21.4986V21.4923Z" fill="white"/>
<path d="M145.499 18.4047H149.612V18.7072H149.386C149.236 18.7072 149.01 18.7702 148.722 18.8836C148.433 19.0033 148.17 19.1734 147.938 19.394C147.694 19.6145 147.405 19.9736 147.06 20.4714L144.226 24.4094V27.0495C144.226 27.7048 144.302 28.1143 144.471 28.2782C144.69 28.4987 145.048 28.6058 145.524 28.6058H145.913V28.9082H140.859V28.6058H141.286C141.787 28.6058 142.145 28.4672 142.352 28.1962C142.483 28.0261 142.546 27.6481 142.546 27.0495V24.6174L139.348 20.1816C138.966 19.6712 138.709 19.3562 138.571 19.2301C138.439 19.1041 138.157 18.9529 137.724 18.7765C137.612 18.7261 137.442 18.7009 137.223 18.7009V18.3984H142.233V18.7009H141.975C141.7 18.7009 141.449 18.7576 141.223 18.871C140.997 18.9844 140.878 19.1545 140.878 19.3814C140.878 19.5641 141.054 19.898 141.405 20.3769L143.85 23.7605L146.183 20.5218C146.534 20.043 146.703 19.6838 146.703 19.4444C146.703 19.2995 146.659 19.1734 146.578 19.06C146.496 18.9466 146.371 18.8584 146.214 18.7954C146.057 18.7324 145.825 18.7009 145.512 18.7009V18.3984L145.499 18.4047Z" fill="white"/>
<path d="M153.581 19.0097V23.1241H156.146C156.804 23.1241 157.249 23.0359 157.468 22.8595C157.763 22.6263 157.926 22.2168 157.964 21.6245H158.302V25.2601H157.964C157.882 24.7497 157.807 24.4221 157.726 24.2772C157.625 24.0944 157.456 23.9558 157.224 23.855C156.992 23.7542 156.628 23.6975 156.146 23.6975H153.581V27.1441C153.581 27.6103 153.606 27.8939 153.656 27.9884C153.7 28.0892 153.782 28.1648 153.901 28.2278C154.014 28.2845 154.233 28.316 154.553 28.316H156.547C157.205 28.316 157.688 28.2719 157.989 28.19C158.29 28.1018 158.572 27.9443 158.854 27.6985C159.211 27.3772 159.575 26.892 159.951 26.243H160.321L159.306 28.9146H150.22V28.6121H150.634C150.916 28.6121 151.173 28.5554 151.424 28.4357C151.606 28.3538 151.738 28.2278 151.8 28.064C151.869 27.9002 151.901 27.5599 151.901 27.0558V20.2698C151.901 19.5956 151.826 19.1798 151.675 19.0223C151.468 18.8143 151.117 18.7072 150.634 18.7072H150.22V18.4048H159.274L159.406 20.7172H159.036C158.917 20.169 158.785 19.7973 158.635 19.5956C158.49 19.3877 158.271 19.2302 157.989 19.1231C157.763 19.0475 157.356 19.0097 156.779 19.0097H153.581Z" fill="white"/>
<path d="M173.3 18.4048H176.51L183.695 26.2241V20.2698C183.695 19.6145 183.614 19.205 183.451 19.0412C183.231 18.8206 182.893 18.7072 182.423 18.7072H182.015V18.4048H186.153V18.7072H185.733C185.231 18.7072 184.874 18.8458 184.661 19.1168C184.535 19.2869 184.466 19.665 184.466 20.2698V29.0847H184.153L176.385 20.629V27.0558C176.385 27.7111 176.466 28.1207 176.623 28.2845C176.842 28.505 177.187 28.6121 177.651 28.6121H178.071V28.9146H173.933V28.6121H174.341C174.848 28.6121 175.206 28.4735 175.419 28.2026C175.551 28.0325 175.613 27.6544 175.613 27.0558V19.791C175.275 19.4381 175.011 19.205 174.836 19.0916C174.66 18.9782 174.403 18.8773 174.058 18.7765C173.895 18.7324 173.638 18.7072 173.3 18.7072V18.4048Z" fill="white"/>
<path d="M197.313 18.1719L197.583 21.4735H197.244C196.943 20.6481 196.548 20.0306 196.066 19.6148C195.37 19.0162 194.473 18.7137 193.376 18.7137C191.884 18.7137 190.749 19.243 189.978 20.3079C189.325 21.1963 188.999 22.2611 188.999 23.4898C188.999 24.4916 189.213 25.4052 189.652 26.2307C190.084 27.0561 190.655 27.6609 191.357 28.0453C192.065 28.4296 192.786 28.6187 193.533 28.6187C193.965 28.6187 194.385 28.5683 194.793 28.4738C195.2 28.3729 195.589 28.2343 195.965 28.0453V25.0461C195.965 24.5105 195.921 24.164 195.834 23.9939C195.74 23.8237 195.602 23.704 195.414 23.6158C195.225 23.5276 194.893 23.4835 194.423 23.4835V23.181H199V23.4835H198.774C198.316 23.4835 197.997 23.6221 197.827 23.893C197.708 24.0884 197.646 24.4727 197.646 25.0461V28.2406C196.981 28.5557 196.329 28.7888 195.677 28.94C195.025 29.0912 194.304 29.1605 193.514 29.1605C191.238 29.1605 189.514 28.5116 188.329 27.2073C187.444 26.2307 187.006 25.1091 187.006 23.83C187.006 22.9038 187.256 22.0217 187.752 21.1711C188.347 20.1629 189.15 19.3879 190.184 18.8461C191.05 18.3987 192.065 18.1719 193.238 18.1719C193.671 18.1719 194.059 18.2034 194.404 18.2664C194.749 18.3294 195.251 18.4617 195.896 18.6759C196.222 18.7831 196.436 18.8335 196.548 18.8335C196.661 18.8335 196.749 18.7894 196.831 18.7011C196.912 18.6129 196.956 18.4365 196.975 18.1782H197.313V18.1719Z" fill="white"/>
<path d="M87.7279 33.4829V33.2812H90.5494V33.4829H90.2484C89.9287 33.4829 89.6904 33.6026 89.5211 33.8483C89.4333 33.9617 89.3957 34.2264 89.3957 34.6422V37.6729C89.3957 38.4227 89.3142 39.0024 89.1512 39.4183C88.9944 39.8341 88.681 40.187 88.2107 40.4831C87.7405 40.7793 87.1072 40.9305 86.2984 40.9305C85.4206 40.9305 84.756 40.7856 84.2983 40.5083C83.8406 40.2248 83.5271 39.8404 83.3327 39.3679C83.2073 39.0402 83.1446 38.429 83.1446 37.528V34.6107C83.1446 34.1508 83.0757 33.8483 82.9377 33.7034C82.7998 33.5585 82.5803 33.4892 82.2794 33.4892H81.9722V33.2876H85.4394V33.4892H85.1322C84.7999 33.4892 84.5679 33.5837 84.4237 33.779C84.3296 33.9113 84.2795 34.1886 84.2795 34.6044V37.862C84.2795 38.1518 84.3108 38.4857 84.3673 38.8638C84.43 39.2355 84.5303 39.5317 84.6808 39.7396C84.8312 39.9475 85.0507 40.124 85.3328 40.2563C85.615 40.3886 85.9661 40.4579 86.3736 40.4579C86.9003 40.4579 87.3705 40.3508 87.7906 40.1429C88.2044 39.9286 88.4929 39.6577 88.6433 39.3238C88.7938 38.9898 88.8753 38.429 88.8753 37.6351V34.6107C88.8753 34.1445 88.8189 33.8483 88.706 33.7349C88.5556 33.5711 88.3236 33.4955 88.0163 33.4955H87.7154L87.7279 33.4829Z" fill="white"/>
<path d="M90.5243 33.2814H92.7063L97.6281 38.8829V34.5731C97.6281 34.1132 97.5717 33.8233 97.4588 33.7099C97.3084 33.5524 97.0764 33.4768 96.7566 33.4768H96.4745V33.2751H99.3022V33.4768H99.0138C98.6627 33.4768 98.4181 33.5713 98.2802 33.7603C98.1924 33.88 98.1485 34.1447 98.1485 34.5668V40.8614H97.9354L92.6248 34.8315V39.4437C92.6248 39.9036 92.6812 40.1935 92.7878 40.3069C92.932 40.4644 93.1702 40.54 93.49 40.54H93.7784V40.7416H90.9507V40.54H91.2328C91.5777 40.54 91.8285 40.4455 91.9727 40.2502C92.0605 40.1305 92.1043 39.8658 92.1043 39.4437V34.2455C91.8724 33.9934 91.6905 33.8233 91.5714 33.7477C91.4523 33.6658 91.2767 33.5902 91.0385 33.5209C90.9256 33.4894 90.7501 33.4768 90.5181 33.4768V33.2751L90.5243 33.2814Z" fill="white"/>
<path d="M103.19 40.5524V40.754H99.7349V40.5524H100.023C100.362 40.5524 100.6 40.4642 100.757 40.2815C100.851 40.1618 100.895 39.8845 100.895 39.4309V34.6044C100.895 34.2264 100.876 33.9743 100.82 33.8546C100.782 33.7601 100.7 33.6845 100.581 33.6152C100.406 33.527 100.218 33.4829 100.03 33.4829H99.7411V33.2812H103.196V33.4829H102.901C102.575 33.4829 102.337 33.5711 102.186 33.7538C102.086 33.8735 102.036 34.1571 102.036 34.6044V39.4309C102.036 39.8089 102.061 40.061 102.111 40.1807C102.149 40.2752 102.237 40.3508 102.362 40.4201C102.531 40.5083 102.707 40.5524 102.901 40.5524H103.196H103.19Z" fill="white"/>
<path d="M112.099 33.2812V33.4829C111.811 33.527 111.604 33.6152 111.453 33.7349C111.24 33.9176 111.058 34.1949 110.895 34.5666L108.105 40.9242H107.886L104.87 34.491C104.713 34.1571 104.607 33.9491 104.544 33.8798C104.444 33.7664 104.324 33.6782 104.18 33.6089C104.036 33.5459 103.835 33.5018 103.591 33.4829V33.2812H106.87V33.4829C106.5 33.5144 106.262 33.5711 106.149 33.6593C106.042 33.7412 105.986 33.8483 105.986 33.9869C105.986 34.1697 106.074 34.4532 106.256 34.8439L108.306 39.2166L110.199 34.8943C110.381 34.4721 110.475 34.176 110.475 34.0121C110.475 33.905 110.419 33.8042 110.306 33.7097C110.187 33.6089 109.999 33.5459 109.723 33.5018C109.698 33.5018 109.666 33.4892 109.622 33.4892V33.2876H112.099V33.2812Z" fill="white"/>
<path d="M114.783 33.6971V36.6333H116.544C117.002 36.6333 117.309 36.5703 117.466 36.4443C117.667 36.2742 117.786 35.9843 117.805 35.5685H118.037V38.1518H117.805C117.748 37.7927 117.698 37.5595 117.635 37.4587C117.566 37.3327 117.453 37.2319 117.284 37.1563C117.121 37.0807 116.877 37.0492 116.538 37.0492H114.776V39.5065C114.776 39.8404 114.789 40.0358 114.82 40.1114C114.851 40.187 114.908 40.2374 114.989 40.2815C115.071 40.3256 115.221 40.3445 115.441 40.3445H116.801C117.253 40.3445 117.585 40.3193 117.792 40.2563C117.993 40.1996 118.193 40.0799 118.381 39.9097C118.626 39.6829 118.877 39.349 119.134 38.889H119.372L118.676 40.754H112.469V40.5524H112.751C112.945 40.5524 113.121 40.5083 113.29 40.4264C113.416 40.3634 113.503 40.2752 113.547 40.1618C113.591 40.0421 113.616 39.8026 113.616 39.4372V34.5792C113.616 34.1067 113.566 33.8168 113.46 33.7034C113.315 33.5585 113.077 33.4829 112.745 33.4829H112.463V33.2812H118.67L118.751 34.9195H118.526C118.444 34.5288 118.35 34.2579 118.25 34.1067C118.149 33.9617 118.005 33.8483 117.805 33.7727C117.642 33.716 117.366 33.6908 116.964 33.6908H114.757L114.783 33.6971Z" fill="white"/>
<path d="M127.874 40.7478H125.717L122.984 37.2572C122.796 37.2635 122.633 37.2698 122.507 37.2698C122.457 37.2698 122.401 37.2698 122.344 37.2698C122.288 37.2698 122.225 37.2698 122.162 37.2635V39.4373C122.162 39.9098 122.219 40.1997 122.332 40.3131C122.476 40.4769 122.702 40.5588 123.009 40.5588H123.322V40.7604H119.868V40.5588H120.169C120.507 40.5588 120.752 40.458 120.896 40.2501C120.977 40.1367 121.021 39.8657 121.021 39.4373V34.6108C121.021 34.1383 120.965 33.8484 120.858 33.735C120.708 33.5712 120.476 33.4956 120.169 33.4956H119.868V33.2939H122.796C123.648 33.2939 124.275 33.3507 124.683 33.4641C125.084 33.5775 125.435 33.7917 125.711 34.1005C125.993 34.4092 126.131 34.7809 126.131 35.2094C126.131 35.6694 125.975 36.0663 125.649 36.4066C125.329 36.7468 124.827 36.9862 124.156 37.1249L125.824 39.2671C126.2 39.7586 126.526 40.0863 126.796 40.2564C127.066 40.4202 127.423 40.521 127.868 40.5651V40.7667L127.874 40.7478ZM122.169 36.9106C122.244 36.9106 122.307 36.9106 122.363 36.9106C122.42 36.9106 122.463 36.9106 122.495 36.9106C123.26 36.9106 123.83 36.7531 124.213 36.4507C124.595 36.1419 124.79 35.7513 124.79 35.2724C124.79 34.7935 124.633 34.4281 124.326 34.1383C124.012 33.8421 123.605 33.6972 123.09 33.6972C122.865 33.6972 122.551 33.735 122.162 33.8169V36.9106H122.169Z" fill="white"/>
<path d="M133.31 33.1113V35.6947H133.084C133.015 35.1969 132.883 34.8 132.702 34.5101C132.52 34.2203 132.256 33.9808 131.918 33.8107C131.579 33.6406 131.222 33.5524 130.858 33.5524C130.451 33.5524 130.106 33.6721 129.843 33.9052C129.573 34.1384 129.435 34.403 129.435 34.7054C129.435 34.9323 129.523 35.1402 129.692 35.3292C129.937 35.6065 130.52 35.9719 131.441 36.4319C132.188 36.8099 132.702 37.0935 132.978 37.2951C133.253 37.4967 133.467 37.7298 133.617 38.0008C133.768 38.2717 133.843 38.5553 133.843 38.8577C133.843 39.4248 133.605 39.9099 133.134 40.3195C132.658 40.729 132.056 40.937 131.31 40.937C131.078 40.937 130.852 40.9181 130.651 40.8866C130.532 40.8614 130.275 40.7984 129.893 40.6849C129.51 40.5652 129.266 40.5085 129.165 40.5085C129.065 40.5085 128.984 40.5337 128.927 40.5904C128.871 40.6471 128.827 40.7606 128.802 40.937H128.576V38.3725H128.802C128.902 38.9081 129.04 39.3114 129.216 39.576C129.391 39.8469 129.654 40.0675 130.012 40.2439C130.369 40.4203 130.758 40.5085 131.184 40.5085C131.673 40.5085 132.068 40.3888 132.357 40.1431C132.639 39.9036 132.783 39.6138 132.783 39.2862C132.783 39.1034 132.727 38.9144 132.62 38.7317C132.514 38.5427 132.344 38.3662 132.112 38.2087C131.956 38.0953 131.535 37.8622 130.846 37.503C130.162 37.1439 129.667 36.8603 129.379 36.6461C129.09 36.4319 128.864 36.1987 128.714 35.9404C128.564 35.6821 128.488 35.3985 128.488 35.0961C128.488 34.5605 128.708 34.0943 129.153 33.7099C129.592 33.3193 130.156 33.1302 130.846 33.1302C131.272 33.1302 131.73 33.2247 132.206 33.4201C132.426 33.5083 132.583 33.5587 132.67 33.5587C132.771 33.5587 132.858 33.5272 132.921 33.4705C132.984 33.4138 133.04 33.3004 133.078 33.1302H133.304L133.31 33.1113Z" fill="white"/>
<path d="M138.244 40.5524V40.754H134.796V40.5524H135.078C135.417 40.5524 135.655 40.4642 135.805 40.2815C135.899 40.1618 135.95 39.8845 135.95 39.4309V34.6044C135.95 34.2264 135.924 33.9743 135.874 33.8546C135.837 33.7601 135.755 33.6845 135.63 33.6152C135.454 33.527 135.272 33.4829 135.084 33.4829H134.802V33.2812H138.251V33.4829H137.962C137.636 33.4829 137.398 33.5711 137.247 33.7538C137.153 33.8735 137.103 34.1571 137.103 34.6044V39.4309C137.103 39.8089 137.128 40.061 137.178 40.1807C137.216 40.2752 137.298 40.3508 137.423 40.4201C137.592 40.5083 137.774 40.5524 137.962 40.5524H138.251H138.244Z" fill="white"/>
<path d="M145.561 33.2812L145.643 35.0329H145.417C145.373 34.7241 145.317 34.5036 145.242 34.3713C145.116 34.1634 144.959 33.9995 144.753 33.8987C144.546 33.7979 144.282 33.7475 143.956 33.7475H142.828V39.4561C142.828 39.916 142.884 40.2059 142.991 40.3193C143.147 40.4768 143.379 40.5524 143.699 40.5524H143.981V40.754H140.527V40.5524H140.821C141.166 40.5524 141.411 40.4579 141.555 40.2626C141.643 40.1429 141.687 39.8782 141.687 39.4561V33.7475H140.721C140.345 33.7475 140.075 33.7727 139.918 33.8231C139.712 33.8924 139.536 34.0247 139.392 34.2264C139.241 34.4217 139.16 34.6926 139.128 35.0329H138.896L138.978 33.2812H145.561Z" fill="white"/>
<path d="M151.756 33.2812H154.565V33.4829H154.408C154.308 33.4829 154.151 33.5207 153.957 33.6089C153.763 33.6908 153.581 33.8168 153.418 33.9743C153.261 34.1319 153.054 34.3902 152.822 34.7493L150.885 37.5532V39.4498C150.885 39.9097 150.941 40.1996 151.054 40.313C151.204 40.4705 151.449 40.5461 151.775 40.5461H152.038V40.7477H148.59V40.5461H148.878C149.223 40.5461 149.468 40.4516 149.612 40.2563C149.7 40.1366 149.744 39.8719 149.744 39.4498V37.6981L147.543 34.5477C147.286 34.1823 147.104 33.9491 147.016 33.8609C146.922 33.7727 146.728 33.6593 146.439 33.5333C146.358 33.4955 146.245 33.4829 146.094 33.4829V33.2812H149.524V33.4829H149.349C149.16 33.4829 148.991 33.5207 148.834 33.6026C148.678 33.6845 148.596 33.8105 148.596 33.968C148.596 34.1004 148.722 34.3398 148.96 34.6863L150.621 37.0933L152.208 34.7935C152.446 34.4469 152.565 34.1886 152.565 34.0184C152.565 33.9113 152.54 33.8231 152.477 33.7412C152.421 33.6593 152.339 33.5963 152.233 33.5522C152.126 33.5018 151.963 33.4829 151.75 33.4829V33.2812H151.756Z" fill="white"/>
<path d="M75.4766 0C75.1003 8.05879 62.8807 30.2696 52.7861 37.2383C45.5884 42.8457 31.5442 38.4729 23.4561 40.2432L23.4053 40.2812C16.6652 44.95 8.8782 42.6252 4.41406 40.5459C3.12873 39.9473 2.12504 39.3673 1.49805 38.9893L0 38.1895L1.41113 37.2256C1.41673 37.2384 1.58856 37.6271 2.10645 38.2715C2.78359 39.1095 4.25733 39.8848 4.5332 40.0234C19.3551 46.8975 25.1049 38.3341 27.0234 35.1963C29.9702 30.3762 30.6594 23.6025 33.8193 18.877C42.848 4.46068 56.1097 5.8719 66.1729 2.8916C67.8408 2.45055 71.2387 1.78285 75.4766 0ZM59.7334 13.4834C51.6327 19.5196 34.8542 33.2933 25.3428 39.0586C27.6626 37.7355 29.5565 36.9732 32.4971 35.209C32.0968 37.2015 35.1153 39.8214 35.1299 39.834C35.1176 39.8215 35.2112 39.8337 35.1992 39.8213C32.685 36.9796 33.5881 34.7368 35.1807 34.0752C37.42 33.143 53.3945 35.8076 53.3945 35.8076C53.396 35.8049 53.4247 35.7513 53.3945 35.751C52.6045 35.562 41.0055 32.8399 36.0771 32.8965C37.8201 31.6994 39.8766 30.181 42.3906 28.209L42.3848 28.2021C49.0431 23.2121 52.6047 19.9605 59.7334 13.4834Z" fill="white"/>
</svg>
