<svg width="199" height="43" viewBox="0 0 199 43" fill="none" xmlns="http://www.w3.org/2000/svg">
<path d="M25.9573 34.774C27.3242 32.5435 28.2208 29.7775 29.0797 27.1059C30.0516 24.0941 31.0673 20.9815 32.7601 18.4549C39.03 8.43664 47.3314 5.85331 55.0998 4.31592C46.9677 5.68319 37.8011 8.27282 31.3745 18.5431C28.2082 23.2687 27.5185 30.0421 24.5779 34.8559C23.2738 36.9856 20.4774 41.4276 13.8752 41.8939C17.9632 41.9947 22.4775 40.4699 25.9573 34.7803V34.774Z" fill="#6FBA2C"/>
<path d="M66.1724 2.89207C56.1092 5.87235 42.8484 4.46097 33.8198 18.8772C30.6598 23.6028 29.9701 30.3762 27.0232 35.1963C25.1046 38.3341 19.3551 46.8969 4.53313 40.0227C4.25725 39.8841 2.78383 39.1091 2.10668 38.2711C1.58001 37.6158 1.41072 37.2251 1.41072 37.2251L0 38.1892L1.4985 38.9894C2.12549 39.3674 3.12867 39.9471 4.414 40.5457C8.87816 42.6249 16.6654 44.9499 23.4055 40.281L23.4557 40.2432C31.5438 38.4727 45.5884 42.8455 52.7862 37.2377C62.8807 30.2691 75.1007 8.05873 75.4769 0C71.2385 1.78313 67.8402 2.45101 66.1724 2.89207Z" fill="#6FBA2C"/>
<path d="M163.889 13.843C164.127 14.0131 164.24 14.2904 164.24 14.6747C164.24 15.0339 164.089 15.3552 163.788 15.6387C163.488 15.9223 163.111 16.0672 162.666 16.0672C162.133 16.0672 161.719 15.8971 161.437 15.5568C161.155 15.2166 161.023 14.8637 161.023 14.5046H161.701C161.688 14.7818 161.77 15.0149 161.951 15.204C162.133 15.393 162.371 15.4875 162.666 15.4875C162.98 15.4875 163.212 15.3993 163.356 15.2229C163.506 15.0528 163.582 14.8763 163.582 14.6999C163.582 14.492 163.494 14.3345 163.318 14.2273C163.149 14.1202 162.961 14.0257 162.766 13.9312C162.453 13.7863 162.108 13.6351 161.713 13.4776C161.324 13.32 161.13 13.0239 161.13 12.5891C161.13 12.2363 161.28 11.9213 161.581 11.6503C161.876 11.3857 162.24 11.2471 162.66 11.2471C163.08 11.2471 163.462 11.392 163.732 11.6755C164.002 11.9654 164.152 12.2867 164.177 12.6332H163.506C163.5 12.5009 163.431 12.3308 163.299 12.1292C163.168 11.9276 162.955 11.8267 162.66 11.8267C162.39 11.8267 162.183 11.9024 162.033 12.0536C161.882 12.2048 161.813 12.3749 161.813 12.5576C161.813 12.7908 161.983 12.9672 162.315 13.0869C162.647 13.2066 162.923 13.3137 163.13 13.4082C163.4 13.528 163.651 13.6729 163.889 13.843Z" fill="#231815"/>
<path d="M165.306 15.9537V11.373H165.983V15.9537H165.306Z" fill="#231815"/>
<path d="M169.851 15.9536L167.657 12.4503V15.9599H166.98V11.3855H167.726L169.939 14.9076V11.3855H170.597V15.9599H169.845L169.851 15.9536Z" fill="#231815"/>
<path d="M175.438 12.7655C175.338 12.608 175.162 12.419 174.917 12.1859C174.673 11.9527 174.328 11.8393 173.87 11.8393C173.362 11.8393 172.942 12.022 172.604 12.3749C172.272 12.734 172.102 13.1436 172.102 13.6098C172.102 14.0761 172.272 14.4856 172.598 14.8448C172.93 15.1976 173.35 15.3804 173.864 15.3804C174.316 15.3804 174.667 15.2606 174.917 15.0338C175.168 14.807 175.331 14.6117 175.419 14.4604H176.09C175.939 14.8826 175.664 15.248 175.262 15.5568C174.867 15.8592 174.397 16.0167 173.864 16.0167C173.199 16.0167 172.641 15.7773 172.171 15.3111C171.701 14.8385 171.469 14.2714 171.469 13.6098C171.469 12.9482 171.701 12.3875 172.171 11.9149C172.641 11.4424 173.199 11.2092 173.864 11.2092C174.397 11.2092 174.861 11.3604 175.262 11.6692C175.664 11.9779 175.939 12.3434 176.102 12.7718H175.432L175.438 12.7655Z" fill="#231815"/>
<path d="M177.055 15.9284V11.354H180.052V11.9211H177.739V13.2694H179.99V13.8428H177.739V15.355H180.103V15.9284H177.049H177.055Z" fill="#231815"/>
<path d="M185.269 16.023V11.9779H184.14V11.436H185.927V16.023H185.269Z" fill="#231815"/>
<path d="M189.865 11.7826C190.178 12.0913 190.329 12.4694 190.329 12.9104C190.329 13.0427 190.316 13.1624 190.285 13.2759C190.26 13.383 190.222 13.4901 190.166 13.5909L188.805 15.9978H188.14L189.093 14.3155C188.673 14.4415 188.253 14.3785 187.833 14.1265C187.413 13.8744 187.187 13.4649 187.169 12.9041C187.144 12.4694 187.3 12.0976 187.62 11.7826C187.94 11.4675 188.316 11.3037 188.755 11.3037C189.194 11.3037 189.564 11.4612 189.877 11.77L189.865 11.7826ZM189.445 13.5531C189.633 13.3578 189.733 13.1246 189.733 12.8537C189.733 12.5828 189.639 12.337 189.445 12.148C189.256 11.959 189.018 11.8645 188.742 11.8645C188.466 11.8645 188.235 11.959 188.034 12.148C187.839 12.3433 187.745 12.5765 187.745 12.8537C187.745 13.1309 187.839 13.3641 188.034 13.5531C188.228 13.7484 188.46 13.8429 188.742 13.8429C189.025 13.8429 189.256 13.7484 189.445 13.5531Z" fill="#231815"/>
<path d="M194.003 15.3678V15.9537H193.344V15.3678H191.238V14.87L193.388 11.373H193.997V14.7944H194.461V15.3678H193.997H194.003ZM193.351 12.545L191.953 14.8007H193.351V12.545Z" fill="#231815"/>
<path d="M198.498 11.9652L196.523 15.9599H195.834C195.834 15.9599 196.141 15.3298 196.743 14.1011C197.345 12.8725 197.696 12.1605 197.796 11.9589H195.451V11.3855H198.498V11.9652Z" fill="#231815"/>
<path d="M91.8851 13.3073V18.5874H91.4149C91.2644 17.5729 90.9948 16.7664 90.6061 16.1678C90.2111 15.5693 89.6593 15.0904 88.9383 14.7376C88.211 14.3847 87.4649 14.2083 86.6999 14.2083C85.8221 14.2083 85.1011 14.4477 84.5306 14.9203C83.96 15.3991 83.6716 15.9347 83.6716 16.5459C83.6716 17.0122 83.8534 17.4343 84.2108 17.8187C84.7312 18.3794 85.9664 19.1292 87.9288 20.068C89.5277 20.8304 90.6123 21.4164 91.208 21.826C91.7911 22.2355 92.2425 22.7144 92.556 23.2688C92.8758 23.8233 93.0325 24.403 93.0325 25.0079C93.0325 26.1609 92.5309 27.1564 91.5215 27.9944C90.512 28.8262 89.2267 29.2483 87.6404 29.2483C87.1451 29.2483 86.6811 29.2105 86.2422 29.1475C85.9852 29.1097 85.4397 28.9711 84.6183 28.7379C83.797 28.4985 83.2828 28.3788 83.0571 28.3788C82.8314 28.3788 82.6809 28.4355 82.5618 28.5489C82.4364 28.6623 82.3486 28.8955 82.2922 29.2483H81.822V24.0249H82.2922C82.5116 25.1213 82.8063 25.9404 83.1763 26.4823C83.5462 27.0241 84.1105 27.4778 84.8691 27.8369C85.6278 28.1961 86.4617 28.3788 87.3708 28.3788C88.4179 28.3788 89.2518 28.1268 89.86 27.6353C90.4681 27.1375 90.7754 26.5516 90.7754 25.8774C90.7754 25.4993 90.6625 25.1213 90.4305 24.7369C90.2048 24.3526 89.8411 23.9934 89.3584 23.6595C89.0323 23.439 88.1357 22.9601 86.6686 22.2355C85.2077 21.5109 84.1606 20.9312 83.5336 20.4965C82.9129 20.0617 82.4489 19.5829 82.1229 19.0536C81.8031 18.5243 81.6401 17.951 81.6401 17.3209C81.6401 16.2246 82.1104 15.2857 83.0509 14.4918C83.9913 13.6979 85.1952 13.301 86.6498 13.301C87.5589 13.301 88.5182 13.4963 89.5339 13.8933C90.0104 14.076 90.3365 14.1705 90.5308 14.1705C90.744 14.1705 90.9258 14.1075 91.0638 13.9941C91.2017 13.8807 91.3146 13.6475 91.4023 13.2947H91.8726L91.8851 13.3073Z" fill="#231815"/>
<path d="M98.1802 19.0097V23.1241H100.738C101.397 23.1241 101.842 23.0359 102.061 22.8595C102.362 22.6263 102.525 22.2168 102.557 21.6245H102.889V25.2601H102.557C102.481 24.7497 102.4 24.4221 102.318 24.2771C102.212 24.0944 102.042 23.9558 101.81 23.855C101.578 23.7542 101.215 23.6975 100.738 23.6975H98.1802V27.144C98.1802 27.6103 98.2052 27.8938 98.2491 27.9883C98.293 28.0891 98.3745 28.1647 98.4937 28.2277C98.6065 28.2844 98.8322 28.3159 99.152 28.3159H101.14C101.804 28.3159 102.281 28.2718 102.582 28.1899C102.883 28.1017 103.171 27.9442 103.447 27.6985C103.804 27.3771 104.168 26.892 104.544 26.243H104.914L103.898 28.9145H94.8132V28.6121H95.227C95.5029 28.6121 95.7663 28.5554 96.017 28.4357C96.2051 28.3538 96.3243 28.2277 96.3932 28.0639C96.4622 27.9001 96.4936 27.5599 96.4936 27.0558V20.2698C96.4936 19.5956 96.4183 19.1798 96.2678 19.0223C96.0609 18.8143 95.7098 18.7072 95.227 18.7072H94.8132V18.4048H103.873L104.005 20.7172H103.635C103.516 20.169 103.384 19.7973 103.234 19.5956C103.089 19.3877 102.87 19.2302 102.582 19.1231C102.356 19.0475 101.948 19.0097 101.372 19.0097H98.1739H98.1802Z" fill="#231815"/>
<path d="M112.112 18.1716C113.817 18.1716 115.291 18.6883 116.538 19.7279C117.792 20.7613 118.413 22.0529 118.413 23.6029C118.413 25.1529 117.786 26.5265 116.526 27.5787C115.266 28.631 113.742 29.1602 111.955 29.1602C110.168 29.1602 108.632 28.6499 107.397 27.6228C106.168 26.5958 105.553 25.2663 105.553 23.6281C105.553 21.9899 106.262 20.5974 107.685 19.5452C108.914 18.6316 110.388 18.1716 112.105 18.1716H112.112ZM111.93 18.7072C110.751 18.7072 109.811 19.06 109.096 19.7594C108.212 20.6289 107.767 21.908 107.767 23.584C107.767 25.26 108.224 26.6273 109.14 27.5598C109.842 28.2655 110.776 28.6184 111.93 28.6184C113.165 28.6184 114.181 28.234 114.99 27.4653C115.798 26.6903 116.2 25.4743 116.2 23.8108C116.2 22.0088 115.755 20.6604 114.871 19.7783C114.156 19.0726 113.178 18.7198 111.924 18.7198L111.93 18.7072Z" fill="#231815"/>
<path d="M167.431 18.1716C169.136 18.1716 170.616 18.6883 171.864 19.7279C173.111 20.7613 173.738 22.0529 173.738 23.6029C173.738 25.1529 173.111 26.5265 171.845 27.5787C170.585 28.631 169.061 29.1602 167.274 29.1602C165.487 29.1602 163.945 28.6499 162.722 27.6228C161.493 26.5958 160.879 25.2663 160.879 23.6281C160.879 21.9899 161.587 20.5974 163.011 19.5452C164.246 18.6316 165.719 18.1716 167.437 18.1716H167.431ZM167.243 18.7072C166.07 18.7072 165.124 19.06 164.409 19.7594C163.525 20.6289 163.086 21.908 163.086 23.584C163.086 25.26 163.544 26.6273 164.459 27.5598C165.161 28.2655 166.095 28.6184 167.249 28.6184C168.484 28.6184 169.5 28.234 170.309 27.4653C171.111 26.6903 171.519 25.4743 171.519 23.8108C171.519 22.0088 171.074 20.6604 170.19 19.7783C169.475 19.0726 168.497 18.7198 167.243 18.7198V18.7072Z" fill="#231815"/>
<path d="M129.078 21.492L134.608 26.3752C135.517 27.2069 136.288 27.7676 136.934 28.0575C137.574 28.3473 138.22 28.5111 138.859 28.5552V28.9144H131.693V28.5552C132.119 28.5552 132.426 28.4922 132.614 28.3662C132.802 28.2339 132.896 28.0953 132.896 27.9378C132.896 27.7802 132.859 27.6416 132.79 27.5156C132.715 27.3896 132.489 27.1565 132.1 26.8162L126.934 22.2544V26.5453C126.934 27.2258 126.984 27.6731 127.078 27.8937C127.153 28.0575 127.31 28.2024 127.548 28.3221C127.868 28.4796 128.206 28.5615 128.57 28.5615H129.084V28.9207H122.651V28.5615H123.184C123.805 28.5615 124.263 28.3977 124.545 28.0764C124.72 27.8622 124.814 27.3581 124.814 26.5516V17.9384C124.814 17.2579 124.764 16.8042 124.67 16.5774C124.595 16.4199 124.445 16.2813 124.213 16.1616C123.887 16.004 123.542 15.9221 123.191 15.9221H122.658V15.563H129.091V15.9221H128.576C128.225 15.9221 127.88 15.9977 127.554 16.149C127.322 16.2561 127.159 16.4136 127.072 16.6215C126.984 16.8357 126.934 17.2705 126.934 17.9321V22.015C127.078 21.889 127.586 21.4731 128.445 20.7612C130.627 18.9717 131.95 17.7809 132.407 17.1823C132.608 16.9177 132.708 16.6908 132.708 16.4892C132.708 16.338 132.633 16.2057 132.476 16.0923C132.32 15.9788 132.056 15.9221 131.693 15.9221H131.348V15.563H136.859V15.9221C136.539 15.9284 136.238 15.9662 135.975 16.0418C135.712 16.1175 135.386 16.2561 135.003 16.464C134.621 16.6719 134.15 17.0059 133.586 17.4721C133.423 17.6044 132.683 18.2723 131.354 19.4821L129.078 21.4983V21.492Z" fill="#231815"/>
<path d="M145.499 18.4047H149.612V18.7072H149.386C149.236 18.7072 149.01 18.7702 148.722 18.8836C148.433 19.0033 148.17 19.1734 147.938 19.394C147.693 19.6145 147.405 19.9736 147.06 20.4714L144.226 24.4094V27.0494C144.226 27.7047 144.301 28.1143 144.471 28.2781C144.69 28.4986 145.047 28.6057 145.524 28.6057H145.913V28.9082H140.859V28.6057H141.286C141.787 28.6057 142.145 28.4671 142.351 28.1962C142.483 28.0261 142.546 27.648 142.546 27.0494V24.6173L139.348 20.1816C138.966 19.6712 138.709 19.3562 138.571 19.2301C138.439 19.1041 138.157 18.9529 137.724 18.7765C137.611 18.7261 137.442 18.7009 137.223 18.7009V18.3984H142.232V18.7009H141.975C141.699 18.7009 141.449 18.7576 141.223 18.871C140.997 18.9844 140.878 19.1545 140.878 19.3814C140.878 19.5641 141.054 19.898 141.405 20.3769L143.85 23.7604L146.182 20.5218C146.533 20.0429 146.703 19.6838 146.703 19.4444C146.703 19.2995 146.659 19.1734 146.577 19.06C146.496 18.9466 146.37 18.8584 146.214 18.7954C146.057 18.7324 145.825 18.7009 145.511 18.7009V18.3984L145.499 18.4047Z" fill="#231815"/>
<path d="M153.581 19.0097V23.1241H156.145C156.804 23.1241 157.249 23.0359 157.468 22.8595C157.763 22.6263 157.926 22.2168 157.964 21.6245H158.302V25.2601H157.964C157.882 24.7497 157.807 24.4221 157.725 24.2771C157.625 24.0944 157.456 23.9558 157.224 23.855C156.992 23.7542 156.628 23.6975 156.145 23.6975H153.581V27.144C153.581 27.6103 153.606 27.8938 153.656 27.9883C153.7 28.0891 153.782 28.1647 153.901 28.2277C154.014 28.2844 154.233 28.3159 154.553 28.3159H156.547C157.205 28.3159 157.688 28.2718 157.989 28.1899C158.29 28.1017 158.572 27.9442 158.854 27.6985C159.211 27.3771 159.575 26.892 159.951 26.243H160.321L159.305 28.9145H150.22V28.6121H150.634C150.916 28.6121 151.173 28.5554 151.424 28.4357C151.606 28.3538 151.738 28.2277 151.8 28.0639C151.869 27.9001 151.901 27.5599 151.901 27.0558V20.2698C151.901 19.5956 151.825 19.1798 151.675 19.0223C151.468 18.8143 151.117 18.7072 150.634 18.7072H150.22V18.4048H159.274L159.406 20.7172H159.036C158.917 20.169 158.785 19.7973 158.634 19.5956C158.49 19.3877 158.271 19.2302 157.989 19.1231C157.763 19.0475 157.355 19.0097 156.779 19.0097H153.581Z" fill="#231815"/>
<path d="M173.3 18.4048H176.51L183.695 26.2241V20.2698C183.695 19.6145 183.614 19.205 183.451 19.0412C183.231 18.8206 182.893 18.7072 182.422 18.7072H182.015V18.4048H186.153V18.7072H185.733C185.231 18.7072 184.874 18.8458 184.661 19.1168C184.535 19.2869 184.466 19.6649 184.466 20.2698V29.0846H184.153L176.384 20.629V27.0558C176.384 27.7111 176.466 28.1206 176.623 28.2844C176.842 28.505 177.187 28.6121 177.651 28.6121H178.071V28.9145H173.933V28.6121H174.34C174.848 28.6121 175.206 28.4735 175.419 28.2025C175.55 28.0324 175.613 27.6544 175.613 27.0558V19.791C175.275 19.4381 175.011 19.205 174.836 19.0916C174.66 18.9782 174.403 18.8773 174.058 18.7765C173.895 18.7324 173.638 18.7072 173.3 18.7072V18.4048Z" fill="#231815"/>
<path d="M197.313 18.1716L197.583 21.4733H197.244C196.943 20.6478 196.548 20.0304 196.066 19.6145C195.37 19.0159 194.473 18.7135 193.376 18.7135C191.884 18.7135 190.749 19.2428 189.978 20.3076C189.325 21.196 188.999 22.2609 188.999 23.4895C188.999 24.4913 189.213 25.405 189.652 26.2304C190.084 27.0558 190.655 27.6606 191.357 28.045C192.065 28.4293 192.786 28.6184 193.533 28.6184C193.965 28.6184 194.385 28.568 194.793 28.4734C195.2 28.3726 195.589 28.234 195.965 28.045V25.0458C195.965 24.5102 195.921 24.1637 195.834 23.9936C195.74 23.8235 195.602 23.7037 195.414 23.6155C195.225 23.5273 194.893 23.4832 194.423 23.4832V23.1808H199V23.4832H198.774C198.316 23.4832 197.997 23.6218 197.827 23.8928C197.708 24.0881 197.646 24.4724 197.646 25.0458V28.2403C196.981 28.5554 196.329 28.7885 195.677 28.9397C195.025 29.0909 194.304 29.1602 193.514 29.1602C191.238 29.1602 189.514 28.5112 188.329 27.207C187.444 26.2304 187.006 25.1088 187.006 23.8298C187.006 22.9035 187.256 22.0214 187.752 21.1708C188.347 20.1627 189.15 19.3877 190.184 18.8458C191.05 18.3985 192.065 18.1716 193.238 18.1716C193.671 18.1716 194.059 18.2031 194.404 18.2661C194.749 18.3292 195.251 18.4615 195.896 18.6757C196.222 18.7828 196.436 18.8332 196.548 18.8332C196.661 18.8332 196.749 18.7891 196.831 18.7009C196.912 18.6127 196.956 18.4363 196.975 18.1779H197.313V18.1716Z" fill="#231815"/>
<path d="M87.7282 33.4824V33.2808H90.5496V33.4824H90.2487C89.9289 33.4824 89.6906 33.6021 89.5214 33.8478C89.4336 33.9612 89.396 34.2259 89.396 34.6417V37.6724C89.396 38.4222 89.3144 39.0019 89.1514 39.4177C88.9947 39.8336 88.6812 40.1864 88.2109 40.4826C87.7407 40.7787 87.1074 40.9299 86.2986 40.9299C85.4208 40.9299 84.7562 40.785 84.2985 40.5078C83.8408 40.2242 83.5273 39.8399 83.333 39.3673C83.2076 39.0397 83.1449 38.4285 83.1449 37.5275V34.6102C83.1449 34.1503 83.0759 33.8478 82.938 33.7029C82.8 33.558 82.5806 33.4887 82.2796 33.4887H81.9724V33.2871H85.4397V33.4887H85.1324C84.8001 33.4887 84.5681 33.5832 84.4239 33.7785C84.3299 33.9108 84.2797 34.1881 84.2797 34.6039V37.8614C84.2797 38.1513 84.3111 38.4852 84.3675 38.8633C84.4302 39.235 84.5305 39.5312 84.681 39.7391C84.8315 39.947 85.0509 40.1234 85.3331 40.2557C85.6152 40.3881 85.9663 40.4574 86.3739 40.4574C86.9005 40.4574 87.3708 40.3503 87.7909 40.1423C88.2047 39.9281 88.4931 39.6572 88.6436 39.3232C88.7941 38.9893 88.8756 38.4285 88.8756 37.6346V34.6102C88.8756 34.144 88.8191 33.8478 88.7063 33.7344C88.5558 33.5706 88.3238 33.495 88.0166 33.495H87.7156L87.7282 33.4824Z" fill="#231815"/>
<path d="M90.5246 33.281H92.7065L97.6284 38.8824V34.5726C97.6284 34.1127 97.5719 33.8228 97.4591 33.7094C97.3086 33.5519 97.0766 33.4763 96.7569 33.4763H96.4747V33.2747H99.3024V33.4763H99.014C98.6629 33.4763 98.4184 33.5708 98.2804 33.7598C98.1927 33.8795 98.1488 34.1442 98.1488 34.5663V40.8608H97.9356L92.625 34.831V39.4431C92.625 39.9031 92.6814 40.1929 92.788 40.3064C92.9322 40.4639 93.1705 40.5395 93.4902 40.5395H93.7787V40.7411H90.9509V40.5395H91.2331C91.5779 40.5395 91.8287 40.445 91.9729 40.2496C92.0607 40.1299 92.1046 39.8653 92.1046 39.4431V34.245C91.8726 33.9929 91.6908 33.8228 91.5717 33.7472C91.4525 33.6653 91.277 33.5897 91.0387 33.5204C90.9259 33.4889 90.7503 33.4763 90.5183 33.4763V33.2747L90.5246 33.281Z" fill="#231815"/>
<path d="M103.19 40.5519V40.7535H99.7351V40.5519H100.024C100.362 40.5519 100.6 40.4637 100.757 40.281C100.851 40.1612 100.895 39.884 100.895 39.4303V34.6039C100.895 34.2259 100.876 33.9738 100.82 33.8541C100.782 33.7596 100.701 33.684 100.582 33.6147C100.406 33.5265 100.218 33.4824 100.03 33.4824H99.7414V33.2808H103.196V33.4824H102.901C102.575 33.4824 102.337 33.5706 102.187 33.7533C102.086 33.873 102.036 34.1566 102.036 34.6039V39.4303C102.036 39.8084 102.061 40.0604 102.111 40.1801C102.149 40.2747 102.237 40.3503 102.362 40.4196C102.531 40.5078 102.707 40.5519 102.901 40.5519H103.196H103.19Z" fill="#231815"/>
<path d="M112.099 33.2808V33.4824C111.811 33.5265 111.604 33.6147 111.454 33.7344C111.24 33.9171 111.058 34.1944 110.895 34.5661L108.105 40.9236H107.886L104.87 34.4905C104.713 34.1566 104.607 33.9486 104.544 33.8793C104.444 33.7659 104.325 33.6777 104.18 33.6084C104.036 33.5454 103.836 33.5013 103.591 33.4824V33.2808H106.87V33.4824C106.5 33.5139 106.262 33.5706 106.149 33.6588C106.043 33.7407 105.986 33.8478 105.986 33.9865C105.986 34.1692 106.074 34.4527 106.256 34.8434L108.306 39.2161L110.2 34.8938C110.381 34.4716 110.475 34.1755 110.475 34.0117C110.475 33.9045 110.419 33.8037 110.306 33.7092C110.187 33.6084 109.999 33.5454 109.723 33.5013C109.698 33.5013 109.667 33.4887 109.623 33.4887V33.2871H112.099V33.2808Z" fill="#231815"/>
<path d="M114.783 33.6966V36.6328H116.545C117.002 36.6328 117.31 36.5698 117.466 36.4438C117.667 36.2736 117.786 35.9838 117.805 35.568H118.037V38.1513H117.805C117.748 37.7921 117.698 37.559 117.636 37.4582C117.567 37.3322 117.454 37.2314 117.284 37.1558C117.121 37.0801 116.877 37.0486 116.538 37.0486H114.776V39.506C114.776 39.8399 114.789 40.0352 114.82 40.1108C114.852 40.1864 114.908 40.2368 114.99 40.281C115.071 40.3251 115.222 40.344 115.441 40.344H116.802C117.253 40.344 117.585 40.3188 117.792 40.2557C117.993 40.199 118.194 40.0793 118.382 39.9092C118.626 39.6824 118.877 39.3484 119.134 38.8885H119.372L118.676 40.7535H112.469V40.5519H112.751C112.946 40.5519 113.121 40.5078 113.291 40.4259C113.416 40.3629 113.504 40.2747 113.548 40.1612C113.591 40.0415 113.617 39.8021 113.617 39.4366V34.5787C113.617 34.1062 113.566 33.8163 113.46 33.7029C113.316 33.558 113.077 33.4824 112.745 33.4824H112.463V33.2808H118.67L118.752 34.919H118.526C118.444 34.5283 118.35 34.2574 118.25 34.1062C118.15 33.9612 118.005 33.8478 117.805 33.7722C117.642 33.7155 117.366 33.6903 116.965 33.6903H114.758L114.783 33.6966Z" fill="#231815"/>
<path d="M127.874 40.7473H125.717L122.984 37.2567C122.796 37.263 122.633 37.2693 122.507 37.2693C122.457 37.2693 122.401 37.2693 122.344 37.2693C122.288 37.2693 122.225 37.2693 122.162 37.263V39.4367C122.162 39.9093 122.219 40.1991 122.332 40.3126C122.476 40.4764 122.702 40.5583 123.009 40.5583H123.322V40.7599H119.868V40.5583H120.169C120.507 40.5583 120.752 40.4575 120.896 40.2495C120.977 40.1361 121.021 39.8652 121.021 39.4367V34.6103C121.021 34.1378 120.965 33.8479 120.858 33.7345C120.708 33.5707 120.476 33.4951 120.169 33.4951H119.868V33.2935H122.796C123.648 33.2935 124.275 33.3502 124.683 33.4636C125.084 33.577 125.435 33.7912 125.711 34.1C125.993 34.4087 126.131 34.7804 126.131 35.2089C126.131 35.6689 125.975 36.0658 125.649 36.4061C125.329 36.7463 124.827 36.9857 124.156 37.1243L125.824 39.2666C126.2 39.7581 126.526 40.0857 126.796 40.2558C127.066 40.4197 127.423 40.5205 127.868 40.5646V40.7662L127.874 40.7473ZM122.169 36.9101C122.244 36.9101 122.307 36.9101 122.363 36.9101C122.42 36.9101 122.463 36.9101 122.495 36.9101C123.26 36.9101 123.83 36.7526 124.213 36.4502C124.595 36.1414 124.79 35.7508 124.79 35.2719C124.79 34.793 124.633 34.4276 124.326 34.1378C124.012 33.8416 123.605 33.6967 123.09 33.6967C122.865 33.6967 122.551 33.7345 122.162 33.8164V36.9101H122.169Z" fill="#231815"/>
<path d="M133.31 33.1108V35.6942H133.085C133.016 35.1964 132.884 34.7995 132.702 34.5096C132.52 34.2198 132.257 33.9804 131.918 33.8102C131.58 33.6401 131.222 33.5519 130.859 33.5519C130.451 33.5519 130.106 33.6716 129.843 33.9047C129.573 34.1379 129.436 34.4025 129.436 34.7049C129.436 34.9318 129.523 35.1397 129.693 35.3287C129.937 35.606 130.52 35.9714 131.442 36.4314C132.188 36.8094 132.702 37.0929 132.978 37.2946C133.254 37.4962 133.467 37.7293 133.618 38.0003C133.768 38.2712 133.843 38.5547 133.843 38.8572C133.843 39.4242 133.605 39.9094 133.135 40.319C132.658 40.7285 132.056 40.9364 131.31 40.9364C131.078 40.9364 130.853 40.9175 130.652 40.886C130.533 40.8608 130.276 40.7978 129.893 40.6844C129.511 40.5647 129.266 40.508 129.166 40.508C129.066 40.508 128.984 40.5332 128.928 40.5899C128.871 40.6466 128.827 40.76 128.802 40.9364H128.577V38.372H128.802C128.903 38.9076 129.041 39.3108 129.216 39.5755C129.392 39.8464 129.655 40.0669 130.012 40.2433C130.37 40.4198 130.758 40.508 131.185 40.508C131.674 40.508 132.069 40.3883 132.357 40.1425C132.639 39.9031 132.784 39.6133 132.784 39.2856C132.784 39.1029 132.727 38.9139 132.621 38.7312C132.514 38.5421 132.345 38.3657 132.113 38.2082C131.956 38.0948 131.536 37.8616 130.846 37.5025C130.163 37.1434 129.668 36.8598 129.379 36.6456C129.091 36.4314 128.865 36.1982 128.714 35.9399C128.564 35.6816 128.489 35.398 128.489 35.0956C128.489 34.56 128.708 34.0938 129.153 33.7094C129.592 33.3188 130.157 33.1297 130.846 33.1297C131.273 33.1297 131.73 33.2243 132.207 33.4196C132.426 33.5078 132.583 33.5582 132.671 33.5582C132.771 33.5582 132.859 33.5267 132.922 33.47C132.984 33.4133 133.041 33.2999 133.078 33.1297H133.304L133.31 33.1108Z" fill="#231815"/>
<path d="M138.245 40.5519V40.7535H134.796V40.5519H135.079C135.417 40.5519 135.655 40.4637 135.806 40.281C135.9 40.1612 135.95 39.884 135.95 39.4303V34.6039C135.95 34.2259 135.925 33.9738 135.875 33.8541C135.837 33.7596 135.756 33.684 135.63 33.6147C135.455 33.5265 135.273 33.4824 135.085 33.4824H134.803V33.2808H138.251V33.4824H137.963C137.637 33.4824 137.398 33.5706 137.248 33.7533C137.154 33.873 137.104 34.1566 137.104 34.6039V39.4303C137.104 39.8084 137.129 40.0604 137.179 40.1801C137.217 40.2747 137.298 40.3503 137.423 40.4196C137.593 40.5078 137.775 40.5519 137.963 40.5519H138.251H138.245Z" fill="#231815"/>
<path d="M145.562 33.2808L145.643 35.0324H145.418C145.374 34.7236 145.317 34.5031 145.242 34.3708C145.117 34.1629 144.96 33.9991 144.753 33.8982C144.546 33.7974 144.283 33.747 143.957 33.747H142.828V39.4555C142.828 39.9155 142.885 40.2053 142.991 40.3188C143.148 40.4763 143.38 40.5519 143.7 40.5519H143.982V40.7535H140.527V40.5519H140.822C141.167 40.5519 141.411 40.4574 141.555 40.2621C141.643 40.1423 141.687 39.8777 141.687 39.4555V33.747H140.722C140.345 33.747 140.076 33.7722 139.919 33.8226C139.712 33.8919 139.537 34.0243 139.392 34.2259C139.242 34.4212 139.16 34.6921 139.129 35.0324H138.897L138.978 33.2808H145.562Z" fill="#231815"/>
<path d="M151.756 33.2808H154.565V33.4824H154.409C154.308 33.4824 154.152 33.5202 153.957 33.6084C153.763 33.6903 153.581 33.8163 153.418 33.9738C153.261 34.1314 153.054 34.3897 152.822 34.7488L150.885 37.5527V39.4492C150.885 39.9092 150.941 40.199 151.054 40.3125C151.205 40.47 151.449 40.5456 151.775 40.5456H152.039V40.7472H148.59V40.5456H148.879C149.223 40.5456 149.468 40.4511 149.612 40.2557C149.7 40.136 149.744 39.8714 149.744 39.4492V37.6976L147.543 34.5472C147.286 34.1818 147.104 33.9486 147.016 33.8604C146.922 33.7722 146.728 33.6588 146.44 33.5328C146.358 33.495 146.245 33.4824 146.095 33.4824V33.2808H149.524V33.4824H149.349C149.161 33.4824 148.991 33.5202 148.835 33.6021C148.678 33.684 148.596 33.81 148.596 33.9675C148.596 34.0999 148.722 34.3393 148.96 34.6858L150.622 37.0927L152.208 34.793C152.446 34.4464 152.565 34.1881 152.565 34.018C152.565 33.9108 152.54 33.8226 152.477 33.7407C152.421 33.6588 152.34 33.5958 152.233 33.5517C152.126 33.5013 151.963 33.4824 151.75 33.4824V33.2808H151.756Z" fill="#231815"/>
<path d="M42.3906 28.2086C39.8764 30.1808 37.8199 31.6993 36.0768 32.8964C41.005 32.8397 52.6043 35.5617 53.3943 35.7507C53.4256 35.7507 53.3943 35.8074 53.3943 35.8074C53.3943 35.8074 37.4186 33.1421 35.1802 34.0747C33.5877 34.7362 32.6848 36.9793 35.199 39.821C35.2116 39.8336 35.1175 39.821 35.1301 39.8336C35.1301 39.8336 32.0954 37.2062 32.4967 35.2088C29.5561 36.973 27.6626 37.7354 25.3428 39.0586C34.8542 33.2934 51.6324 19.5198 59.7331 13.4836C52.6042 19.9609 49.043 23.2121 42.3843 28.2023L42.3906 28.2086Z" fill="white"/>
</svg>
