<svg width="1920" height="1002" viewBox="0 0 1920 1002" fill="none" xmlns="http://www.w3.org/2000/svg">
<path d="M441.411 0.0126953C440.723 34.7296 435.218 64.7725 427.246 81.7025C427.441 82.131 427.649 82.5334 427.843 82.9359C436.204 65.8112 441.995 35.2878 442.696 0.0126953H441.398L441.411 0.0126953Z" fill="white"/>
<path d="M412.355 96.3085C396.983 96.3085 384.363 53.7369 383.298 0.0126953H382C383.091 54.4509 396.281 97.6068 412.355 97.6068C417.769 97.6068 422.845 92.6992 427.246 84.1304C427.038 83.7409 426.844 83.3384 426.649 82.9359C422.416 91.4269 417.548 96.3085 412.355 96.3085Z" fill="white"/>
<path d="M411.783 0.0126953C412.497 35.2878 418.275 65.8112 426.636 82.9359C426.844 82.5334 427.038 82.118 427.233 81.7025C419.287 64.7725 413.77 34.7296 413.082 0.0126953H411.783Z" fill="white"/>
<path d="M471.207 0.0126953C470.636 28.8093 466.754 54.386 460.898 71.9262C461.093 72.5105 461.288 73.0817 461.496 73.64C467.754 55.8401 471.921 29.5883 472.518 0.0126953H471.22H471.207Z" fill="white"/>
<path d="M442.149 96.3087C436.956 96.3087 432.088 91.44 427.855 82.9361C427.66 83.3385 427.453 83.741 427.258 84.1305C431.659 92.6864 436.748 97.607 442.149 97.607C449.212 97.607 455.73 89.2329 460.897 75.25C460.702 74.7177 460.495 74.1984 460.3 73.6401C455.314 87.8047 449.005 96.2957 442.149 96.2957V96.3087Z" fill="white"/>
<path d="M427.248 81.7021C427.053 82.1306 426.845 82.5331 426.65 82.9355C426.845 83.338 427.053 83.7405 427.248 84.13C427.455 83.7405 427.65 83.338 427.845 82.9355C427.637 82.5331 427.442 82.1176 427.248 81.7021Z" fill="white"/>
<path d="M479.646 96.3082C472.791 96.3082 466.481 87.8173 461.496 73.6527C461.301 74.198 461.106 74.7173 460.898 75.2626C466.066 89.2454 472.583 97.6195 479.646 97.6195C495.719 97.6195 508.91 54.4766 510.001 0.0253906H508.702C507.638 53.7496 495.018 96.3212 479.646 96.3212V96.3082Z" fill="white"/>
<path d="M449.279 0.0126953C449.877 29.5883 454.031 55.8401 460.302 73.64C460.497 73.0687 460.704 72.5105 460.899 71.9262C455.044 54.386 451.162 28.7963 450.591 0.0126953H449.292H449.279Z" fill="white"/>
<path d="M460.9 71.9263C460.705 72.5105 460.51 73.0818 460.303 73.64C460.497 74.1853 460.692 74.7047 460.9 75.25C461.095 74.7176 461.302 74.1983 461.497 73.64C461.302 73.0688 461.095 72.5105 460.9 71.9263Z" fill="white"/>
<path d="M437.493 1001.61C436.755 964.4 430.856 932.202 422.312 914.058C422.521 913.599 422.744 913.168 422.953 912.736C431.913 931.089 438.119 963.801 438.87 1001.61H437.479H437.493Z" fill="white"/>
<path d="M406.353 898.405C389.879 898.405 376.355 944.029 375.214 1001.61H373.822C374.991 943.264 389.128 897.014 406.353 897.014C412.156 897.014 417.596 902.273 422.313 911.456C422.09 911.874 421.882 912.305 421.673 912.736C417.137 903.637 411.919 898.405 406.353 898.405Z" fill="white"/>
<path d="M405.74 1001.61C406.506 963.801 412.697 931.089 421.658 912.736C421.881 913.168 422.089 913.613 422.298 914.058C413.783 932.202 407.869 964.4 407.132 1001.61H405.74Z" fill="white"/>
<path d="M469.425 1001.61C468.813 970.744 464.652 943.334 458.377 924.536C458.586 923.91 458.794 923.297 459.017 922.699C465.724 941.775 470.19 969.91 470.83 1001.61H469.439H469.425Z" fill="white"/>
<path d="M438.284 898.405C432.718 898.405 427.5 903.622 422.964 912.736C422.756 912.305 422.533 911.874 422.324 911.456C427.041 902.287 432.495 897.013 438.284 897.013C445.853 897.013 452.838 905.988 458.376 920.973C458.167 921.544 457.944 922.1 457.736 922.699C452.393 907.518 445.63 898.419 438.284 898.419V898.405Z" fill="white"/>
<path d="M422.314 914.058C422.105 913.599 421.883 913.168 421.674 912.736C421.883 912.305 422.105 911.874 422.314 911.456C422.537 911.874 422.745 912.305 422.954 912.736C422.731 913.168 422.523 913.613 422.314 914.058Z" fill="white"/>
<path d="M478.469 898.405C471.122 898.405 464.36 907.505 459.017 922.685C458.808 922.101 458.6 921.544 458.377 920.96C463.915 905.974 470.9 897 478.469 897C495.695 897 509.831 943.236 511 1001.59H509.609C508.468 944.016 494.943 898.391 478.469 898.391V898.405Z" fill="white"/>
<path d="M445.926 1001.61C446.566 969.91 451.018 941.775 457.739 922.699C457.948 923.311 458.17 923.91 458.379 924.536C452.104 943.334 447.943 970.758 447.331 1001.61H445.94H445.926Z" fill="white"/>
<path d="M458.378 924.536C458.17 923.91 457.961 923.297 457.738 922.699C457.947 922.115 458.156 921.558 458.378 920.974C458.587 921.544 458.81 922.101 459.018 922.699C458.81 923.311 458.587 923.91 458.378 924.536Z" fill="white"/>
<g clip-path="url(#clip0_41_851)">
<path d="M232 382C232 379.689 197.336 379.689 197.336 379.689H185.58L189.805 375.463C189.805 375.463 206.147 359.121 204.513 357.487C202.879 355.853 186.537 372.195 186.537 372.195L182.311 376.42V364.664C182.311 364.664 182.311 330 180 330C177.689 330 177.689 364.664 177.689 364.664V376.42L173.463 372.195C173.463 372.195 157.121 355.853 155.487 357.487C153.853 359.121 170.195 375.463 170.195 375.463L174.42 379.689H162.664C162.664 379.689 128 379.689 128 382C128 384.311 162.664 384.311 162.664 384.311H174.42L170.195 388.537C170.195 388.537 153.853 404.879 155.487 406.513C157.121 408.147 173.463 391.805 173.463 391.805L177.689 387.58V399.336C177.689 399.336 177.689 434 180 434C182.311 434 182.311 399.336 182.311 399.336V387.58L186.537 391.805C186.537 391.805 202.879 408.147 204.513 406.513C206.147 404.879 189.805 388.537 189.805 388.537L185.58 384.311H197.336C197.336 384.311 232 384.311 232 382Z" fill="white"/>
<path d="M221.187 348.462C221.187 350.398 219.619 351.973 217.675 351.973C215.732 351.973 214.164 350.405 214.164 348.462C214.164 346.519 215.732 344.951 217.675 344.951C219.619 344.951 221.187 346.519 221.187 348.462Z" fill="white"/>
<path d="M144.827 396.472C144.827 398.408 143.259 399.984 141.316 399.984C139.373 399.984 137.805 398.416 137.805 396.472C137.805 394.529 139.373 392.961 141.316 392.961C143.259 392.961 144.827 394.529 144.827 396.472Z" fill="white"/>
<path d="M208.134 419.204C208.134 421.14 206.566 422.715 204.623 422.715C202.679 422.715 201.111 421.147 201.111 419.204C201.111 417.26 202.679 415.692 204.623 415.692C206.566 415.692 208.134 417.26 208.134 419.204Z" fill="white"/>
<path d="M224.321 426.985C224.321 428.921 222.754 430.496 220.81 430.496C218.867 430.496 217.299 428.928 217.299 426.985C217.299 425.042 218.867 423.474 220.81 423.474C222.754 423.474 224.321 425.042 224.321 426.985Z" fill="white"/>
</g>
<line y1="128.5" x2="256" y2="128.5" stroke="white"/>
<g clip-path="url(#clip1_41_851)">
<path d="M106.61 95L108.28 109.81C109.29 118.82 116.4 125.92 125.41 126.94L140.22 128.61L125.41 130.28C116.4 131.29 109.3 138.4 108.28 147.41L106.61 162.22L104.94 147.41C103.93 138.4 96.82 131.3 87.81 130.28L73 128.61L87.81 126.94C96.82 125.93 103.92 118.82 104.94 109.81L106.61 95Z" fill="white"/>
</g>
<line y1="878.5" x2="256" y2="878.5" stroke="white"/>
<g clip-path="url(#clip2_41_851)">
<path d="M204.61 845L205.1 866.57C205.24 872.89 210.33 877.98 216.65 878.12L238.22 878.61L216.65 879.1C210.33 879.24 205.24 884.33 205.1 890.65L204.61 912.22L204.12 890.65C203.98 884.33 198.89 879.24 192.57 879.1L171 878.61L192.57 878.12C198.89 877.98 203.98 872.89 204.12 866.57L204.61 845Z" fill="white"/>
<path d="M228.38 854.84L213.48 870.44C209.11 875.01 209.11 882.21 213.48 886.78L228.38 902.38L212.78 887.48C208.21 883.11 201.01 883.11 196.44 887.48L180.84 902.38L195.74 886.78C200.11 882.21 200.11 875.01 195.74 870.44L180.84 854.84L196.44 869.74C201.01 874.11 208.21 874.11 212.78 869.74L228.38 854.84Z" fill="white"/>
</g>
<g clip-path="url(#clip3_41_851)">
<path d="M320.27 554.19C321.76 548.2 318.11 542.13 312.11 540.64C306.11 539.15 300.05 542.8 298.56 548.8C297.07 554.79 300.72 560.86 306.72 562.35C312.71 563.84 318.78 560.19 320.27 554.19Z" stroke="white" stroke-width="0.5" stroke-miterlimit="10"/>
<path d="M288.49 560.82C291.81 558.89 295.21 557.14 298.64 555.45C302.06 553.75 305.53 552.16 309.01 550.59C312.5 549.05 316.01 547.54 319.56 546.13C323.11 544.71 326.68 543.36 330.34 542.18C327.02 544.11 323.62 545.87 320.2 547.55C316.78 549.25 313.31 550.84 309.83 552.41C306.33 553.95 302.83 555.46 299.28 556.87C295.73 558.29 292.16 559.65 288.5 560.82H288.49Z" fill="white"/>
<path d="M308.841 536.03C309.351 538.59 309.661 541.16 309.911 543.73C310.171 546.3 310.311 548.88 310.421 551.46C310.501 554.04 310.551 556.62 310.491 559.2C310.441 561.78 310.321 564.37 310.001 566.96C309.491 564.4 309.171 561.83 308.931 559.26C308.671 556.69 308.531 554.11 308.421 551.53C308.341 548.95 308.291 546.37 308.351 543.79C308.401 541.21 308.521 538.62 308.831 536.03H308.841Z" fill="white"/>
<path d="M324.82 553.01C322.21 553.17 319.62 553.13 317.04 553.03C314.46 552.94 311.89 552.73 309.32 552.49C306.75 552.22 304.19 551.93 301.64 551.51C299.09 551.11 296.54 550.64 294.01 549.98C296.62 549.82 299.21 549.85 301.79 549.96C304.37 550.05 306.94 550.26 309.51 550.5C312.08 550.77 314.64 551.07 317.19 551.48C319.74 551.88 322.29 552.35 324.82 553.01Z" fill="white"/>
<path d="M297.561 579.42C298.971 574.52 300.641 569.74 302.421 565C303.281 562.62 304.241 560.28 305.151 557.92L308.041 550.91L311.081 543.96C312.151 541.67 313.161 539.35 314.271 537.08C316.451 532.51 318.731 527.99 321.281 523.58C319.881 528.48 318.201 533.26 316.431 538C315.571 540.38 314.611 542.72 313.701 545.08L310.811 552.09L307.771 559.04C306.711 561.34 305.691 563.65 304.571 565.92C302.391 570.49 300.111 575.01 297.571 579.42H297.561Z" fill="white"/>
<path d="M331.84 567.36C327.74 565.22 323.82 562.84 319.96 560.38C318.01 559.17 316.13 557.87 314.21 556.62L308.56 552.72C304.82 550.08 301.15 547.34 297.54 544.52C293.93 541.7 290.38 538.79 287.01 535.63C291.11 537.76 295.03 540.14 298.9 542.61C302.76 545.08 306.57 547.62 310.3 550.27L315.86 554.3C317.68 555.69 319.53 557.04 321.32 558.47C324.93 561.29 328.48 564.2 331.86 567.36H331.84Z" fill="white"/>
<path d="M291.449 520C294.779 525.06 297.999 530.18 301.109 535.36C304.239 540.53 307.279 545.76 310.289 551C313.269 556.26 316.229 561.53 319.079 566.86C321.959 572.17 324.729 577.55 327.389 583C324.059 577.94 320.839 572.82 317.729 567.64C314.599 562.47 311.569 557.24 308.559 552C305.579 546.74 302.619 541.47 299.769 536.14C296.879 530.82 294.109 525.44 291.449 520Z" fill="white"/>
</g>
<line x1="1790" y1="167.5" x2="1920" y2="167.5" stroke="white"/>
<g clip-path="url(#clip4_41_851)">
<path d="M1766.32 165.468C1758.4 162.02 1752.63 154.973 1751 146.474C1749.37 154.973 1743.6 162.02 1735.68 165.468C1734.14 166.136 1730.3 167.172 1730.3 167.172C1730.3 167.172 1734.14 168.201 1735.68 168.876C1743.6 172.324 1749.37 179.371 1751 187.87C1752.63 179.371 1758.4 172.324 1766.32 168.876C1767.86 168.208 1771.7 167.172 1771.7 167.172C1771.7 167.172 1767.86 166.143 1766.32 165.468Z" fill="white"/>
<path d="M1751 129C1749.26 129 1749.26 133.014 1749.26 133.014V137.028C1749.26 137.028 1749.26 141.042 1751 141.042C1752.75 141.042 1752.75 137.028 1752.75 137.028V133.014C1752.75 133.014 1752.75 129 1751 129Z" fill="white"/>
<path d="M1751 194.971C1749.26 194.971 1749.26 198.985 1749.26 198.985V203C1749.26 203 1749.26 207.014 1751 207.014C1752.75 207.014 1752.75 203 1752.75 203V198.985C1752.75 198.985 1752.75 194.971 1751 194.971Z" fill="white"/>
<path d="M1790 168.003C1790 166.259 1785.99 166.259 1785.99 166.259H1781.97C1781.97 166.259 1777.96 166.259 1777.96 168.003C1777.96 169.748 1781.97 169.748 1781.97 169.748H1785.99C1785.99 169.748 1790 169.748 1790 168.003Z" fill="white"/>
<path d="M1724.04 168.003C1724.04 166.259 1720.02 166.259 1720.02 166.259H1716.01C1716.01 166.259 1711.99 166.259 1711.99 168.003C1711.99 169.748 1716.01 169.748 1716.01 169.748H1720.02C1720.02 169.748 1724.04 169.748 1724.04 168.003Z" fill="white"/>
<path d="M1718.99 135.127C1717.75 136.36 1723.73 142.337 1723.73 142.337L1729.71 148.314C1729.71 148.314 1735.68 154.291 1736.92 153.057C1738.15 151.824 1732.17 145.847 1732.17 145.847L1726.2 139.87C1726.2 139.87 1720.22 133.893 1718.99 135.127Z" fill="white"/>
<path d="M1783.02 135.127C1784.26 136.36 1778.28 142.337 1778.28 142.337L1772.3 148.314C1772.3 148.314 1766.33 154.291 1765.09 153.057C1763.86 151.824 1769.83 145.847 1769.83 145.847L1775.81 139.87C1775.81 139.87 1781.79 133.893 1783.02 135.127Z" fill="white"/>
<path d="M1783.02 199.224C1784.26 197.99 1778.28 192.013 1778.28 192.013L1772.3 186.037C1772.3 186.037 1766.33 180.06 1765.09 181.293C1763.86 182.527 1769.83 188.504 1769.83 188.504L1775.81 194.481C1775.81 194.481 1781.79 200.458 1783.02 199.224Z" fill="white"/>
<path d="M1718.99 199.224C1717.75 197.99 1723.73 192.013 1723.73 192.013L1729.71 186.037C1729.71 186.037 1735.68 180.06 1736.92 181.293C1738.15 182.527 1732.17 188.504 1732.17 188.504L1726.2 194.481C1726.2 194.481 1720.22 200.458 1718.99 199.224Z" fill="white"/>
</g>
<path d="M1685.38 753.008C1724.04 735.755 1762.01 726.834 1792.12 726.34C1807.18 726.093 1820.25 727.954 1830.46 731.914C1840.66 735.873 1847.97 741.915 1851.59 750.019C1855.2 758.122 1854.82 767.597 1850.95 777.836C1847.08 788.078 1839.74 799.049 1829.5 810.091C1809.01 832.175 1777.02 854.472 1738.36 871.724C1699.69 888.977 1661.73 897.898 1631.61 898.392C1616.55 898.639 1603.48 896.778 1593.28 892.818C1583.07 888.859 1575.76 882.817 1572.15 874.713C1568.53 866.61 1568.92 857.134 1572.79 846.895C1576.66 836.654 1584 825.683 1594.24 814.641C1614.72 792.557 1646.72 770.26 1685.38 753.008Z" stroke="white"/>
<path d="M1718.55 855.725C1699.25 847.112 1680.31 842.662 1665.29 842.416C1657.79 842.293 1651.29 843.221 1646.22 845.185C1641.16 847.148 1637.57 850.132 1635.8 854.105C1634.03 858.078 1634.2 862.743 1636.12 867.82C1638.04 872.9 1641.69 878.357 1646.8 883.862C1657.01 894.872 1672.97 906.001 1692.28 914.615C1711.58 923.229 1730.53 927.677 1745.54 927.923C1753.05 928.046 1759.55 927.118 1764.61 925.154C1769.67 923.191 1773.26 920.208 1775.03 916.235C1776.81 912.262 1776.63 907.596 1774.71 902.519C1772.79 897.439 1769.14 891.982 1764.03 886.477C1753.82 875.468 1737.86 864.339 1718.55 855.725Z" stroke="white"/>
<circle cx="1726" cy="738" r="9" fill="white"/>
<circle cx="1724.5" cy="925.5" r="7.5" fill="white"/>
<defs>
<clipPath id="clip0_41_851">
<rect width="104" height="104" fill="white" transform="translate(128 330)"/>
</clipPath>
<clipPath id="clip1_41_851">
<rect width="67.22" height="67.22" fill="white" transform="translate(73 95)"/>
</clipPath>
<clipPath id="clip2_41_851">
<rect width="67.22" height="67.22" fill="white" transform="translate(171 845)"/>
</clipPath>
<clipPath id="clip3_41_851">
<rect width="44.84" height="62.99" fill="white" transform="translate(287 520)"/>
</clipPath>
<clipPath id="clip4_41_851">
<rect width="78" height="78" fill="white" transform="translate(1712 129)"/>
</clipPath>
</defs>
</svg>
