<svg width="19" height="19" viewBox="0 0 19 19" fill="none" xmlns="http://www.w3.org/2000/svg">
<circle cx="9.5" cy="9.5" r="9.5" fill="black" fill-opacity="0.2"/>
<path d="M10 9H15V10H10V15H9V10H4V9H9V4H10V9Z" fill="white"/>
<path d="M10 9H9.5V9.5H10V9ZM15 9H15.5V8.5H15V9ZM15 10V10.5H15.5V10H15ZM10 10V9.5H9.5V10H10ZM10 15V15.5H10.5V15H10ZM9 15H8.5V15.5H9V15ZM9 10H9.5V9.5H9V10ZM4 10H3.5V10.5H4V10ZM4 9V8.5H3.5V9H4ZM9 9V9.5H9.5V9H9ZM9 4V3.5H8.5V4H9ZM10 4H10.5V3.5H10V4ZM10 9V9.5H15V9V8.5H10V9ZM15 9H14.5V10H15H15.5V9H15ZM15 10V9.5H10V10V10.5H15V10ZM10 10H9.5V15H10H10.5V10H10ZM10 15V14.5H9V15V15.5H10V15ZM9 15H9.5V10H9H8.5V15H9ZM9 10V9.5H4V10V10.5H9V10ZM4 10H4.5V9H4H3.5V10H4ZM4 9V9.5H9V9V8.5H4V9ZM9 9H9.5V4H9H8.5V9H9ZM9 4V4.5H10V4V3.5H9V4ZM10 4H9.5V9H10H10.5V4H10Z" fill="white"/>
</svg>
