<svg width="44" height="44" viewBox="0 0 44 44" fill="none" xmlns="http://www.w3.org/2000/svg">
<circle cx="22" cy="22" r="22" fill="#33353C"/>
<path d="M33.5139 19.3235C33.5139 16.4911 31.2486 14.2007 28.4615 14.2007H15.5378C12.7443 14.2007 10.4854 16.4976 10.4854 19.3235V25.4207C10.4854 28.2531 12.7507 30.5435 15.5378 30.5435H28.4615C31.255 30.5435 33.5139 28.2466 33.5139 25.4207V19.3235ZM25.9098 22.827L20.1129 25.7368C19.8839 25.8594 19.1139 25.6916 19.1139 25.4336V19.4655C19.1139 19.201 19.8902 19.0332 20.1193 19.1622L25.668 22.2205C25.9035 22.356 26.1453 22.6979 25.9098 22.827Z" fill="white"/>
</svg>
