<svg width="44" height="44" viewBox="0 0 44 44" fill="none" xmlns="http://www.w3.org/2000/svg">
<circle cx="22" cy="22" r="22" fill="#33353C"/>
<path d="M27.8777 15.6799C27.2061 15.6799 26.6572 16.2288 26.6572 16.9004C26.6572 17.5719 27.2061 18.1208 27.8777 18.1208C28.5492 18.1208 29.0981 17.5719 29.0981 16.9004C29.0981 16.2288 28.5492 15.6799 27.8777 15.6799Z" fill="url(#paint0_linear_372_4)"/>
<path d="M22.4527 17.2444C19.6264 17.2444 17.3315 19.5451 17.3315 22.3656C17.3315 25.186 19.6323 27.4867 22.4527 27.4867C25.2732 27.4867 27.5739 25.186 27.5739 22.3656C27.5739 19.5451 25.2732 17.2444 22.4527 17.2444ZM22.4527 25.6532C20.6425 25.6532 19.171 24.1816 19.171 22.3714C19.171 20.5612 20.6425 19.0896 22.4527 19.0896C24.2629 19.0896 25.7345 20.5612 25.7345 22.3714C25.7345 24.1816 24.2629 25.6532 22.4527 25.6532Z" fill="url(#paint1_linear_372_4)"/>
<path d="M26.5235 32.7722H18.2199C14.7746 32.7722 11.9717 29.9693 11.9717 26.524V18.2203C11.9717 14.7751 14.7746 11.9722 18.2199 11.9722H26.5235C29.9688 11.9722 32.7717 14.7751 32.7717 18.2203V26.524C32.7717 29.9693 29.9688 32.7722 26.5235 32.7722ZM18.214 13.9225C15.8491 13.9225 13.922 15.8495 13.922 18.2145V26.5182C13.922 28.8831 15.8491 30.8101 18.214 30.8101H26.5177C28.8826 30.8101 30.8096 28.8831 30.8096 26.5182V18.2145C30.8096 15.8495 28.8826 13.9225 26.5177 13.9225H18.214Z" fill="url(#paint2_linear_372_4)"/>
<defs>
<linearGradient id="paint0_linear_372_4" x1="18.3477" y1="7.77921" x2="37.2149" y2="25.8405" gradientUnits="userSpaceOnUse">
<stop offset="1" stop-color="white"/>
</linearGradient>
<linearGradient id="paint1_linear_372_4" x1="13.0221" y1="13.3437" x2="31.8892" y2="31.3991" gradientUnits="userSpaceOnUse">
<stop offset="1" stop-color="white"/>
</linearGradient>
<linearGradient id="paint2_linear_372_4" x1="12.9819" y1="13.3853" x2="31.8491" y2="31.4408" gradientUnits="userSpaceOnUse">
<stop offset="1" stop-color="white"/>
</linearGradient>
</defs>
</svg>
