<svg width="21" height="21" viewBox="0 0 21 21" fill="none" xmlns="http://www.w3.org/2000/svg">
<path d="M15.247 5.3952C14.7046 5.3952 14.2612 5.83855 14.2612 6.38094C14.2612 6.92333 14.7046 7.36668 15.247 7.36668C15.7894 7.36668 16.2327 6.92333 16.2327 6.38094C16.2327 5.83855 15.7894 5.3952 15.247 5.3952Z" fill="url(#paint0_linear_320_6273)"/>
<path d="M10.8653 6.65894C8.58258 6.65894 6.729 8.51722 6.729 10.7953C6.729 13.0733 8.5873 14.9316 10.8653 14.9316C13.1434 14.9316 15.0017 13.0733 15.0017 10.7953C15.0017 8.51722 13.1434 6.65894 10.8653 6.65894ZM10.8653 13.4506C9.40324 13.4506 8.21468 12.2621 8.21468 10.8C8.21468 9.33788 9.40324 8.14934 10.8653 8.14934C12.3274 8.14934 13.516 9.33788 13.516 10.8C13.516 12.2621 12.3274 13.4506 10.8653 13.4506Z" fill="url(#paint1_linear_320_6273)"/>
<path d="M14.1533 19.2006H7.44651C4.66381 19.2006 2.3999 16.9367 2.3999 14.154V7.44724C2.3999 4.66453 4.66381 2.40063 7.44651 2.40063H14.1533C16.936 2.40063 19.1999 4.66453 19.1999 7.44724V14.154C19.1999 16.9367 16.936 19.2006 14.1533 19.2006ZM7.44179 3.97593C5.53163 3.97593 3.9752 5.53236 3.9752 7.44252V14.1493C3.9752 16.0595 5.53163 17.6159 7.44179 17.6159H14.1486C16.0588 17.6159 17.6152 16.0595 17.6152 14.1493V7.44252C17.6152 5.53236 16.0588 3.97593 14.1486 3.97593H7.44179Z" fill="url(#paint2_linear_320_6273)"/>
<defs>
<linearGradient id="paint0_linear_320_6273" x1="7.54973" y1="-0.986146" x2="22.7886" y2="13.6018" gradientUnits="userSpaceOnUse">
<stop offset="1" stop-color="#3D3D3D"/>
</linearGradient>
<linearGradient id="paint1_linear_320_6273" x1="3.24826" y1="3.50834" x2="18.4871" y2="18.0916" gradientUnits="userSpaceOnUse">
<stop offset="1" stop-color="#3D3D3D"/>
</linearGradient>
<linearGradient id="paint2_linear_320_6273" x1="3.21585" y1="3.54202" x2="18.4547" y2="18.1253" gradientUnits="userSpaceOnUse">
<stop offset="1" stop-color="#3D3D3D"/>
</linearGradient>
</defs>
</svg>
