<svg width="54" height="54" viewBox="0 0 54 54" fill="none" xmlns="http://www.w3.org/2000/svg">
<mask id="mask0_30_45" style="mask-type:alpha" maskUnits="userSpaceOnUse" x="0" y="0" width="54" height="54">
<rect width="54" height="54" fill="#B6B0C3"/>
</mask>
<g mask="url(#mask0_30_45)">
<path d="M27 16.0312C26.325 15.5437 25.6031 15.1875 24.8344 14.9625C24.0656 14.7375 23.2875 14.625 22.5 14.625C21.4875 14.625 20.4938 14.8218 19.5188 15.2156C18.5438 15.6093 17.6813 16.1812 16.9313 16.9312C16.1813 17.6812 15.6094 18.5437 15.2156 19.5187C14.8219 20.4937 14.625 21.4875 14.625 22.5C14.625 23.2875 14.7375 24.0656 14.9625 24.8343C15.1875 25.6031 15.5438 26.325 16.0313 27C15.5438 27.675 15.1875 28.3968 14.9625 29.1656C14.7375 29.9343 14.625 30.7125 14.625 31.5C14.625 32.5125 14.8219 33.5062 15.2156 34.4812C15.6094 35.4562 16.1813 36.3187 16.9313 37.0687C17.6813 37.8187 18.5438 38.3906 19.5188 38.7843C20.4938 39.1781 21.4875 39.375 22.5 39.375C23.2875 39.375 24.0656 39.2625 24.8344 39.0375C25.6031 38.8125 26.325 38.4562 27 37.9687C27.675 38.4562 28.3969 38.8125 29.1656 39.0375C29.9344 39.2625 30.7125 39.375 31.5 39.375C32.5125 39.375 33.5063 39.1781 34.4813 38.7843C35.4563 38.3906 36.3188 37.8187 37.0688 37.0687C37.8188 36.3187 38.3906 35.4562 38.7844 34.4812C39.1781 33.5062 39.375 32.5125 39.375 31.5C39.375 30.7125 39.2625 29.9343 39.0375 29.1656C38.8125 28.3968 38.4563 27.675 37.9688 27C38.4563 26.325 38.8125 25.6031 39.0375 24.8343C39.2625 24.0656 39.375 23.2875 39.375 22.5C39.375 21.4875 39.1781 20.4937 38.7844 19.5187C38.3906 18.5437 37.8188 17.6812 37.0688 16.9312C36.3188 16.1812 35.4563 15.6093 34.4813 15.2156C33.5063 14.8218 32.5125 14.625 31.5 14.625C30.7125 14.625 29.9344 14.7375 29.1656 14.9625C28.3969 15.1875 27.675 15.5437 27 16.0312ZM27 29.8125C27.7875 29.8125 28.4531 29.5406 28.9969 28.9968C29.5406 28.4531 29.8125 27.7875 29.8125 27C29.8125 26.2125 29.5406 25.5468 28.9969 25.0031C28.4531 24.4593 27.7875 24.1875 27 24.1875C26.2125 24.1875 25.5469 24.4593 25.0031 25.0031C24.4594 25.5468 24.1875 26.2125 24.1875 27C24.1875 27.7875 24.4594 28.4531 25.0031 28.9968C25.5469 29.5406 26.2125 29.8125 27 29.8125ZM27 49.5C23.8875 49.5 20.9625 48.9093 18.225 47.7281C15.4875 46.5468 13.1063 44.9437 11.0813 42.9187C9.05625 40.8937 7.45313 38.5125 6.27188 35.775C5.09063 33.0375 4.5 30.1125 4.5 27C4.5 23.8875 5.09063 20.9625 6.27188 18.225C7.45313 15.4875 9.05625 13.1062 11.0813 11.0812C13.1063 9.05622 15.4875 7.45309 18.225 6.27184C20.9625 5.09059 23.8875 4.49997 27 4.49997C30.1125 4.49997 33.0375 5.09059 35.775 6.27184C38.5125 7.45309 40.8938 9.05622 42.9188 11.0812C44.9438 13.1062 46.5469 15.4875 47.7281 18.225C48.9094 20.9625 49.5 23.8875 49.5 27C49.5 30.1125 48.9094 33.0375 47.7281 35.775C46.5469 38.5125 44.9438 40.8937 42.9188 42.9187C40.8938 44.9437 38.5125 46.5468 35.775 47.7281C33.0375 48.9093 30.1125 49.5 27 49.5Z" fill="#7964A4"/>
</g>
</svg>
