<svg width="47" height="47" viewBox="0 0 47 47" fill="none" xmlns="http://www.w3.org/2000/svg">
<path d="M6.56631 14.1457C6.56631 9.92845 9.96427 6.51029 14.1566 6.51029V5H8.8464C3.96013 5 -1.47521e-05 8.9837 -1.47521e-05 13.899V42.0067C-1.47521e-05 42.5552 0.442177 43 0.987414 43H19.4916C20.0368 43 20.479 42.5552 20.479 42.0067V28.1412C20.479 27.5927 20.0368 27.1479 19.4916 27.1479C12.3526 27.1479 6.56631 21.3271 6.56631 14.1457Z" fill="#011EF3"/>
<path d="M33.0873 14.1457C33.0873 9.92845 36.4853 6.51029 40.6776 6.51029V5H35.3674C30.4811 5 26.521 8.9837 26.521 13.899V42.0067C26.521 42.5552 26.9632 43 27.5084 43H46.0126C46.5578 43 47 42.5552 47 42.0067V28.1412C47 27.5927 46.5578 27.1479 46.0126 27.1479C38.8736 27.1479 33.0873 21.3271 33.0873 14.1457Z" fill="#011EF3"/>
</svg>
