<svg width="50" height="50" viewBox="0 0 50 50" fill="none" xmlns="http://www.w3.org/2000/svg">
<mask id="mask0_236_3" style="mask-type:alpha" maskUnits="userSpaceOnUse" x="0" y="0" width="50" height="50">
<rect width="50" height="50" fill="#D9D9D9"/>
</mask>
<g mask="url(#mask0_236_3)">
<path d="M39.5834 45.8346H33.3334C32.7431 45.8346 32.2483 45.635 31.849 45.2357C31.4497 44.8364 31.25 44.3416 31.25 43.7513C31.25 43.161 31.4497 42.6662 31.849 42.2669C32.2483 41.8676 32.7431 41.668 33.3334 41.668H39.5834V20.8346H10.4167V27.0846C10.4167 27.6749 10.2171 28.1697 9.81775 28.569C9.41844 28.9683 8.92365 29.168 8.33337 29.168C7.7431 29.168 7.24831 28.9683 6.849 28.569C6.44969 28.1697 6.25004 27.6749 6.25004 27.0846V12.5013C6.25004 11.3555 6.65803 10.3746 7.474 9.55859C8.28997 8.74262 9.27087 8.33464 10.4167 8.33464H12.5V6.2513C12.5 5.66102 12.6997 5.16623 13.099 4.76693C13.4983 4.36762 13.9931 4.16797 14.5834 4.16797C15.1737 4.16797 15.6684 4.36762 16.0678 4.76693C16.4671 5.16623 16.6667 5.66102 16.6667 6.2513V8.33464H33.3334V6.2513C33.3334 5.66102 33.533 5.16623 33.9323 4.76693C34.3316 4.36762 34.8264 4.16797 35.4167 4.16797C36.007 4.16797 36.5018 4.36762 36.9011 4.76693C37.3004 5.16623 37.5 5.66102 37.5 6.2513V8.33464H39.5834C40.7292 8.33464 41.7101 8.74262 42.5261 9.55859C43.3421 10.3746 43.75 11.3555 43.75 12.5013V41.668C43.75 42.8138 43.3421 43.7947 42.5261 44.6107C41.7101 45.4266 40.7292 45.8346 39.5834 45.8346ZM19.1146 41.668H4.16671C3.57643 41.668 3.08164 41.4683 2.68233 41.069C2.28303 40.6697 2.08337 40.1749 2.08337 39.5846C2.08337 38.9944 2.28303 38.4996 2.68233 38.1003C3.08164 37.701 3.57643 37.5013 4.16671 37.5013H19.1146L15.2084 33.543C14.8264 33.161 14.6268 32.6836 14.6094 32.1107C14.5921 31.5378 14.7917 31.043 15.2084 30.6263C15.5903 30.2444 16.0764 30.0534 16.6667 30.0534C17.257 30.0534 17.7431 30.2444 18.125 30.6263L25.625 38.1263C26.0417 38.543 26.25 39.0291 26.25 39.5846C26.25 40.1402 26.0417 40.6263 25.625 41.043L18.125 48.543C17.7431 48.9249 17.2657 49.1246 16.6928 49.1419C16.1198 49.1593 15.625 48.9596 15.2084 48.543C14.8264 48.161 14.6355 47.6749 14.6355 47.0846C14.6355 46.4944 14.8264 46.0082 15.2084 45.6263L19.1146 41.668ZM10.4167 16.668H39.5834V12.5013H10.4167V16.668Z" fill="white"/>
</g>
</svg>
