<svg width="50" height="50" viewBox="0 0 50 50" fill="none" xmlns="http://www.w3.org/2000/svg">
<mask id="mask0_236_9" style="mask-type:alpha" maskUnits="userSpaceOnUse" x="0" y="0" width="50" height="50">
<rect width="50" height="50" fill="#D9D9D9"/>
</mask>
<g mask="url(#mask0_236_9)">
<path d="M20.8333 14.5846H35.4167C36.0069 14.5846 36.5017 14.7843 36.901 15.1836C37.3004 15.5829 37.5 16.0777 37.5 16.668C37.5 17.2582 37.3004 17.753 36.901 18.1523C36.5017 18.5517 36.0069 18.7513 35.4167 18.7513H20.8333C20.2431 18.7513 19.7483 18.5517 19.349 18.1523C18.9497 17.753 18.75 17.2582 18.75 16.668C18.75 16.0777 18.9497 15.5829 19.349 15.1836C19.7483 14.7843 20.2431 14.5846 20.8333 14.5846ZM20.8333 20.8346H35.4167C36.0069 20.8346 36.5017 21.0343 36.901 21.4336C37.3004 21.8329 37.5 22.3277 37.5 22.918C37.5 23.5082 37.3004 24.003 36.901 24.4023C36.5017 24.8017 36.0069 25.0013 35.4167 25.0013H20.8333C20.2431 25.0013 19.7483 24.8017 19.349 24.4023C18.9497 24.003 18.75 23.5082 18.75 22.918C18.75 22.3277 18.9497 21.8329 19.349 21.4336C19.7483 21.0343 20.2431 20.8346 20.8333 20.8346ZM12.5 45.8346C10.7639 45.8346 9.28819 45.227 8.07292 44.0117C6.85764 42.7964 6.25 41.3207 6.25 39.5846V35.418C6.25 34.8277 6.44965 34.3329 6.84896 33.9336C7.24826 33.5343 7.74306 33.3346 8.33333 33.3346H12.5V8.33464C12.5 7.1888 12.908 6.2079 13.724 5.39193C14.5399 4.57595 15.5208 4.16797 16.6667 4.16797H39.5833C40.7292 4.16797 41.7101 4.57595 42.526 5.39193C43.342 6.2079 43.75 7.1888 43.75 8.33464V20.8346C43.75 21.4249 43.5503 21.9197 43.151 22.319C42.7517 22.7183 42.2569 22.918 41.6667 22.918C41.0764 22.918 40.5816 22.7183 40.1823 22.319C39.783 21.9197 39.5833 21.4249 39.5833 20.8346V8.33464H16.6667V33.3346H22.9167C23.5069 33.3346 24.0017 33.5343 24.401 33.9336C24.8003 34.3329 25 34.8277 25 35.418C25 36.0082 24.8003 36.503 24.401 36.9023C24.0017 37.3017 23.5069 37.5013 22.9167 37.5013H10.4167V39.5846C10.4167 40.1749 10.6163 40.6697 11.0156 41.069C11.4149 41.4683 11.9097 41.668 12.5 41.668H22.9167C23.5069 41.668 24.0017 41.8676 24.401 42.2669C24.8003 42.6662 25 43.161 25 43.7513C25 44.3416 24.8003 44.8364 24.401 45.2357C24.0017 45.635 23.5069 45.8346 22.9167 45.8346H12.5ZM29.1667 43.7513V40.3138C29.1667 40.036 29.2188 39.7669 29.3229 39.5065C29.4271 39.2461 29.5833 39.0117 29.7917 38.8034L40.6771 27.9701C40.9896 27.6576 41.3368 27.4319 41.7188 27.293C42.1007 27.1541 42.4826 27.0846 42.8646 27.0846C43.2813 27.0846 43.6806 27.1628 44.0625 27.319C44.4444 27.4753 44.7917 27.7096 45.1042 28.0221L47.0313 29.9492C47.309 30.2617 47.526 30.6089 47.6823 30.9909C47.8385 31.3728 47.9167 31.7548 47.9167 32.1367C47.9167 32.5187 47.8472 32.9093 47.7083 33.3086C47.5694 33.7079 47.3438 34.0638 47.0313 34.3763L36.1979 45.2096C35.9896 45.418 35.7552 45.5742 35.4948 45.6784C35.2344 45.7826 34.9653 45.8346 34.6875 45.8346H31.25C30.6597 45.8346 30.1649 45.635 29.7656 45.2357C29.3663 44.8364 29.1667 44.3416 29.1667 43.7513ZM32.2917 42.7096H34.2708L40.5729 36.3555L39.6354 35.3659L38.6458 34.4284L32.2917 40.7305V42.7096ZM39.6354 35.3659L38.6458 34.4284L40.5729 36.3555L39.6354 35.3659Z" fill="white"/>
</g>
</svg>
