<svg width="50" height="50" viewBox="0 0 50 50" fill="none" xmlns="http://www.w3.org/2000/svg">
<mask id="mask0_82_24727" style="mask-type:alpha" maskUnits="userSpaceOnUse" x="0" y="0" width="50" height="50">
<rect width="50" height="50" fill="#D9D9D9"/>
</mask>
<g mask="url(#mask0_82_24727)">
<path d="M25 14.5846C25.5903 14.5846 26.0851 14.385 26.4844 13.9857C26.8837 13.5864 27.0833 13.0916 27.0833 12.5013C27.0833 11.911 26.8837 11.4162 26.4844 11.0169C26.0851 10.6176 25.5903 10.418 25 10.418C24.4097 10.418 23.9149 10.6176 23.5156 11.0169C23.1163 11.4162 22.9167 11.911 22.9167 12.5013C22.9167 13.0916 23.1163 13.5864 23.5156 13.9857C23.9149 14.385 24.4097 14.5846 25 14.5846ZM25 31.2513C25.5903 31.2513 26.0851 31.0517 26.4844 30.6523C26.8837 30.253 27.0833 29.7582 27.0833 29.168V20.8346C27.0833 20.2444 26.8837 19.7496 26.4844 19.3503C26.0851 18.951 25.5903 18.7513 25 18.7513C24.4097 18.7513 23.9149 18.951 23.5156 19.3503C23.1163 19.7496 22.9167 20.2444 22.9167 20.8346V29.168C22.9167 29.7582 23.1163 30.253 23.5156 30.6523C23.9149 31.0517 24.4097 31.2513 25 31.2513ZM12.5 37.5013L7.70834 42.293C7.04862 42.9527 6.29341 43.1003 5.44271 42.7357C4.59202 42.3711 4.16667 41.7201 4.16667 40.7826V8.33464C4.16667 7.1888 4.57466 6.2079 5.39063 5.39193C6.2066 4.57595 7.18751 4.16797 8.33334 4.16797H41.6667C42.8125 4.16797 43.7934 4.57595 44.6094 5.39193C45.4254 6.2079 45.8333 7.1888 45.8333 8.33464V33.3346C45.8333 34.4805 45.4254 35.4614 44.6094 36.2773C43.7934 37.0933 42.8125 37.5013 41.6667 37.5013H12.5ZM10.7292 33.3346H41.6667V8.33464H8.33334V35.6784L10.7292 33.3346Z" fill="#DB444A"/>
</g>
</svg>
