<svg width="50" height="50" viewBox="0 0 50 50" fill="none" xmlns="http://www.w3.org/2000/svg">
<mask id="mask0_82_24582" style="mask-type:alpha" maskUnits="userSpaceOnUse" x="0" y="0" width="50" height="50">
<rect width="50" height="50" fill="#D9D9D9"/>
</mask>
<g mask="url(#mask0_82_24582)">
<path d="M22.9167 45.8333C18.2639 45.8333 14.3229 44.2188 11.0938 40.9896C7.86458 37.7604 6.25 33.8194 6.25 29.1667C6.25 25.2431 7.41319 21.4757 9.73958 17.8646C12.066 14.2535 15.2604 11.0938 19.3229 8.38542C20.0868 7.86458 20.8767 7.83854 21.6927 8.30729C22.5087 8.77604 22.9167 9.47917 22.9167 10.4167V13.125C22.9167 14.3056 23.3247 15.2951 24.1406 16.0937C24.9566 16.8924 25.9549 17.2917 27.1354 17.2917C27.7257 17.2917 28.2899 17.1615 28.8281 16.901C29.3663 16.6406 29.8438 16.2674 30.2604 15.7812C30.5382 15.434 30.8941 15.217 31.3281 15.1302C31.7622 15.0434 32.1701 15.1389 32.5521 15.4167C34.7396 16.9792 36.4583 18.9757 37.7083 21.4062C38.9583 23.8368 39.5833 26.4236 39.5833 29.1667C39.5833 33.8194 37.9688 37.7604 34.7396 40.9896C31.5104 44.2188 27.5694 45.8333 22.9167 45.8333ZM10.4167 29.1667C10.4167 30.9722 10.7812 32.6823 11.5104 34.2969C12.2396 35.9115 13.2812 37.3264 14.6354 38.5417C14.6007 38.3681 14.5833 38.2118 14.5833 38.0729V37.6042C14.5833 36.4931 14.7917 35.4514 15.2083 34.4792C15.625 33.5069 16.2326 32.6215 17.0312 31.8229L22.9167 26.0417L28.8021 31.8229C29.6007 32.6215 30.2083 33.5069 30.625 34.4792C31.0417 35.4514 31.25 36.4931 31.25 37.6042V38.0729C31.25 38.2118 31.2326 38.3681 31.1979 38.5417C32.5521 37.3264 33.5938 35.9115 34.3229 34.2969C35.0521 32.6823 35.4167 30.9722 35.4167 29.1667C35.4167 27.4306 35.0955 25.7899 34.4531 24.2448C33.8108 22.6997 32.8819 21.3194 31.6667 20.1042C30.9722 20.5556 30.2431 20.8941 29.4792 21.1198C28.7153 21.3455 27.934 21.4583 27.1354 21.4583C24.9826 21.4583 23.1163 20.7465 21.5365 19.3229C19.9566 17.8993 19.0451 16.1458 18.8021 14.0625C16.0938 16.3542 14.0191 18.7934 12.5781 21.3802C11.1372 23.967 10.4167 26.5625 10.4167 29.1667ZM22.9167 31.875L19.9479 34.7917C19.566 35.1736 19.2708 35.6076 19.0625 36.0937C18.8542 36.5799 18.75 37.0833 18.75 37.6042C18.75 38.7153 19.158 39.6701 19.974 40.4688C20.7899 41.2674 21.7708 41.6667 22.9167 41.6667C24.0625 41.6667 25.0434 41.2674 25.8594 40.4688C26.6753 39.6701 27.0833 38.7153 27.0833 37.6042C27.0833 37.0486 26.9792 36.5365 26.7708 36.0677C26.5625 35.599 26.2674 35.1736 25.8854 34.7917L22.9167 31.875ZM43.75 22.9167C43.1597 22.9167 42.6649 22.717 42.2656 22.3177C41.8663 21.9184 41.6667 21.4236 41.6667 20.8333C41.6667 20.2431 41.8663 19.7483 42.2656 19.349C42.6649 18.9497 43.1597 18.75 43.75 18.75C44.3403 18.75 44.8351 18.9497 45.2344 19.349C45.6337 19.7483 45.8333 20.2431 45.8333 20.8333C45.8333 21.4236 45.6337 21.9184 45.2344 22.3177C44.8351 22.717 44.3403 22.9167 43.75 22.9167ZM43.75 16.6667C43.1597 16.6667 42.6649 16.467 42.2656 16.0677C41.8663 15.6684 41.6667 15.1736 41.6667 14.5833V8.33333C41.6667 7.74306 41.8663 7.24826 42.2656 6.84896C42.6649 6.44965 43.1597 6.25 43.75 6.25C44.3403 6.25 44.8351 6.44965 45.2344 6.84896C45.6337 7.24826 45.8333 7.74306 45.8333 8.33333V14.5833C45.8333 15.1736 45.6337 15.6684 45.2344 16.0677C44.8351 16.467 44.3403 16.6667 43.75 16.6667Z" fill="white"/>
</g>
</svg>
