<svg width="50" height="50" viewBox="0 0 50 50" fill="none" xmlns="http://www.w3.org/2000/svg">
<mask id="mask0_82_25406" style="mask-type:alpha" maskUnits="userSpaceOnUse" x="0" y="0" width="50" height="50">
<rect width="50" height="50" fill="#D9D9D9"/>
</mask>
<g mask="url(#mask0_82_25406)">
<path d="M12.5 41.6667C11.9097 41.6667 11.4149 41.467 11.0156 41.0677C10.6163 40.6684 10.4167 40.1736 10.4167 39.5833C10.4167 38.9931 10.6163 38.4983 11.0156 38.099C11.4149 37.6997 11.9097 37.5 12.5 37.5H13.75L17.8646 23.8021C18.1424 22.8993 18.6545 22.1788 19.401 21.6406C20.1476 21.1024 20.9722 20.8333 21.875 20.8333H28.125C29.0278 20.8333 29.8524 21.1024 30.599 21.6406C31.3455 22.1788 31.8576 22.8993 32.1354 23.8021L36.25 37.5H37.5C38.0903 37.5 38.5851 37.6997 38.9844 38.099C39.3837 38.4983 39.5833 38.9931 39.5833 39.5833C39.5833 40.1736 39.3837 40.6684 38.9844 41.0677C38.5851 41.467 38.0903 41.6667 37.5 41.6667H12.5ZM18.125 37.5H31.875L28.125 25H21.875L18.125 37.5ZM22.9167 14.5833V8.33333C22.9167 7.74306 23.1163 7.24826 23.5156 6.84896C23.9149 6.44965 24.4097 6.25 25 6.25C25.5903 6.25 26.0851 6.44965 26.4844 6.84896C26.8837 7.24826 27.0833 7.74306 27.0833 8.33333V14.5833C27.0833 15.1736 26.8837 15.6684 26.4844 16.0677C26.0851 16.467 25.5903 16.6667 25 16.6667C24.4097 16.6667 23.9149 16.467 23.5156 16.0677C23.1163 15.6684 22.9167 15.1736 22.9167 14.5833ZM33.8542 17.3958L38.2812 12.9688C38.6632 12.5868 39.1406 12.3872 39.7135 12.3698C40.2865 12.3524 40.7812 12.5521 41.1979 12.9688C41.5799 13.3507 41.7708 13.8368 41.7708 14.4271C41.7708 15.0174 41.5799 15.5035 41.1979 15.8854L36.7708 20.3646C36.3542 20.7813 35.8681 20.9896 35.3125 20.9896C34.7569 20.9896 34.2708 20.7813 33.8542 20.3646C33.4375 19.9479 33.2292 19.4531 33.2292 18.8802C33.2292 18.3073 33.4375 17.8125 33.8542 17.3958ZM39.5833 27.0833H45.8333C46.4236 27.0833 46.9184 27.283 47.3177 27.6823C47.717 28.0816 47.9167 28.5764 47.9167 29.1667C47.9167 29.7569 47.717 30.2517 47.3177 30.651C46.9184 31.0504 46.4236 31.25 45.8333 31.25H39.5833C38.9931 31.25 38.4983 31.0504 38.099 30.651C37.6997 30.2517 37.5 29.7569 37.5 29.1667C37.5 28.5764 37.6997 28.0816 38.099 27.6823C38.4983 27.283 38.9931 27.0833 39.5833 27.0833ZM13.2292 20.3125L8.80208 15.8854C8.42014 15.5035 8.22049 15.026 8.20313 14.4531C8.18576 13.8802 8.38542 13.3854 8.80208 12.9688C9.18403 12.5868 9.67014 12.3958 10.2604 12.3958C10.8507 12.3958 11.3368 12.5868 11.7188 12.9688L16.1979 17.3958C16.6146 17.8125 16.8229 18.2986 16.8229 18.8542C16.8229 19.4097 16.6146 19.8958 16.1979 20.3125C15.7812 20.7292 15.2865 20.9375 14.7135 20.9375C14.1406 20.9375 13.6458 20.7292 13.2292 20.3125ZM4.16667 31.25C3.57639 31.25 3.0816 31.0504 2.68229 30.651C2.28299 30.2517 2.08333 29.7569 2.08333 29.1667C2.08333 28.5764 2.28299 28.0816 2.68229 27.6823C3.0816 27.283 3.57639 27.0833 4.16667 27.0833H10.4167C11.0069 27.0833 11.5017 27.283 11.901 27.6823C12.3003 28.0816 12.5 28.5764 12.5 29.1667C12.5 29.7569 12.3003 30.2517 11.901 30.651C11.5017 31.0504 11.0069 31.25 10.4167 31.25H4.16667Z" fill="white"/>
</g>
</svg>
