<svg width="50" height="50" viewBox="0 0 50 50" fill="none" xmlns="http://www.w3.org/2000/svg">
<mask id="mask0_82_25409" style="mask-type:alpha" maskUnits="userSpaceOnUse" x="0" y="0" width="50" height="50">
<rect width="50" height="50" fill="#D9D9D9"/>
</mask>
<g mask="url(#mask0_82_25409)">
<path d="M22.9167 31.2513V35.418C22.9167 36.0082 23.1163 36.503 23.5156 36.9023C23.9149 37.3017 24.4097 37.5013 25 37.5013C25.5903 37.5013 26.0851 37.3017 26.4844 36.9023C26.8837 36.503 27.0833 36.0082 27.0833 35.418V31.2513H31.25C31.8403 31.2513 32.3351 31.0517 32.7344 30.6523C33.1337 30.253 33.3333 29.7582 33.3333 29.168C33.3333 28.5777 33.1337 28.0829 32.7344 27.6836C32.3351 27.2843 31.8403 27.0846 31.25 27.0846H27.0833V22.918C27.0833 22.3277 26.8837 21.8329 26.4844 21.4336C26.0851 21.0343 25.5903 20.8346 25 20.8346C24.4097 20.8346 23.9149 21.0343 23.5156 21.4336C23.1163 21.8329 22.9167 22.3277 22.9167 22.918V27.0846H18.75C18.1597 27.0846 17.6649 27.2843 17.2656 27.6836C16.8663 28.0829 16.6667 28.5777 16.6667 29.168C16.6667 29.7582 16.8663 30.253 17.2656 30.6523C17.6649 31.0517 18.1597 31.2513 18.75 31.2513H22.9167ZM8.33334 45.8346C7.18751 45.8346 6.2066 45.4267 5.39063 44.6107C4.57466 43.7947 4.16667 42.8138 4.16667 41.668V16.668C4.16667 15.5221 4.57466 14.5412 5.39063 13.7253C6.2066 12.9093 7.18751 12.5013 8.33334 12.5013H16.6667V8.33464C16.6667 7.1888 17.0747 6.2079 17.8906 5.39193C18.7066 4.57595 19.6875 4.16797 20.8333 4.16797H29.1667C30.3125 4.16797 31.2934 4.57595 32.1094 5.39193C32.9254 6.2079 33.3333 7.1888 33.3333 8.33464V12.5013H41.6667C42.8125 12.5013 43.7934 12.9093 44.6094 13.7253C45.4254 14.5412 45.8333 15.5221 45.8333 16.668V41.668C45.8333 42.8138 45.4254 43.7947 44.6094 44.6107C43.7934 45.4267 42.8125 45.8346 41.6667 45.8346H8.33334ZM8.33334 41.668H41.6667V16.668H8.33334V41.668ZM20.8333 12.5013H29.1667V8.33464H20.8333V12.5013Z" fill="white"/>
</g>
</svg>
