<svg width="30" height="30" viewBox="0 0 30 30" fill="none" xmlns="http://www.w3.org/2000/svg">
<mask id="mask0_154_5" style="mask-type:alpha" maskUnits="userSpaceOnUse" x="0" y="0" width="30" height="30">
<rect width="30" height="30" fill="#D9D9D9"/>
</mask>
<g mask="url(#mask0_154_5)">
<path d="M17.5002 25.9062V23.3437C19.3752 22.8021 20.8856 21.7604 22.0314 20.2187C23.1773 18.6771 23.7502 16.9271 23.7502 14.9687C23.7502 13.0104 23.1773 11.2604 22.0314 9.71875C20.8856 8.17708 19.3752 7.13542 17.5002 6.59375V4.03125C20.0835 4.61458 22.1877 5.92187 23.8127 7.95312C25.4377 9.98437 26.2502 12.3229 26.2502 14.9687C26.2502 17.6146 25.4377 19.9531 23.8127 21.9844C22.1877 24.0156 20.0835 25.3229 17.5002 25.9062ZM3.75018 18.75V11.25H8.75018L15.0002 5V25L8.75018 18.75H3.75018ZM17.5002 20V9.9375C18.4793 10.3958 19.245 11.0833 19.7971 12C20.3491 12.9167 20.6252 13.9167 20.6252 15C20.6252 16.0625 20.3491 17.0469 19.7971 17.9531C19.245 18.8594 18.4793 19.5417 17.5002 20ZM12.5002 11.0625L9.81268 13.75H6.25018V16.25H9.81268L12.5002 18.9375V11.0625Z" fill="white"/>
</g>
</svg>
