<svg width="30" height="30" viewBox="0 0 30 30" fill="none" xmlns="http://www.w3.org/2000/svg">
<mask id="mask0_82_24655" style="mask-type:alpha" maskUnits="userSpaceOnUse" x="0" y="0" width="30" height="30">
<rect width="30" height="30" fill="#D9D9D9"/>
</mask>
<g mask="url(#mask0_82_24655)">
<path d="M23.6875 27.5C21.0833 27.5 18.5104 26.9323 15.9687 25.7969C13.4271 24.6615 11.1146 23.0521 9.03122 20.9688C6.94789 18.8854 5.33851 16.5729 4.20309 14.0312C3.06768 11.4896 2.49997 8.91667 2.49997 6.3125C2.49997 5.9375 2.62497 5.625 2.87497 5.375C3.12497 5.125 3.43747 5 3.81247 5H8.87497C9.16664 5 9.42705 5.09896 9.65622 5.29688C9.88539 5.49479 10.0208 5.72917 10.0625 6L10.875 10.375C10.9166 10.7083 10.9062 10.9896 10.8437 11.2188C10.7812 11.4479 10.6666 11.6458 10.5 11.8125L7.46872 14.875C7.88539 15.6458 8.38018 16.3906 8.95309 17.1094C9.52601 17.8281 10.1562 18.5208 10.8437 19.1875C11.4896 19.8333 12.1666 20.4323 12.875 20.9844C13.5833 21.5365 14.3333 22.0417 15.125 22.5L18.0625 19.5625C18.25 19.375 18.4948 19.2344 18.7968 19.1406C19.0989 19.0469 19.3958 19.0208 19.6875 19.0625L24 19.9375C24.2916 20.0208 24.5312 20.1719 24.7187 20.3906C24.9062 20.6094 25 20.8542 25 21.125V26.1875C25 26.5625 24.875 26.875 24.625 27.125C24.375 27.375 24.0625 27.5 23.6875 27.5ZM6.28122 12.5L8.34372 10.4375L7.81247 7.5H5.03122C5.13539 8.35417 5.28122 9.19792 5.46872 10.0312C5.65622 10.8646 5.92705 11.6875 6.28122 12.5ZM17.4687 23.6875C18.2812 24.0417 19.1093 24.3229 19.9531 24.5312C20.7968 24.7396 21.6458 24.875 22.5 24.9375V22.1875L19.5625 21.5938L17.4687 23.6875ZM21.25 15C19.5208 15 18.0468 14.3906 16.8281 13.1719C15.6093 11.9531 15 10.4792 15 8.75C15 7.02083 15.6093 5.54688 16.8281 4.32812C18.0468 3.10937 19.5208 2.5 21.25 2.5C22.9791 2.5 24.4531 3.10937 25.6718 4.32812C26.8906 5.54688 27.5 7.02083 27.5 8.75C27.5 10.4792 26.8906 11.9531 25.6718 13.1719C24.4531 14.3906 22.9791 15 21.25 15ZM20.625 12.5H21.875V7.5H20.625V12.5ZM21.25 6.25C21.4166 6.25 21.5625 6.1875 21.6875 6.0625C21.8125 5.9375 21.875 5.79167 21.875 5.625C21.875 5.45833 21.8125 5.3125 21.6875 5.1875C21.5625 5.0625 21.4166 5 21.25 5C21.0833 5 20.9375 5.0625 20.8125 5.1875C20.6875 5.3125 20.625 5.45833 20.625 5.625C20.625 5.79167 20.6875 5.9375 20.8125 6.0625C20.9375 6.1875 21.0833 6.25 21.25 6.25Z" fill="#DB444A"/>
</g>
</svg>
