<svg width="30" height="30" viewBox="0 0 30 30" fill="none" xmlns="http://www.w3.org/2000/svg">
<mask id="mask0_154_11" style="mask-type:alpha" maskUnits="userSpaceOnUse" x="0" y="0" width="30" height="30">
<rect width="30" height="30" fill="#D9D9D9"/>
</mask>
<g mask="url(#mask0_154_11)">
<path d="M4.99973 27.5V25H7.49973V21.25H6.24973C5.56223 21.25 4.97368 21.0052 4.4841 20.5156C3.99452 20.026 3.74973 19.4375 3.74973 18.75V16.25C3.74973 15.5625 3.99452 14.974 4.4841 14.4844C4.97368 13.9948 5.56223 13.75 6.24973 13.75H7.49973V10H4.99973V7.5H7.93723C8.45806 6.04167 9.3591 4.84375 10.6404 3.90625C11.9216 2.96875 13.3747 2.5 14.9997 2.5C16.6247 2.5 18.0779 2.96875 19.3591 3.90625C20.6404 4.84375 21.5414 6.04167 22.0622 7.5H24.9997V10H22.4997V13.75H23.7497C24.4372 13.75 25.0258 13.9948 25.5154 14.4844C26.0049 14.974 26.2497 15.5625 26.2497 16.25V18.75C26.2497 19.4375 26.0049 20.026 25.5154 20.5156C25.0258 21.0052 24.4372 21.25 23.7497 21.25H22.4997V25H24.9997V27.5H4.99973ZM10.656 7.5H19.3435C18.906 6.75 18.307 6.14583 17.5466 5.6875C16.7862 5.22917 15.9372 5 14.9997 5C14.0622 5 13.2133 5.22917 12.4529 5.6875C11.6924 6.14583 11.0935 6.75 10.656 7.5ZM9.99973 25H19.9997V18.75H23.7497V16.25H19.9997V10H9.99973V16.25H6.24973V18.75H9.99973V25ZM14.9997 21.875C16.2081 21.875 17.2393 21.4479 18.0935 20.5938C18.9476 19.7396 19.3747 18.7083 19.3747 17.5C19.3747 16.2917 18.9476 15.2604 18.0935 14.4063C17.2393 13.5521 16.2081 13.125 14.9997 13.125C13.7914 13.125 12.7601 13.5521 11.906 14.4063C11.0518 15.2604 10.6247 16.2917 10.6247 17.5C10.6247 18.7083 11.0518 19.7396 11.906 20.5938C12.7601 21.4479 13.7914 21.875 14.9997 21.875ZM14.9997 19.375C14.4789 19.375 14.0362 19.1927 13.6716 18.8281C13.307 18.4635 13.1247 18.0208 13.1247 17.5C13.1247 16.9792 13.307 16.5365 13.6716 16.1719C14.0362 15.8073 14.4789 15.625 14.9997 15.625C15.5206 15.625 15.9633 15.8073 16.3279 16.1719C16.6924 16.5365 16.8747 16.9792 16.8747 17.5C16.8747 18.0208 16.6924 18.4635 16.3279 18.8281C15.9633 19.1927 15.5206 19.375 14.9997 19.375Z" fill="white"/>
</g>
</svg>
