<svg width="30" height="30" viewBox="0 0 30 30" fill="none" xmlns="http://www.w3.org/2000/svg">
<mask id="mask0_154_8" style="mask-type:alpha" maskUnits="userSpaceOnUse" x="0" y="0" width="30" height="30">
<rect width="30" height="30" fill="#D9D9D9"/>
</mask>
<g mask="url(#mask0_154_8)">
<path d="M20.0002 16.25L14.8127 11.1875C14.1669 10.5625 13.62 9.86979 13.1721 9.10937C12.7242 8.34896 12.5002 7.52083 12.5002 6.625C12.5002 5.47917 12.9013 4.50521 13.7033 3.70312C14.5054 2.90104 15.4794 2.5 16.6252 2.5C17.2919 2.5 17.9169 2.64062 18.5002 2.92187C19.0835 3.20312 19.5835 3.58333 20.0002 4.0625C20.4169 3.58333 20.9169 3.20312 21.5002 2.92187C22.0835 2.64062 22.7085 2.5 23.3752 2.5C24.521 2.5 25.495 2.90104 26.2971 3.70312C27.0992 4.50521 27.5002 5.47917 27.5002 6.625C27.5002 7.52083 27.2815 8.34896 26.844 9.10937C26.4065 9.86979 25.8648 10.5625 25.219 11.1875L20.0002 16.25ZM20.0002 12.75L23.4065 9.40625C23.8023 9.01042 24.1669 8.58854 24.5002 8.14062C24.8335 7.69271 25.0002 7.1875 25.0002 6.625C25.0002 6.16667 24.844 5.78125 24.5315 5.46875C24.219 5.15625 23.8335 5 23.3752 5C23.0835 5 22.8075 5.05729 22.5471 5.17187C22.2867 5.28646 22.0627 5.45833 21.8752 5.6875L20.0002 7.9375L18.1252 5.6875C17.9377 5.45833 17.7138 5.28646 17.4533 5.17187C17.1929 5.05729 16.9169 5 16.6252 5C16.1669 5 15.7815 5.15625 15.469 5.46875C15.1565 5.78125 15.0002 6.16667 15.0002 6.625C15.0002 7.1875 15.1669 7.69271 15.5002 8.14062C15.8335 8.58854 16.1981 9.01042 16.594 9.40625L20.0002 12.75ZM8.75021 23.125L17.4377 25.5L24.8752 23.1875C24.771 23 24.62 22.8385 24.4221 22.7031C24.2242 22.5677 24.0002 22.5 23.7502 22.5H17.4377C16.8752 22.5 16.4273 22.4792 16.094 22.4375C15.7606 22.3958 15.4169 22.3125 15.0627 22.1875L12.1565 21.2187L12.844 18.7812L15.3752 19.625C15.7294 19.7292 16.146 19.8125 16.6252 19.875C17.1044 19.9375 17.8127 19.9792 18.7502 20C18.7502 19.7708 18.6825 19.5521 18.5471 19.3437C18.4117 19.1354 18.2502 19 18.0627 18.9375L10.7502 16.25H8.75021V23.125ZM1.25021 27.5V13.75H10.7502C10.896 13.75 11.0419 13.7656 11.1877 13.7969C11.3335 13.8281 11.469 13.8646 11.594 13.9062L18.9377 16.625C19.6252 16.875 20.1825 17.3125 20.6096 17.9375C21.0367 18.5625 21.2502 19.25 21.2502 20H23.7502C24.7919 20 25.6773 20.3437 26.4065 21.0312C27.1356 21.7187 27.5002 22.625 27.5002 23.75V25L17.5002 28.125L8.75021 25.6875V27.5H1.25021ZM3.75021 25H6.25021V16.25H3.75021V25Z" fill="white"/>
</g>
</svg>
