<svg width="30" height="30" viewBox="0 0 30 30" fill="none" xmlns="http://www.w3.org/2000/svg">
<mask id="mask0_154_2" style="mask-type:alpha" maskUnits="userSpaceOnUse" x="-1" y="0" width="31" height="30">
<rect x="-0.00012207" width="30" height="30" fill="#D9D9D9"/>
</mask>
<g mask="url(#mask0_154_2)">
<path d="M8.74976 26.25C7.70809 26.25 6.82267 25.8854 6.09351 25.1562C5.36434 24.4271 4.99976 23.5417 4.99976 22.5H3.74976C3.06226 22.5 2.47371 22.2552 1.98413 21.7656C1.49455 21.276 1.24976 20.6875 1.24976 20V13.75H14.9998V8.75C14.9998 8.0625 15.2445 7.47396 15.7341 6.98438C16.2237 6.49479 16.8123 6.25 17.4998 6.25H19.9998V5C19.9998 4.64583 20.1195 4.34896 20.3591 4.10937C20.5987 3.86979 20.8956 3.75 21.2498 3.75H22.4998C22.8539 3.75 23.1508 3.86979 23.3904 4.10937C23.63 4.34896 23.7498 4.64583 23.7498 5V6.25H24.4373C24.9789 6.25 25.4685 6.40625 25.906 6.71875C26.3435 7.03125 26.6456 7.44792 26.8123 7.96875L28.6248 13.3438C28.6664 13.4688 28.6977 13.599 28.7185 13.7344C28.7393 13.8698 28.7498 14.0104 28.7498 14.1562V22.5H24.9998C24.9998 23.5417 24.6352 24.4271 23.906 25.1562C23.1768 25.8854 22.2914 26.25 21.2498 26.25C20.2081 26.25 19.3227 25.8854 18.5935 25.1562C17.8643 24.4271 17.4998 23.5417 17.4998 22.5H12.4998C12.4998 23.5417 12.1352 24.4271 11.406 25.1562C10.6768 25.8854 9.79142 26.25 8.74976 26.25ZM8.74976 23.75C9.10392 23.75 9.4008 23.6302 9.64038 23.3906C9.87996 23.151 9.99976 22.8542 9.99976 22.5C9.99976 22.1458 9.87996 21.849 9.64038 21.6094C9.4008 21.3698 9.10392 21.25 8.74976 21.25C8.39559 21.25 8.09871 21.3698 7.85913 21.6094C7.61955 21.849 7.49976 22.1458 7.49976 22.5C7.49976 22.8542 7.61955 23.151 7.85913 23.3906C8.09871 23.6302 8.39559 23.75 8.74976 23.75ZM21.2498 23.75C21.6039 23.75 21.9008 23.6302 22.1404 23.3906C22.38 23.151 22.4998 22.8542 22.4998 22.5C22.4998 22.1458 22.38 21.849 22.1404 21.6094C21.9008 21.3698 21.6039 21.25 21.2498 21.25C20.8956 21.25 20.5987 21.3698 20.3591 21.6094C20.1195 21.849 19.9998 22.1458 19.9998 22.5C19.9998 22.8542 20.1195 23.151 20.3591 23.3906C20.5987 23.6302 20.8956 23.75 21.2498 23.75ZM3.74976 16.25V20H5.96851C6.32267 19.6042 6.73934 19.2969 7.21851 19.0781C7.69767 18.8594 8.20809 18.75 8.74976 18.75C9.29142 18.75 9.80184 18.8594 10.281 19.0781C10.7602 19.2969 11.1768 19.6042 11.531 20H14.9998V16.25H3.74976ZM17.4998 20H18.4685C18.8227 19.6042 19.2393 19.2969 19.7185 19.0781C20.1977 18.8594 20.7081 18.75 21.2498 18.75C21.7914 18.75 22.3018 18.8594 22.781 19.0781C23.2602 19.2969 23.6768 19.6042 24.031 20H26.2498V16.25H17.4998V20ZM17.4998 13.75H26.1248L24.4373 8.75H17.4998V13.75ZM1.24976 12.5V10.625H2.49976V8.125H1.24976V6.25H13.7498V8.125H12.4998V10.625H13.7498V12.5H1.24976ZM4.37476 10.625H6.56226V8.125H4.37476V10.625ZM8.43726 10.625H10.6248V8.125H8.43726V10.625Z" fill="white"/>
</g>
</svg>
