<svg width="186" height="40" viewBox="0 0 186 40" fill="none" xmlns="http://www.w3.org/2000/svg">
<path d="M145.96 20.7949C150.14 20.7949 153.53 23.747 153.53 27.3718C153.53 30.9966 150.13 33.9487 145.96 33.9487C141.79 33.9487 138.39 30.9966 138.39 27.3718C138.39 23.747 141.79 20.7949 145.96 20.7949ZM145.96 30.9866C148.1 30.9866 149.84 29.3599 149.84 27.3718C149.84 25.3837 148.1 23.757 145.96 23.757C143.82 23.757 142.08 25.3837 142.08 27.3718C142.08 29.3599 143.82 30.9866 145.96 30.9866Z" fill="white"/>
<path d="M155.24 2.44949V5.44172H148.36L148.43 5.66262C149.36 8.53436 153.11 10.0907 156.39 10.6028L155.01 13.5448C150.88 12.862 147.47 10.9542 146.1 8.52432L145.95 8.25321L145.81 8.53436C144.58 11.0145 141.02 13.0428 136.93 13.6051L135.55 10.6229C139.76 9.97022 142.72 8.11263 143.48 5.65258L143.55 5.43168H136.64V2.43945H155.24V2.44949Z" fill="white"/>
<path d="M147.81 12.4004V15.8846V16.0453H147.97H159.34V19.0074H132.59V16.0453H143.98H144.15V15.8846V12.4004H147.81Z" fill="white"/>
<path d="M181.25 2.58035V11.9285H166.77V14.0472C166.77 14.7702 167.36 15.3626 168.08 15.3626H181.84V18.4151H173.96V22.5018H185.49V25.494H158.74V22.5018H170.27V18.4151H167.42C165.04 18.4151 163.11 16.4771 163.11 14.0874V9.02669H177.56V5.56254H163.11V2.57031H181.25V2.58035Z" fill="white"/>
<path d="M81.6399 10.7132L83.9899 7.55029C84.5399 6.80725 84.6599 6.32528 84.6599 5.72282V3.13223H86.1799V5.72282C86.1799 6.32528 86.2899 6.80725 86.8499 7.55029L89.1999 10.7132L88.0399 11.5667L85.6899 8.40377L85.4399 8.02221L85.1699 8.40377L82.8199 11.5667L81.6599 10.7132H81.6399ZM90.7399 6.41565V2.29883H92.2799V14.579H90.7399V7.67078H88.0299V6.40561H90.7399V6.41565Z" fill="white"/>
<path d="M94.96 11.8068H101.41V11.0637H94.93V9.8789H98.19V8.925H93.29V7.68996H104.69V8.925H99.76V9.8789H102.95V12.9113H96.52V13.6945H103.32V14.8793H94.97V11.8068H94.96ZM95.45 4.68769C95.45 3.18154 96.9 2.11719 98.95 2.11719C101 2.11719 102.52 3.18154 102.52 4.68769C102.52 6.19384 101.06 7.21803 98.95 7.21803C96.84 7.21803 95.45 6.1838 95.45 4.68769ZM101.02 4.68769C101.02 3.92457 100.18 3.38236 98.96 3.38236C97.74 3.38236 96.95 3.92457 96.95 4.68769C96.95 5.45081 97.76 5.95286 98.96 5.95286C100.16 5.95286 101.02 5.44077 101.02 4.68769Z" fill="white"/>
<path d="M112.92 12.0487H105.08V10.7634H112.92V12.0487ZM108.78 2.96154C110.75 2.96154 112.11 4.29699 112.11 6.19475C112.11 8.0925 110.75 9.39783 108.78 9.39783C106.81 9.39783 105.49 8.07242 105.49 6.19475C105.49 4.31707 106.85 2.96154 108.78 2.96154ZM108.78 8.0925C109.9 8.0925 110.65 7.31934 110.65 6.18471C110.65 5.05007 109.9 4.24679 108.78 4.24679C107.66 4.24679 106.97 5.02999 106.97 6.18471C106.97 7.33942 107.71 8.0925 108.78 8.0925ZM115.19 14.589H113.63V2.29883H115.19V14.579V14.589Z" fill="white"/>
<path d="M123.46 4.10762H119.48V2.82236H124.91V4.10762C124.85 6.94923 122.27 8.29472 119.44 8.76665L119.21 7.3107C121.65 6.90906 123.41 6.0857 123.46 4.10762ZM127.67 11.4376V10.4837H121.18V9.27874H129.23V12.5822H122.75V13.6667H129.51V14.8816H121.2V11.4476H127.66L127.67 11.4376ZM127.67 2.32031H129.23V8.72649H127.67V2.32031Z" fill="white"/>
<path d="M30.5617 39.16H0V0C11.7488 2.01282 23.6203 3.01923 35.5 3.01923C47.3797 3.01923 59.2593 2.01282 71 0V39.16H40.4383V32.0824C40.4546 29.3741 38.1981 27.124 35.5 27.1404C32.8019 27.124 30.5454 29.3741 30.5617 32.0824V39.16Z" fill="white"/>
<g clip-path="url(#clip0_251_16)">
<mask id="mask0_251_16" style="mask-type:luminance" maskUnits="userSpaceOnUse" x="0" y="0" width="71" height="39">
<path d="M56.8082 1.91884C56.1418 1.98444 55.4754 2.05004 54.809 2.11564C50.8436 2.48465 46.8946 2.73886 42.9373 2.87826H42.9291C37.9517 3.05866 32.9825 3.05866 28.0051 2.87826C24.0561 2.73066 20.0988 2.48465 16.1334 2.10744C16.0922 2.10744 16.0511 2.09924 16.01 2.09924C10.6706 1.60723 5.33117 0.902019 0 0V39H30.5555V31.9479C30.5555 30.8408 30.9257 29.824 31.5428 29.004C31.8636 28.5776 32.2503 28.2086 32.6863 27.9052C33.4844 27.3558 34.4552 27.0278 35.5082 27.0278C36.6189 27.0278 37.639 27.3886 38.4618 28.0036C39.4243 28.717 40.1072 29.783 40.3458 30.9556C40.4116 31.2754 40.4445 31.6116 40.4445 31.9479V39H71V0C66.2694 0.803616 61.5388 1.44323 56.8082 1.91884Z" fill="white"/>
</mask>
<g mask="url(#mask0_251_16)">
<path d="M70.9918 0H0V39H70.9918V0Z" fill="url(#paint0_linear_251_16)"/>
</g>
<mask id="mask1_251_16" style="mask-type:luminance" maskUnits="userSpaceOnUse" x="56" y="0" width="15" height="39">
<path d="M56.8081 1.91884C63.5379 7.81476 67.7831 16.4495 67.7913 26.0765V38.9918H70.9999V0C66.2693 0.803616 61.5387 1.44323 56.8081 1.91884Z" fill="white"/>
</mask>
<g mask="url(#mask1_251_16)">
<path d="M70.9999 0H56.8081V39H70.9999V0Z" fill="url(#paint1_linear_251_16)"/>
</g>
<mask id="mask2_251_16" style="mask-type:luminance" maskUnits="userSpaceOnUse" x="16" y="1" width="41" height="3">
<path d="M27.9968 2.87739C28.1202 2.87739 28.2437 2.88559 28.3588 2.89379C28.2354 2.89379 28.1202 2.88559 27.9968 2.87739ZM16.1251 2.10657C16.084 2.10657 16.0428 2.09837 16.0017 2.09837C16.0428 2.09837 16.084 2.10657 16.1251 2.11477M54.809 2.11477C50.8435 2.48378 46.8945 2.73799 42.9373 2.87739H42.9291C38.0751 3.04959 33.2293 3.04959 28.3671 2.89379C33.2211 3.05779 38.0751 3.05779 42.9291 2.87739H42.9373C46.8863 2.73799 50.8435 2.48378 54.809 2.11477C55.4754 2.04917 56.1418 1.99177 56.8082 1.91797C56.1418 1.98357 55.4754 2.04917 54.809 2.11477Z" fill="white"/>
</mask>
<g mask="url(#mask2_251_16)">
<path d="M56.8082 1.91797H16.0017V3.04959H56.8082V1.91797Z" fill="url(#paint2_linear_251_16)"/>
</g>
<mask id="mask3_251_16" style="mask-type:luminance" maskUnits="userSpaceOnUse" x="27" y="23" width="17" height="16">
<path d="M27.5525 31.4483V39.0007H30.5554V31.9485C30.5554 30.8415 30.9256 29.8247 31.5426 29.0047C31.8635 28.5783 32.2502 28.2093 32.6862 27.9058C33.4842 27.3564 34.455 27.0284 35.5081 27.0284C36.6188 27.0284 37.6389 27.3892 38.4616 28.0042C39.4242 28.7177 40.1071 29.7837 40.3457 30.9563C40.4115 31.2761 40.4444 31.6123 40.4444 31.9485V39.0007H43.4473V31.4483C43.4473 27.0776 39.8932 23.5352 35.5081 23.5352C31.1231 23.5352 27.5689 27.0776 27.5689 31.4483" fill="white"/>
</mask>
<g mask="url(#mask3_251_16)">
<path d="M43.439 23.5352H27.5525V39.0007H43.439V23.5352Z" fill="url(#paint3_linear_251_16)"/>
</g>
<mask id="mask4_251_16" style="mask-type:luminance" maskUnits="userSpaceOnUse" x="24" y="19" width="23" height="20">
<path d="M24.0233 30.6693V39.0007H27.5527V31.4483C27.5527 27.0776 31.1068 23.5352 35.4919 23.5352C39.8769 23.5352 43.4311 27.0776 43.4311 31.4483V39.0007H46.9605V30.6693C46.9605 24.3552 41.8185 19.2383 35.4837 19.2383C29.1488 19.2383 24.0151 24.3552 24.0068 30.6693" fill="white"/>
</mask>
<g mask="url(#mask4_251_16)">
<path d="M46.9686 19.2383H24.0232V39.0007H46.9686V19.2383Z" fill="url(#paint4_linear_251_16)"/>
</g>
<mask id="mask5_251_16" style="mask-type:luminance" maskUnits="userSpaceOnUse" x="19" y="13" width="33" height="26">
<path d="M19.0869 29.5777V38.9997H24.0232V30.6683C24.0232 24.3542 29.1651 19.2373 35.5 19.2373C41.8349 19.2373 46.9686 24.3542 46.9768 30.6683V38.9997H51.9213V29.5777C51.9213 20.5493 44.5663 13.2266 35.5082 13.2266C26.4502 13.2266 19.0951 20.5493 19.0951 29.5777" fill="white"/>
</mask>
<g mask="url(#mask5_251_16)">
<path d="M51.9131 13.2266H19.0869V38.9997H51.9131V13.2266Z" fill="url(#paint5_linear_251_16)"/>
</g>
<mask id="mask6_251_16" style="mask-type:luminance" maskUnits="userSpaceOnUse" x="12" y="5" width="47" height="34">
<path d="M12.9906 28.2337V39.0005H19.0869V29.5785C19.0869 20.5502 26.442 13.2274 35.5 13.2274C44.5581 13.2274 51.9131 20.5502 51.9131 29.5785V39.0005H58.0012V28.2337C57.993 15.8515 47.9148 5.81445 35.4918 5.81445C23.0689 5.81445 12.9906 15.8515 12.9824 28.2337" fill="white"/>
</mask>
<g mask="url(#mask6_251_16)">
<path d="M58.0095 5.81445H12.9907V39.0005H58.0095V5.81445Z" fill="url(#paint6_linear_251_16)"/>
</g>
<mask id="mask7_251_16" style="mask-type:luminance" maskUnits="userSpaceOnUse" x="3" y="1" width="59" height="38">
<path d="M3.2085 26.0854V39.0007H12.0559V28.2339C12.0634 15.8516 21.1787 5.81461 32.4148 5.81461C43.6508 5.81461 52.7661 15.8516 52.7736 28.2339V39.0007H61.621V26.0854C61.621 16.4584 57.774 7.82365 51.6872 1.92773C51.0844 1.99334 50.4817 2.05894 49.879 2.12454C46.2924 2.48535 42.7207 2.74775 39.1415 2.88715H39.1341C34.6322 3.06756 30.1378 3.06756 25.6359 2.88715C22.0568 2.73955 18.485 2.49355 14.8984 2.11634C14.8612 2.11634 14.824 2.10814 14.7868 2.09994C14.2436 2.04254 13.693 1.98514 13.1498 1.92773C7.05554 7.81545 3.21594 16.4502 3.2085 26.0854Z" fill="white"/>
</mask>
<g mask="url(#mask7_251_16)">
<path d="M61.621 1.91992H3.2085V39.0011H61.621V1.91992Z" fill="url(#paint7_linear_251_16)"/>
</g>
</g>
<defs>
<linearGradient id="paint0_linear_251_16" x1="35.4368" y1="39.2043" x2="35.4368" y2="0.204349" gradientUnits="userSpaceOnUse">
<stop stop-color="#E23F40"/>
<stop offset="0.11" stop-color="#D93E43"/>
<stop offset="0.29" stop-color="#C03B4B"/>
<stop offset="0.51" stop-color="#98385A"/>
<stop offset="0.77" stop-color="#62336D"/>
<stop offset="1" stop-color="#2D2E81"/>
</linearGradient>
<linearGradient id="paint1_linear_251_16" x1="63.2807" y1="39.0528" x2="63.2807" y2="-1.47242" gradientUnits="userSpaceOnUse">
<stop stop-color="#E23F40"/>
<stop offset="0.11" stop-color="#D93E43"/>
<stop offset="0.29" stop-color="#C03B4B"/>
<stop offset="0.51" stop-color="#98385A"/>
<stop offset="0.77" stop-color="#62336D"/>
<stop offset="1" stop-color="#2D2E81"/>
</linearGradient>
<linearGradient id="paint2_linear_251_16" x1="35.7496" y1="39.6309" x2="35.7496" y2="2.54971" gradientUnits="userSpaceOnUse">
<stop stop-color="#E23F40"/>
<stop offset="0.11" stop-color="#D93E43"/>
<stop offset="0.29" stop-color="#C03B4B"/>
<stop offset="0.51" stop-color="#98385A"/>
<stop offset="0.77" stop-color="#62336D"/>
<stop offset="1" stop-color="#2D2E81"/>
</linearGradient>
<linearGradient id="paint3_linear_251_16" x1="35.5445" y1="39.0295" x2="35.5445" y2="23.564" gradientUnits="userSpaceOnUse">
<stop stop-color="#E23F40"/>
<stop offset="0.11" stop-color="#D93E43"/>
<stop offset="0.29" stop-color="#C03B4B"/>
<stop offset="0.51" stop-color="#98385A"/>
<stop offset="0.77" stop-color="#62336D"/>
<stop offset="1" stop-color="#2D2E81"/>
</linearGradient>
<linearGradient id="paint4_linear_251_16" x1="35.3495" y1="39.1909" x2="35.3495" y2="19.4285" gradientUnits="userSpaceOnUse">
<stop stop-color="#E23F40"/>
<stop offset="0.11" stop-color="#D93E43"/>
<stop offset="0.29" stop-color="#C03B4B"/>
<stop offset="0.51" stop-color="#98385A"/>
<stop offset="0.77" stop-color="#62336D"/>
<stop offset="1" stop-color="#2D2E81"/>
</linearGradient>
<linearGradient id="paint5_linear_251_16" x1="35.148" y1="39.3667" x2="35.148" y2="13.5936" gradientUnits="userSpaceOnUse">
<stop stop-color="#E23F40"/>
<stop offset="0.11" stop-color="#D93E43"/>
<stop offset="0.29" stop-color="#C03B4B"/>
<stop offset="0.51" stop-color="#98385A"/>
<stop offset="0.77" stop-color="#62336D"/>
<stop offset="1" stop-color="#2D2E81"/>
</linearGradient>
<linearGradient id="paint6_linear_251_16" x1="34.5794" y1="39.8209" x2="34.5794" y2="6.6348" gradientUnits="userSpaceOnUse">
<stop stop-color="#E23F40"/>
<stop offset="0.11" stop-color="#D93E43"/>
<stop offset="0.29" stop-color="#C03B4B"/>
<stop offset="0.51" stop-color="#98385A"/>
<stop offset="0.77" stop-color="#62336D"/>
<stop offset="1" stop-color="#2D2E81"/>
</linearGradient>
<linearGradient id="paint7_linear_251_16" x1="31.822" y1="39.641" x2="31.822" y2="2.55986" gradientUnits="userSpaceOnUse">
<stop stop-color="#E23F40"/>
<stop offset="0.11" stop-color="#D93E43"/>
<stop offset="0.29" stop-color="#C03B4B"/>
<stop offset="0.51" stop-color="#98385A"/>
<stop offset="0.77" stop-color="#62336D"/>
<stop offset="1" stop-color="#2D2E81"/>
</linearGradient>
<clipPath id="clip0_251_16">
<rect width="71" height="39" fill="white"/>
</clipPath>
</defs>
</svg>
