<svg width="70" height="78" viewBox="0 0 70 78" fill="none" xmlns="http://www.w3.org/2000/svg">
<g clip-path="url(#clip0_132_1776)">
<path d="M0.292969 56.0947V45.3408H1.55255L6.37582 53.4665H5.69994L10.4618 45.3408H11.7213L11.7355 56.0947H10.2609L10.2467 47.6618H10.6012L6.36164 54.7901H5.65504L1.38476 47.6618H1.7676V56.0947H0.292969Z" fill="#231F20"/>
<path d="M19.3095 56.2176C17.8964 56.2176 16.7857 55.8135 15.9775 55.0028C15.1692 54.1945 14.7651 53.0104 14.7651 51.4552V45.3408H16.3012V51.3937C16.3012 52.592 16.5659 53.4665 17.0929 54.0219C17.6199 54.575 18.3643 54.8515 19.3285 54.8515C20.2926 54.8515 21.0512 54.575 21.5782 54.0219C22.1052 53.4689 22.3699 52.5944 22.3699 51.3937V45.3408H23.8587V51.4552C23.8587 53.0127 23.4569 54.1945 22.6535 55.0028C21.85 55.8111 20.7369 56.2176 19.3119 56.2176H19.3095Z" fill="#C2212D"/>
<path d="M30.0312 56.2179C29.2112 56.2179 28.429 56.0926 27.6799 55.8421C26.9331 55.5916 26.3447 55.2654 25.9146 54.866L26.4841 53.6677C26.8929 54.0269 27.4152 54.3224 28.0509 54.5587C28.6866 54.7951 29.3459 54.9132 30.0312 54.9132C30.6551 54.9132 31.1632 54.8423 31.5508 54.6982C31.9407 54.554 32.2266 54.3578 32.411 54.1073C32.5953 53.8568 32.6874 53.5731 32.6874 53.2541C32.6874 52.8854 32.5669 52.5876 32.3259 52.363C32.0848 52.1385 31.7729 51.9565 31.3901 51.8171C31.0072 51.6776 30.5842 51.5594 30.1234 51.4554C29.6626 51.3538 29.1994 51.2333 28.7338 51.0938C28.2683 50.9567 27.8429 50.7795 27.4577 50.5644C27.0749 50.3493 26.7629 50.061 26.529 49.697C26.2927 49.333 26.1745 48.8651 26.1745 48.2907C26.1745 47.7164 26.321 47.2272 26.6117 46.7615C26.9047 46.2959 27.3537 45.9225 27.9634 45.6389C28.5731 45.3576 29.3483 45.2158 30.2912 45.2158C30.9151 45.2158 31.5342 45.2985 32.1486 45.4616C32.7631 45.6247 33.2948 45.8611 33.7462 46.1683L33.2381 47.3973C32.7772 47.0901 32.2904 46.8679 31.78 46.7285C31.2672 46.5914 30.7709 46.5205 30.2912 46.5205C29.6862 46.5205 29.1899 46.5985 28.8 46.7521C28.4101 46.9057 28.1265 47.1113 27.9469 47.3666C27.7673 47.6219 27.6775 47.9102 27.6775 48.2269C27.6775 48.6051 27.798 48.9076 28.0391 49.1321C28.2801 49.3567 28.592 49.5363 28.9749 49.6686C29.3577 49.801 29.7807 49.9215 30.2415 50.0303C30.7024 50.139 31.1656 50.2572 31.6311 50.3919C32.0967 50.5242 32.522 50.6991 32.9049 50.9142C33.2877 51.1293 33.5996 51.4153 33.8336 51.7745C34.0699 52.1338 34.1881 52.5946 34.1881 53.1572C34.1881 53.7197 34.0392 54.2042 33.7438 54.6698C33.446 55.1354 32.9876 55.5088 32.3684 55.7925C31.7493 56.0737 30.967 56.2155 30.0265 56.2155L30.0312 56.2179Z" fill="#231F20"/>
<path d="M36.3291 56.0947V45.3408H43.9173V46.6786H37.8652V54.7593H44.1324V56.0947H36.3291ZM37.7257 51.2874V49.9804H43.2556V51.2874H37.7257Z" fill="#231F20"/>
<path d="M50.9667 56.2176C49.5535 56.2176 48.4428 55.8135 47.6346 55.0028C46.8264 54.1945 46.4199 53.0104 46.4199 51.4552V45.3408H47.956V51.3937C47.956 52.592 48.2207 53.4665 48.7477 54.0219C49.2747 54.575 50.0191 54.8515 50.9832 54.8515C51.9474 54.8515 52.706 54.575 53.233 54.0219C53.76 53.4689 54.0247 52.5944 54.0247 51.3937V45.3408H55.5135V51.4552C55.5135 53.0127 55.1117 54.1945 54.3082 55.0028C53.5048 55.8111 52.3893 56.2176 50.9667 56.2176Z" fill="#231F20"/>
<path d="M58.5552 56.0947V45.3408H59.8148L64.638 53.4665H63.9622L68.724 45.3408H69.9836L70.0001 56.0947H68.5255L68.5113 47.6618H68.8658L64.6262 54.7901H63.9196L59.6493 47.6618H60.0322V56.0947H58.5575H58.5552Z" fill="#231F20"/>
<path d="M4.61531 34.077C3.18321 34.077 2.05597 33.6563 1.23358 32.8172C0.411195 31.9782 0 30.7279 0 29.0616V22.2666H0.569528V29.0451C0.569528 30.5672 0.921643 31.6993 1.62587 32.4438C2.3301 33.1883 3.32501 33.5594 4.61294 33.5594C5.90088 33.5594 6.89578 33.1883 7.60001 32.4438C8.30424 31.6993 8.65636 30.5672 8.65636 29.0451V22.2666H9.20934V29.0616C9.20934 30.7279 8.79815 31.9806 7.97576 32.8196C7.15337 33.6586 6.03322 34.0793 4.61058 34.0793L4.61531 34.077Z" fill="#231F20"/>
<path d="M14.7319 34.0112V22.2646H15.2022L23.8255 33.34H23.5395V22.2646H24.1091V34.0112H23.6388L15.0155 22.9359H15.3015V34.0112H14.7319Z" fill="#231F20"/>
<path d="M34.6469 34.077C33.7749 34.077 32.9667 33.9281 32.2223 33.6327C31.4779 33.3372 30.8304 32.9189 30.275 32.3824C29.722 31.8459 29.2943 31.2172 28.9918 30.4939C28.6893 29.7731 28.5381 28.986 28.5381 28.1352C28.5381 27.2843 28.6893 26.4996 28.9918 25.7764C29.2943 25.0555 29.722 24.4269 30.275 23.888C30.828 23.3515 31.4779 22.9355 32.2223 22.6377C32.9667 22.3423 33.7749 22.1934 34.6469 22.1934C35.4646 22.1934 36.2303 22.321 36.9463 22.5786C37.6624 22.8362 38.2721 23.2215 38.7754 23.7367L38.4398 24.122C37.9034 23.6067 37.3221 23.2451 36.6958 23.03C36.0696 22.8173 35.3937 22.711 34.6658 22.711C33.8718 22.711 33.1369 22.848 32.4586 23.1222C31.7804 23.3964 31.1919 23.7793 30.6886 24.2709C30.1852 24.7625 29.7953 25.3368 29.5235 25.9915C29.2494 26.6462 29.1123 27.36 29.1123 28.1305C29.1123 28.901 29.2494 29.6147 29.5235 30.2694C29.7977 30.9241 30.1852 31.4984 30.6886 31.99C31.1919 32.4816 31.7827 32.8645 32.4586 33.1387C33.1345 33.4129 33.8694 33.5499 34.6658 33.5499C35.3819 33.5499 36.0601 33.4412 36.7053 33.2238C37.3481 33.0063 37.9223 32.6447 38.4257 32.1413L38.7612 32.5596C38.2461 33.0631 37.6316 33.4412 36.9156 33.6918C36.1995 33.9423 35.4457 34.0699 34.6517 34.0699L34.6469 34.077ZM38.7589 32.5667L38.2224 32.5006V28.2226H38.7589V32.5691V32.5667Z" fill="#231F20"/>
<path d="M44.043 34.0112V22.2646H44.5132L53.1365 33.34H52.8506V22.2646H53.4201V34.0112H52.9498L44.3266 22.9359H44.6125V34.0112H44.043Z" fill="#231F20"/>
<path d="M63.9103 34.077C63.0477 34.077 62.249 33.9281 61.5117 33.6327C60.7743 33.3372 60.1292 32.9189 59.5809 32.3824C59.0327 31.8459 58.6073 31.2172 58.3048 30.4939C58.0023 29.7731 57.8511 28.986 57.8511 28.1352C57.8511 27.2843 58.0023 26.4996 58.3048 25.7764C58.6073 25.0555 59.0327 24.4269 59.5809 23.888C60.1292 23.3515 60.772 22.9355 61.5117 22.6377C62.249 22.3423 63.0548 22.1934 63.9268 22.1934C64.7988 22.1934 65.5882 22.3423 66.3255 22.6377C67.0628 22.9331 67.7032 23.3515 68.2467 23.888C68.7903 24.4245 69.2133 25.0508 69.5229 25.767C69.8301 26.4831 69.9837 27.2725 69.9837 28.1328C69.9837 28.9931 69.8301 29.7684 69.5229 30.4916C69.2156 31.2124 68.7903 31.8435 68.2467 32.38C67.7032 32.9165 67.0651 33.3349 66.3255 33.6303C65.5882 33.9257 64.7823 34.0746 63.9103 34.0746V34.077ZM63.9103 33.557C64.6925 33.557 65.4204 33.4223 66.0915 33.1552C66.7627 32.8882 67.3464 32.5053 67.845 32.0137C68.3436 31.5221 68.7288 30.9477 69.003 30.293C69.2771 29.6384 69.4142 28.9199 69.4142 28.1375C69.4142 27.3552 69.2771 26.6367 69.003 25.982C68.7288 25.3274 68.3436 24.7554 67.845 24.2614C67.3464 23.7698 66.7627 23.3893 66.0915 23.1198C65.4204 22.8504 64.6925 22.7181 63.9103 22.7181C63.1281 22.7181 62.4168 22.8528 61.7456 23.1198C61.0745 23.3893 60.4908 23.7698 59.9921 24.2614C59.4935 24.753 59.1083 25.3297 58.8342 25.9891C58.56 26.6485 58.423 27.3647 58.423 28.1375C58.423 28.9104 58.56 29.6384 58.8342 30.293C59.1083 30.9477 59.4935 31.5221 59.9921 32.0137C60.4908 32.5053 61.0745 32.8858 61.7456 33.1552C62.4168 33.4247 63.1375 33.557 63.9103 33.557Z" fill="#231F20"/>
<path d="M0 11.7466V0H0.569528V11.2266H7.44877V11.7466H0Z" fill="#231F20"/>
<path d="M30.1284 11.7466V0H37.83V0.519969H30.7003V11.2266H38.0664V11.7466H30.1308H30.1284ZM30.5987 6.04109V5.52112H37.0762V6.04109H30.5987Z" fill="#231F20"/>
<path d="M60.4009 11.7466V0H68.1025V0.519969H60.9728V11.2266H68.3388V11.7466H60.4032H60.4009ZM60.8712 6.04109V5.52112H67.3487V6.04109H60.8712Z" fill="#231F20"/>
<path d="M25.2839 63.0088H14.5645V64.1314H25.2839V63.0088Z" fill="#C2222D"/>
<path d="M8.72027 78.0001C10.6911 78.0001 12.2887 76.4022 12.2887 74.4312C12.2887 72.4601 10.6911 70.8623 8.72027 70.8623C6.74949 70.8623 5.15186 72.4601 5.15186 74.4312C5.15186 76.4022 6.74949 78.0001 8.72027 78.0001Z" fill="#C2222D"/>
<path d="M19.7515 78.0001C21.7223 78.0001 23.3199 76.4022 23.3199 74.4312C23.3199 72.4601 21.7223 70.8623 19.7515 70.8623C17.7807 70.8623 16.1831 72.4601 16.1831 74.4312C16.1831 76.4022 17.7807 78.0001 19.7515 78.0001Z" fill="#C2222D"/>
<path d="M30.0501 70.8623H26.8716V77.8275H30.0501V70.8623Z" fill="#C2222D"/>
<path d="M34.6937 74.7334H26.8716V77.8296H34.6937V74.7334Z" fill="#C2222D"/>
</g>
<defs>
<clipPath id="clip0_132_1776">
<rect width="70" height="78" fill="white"/>
</clipPath>
</defs>
</svg>
