<svg width="131" height="38" viewBox="0 0 131 38" fill="none" xmlns="http://www.w3.org/2000/svg">
<g clip-path="url(#clip0_65_8105)">
<path d="M15.708 3.94033C15.708 1.76571 17.4339 0 19.5658 0C21.6978 0 23.4237 1.76571 23.4237 3.94033C23.4237 6.11494 21.6978 7.88066 19.5658 7.88066C17.4339 7.88066 15.708 6.11494 15.708 3.94033Z" fill="#D82B36"/>
<path d="M3.0918 7.22023C3.0918 7.22023 2.39038 4.33004 0 5.31512C0 5.31512 2.41806 5.76119 1.68895 9.09746C0.959842 12.4337 3.11949 13.772 3.79322 13.7162C3.79322 13.7162 4.05164 8.4934 8.31556 8.0845C12.3949 7.69418 14.2592 12.1921 13.9085 13.5396C13.9085 13.5396 16.3911 9.06958 11.9242 5.73331C7.42032 2.35987 3.26715 6.81133 3.0918 7.22023Z" fill="#FDB913"/>
<path d="M13.8164 13.6792C13.8164 13.6792 5.9346 24.6452 21.5228 37.9531C21.5228 37.9531 11.9613 34.5797 8.34343 27.4611C4.86401 20.612 9.20176 14.4691 13.8164 13.6699V13.6792Z" fill="#FDB913"/>
<path d="M21.7255 37.9994C21.7255 37.9994 16.4925 32.4049 15.1912 26.039C13.9452 19.9613 15.6157 14.0415 20.3595 11.458C20.3595 11.458 24.7711 8.56778 32.4129 10.222C38.4396 11.5323 48.2319 13.4746 53.5572 7.48047C53.5572 7.48047 52.4681 15.5842 42.9066 17.9261C42.9066 17.9261 39.6394 18.6416 35.2832 18.2049C30.927 17.7681 24.282 15.6585 20.5072 19.5524C16.7417 23.4462 18.9936 32.4235 21.7162 37.9901L21.7255 37.9994Z" fill="#034EA2"/>
<path d="M21.7258 37.7955C21.7258 37.7955 20.9967 29.6267 25.6113 26.3184C29.9306 23.2237 36.4557 28.1027 42.2885 21.9877C42.2885 21.9877 39.972 22.9542 35.2928 22.2665C31.2319 21.6717 24.8914 19.0882 21.7996 24.0136C18.8555 28.716 21.7258 37.7955 21.7258 37.7955Z" fill="#034EA2"/>
<path d="M76.8704 9.2838L78.2548 10.6778V11.6071H67.715V9.21875H62.7773L63.9495 11.0774V16.3095L65.4446 18.0008H81.8081V9.27451H76.8704V9.2838ZM78.2548 16.0307H67.6596V13.7631H78.2548V16.0307Z" fill="white"/>
<path d="M83.0819 20.5H62.7222V22.5352H71.1577V28.2877H75.0986V22.5352H83.0819V20.5Z" fill="white"/>
<path d="M101.882 9.34961L103.331 10.9759V13.355H98.8547C97.7657 11.1153 95.5876 9.58194 93.068 9.58194C89.4594 9.58194 86.5337 12.7416 86.5337 16.6448C86.5337 20.5479 89.4594 23.7076 93.068 23.7076C95.3107 23.7076 97.2858 22.4809 98.4671 20.6223H103.322V28.2334H106.755V9.34961H101.873H101.882ZM93.2618 22.1278C91.379 22.1278 89.847 19.7116 89.847 16.7284C89.847 13.7453 91.3698 11.3198 93.2618 11.3198C95.1538 11.3198 96.6766 13.736 96.6766 16.7284C96.6766 19.7208 95.1538 22.1278 93.2618 22.1278ZM99.2885 18.8194C99.5008 18.1317 99.6115 17.3975 99.6115 16.6355C99.6115 16.0036 99.5285 15.3902 99.3808 14.8047H103.331V18.8194H99.2885Z" fill="white"/>
<path d="M112.191 11.7285V9.46094H128.73L130.105 10.92V16.1428H126.561V11.7285H112.191Z" fill="white"/>
<path d="M131 17.1367H111.083V19.0511H119.076V22.4246H122.629V19.0511H131V17.1367Z" fill="white"/>
<path d="M111.139 21.3184H115.966V26.1973H129.948V28.2325H114.249L112.412 26.6062V22.8239L111.139 21.3184Z" fill="white"/>
</g>
<defs>
<clipPath id="clip0_65_8105">
<rect width="131" height="38" fill="white"/>
</clipPath>
</defs>
</svg>
