<svg width="106" height="29" viewBox="0 0 106 29" fill="none" xmlns="http://www.w3.org/2000/svg">
<g clip-path="url(#clip0_153_260)">
<path d="M11.5887 2.90699C11.5887 1.30266 12.862 0 14.4349 0C16.0077 0 17.281 1.30266 17.281 2.90699C17.281 4.51131 16.0077 5.81397 14.4349 5.81397C12.862 5.81397 11.5887 4.51131 11.5887 2.90699Z" fill="#D82B36"/>
<path d="M2.28098 5.32739C2.28098 5.32739 1.76351 3.19515 0 3.92189C0 3.92189 1.78393 4.25099 1.24603 6.71232C0.708126 9.17366 2.30141 10.1609 2.79846 10.1198C2.79846 10.1198 2.98911 6.26668 6.13482 5.96501C9.14435 5.67705 10.5198 8.9954 10.261 9.98954C10.261 9.98954 12.0926 6.69176 8.7971 4.23042C5.47436 1.74165 2.41035 5.02572 2.28098 5.32739Z" fill="#FDB913"/>
<path d="M10.1929 10.0928C10.1929 10.0928 4.37808 18.183 15.8783 28.0009C15.8783 28.0009 8.8243 25.5122 6.15521 20.2604C3.58825 15.2074 6.78843 10.6756 10.1929 10.0859V10.0928Z" fill="#FDB913"/>
<path d="M16.0282 28.035C16.0282 28.035 12.1675 23.9076 11.2075 19.2112C10.2883 14.7273 11.5207 10.3599 15.0205 8.45394C15.0205 8.45394 18.2751 6.32169 23.9129 7.54208C28.3591 8.50879 35.5833 9.94171 39.5121 5.51953C39.5121 5.51953 38.7086 11.498 31.6546 13.2258C31.6546 13.2258 29.2442 13.7537 26.0304 13.4315C22.8166 13.1092 17.9142 11.5529 15.1294 14.4256C12.3514 17.2983 14.0127 23.9213 16.0214 28.0281L16.0282 28.035Z" fill="#034EA2"/>
<path d="M16.0281 27.8828C16.0281 27.8828 15.4902 21.8563 18.8947 19.4156C22.0812 17.1325 26.8951 20.7319 31.1983 16.2206C31.1983 16.2206 29.4893 16.9336 26.0372 16.4263C23.0413 15.9875 18.3636 14.0815 16.0826 17.7152C13.9105 21.1844 16.0281 27.8828 16.0281 27.8828Z" fill="#034EA2"/>
<path d="M56.7114 6.84877L57.7327 7.87719V8.5628H49.957V6.80078H46.3142L47.1789 8.172V12.032L48.282 13.2798H60.3542V6.84192H56.7114V6.84877ZM57.7327 11.8263H49.9161V10.1534H57.7327V11.8263Z" fill="#1D1D1D"/>
<path d="M61.2937 15.125H46.2733V16.6265H52.4966V20.8704H55.4041V16.6265H61.2937V15.125Z" fill="#1D1D1D"/>
<path d="M75.1635 6.89648L76.2325 8.0963V9.85146H72.9302C72.1268 8.19914 70.5199 7.06789 68.661 7.06789C65.9987 7.06789 63.8403 9.39896 63.8403 12.2785C63.8403 15.1581 65.9987 17.4892 68.661 17.4892C70.3156 17.4892 71.7727 16.5842 72.6442 15.2129H76.2257V20.8281H78.7586V6.89648H75.1567H75.1635ZM68.804 16.3236C67.415 16.3236 66.2847 14.541 66.2847 12.3402C66.2847 10.1394 67.4082 8.34998 68.804 8.34998C70.1998 8.34998 71.3233 10.1326 71.3233 12.3402C71.3233 14.5479 70.1998 16.3236 68.804 16.3236ZM73.2502 13.8828C73.4068 13.3755 73.4885 12.8339 73.4885 12.2717C73.4885 11.8054 73.4273 11.3529 73.3183 10.921H76.2325V13.8828H73.2502Z" fill="#1D1D1D"/>
<path d="M82.7689 8.6514V6.97852H94.9705L95.985 8.05492V11.9081H93.3704V8.6514H82.7689Z" fill="#1D1D1D"/>
<path d="M96.6455 12.6426H81.9519V14.0549H87.8484V16.5437H90.4698V14.0549H96.6455V12.6426Z" fill="#1D1D1D"/>
<path d="M81.9928 15.7266H85.5539V19.326H95.8693V20.8275H84.2874L82.9324 19.6277V16.8372L81.9928 15.7266Z" fill="#1D1D1D"/>
</g>
<line x1="104.523" y1="6.64063" x2="104.523" y2="21.3957" stroke="#555555" stroke-opacity="0.5"/>
<defs>
<clipPath id="clip0_153_260">
<rect width="96.6455" height="28.0346" fill="white"/>
</clipPath>
</defs>
</svg>
