<svg width="106" height="29" viewBox="0 0 106 29" fill="none" xmlns="http://www.w3.org/2000/svg">
<g clip-path="url(#clip0_153_259)">
<path d="M11.5887 3.11988C11.5887 1.51555 12.862 0.212891 14.4349 0.212891C16.0077 0.212891 17.281 1.51555 17.281 3.11988C17.281 4.7242 16.0077 6.02686 14.4349 6.02686C12.862 6.02686 11.5887 4.7242 11.5887 3.11988Z" fill="#D82B36"/>
<path d="M2.28098 5.54028C2.28098 5.54028 1.76351 3.40804 0 4.13478C0 4.13478 1.78393 4.46388 1.24603 6.92522C0.708126 9.38655 2.30141 10.3738 2.79846 10.3327C2.79846 10.3327 2.98911 6.47957 6.13482 6.1779C9.14435 5.88994 10.5198 9.2083 10.261 10.2024C10.261 10.2024 12.0926 6.90465 8.7971 4.44331C5.47436 1.95454 2.41035 5.23861 2.28098 5.54028Z" fill="#FDB913"/>
<path d="M10.1929 10.3057C10.1929 10.3057 4.37808 18.3959 15.8783 28.2138C15.8783 28.2138 8.8243 25.725 6.15521 20.4733C3.58825 15.4203 6.78843 10.8885 10.1929 10.2988V10.3057Z" fill="#FDB913"/>
<path d="M16.0282 28.2478C16.0282 28.2478 12.1675 24.1205 11.2075 19.424C10.2883 14.9402 11.5207 10.5728 15.0205 8.66683C15.0205 8.66683 18.2751 6.53459 23.9129 7.75497C28.3591 8.72168 35.5833 10.1546 39.5121 5.73242C39.5121 5.73242 38.7086 11.7109 31.6546 13.4387C31.6546 13.4387 29.2442 13.9666 26.0304 13.6444C22.8166 13.3221 17.9142 11.7658 15.1294 14.6385C12.3514 17.5112 14.0127 24.1342 16.0214 28.241L16.0282 28.2478Z" fill="#034EA2"/>
<path d="M16.0281 28.0957C16.0281 28.0957 15.4902 22.0692 18.8947 19.6284C22.0812 17.3454 26.8951 20.9448 31.1983 16.4335C31.1983 16.4335 29.4893 17.1465 26.0372 16.6392C23.0413 16.2004 18.3636 14.2944 16.0826 17.9281C13.9105 21.3973 16.0281 28.0957 16.0281 28.0957Z" fill="#034EA2"/>
<path d="M56.7114 7.06166L57.7327 8.09008V8.77569H49.957V7.01367H46.3142L47.1789 8.38489V12.2449L48.282 13.4927H60.3542V7.05481H56.7114V7.06166ZM57.7327 12.0392H49.9161V10.3663H57.7327V12.0392Z" fill="white"/>
<path d="M61.2937 15.3379H46.2733V16.8394H52.4966V21.0833H55.4041V16.8394H61.2937V15.3379Z" fill="white"/>
<path d="M75.1635 7.10938L76.2325 8.30919V10.0644H72.9302C72.1268 8.41203 70.5199 7.28078 68.661 7.28078C65.9987 7.28078 63.8403 9.61185 63.8403 12.4914C63.8403 15.371 65.9987 17.702 68.661 17.702C70.3156 17.702 71.7727 16.797 72.6442 15.4258H76.2257V21.041H78.7586V7.10938H75.1567H75.1635ZM68.804 16.5365C67.415 16.5365 66.2847 14.7539 66.2847 12.5531C66.2847 10.3523 67.4082 8.56287 68.804 8.56287C70.1998 8.56287 71.3233 10.3455 71.3233 12.5531C71.3233 14.7608 70.1998 16.5365 68.804 16.5365ZM73.2502 14.0957C73.4068 13.5884 73.4885 13.0468 73.4885 12.4846C73.4885 12.0183 73.4273 11.5658 73.3183 11.1339H76.2325V14.0957H73.2502Z" fill="white"/>
<path d="M82.7689 8.86429V7.19141H94.9705L95.985 8.26781V12.1209H93.3704V8.86429H82.7689Z" fill="white"/>
<path d="M96.6455 12.8555H81.9519V14.2678H87.8484V16.7566H90.4698V14.2678H96.6455V12.8555Z" fill="white"/>
<path d="M81.9928 15.9395H85.5539V19.5389H95.8693V21.0404H84.2874L82.9324 19.8406V17.0501L81.9928 15.9395Z" fill="white"/>
</g>
<line x1="104.523" y1="6.85352" x2="104.523" y2="21.6086" stroke="white" stroke-opacity="0.3"/>
<defs>
<clipPath id="clip0_153_259">
<rect width="96.6455" height="28.0346" fill="white" transform="translate(0 0.212891)"/>
</clipPath>
</defs>
</svg>
